<svg width="600" height="450" viewbox = "0 0 600 450"  xmlns="http://www.w3.org/2000/svg">
<!--<json>{
  "glyph": "0231,0335,0337,0342,0335,0342,0335,0342,0335,0342,0300,0235,0235,0235,0235,",
  "x0": 300,
  "y0": 225,
  "unit": 172.6135607196552,
  "width": 600,
  "height": 450,
  "style": {
    "color0": "black",
    "fill0": "black",
    "line0": 1,
    "color1": "black",
    "fill1": "black",
    "line1": 5,
    "color2": "red",
    "fill2": "red",
    "line2": 2,
    "color3": "#FF7900",
    "fill3": "#FF7900",
    "line3": 2,
    "color4": "yellow",
    "fill4": "yellow",
    "line4": 2,
    "color5": "green",
    "fill5": "green",
    "line5": 2,
    "color6": "blue",
    "fill6": "blue",
    "line6": 2,
    "color7": "purple",
    "fill7": "purple",
    "line7": 2
  },
  "shapes": [
    "0220:0304,0313,0320,0200,0322,0336,0332,0337,0342,0336,0330,0333,0334,0337,0342,0336,0335,0331,0336,0332,0337,0342,0336,0333,0330,0334,0337,0342,0335,0336,0331,0336,0332,0337,0342,0336,0333,0330,0334,0337,0342,0335,0336,0331,0336,0332,0337,0342,0336,0333,0330,0334,0337,0342,0335,0336,0331,0337,0337,0337,0337,",
    "0221:0304,0320,0362,0203,0334,0350,0334,0310,0337,0203,0334,0334,0334,0336,0203,0354,0334,0334,0334,0336,0322,0201,0335,0335,0335,0336,0201,0334,0334,0334,0336,0201,0335,0335,0335,0336,0201,0334,0334,0334,0336,0201,0335,0335,0335,0336,0201,0334,0334,0334,0336,0201,0335,0335,0335,0336,0201,0334,0334,0330,0337,0337,0337,0337,0337,0337,0337,0337,0331,0313,0304,0320,",
    "0222:0306,0320,0362,0203,0334,0334,0203,0334,0334,0203,0354,0334,0334,0313,0336,0322,0330,0334,0201,0334,0334,0201,0334,0334,0201,0334,0331,0337,0320,",
    "0223:0304,0335,0335,0331,0306,0350,0362,0203,0335,0335,0335,0335,0335,0312,0336,0203,0335,0335,0203,0354,0335,0335,0335,0335,0335,0337,0322,0335,0336,0330,0334,0334,0334,0334,0313,0336,0342,0337,0312,0335,0336,0342,0334,0334,0342,0330,0335,0335,0335,0335,0335,0336,0201,0334,0334,0342,0335,0335,0334,0334,0334,0336,0342,0334,0334,0342,0335,0335,0335,0335,0335,0337,0331,0335,0337,0330,0334,0337,0331,0334,0337,0320,0330,0304,0335,0335,0306,0350,",
    "0224:0305,0311,0362,0203,0334,0334,0203,0334,0350,0334,0336,0203,0354,0334,0334,0334,0337,0322,0336,0334,0201,0335,0335,0335,0335,0336,0201,0334,0334,0334,0334,0201,0335,0335,0335,0336,0335,0201,0334,0334,0334,0334,0201,0335,0335,0335,0335,0336,0201,0334,0334,0334,0334,0201,0335,0335,0335,0335,0336,0201,0334,0334,0334,0334,0201,0335,0335,0335,0335,0336,0201,0334,0334,0334,0337,0330,0337,0337,0337,0337,0337,0331,0320,",
    "0225:0304,0330,0335,0335,0305,0350,0311,0362,0203,0335,0335,0335,0335,0336,0203,0335,0335,0203,0354,0335,0335,0335,0322,0335,0335,0330,0334,0334,0334,0336,0334,0342,0335,0342,0330,0335,0335,0335,0336,0335,0201,0334,0334,0334,0334,0201,0335,0335,0335,0335,0336,0201,0334,0334,0334,0334,0201,0335,0335,0335,0336,0335,0201,0334,0334,0334,0334,0342,0335,0331,0337,0331,0337,0331,0335,0335,0337,0335,0331,0335,0336,0201,0335,0335,0335,0335,0201,0334,0334,0334,0334,0336,0201,0335,0335,0335,0335,0201,0334,0334,0334,0334,0336,0201,0335,0335,0335,0335,0201,0335,0335,0335,0331,0337,0337,0337,0337,0337,0320,0304,0335,0335,0331,0305,0350,",
    "0226:0313,0333,0342,0336,0332,0342,0336,0333,0342,0332,0332,0342,0336,0332,0342,0333,0333,0342,0333,0333,0342,0333,0333,0342,0333,0337,0337,0337,",
    "0227:0313,0336,0333,0337,0316,0336,0342,0313,0336,0332,0342,0332,0342,0332,0342,0332,0342,0333,0333,0333,0333,0333,0342,0333,0342,0333,0342,0333,0342,0333,0337,0316,0337,0313,",
    "0230:0322,0226,0226,0226,0226,0226,0226,0334,0226,0334,0227,0227,0227,0227,0227,0227,0334,0227,0334,0320,0362,0203,0335,0203,0203,0203,0203,0203,0203,0335,0203,0335,0203,0203,0203,0203,0203,0203,0335,0354,0313,",
    "0231:0330,0337,0335,0311,0337,0313,0336,0331,0337,0362,0203,0335,0311,0336,0203,0335,0337,0203,0335,0336,0203,0354,0335,0337,0313,0336,0330,0337,0311,0336,0334,0313,0336,0331,0332,0342,0335,0335,0332,0332,0342,0335,0335,0332,",
    "0232:0210,0231,",
    "0233:0313,0304,0336,0332,0336,0336,0330,0334,0362,0203,0334,0203,0335,0203,0203,0203,0335,0203,0203,0203,0335,0203,0334,0203,0203,0334,0203,0335,0203,0203,0203,0335,0203,0203,0203,0335,0203,0334,0203,0203,0334,0203,0335,0203,0203,0203,0335,0203,0203,0203,0335,0203,0334,0203,0203,0334,0203,0335,0203,0203,0203,0335,0203,0203,0203,0335,0203,0334,0203,0354,0335,0331,0333,0333,0333,0333,0337,0337,0337,",
    "0234:0336,0336,0336,0330,0362,0203,0203,0334,0203,0335,0203,0203,0335,0203,0334,0203,0203,0203,0334,0203,0203,0203,0203,0203,0203,0203,0334,0203,0203,0203,0335,0203,0334,0203,0203,0334,0203,0335,0203,0203,0334,0203,0203,0335,0203,0334,0203,0203,0334,0203,0335,0203,0203,0203,0354,0334,0331,0337,0337,0337,",
    "0235:0322,0232,0323,0232,0324,0232,0325,0232,0326,0232,0327,0232,",
    "0236:0313,0336,0316,0336,0332,0336,0347,0337,0333,0333,0336,0347,0337,0332,0337,0313,0337,",
    "0237:0200,0336,0330,0332,0336,0330,0325,0235,0331,0331,0335,0335,0235,0331,0322,0335,0330,0235,0331,0335,0335,0330,0235,0334,0326,0330,0235,0331,0331,0335,0335,0235,0333,0333,0325,0336,0341,0335,0335,0330,0330,0330,0330,0322,0341,0320,0337,0350,0335,0304,0236,0350,0335,0304,0330,0236,0330,0350,0335,0304,0236,0350,0335,0304,0330,0236,0330,0350,0335,0304,0236,0350,0335,0304,0330,0236,0330,0350,0335,0304,0236,0350,0335,0330,0304,0236,0333,0331,0333,0336,0331,0333,0337,0314,0337,0200,0336,0313,0336,0331,0333,0337,0337,0337,0336,0336,0330,0332,0327,0336,0330,0332,0336,0336,0332,0332,0332,0332,0331,0331,0331,0332,0332,0332,0333,0333,070,040,0147,0162,0145,0145,0156,0365,0332,0332,0332,0332,0332,0332,0332,0332,061,061,040,0147,0162,0145,0171,0365,061,060,040,0160,0165,0162,0160,0154,0145,0330,0330,0330,0330,0330,0330,0332,0332,0365,061,062,040,0167,0150,0151,0164,0145,0330,0330,0330,0330,0330,0330,0330,0365,071,040,0142,0154,0165,0145,0333,0333,0333,0333,0333,0333,0333,0333,0333,0365,065,040,0162,0145,0144,0333,0333,0333,0333,0333,0333,0333,0333,0333,0365,067,040,0171,0145,0154,0154,0157,0167,0331,0331,0331,0331,0331,0332,0365,066,040,0157,0162,0141,0156,0147,0145,0331,0331,0331,0331,0331,0331,0331,0331,0365,0331,0331,0331,0331,0331,0331,0333,0333,0333,0333,0333,0331,0331,0333,0333,0331,0333,0333,0333,0337,0337,0337,0337,0337,0320,0336,0332,0336,0336,0336,0332,0201,0201,0201,0335,0201,0201,0335,0201,0201,0201,0335,0335,0333,0333,0333,0333,0333,0333,0333,0337,0337,0337,0337,",
    "01220:0333,0220,",
    "01221:0333,0221,",
    "01222:0333,0222,0304,",
    "01223:0333,0223,0314,0304,0313,",
    "01224:0333,0224,0313,0304,",
    "01225:0333,0225,0313,0304,",
    "01226:0226,0200,",
    "01227:0227,0200,",
    "01230:0230,0333,0333,0333,0333,0333,0333,",
    "01231:0333,0200,0336,0330,0332,0336,0231,0313,0337,0331,0333,0337,",
    "01232:0333,0232,",
    "01233:0333,0233,",
    "01234:0333,0234,",
    "01235:0333,0200,0336,0330,0332,0235,0331,0333,0337,",
    "01236:0333,0200,0336,0330,0332,0236,0331,0333,0337,",
    "01237:0333,0237,",
    "0240:0220,0336,0331,0333,0336,0321,0335,0342,0335,0335,0342,0335,0330,0330,0332,0332,0337,0337,",
    "01240:0333,0200,0336,0330,0332,0210,0240,0211,0333,0331,0337,",
    "0241:0220,0336,0321,0343,0332,0350,0335,0336,0342,0334,0334,0342,0335,0304,0337,0333,0337,",
    "01241:0333,0200,0336,0332,0330,0210,0241,0211,0333,0331,0337,",
    "0242:0220,0321,0336,0343,0333,0336,0350,0335,0342,0334,0334,0342,0335,0337,0304,0332,0337,",
    "01242:0333,0200,0336,0330,0332,0210,0242,0211,0333,0331,0337,",
    "0243:0220,0336,0331,0332,0336,0321,0343,0332,0350,0334,0336,0342,0335,0335,0342,0337,0334,0334,0335,0304,0332,0330,0330,0337,0337,0333,",
    "01243:0333,0200,0336,0330,0332,0210,0243,0211,0333,0331,0337,",
    "0244:0220,0336,0331,0333,0336,0321,0343,0333,0350,0336,0335,0342,0334,0334,0342,0335,0337,0304,0333,0330,0330,0337,0337,0332,",
    "01244:0333,0200,0336,0330,0332,0210,0244,0211,0333,0331,0337,",
    "0245:0210,0332,0332,0362,0335,0203,0203,0203,0203,0334,0203,0363,0332,0332,0331,0211,",
    "01245:0333,0200,0336,0330,0332,0336,0245,0337,0333,0331,0337,",
    "0246:0210,0332,0332,0335,0306,0336,0330,0335,0335,0335,0321,0362,0203,0335,0335,0203,0364,0331,0350,0335,0337,0366,0333,0333,0333,0333,0334,0334,0334,0334,0367,0335,0336,0342,0334,0334,0342,0330,0330,0330,0330,0335,0335,0335,0304,0337,0211,",
    "01246:0333,0200,0336,0330,0332,0336,0246,",
    "0247:0330,0332,0336,0332,0336,0221,0333,0333,0333,0222,0333,0333,0333,0223,0333,0333,0333,0225,0333,0331,0331,0331,0332,0332,0332,0332,0332,0332,0332,0332,0332,0332,0332,0332,0333,0333,0226,0331,0331,0331,0333,0333,0333,0333,0333,0333,0333,0333,0333,0333,0333,0333,0333,0330,0333,0330,0330,0333,0330,0331,0332,0332,0332,0332,0332,0332,0332,0332,0332,0332,0332,0332,0227,0333,0333,0333,0230,0333,0331,0331,0331,0331,0332,0332,0332,0330,0332,0332,0332,0332,0332,0332,0333,0333,0231,0333,0333,0333,0232,0331,0333,0330,0333,0333,0233,0333,0333,0333,0234,0330,0330,0332,0330,0332,0332,0337,0337,",
    "01247:0333,0200,0336,0330,0332,0220,0336,0247,0337,0331,0333,0337,"
  ]
}</json>-->	<path d = "M21 52 L579 52 L579 398 L21 398 L21 52 Z" stroke = "#000000" stroke-width = "1" fill = "none" />    <line x1="127" y1="225" x2="127" y2="52" style="stroke:#000000;stroke-width:1" />
    <line x1="473" y1="225" x2="473" y2="398" style="stroke:#000000;stroke-width:1" />
    <line x1="300" y1="225" x2="645" y2="225" style="stroke:#000000;stroke-width:1" />
    <line x1="300" y1="225" x2="300" y2="570" style="stroke:#000000;stroke-width:1" />
    <line x1="300" y1="225" x2="-45" y2="225" style="stroke:#000000;stroke-width:1" />
    <line x1="300" y1="225" x2="300" y2="-120" style="stroke:#000000;stroke-width:1" />
	<path d = "M56 74 L544 74 L544 376 L56 376 L56 74 Z" stroke = "#ff0000" stroke-width = "2" fill = "none" />    <line x1="149" y1="225" x2="149" y2="74" style="stroke:#ff0000;stroke-width:2" />
    <line x1="451" y1="225" x2="451" y2="376" style="stroke:#ff0000;stroke-width:2" />
	<path d = "M87 93 L513 93 L513 357 L87 357 L87 93 Z" stroke = "#ff7900" stroke-width = "2" fill = "none" />    <line x1="168" y1="225" x2="168" y2="93" style="stroke:#ff7900;stroke-width:2" />
    <line x1="432" y1="225" x2="432" y2="357" style="stroke:#ff7900;stroke-width:2" />
	<path d = "M114 110 L486 110 L486 340 L114 340 L114 110 Z" stroke = "#ffff00" stroke-width = "2" fill = "none" />    <line x1="185" y1="225" x2="185" y2="110" style="stroke:#ffff00;stroke-width:2" />
    <line x1="415" y1="225" x2="415" y2="340" style="stroke:#ffff00;stroke-width:2" />
	<path d = "M137 124 L463 124 L463 326 L137 326 L137 124 Z" stroke = "#008000" stroke-width = "2" fill = "none" />    <line x1="199" y1="225" x2="199" y2="124" style="stroke:#008000;stroke-width:2" />
    <line x1="401" y1="225" x2="401" y2="326" style="stroke:#008000;stroke-width:2" />
	<path d = "M158 137 L442 137 L442 313 L158 313 L158 137 Z" stroke = "#0000ff" stroke-width = "2" fill = "none" />    <line x1="212" y1="225" x2="212" y2="137" style="stroke:#0000ff;stroke-width:2" />
    <line x1="388" y1="225" x2="388" y2="313" style="stroke:#0000ff;stroke-width:2" />
	<path d = "M175 148 L425 148 L425 302 L175 302 L175 148 Z" stroke = "#800080" stroke-width = "2" fill = "none" />    <line x1="223" y1="225" x2="223" y2="148" style="stroke:#800080;stroke-width:2" />
    <line x1="377" y1="225" x2="377" y2="302" style="stroke:#800080;stroke-width:2" />
	<path d = "M191 158 L409 158 L409 292 L191 292 L191 158 Z" stroke = "#ff0000" stroke-width = "2" fill = "none" />    <line x1="233" y1="225" x2="233" y2="158" style="stroke:#ff0000;stroke-width:2" />
    <line x1="367" y1="225" x2="367" y2="292" style="stroke:#ff0000;stroke-width:2" />
	<path d = "M205 166 L395 166 L395 284 L205 284 L205 166 Z" stroke = "#ff7900" stroke-width = "2" fill = "none" />    <line x1="241" y1="225" x2="241" y2="166" style="stroke:#ff7900;stroke-width:2" />
    <line x1="359" y1="225" x2="359" y2="284" style="stroke:#ff7900;stroke-width:2" />
	<path d = "M217 174 L383 174 L383 276 L217 276 L217 174 Z" stroke = "#ffff00" stroke-width = "2" fill = "none" />    <line x1="249" y1="225" x2="249" y2="174" style="stroke:#ffff00;stroke-width:2" />
    <line x1="351" y1="225" x2="351" y2="276" style="stroke:#ffff00;stroke-width:2" />
	<path d = "M227 180 L373 180 L373 270 L227 270 L227 180 Z" stroke = "#008000" stroke-width = "2" fill = "none" />    <line x1="255" y1="225" x2="255" y2="180" style="stroke:#008000;stroke-width:2" />
    <line x1="345" y1="225" x2="345" y2="270" style="stroke:#008000;stroke-width:2" />
	<path d = "M236 186 L364 186 L364 264 L236 264 L236 186 Z" stroke = "#0000ff" stroke-width = "2" fill = "none" />    <line x1="261" y1="225" x2="261" y2="186" style="stroke:#0000ff;stroke-width:2" />
    <line x1="339" y1="225" x2="339" y2="264" style="stroke:#0000ff;stroke-width:2" />
	<path d = "M244 191 L356 191 L356 259 L244 259 L244 191 Z" stroke = "#800080" stroke-width = "2" fill = "none" />    <line x1="266" y1="225" x2="266" y2="191" style="stroke:#800080;stroke-width:2" />
    <line x1="334" y1="225" x2="334" y2="259" style="stroke:#800080;stroke-width:2" />
	<path d = "M251 195 L349 195 L349 255 L251 255 L251 195 Z" stroke = "#ff0000" stroke-width = "2" fill = "none" />    <line x1="270" y1="225" x2="270" y2="195" style="stroke:#ff0000;stroke-width:2" />
    <line x1="330" y1="225" x2="330" y2="255" style="stroke:#ff0000;stroke-width:2" />
	<path d = "M258 199 L342 199 L342 251 L258 251 L258 199 Z" stroke = "#ff7900" stroke-width = "2" fill = "none" />    <line x1="274" y1="225" x2="274" y2="199" style="stroke:#ff7900;stroke-width:2" />
    <line x1="326" y1="225" x2="326" y2="251" style="stroke:#ff7900;stroke-width:2" />
	<path d = "M263 202 L337 202 L337 248 L263 248 L263 202 Z" stroke = "#ffff00" stroke-width = "2" fill = "none" />    <line x1="277" y1="225" x2="277" y2="202" style="stroke:#ffff00;stroke-width:2" />
    <line x1="323" y1="225" x2="323" y2="248" style="stroke:#ffff00;stroke-width:2" />
	<path d = "M268 205 L332 205 L332 245 L268 245 L268 205 Z" stroke = "#008000" stroke-width = "2" fill = "none" />    <line x1="280" y1="225" x2="280" y2="205" style="stroke:#008000;stroke-width:2" />
    <line x1="320" y1="225" x2="320" y2="245" style="stroke:#008000;stroke-width:2" />
	<path d = "M272 207 L328 207 L328 243 L272 243 L272 207 Z" stroke = "#0000ff" stroke-width = "2" fill = "none" />    <line x1="282" y1="225" x2="282" y2="207" style="stroke:#0000ff;stroke-width:2" />
    <line x1="318" y1="225" x2="318" y2="243" style="stroke:#0000ff;stroke-width:2" />
	<path d = "M275 210 L325 210 L325 240 L275 240 L275 210 Z" stroke = "#800080" stroke-width = "2" fill = "none" />    <line x1="285" y1="225" x2="285" y2="210" style="stroke:#800080;stroke-width:2" />
    <line x1="315" y1="225" x2="315" y2="240" style="stroke:#800080;stroke-width:2" />
	<path d = "M278 212 L322 212 L322 238 L278 238 L278 212 Z" stroke = "#ff0000" stroke-width = "2" fill = "none" />    <line x1="287" y1="225" x2="287" y2="212" style="stroke:#ff0000;stroke-width:2" />
    <line x1="313" y1="225" x2="313" y2="238" style="stroke:#ff0000;stroke-width:2" />
	<path d = "M281 213 L319 213 L319 237 L281 237 L281 213 Z" stroke = "#ff7900" stroke-width = "2" fill = "none" />    <line x1="288" y1="225" x2="288" y2="213" style="stroke:#ff7900;stroke-width:2" />
    <line x1="312" y1="225" x2="312" y2="237" style="stroke:#ff7900;stroke-width:2" />
	<path d = "M283 215 L317 215 L317 235 L283 235 L283 215 Z" stroke = "#ffff00" stroke-width = "2" fill = "none" />    <line x1="290" y1="225" x2="290" y2="215" style="stroke:#ffff00;stroke-width:2" />
    <line x1="310" y1="225" x2="310" y2="235" style="stroke:#ffff00;stroke-width:2" />
	<path d = "M286 216 L314 216 L314 234 L286 234 L286 216 Z" stroke = "#008000" stroke-width = "2" fill = "none" />    <line x1="291" y1="225" x2="291" y2="216" style="stroke:#008000;stroke-width:2" />
    <line x1="309" y1="225" x2="309" y2="234" style="stroke:#008000;stroke-width:2" />
	<path d = "M287 217 L313 217 L313 233 L287 233 L287 217 Z" stroke = "#0000ff" stroke-width = "2" fill = "none" />    <line x1="292" y1="225" x2="292" y2="217" style="stroke:#0000ff;stroke-width:2" />
    <line x1="308" y1="225" x2="308" y2="233" style="stroke:#0000ff;stroke-width:2" />
	<path d = "M289 218 L311 218 L311 232 L289 232 L289 218 Z" stroke = "#800080" stroke-width = "2" fill = "none" />    <line x1="293" y1="225" x2="293" y2="218" style="stroke:#800080;stroke-width:2" />
    <line x1="307" y1="225" x2="307" y2="232" style="stroke:#800080;stroke-width:2" />
</svg>