<?xml version="1.0" encoding="UTF-8" standalone="no"?>
<!-- Created with Inkscape (http://www.inkscape.org/) -->

<svg
   width="210mm"
   height="297mm"
   viewBox="0 0 210 297"
   version="1.1"
   id="svg5"
   inkscape:version="1.1.1 (3bf5ae0d25, 2021-09-20)"
   sodipodi:docname="qrcode.svg"
   xmlns:inkscape="http://www.inkscape.org/namespaces/inkscape"
   xmlns:sodipodi="http://sodipodi.sourceforge.net/DTD/sodipodi-0.dtd"
   xmlns="http://www.w3.org/2000/svg"
   xmlns:svg="http://www.w3.org/2000/svg">
  <sodipodi:namedview
     id="namedview7"
     pagecolor="#ffffff"
     bordercolor="#666666"
     borderopacity="1.0"
     inkscape:pageshadow="2"
     inkscape:pageopacity="0.0"
     inkscape:pagecheckerboard="0"
     inkscape:document-units="mm"
     showgrid="false"
     inkscape:zoom="0.63250561"
     inkscape:cx="-7.9050682"
     inkscape:cy="738.33337"
     inkscape:window-width="1440"
     inkscape:window-height="938"
     inkscape:window-x="-6"
     inkscape:window-y="-6"
     inkscape:window-maximized="1"
     inkscape:current-layer="layer1" />
  <defs
     id="defs2" />
  <g
     inkscape:label="Layer 1"
     inkscape:groupmode="layer"
     id="layer1">
    <path
       style="fill:#000000;stroke-width:0.264583"
       d="m 13.627938,192.61072 v -14.41979 h 14.287499 14.2875 v 14.41979 14.41979 h -14.2875 -14.287499 z m 24.606249,-0.13229 V 182.15968 H 27.915437 17.596688 v 10.31875 10.31875 h 10.318749 10.31875 z m -16.404166,0 v -6.08542 h 6.085416 6.085417 v 6.08542 6.08541 h -6.085417 -6.085416 z m 53.181247,12.43541 v -2.11666 h -1.984375 -1.984374 v -2.11667 -2.11667 h -4.101042 -4.101041 v 2.11667 2.11667 h -4.101042 -4.101041 v -4.10104 -4.10105 H 52.521686 50.40502 v 1.98438 1.98437 H 48.420645 46.43627 v -6.08541 -6.08542 h 1.984375 1.984375 v -2.11667 -2.11666 h 6.217708 6.217708 v -1.98438 -1.98437 h 4.101041 4.101042 v -4.10104 -4.10104 h -2.116667 -2.116667 v 1.98437 1.98437 H 64.82481 62.840436 v -1.98437 -1.98437 h 1.984374 1.984375 v -2.11667 -2.11667 H 64.82481 62.840436 v -1.98437 -1.98438 h -4.101042 -4.101041 v 1.98438 1.98437 H 52.521686 50.40502 v 2.11667 2.11667 h 4.101041 4.101041 v 4.10104 4.10104 H 52.521686 46.43627 v -2.11667 -2.11667 h 1.984375 1.984375 v -1.98437 -1.98437 H 48.420645 46.43627 v -2.11667 -2.11667 h -4.101042 -4.101041 v 2.11667 2.11667 h 1.984375 1.984375 v 1.98437 1.98437 h -1.984375 -1.984375 v -1.98437 -1.98437 H 36.11752 34.000854 v -4.10105 -4.10104 h -1.984375 -1.984375 v -2.11666 -2.11667 h -2.116667 -2.116666 v -1.98438 -1.98437 h -1.984375 -1.984375 v 1.98437 1.98438 h -2.116667 -2.116666 v 8.20208 8.20208 h -1.984375 -1.984375 v -8.20208 -8.20208 h 1.984375 1.984375 v -6.08542 -6.08541 h -1.984375 -1.984375 v -6.21771 -6.21771 h 1.984375 1.984375 v -1.98437 -1.98438 h -1.984375 -1.984375 v -6.21771 -6.21771 h 4.101041 4.101042 v 2.11667 2.11667 h -2.116667 -2.116666 v 4.10104 4.10104 h 2.116666 2.116667 v -2.11667 -2.11666 h 1.984375 1.984375 v 4.10104 4.10104 h -1.984375 -1.984375 v 2.11667 2.11666 h 1.984375 1.984375 v 1.98438 1.98437 h -4.101042 -4.101041 v 2.11667 2.11667 h 4.101041 4.101042 v 1.98437 1.98438 h 2.116666 2.116667 v -4.10105 -4.10104 h 4.101041 4.101042 v -1.98437 -1.98438 H 36.11752 34.000854 v -4.10104 -4.10104 h -1.984375 -1.984375 v -2.11667 -2.11666 h 1.984375 1.984375 v 2.11666 2.11667 h 4.101041 4.101042 v -2.11667 -2.11666 h -1.984375 -1.984375 v -1.98438 -1.98437 h 1.984375 1.984375 v -2.11667 -2.11667 h -4.101042 -4.101041 v 2.11667 2.11667 h -1.984375 -1.984375 v -2.11667 -2.11667 h -2.116667 -2.116666 v -1.98437 -1.98438 h -4.101042 -4.101041 v -2.11666 -2.11667 h 2.116666 2.116667 v -1.98437 -1.98438 h 6.085416 6.085417 v 1.98438 1.98437 h -4.101042 -4.101041 v 2.11667 2.11666 H 36.11752 46.43627 V 102.25552 91.936768 h 1.984375 1.984375 v -4.10104 -4.10104 H 48.420645 46.43627 v -6.08542 -6.08542 h 6.085416 6.085416 v 1.98438 1.98437 h 4.101042 4.101041 v -1.98437 -1.98438 h 2.116667 2.116667 v 1.98438 1.98437 h 1.984374 1.984375 v 8.20209 8.20208 h 2.11667 2.11666 v -1.98437 -1.98438 h 4.10104 4.10105 v 4.10104 4.10104 h 1.98437 1.98438 v 1.98437 1.984382 h 2.11666 2.11667 v -1.984382 -1.98437 h 1.98437 1.98438 v 4.101042 4.10104 h 4.101042 4.10104 v -2.11666 -2.11667 h -1.98437 -1.98438 v -4.101042 -4.10104 h 6.08542 6.08541 v 4.10104 4.101042 h -1.98437 -1.98437 v 2.11667 2.11666 h 8.20208 8.20208 v 1.98438 1.98437 h -2.11667 -2.11666 v 2.11667 2.11666 h 2.11666 2.11667 v 1.98438 1.98437 h -2.11667 -2.11666 v 2.11667 2.11667 h -1.98438 -1.98437 v 1.98437 1.98438 h 4.10104 4.10104 v 2.11666 2.11667 h -2.11667 -2.11666 v 1.98438 1.98437 h 2.11666 2.11667 v 2.11667 2.11666 h 4.10104 4.10104 v -2.11666 -2.11667 h -2.11666 -2.11667 v -1.98437 -1.98438 h 2.11667 2.11666 v -2.11667 -2.11666 h 1.98438 1.98437 v -1.98438 -1.98437 h -1.98437 -1.98438 v -2.11667 -2.11667 h -2.11666 -2.11667 v -1.98437 -1.98438 h 4.10104 4.10104 v -2.11666 -2.11667 h -1.98437 -1.98438 v -1.98437 -1.98438 h 6.21771 6.21771 v 4.10104 4.10104 h -2.11667 -2.11666 v 1.98438 1.98437 h 2.11666 2.11667 v 2.11667 2.11667 h -2.11667 -2.11666 v 1.98437 1.98438 h 2.11666 2.11667 v 2.11666 2.11667 h -2.11667 -2.11666 v 1.98438 1.98437 h 2.11666 2.11667 v 2.11667 2.11666 h -2.11667 -2.11666 v 1.98438 1.98437 h -8.20209 -8.20208 v -1.98437 -1.98438 h -2.11667 -2.11666 v -2.11666 -2.11667 h -1.98438 -1.98437 v 4.10104 4.10104 h 1.98437 1.98438 v 2.11667 2.11667 h 2.11666 2.11667 v 1.98437 1.98438 h 4.10104 4.10104 v -1.98438 -1.98437 h 6.21771 6.21771 v 8.20208 8.20208 h -2.11667 -2.11666 v 1.98438 1.98437 h 2.11666 2.11667 v 2.11667 2.11667 h -2.11667 -2.11666 v -2.11667 -2.11667 h -2.11667 -2.11667 v 2.11667 2.11667 h -1.98437 -1.98438 v 4.10104 4.10104 h -2.11666 -2.11667 v 1.98437 1.98438 h 4.10104 4.10104 v -4.10104 -4.10105 h 4.23334 4.23333 v 2.11667 2.11667 h -2.11667 -2.11666 v 1.98437 1.98438 h 2.11666 2.11667 v 4.10104 4.10104 h -2.11667 -2.11666 v 2.11667 2.11666 h -2.11667 -2.11667 v -4.10104 -4.10104 h -1.98437 -1.98438 v 4.10104 4.10104 h -4.10104 -4.10104 v -2.11666 -2.11667 h -4.10104 -4.10104 v 2.11667 2.11666 h 1.98437 1.98438 v 1.98438 1.98437 h 2.11666 2.11667 v 2.11667 2.11667 h -2.11667 -2.11666 v 2.11666 2.11667 h -1.98438 -1.98437 v -2.11667 -2.11666 h 1.98437 1.98438 v -2.11667 -2.11667 h -4.10104 -4.10105 v -4.10104 -4.10104 h -1.98437 -1.98437 v -4.10104 -4.10104 h -4.10105 -4.10104 v -4.10104 -4.10105 h -4.101042 -4.10104 v -1.98437 -1.98437 h -6.21771 -6.21771 v 1.98437 1.98437 h -1.98437 -1.98438 v 2.11667 2.11667 h 1.98438 1.98437 v 1.98437 1.98438 h -1.98437 -1.98438 v 2.11666 2.11667 h 1.98438 1.98437 v 1.98438 1.98437 h 2.11667 2.11667 v 4.10104 4.10104 h 1.98437 1.98438 v -1.98437 -1.98438 h 4.10104 4.10104 v -2.11666 -2.11667 h -1.98438 -1.98437 v -1.98437 -1.98438 h 6.085422 6.08541 v 1.98438 1.98437 h -1.98437 -1.98438 v 2.11667 2.11666 h 1.98438 1.98437 v 1.98438 1.98437 h -1.98437 -1.98438 v 2.11667 2.11667 h -2.11666 -2.116672 v 2.11666 2.11667 h -6.08542 -6.08541 v -2.11667 -2.11666 h -2.11667 -2.11667 v -2.11667 -2.11667 h -4.10104 -4.10104 v 2.11667 2.11667 h 2.11667 2.11666 v 2.11666 2.11667 h -2.11666 -2.11667 z m 20.6375,-4.23333 v -2.11667 h -2.11667 -2.11666 v 2.11667 2.11667 h 2.11666 2.11667 z m -20.6375,-4.10104 v -1.98438 h 2.11667 2.11666 v -2.11666 -2.11667 H 66.941477 54.638353 v 2.11667 2.11666 h 8.202083 8.202083 v 1.98438 1.98437 h 1.984374 1.984375 z m -8.202083,-12.30313 v -2.11666 H 64.82481 62.840436 v 2.11666 2.11667 h 1.984374 1.984375 z m 8.202083,0 v -2.11666 h 2.11667 2.11666 v -1.98438 -1.98437 h -2.11666 -2.11667 v 1.98437 1.98438 h -1.984375 -1.984374 v 2.11666 2.11667 h 1.984374 1.984375 z M 128.4571,180.1753 v -6.21771 h -6.21771 -6.21771 v 6.21771 6.21771 h 6.21771 6.21771 z m -8.20208,0 v -1.98437 h 1.98437 1.98438 v 1.98437 1.98438 h -1.98438 -1.98437 z m -8.20208,-8.20208 v -6.21771 h 1.98437 1.98437 v 2.11667 2.11667 h 8.20209 8.20208 v -2.11667 -2.11667 h -1.98437 -1.98438 v -1.98437 -1.98438 h 1.98438 1.98437 v -2.11666 -2.11667 h -1.98437 -1.98438 v 2.11667 2.11666 h -2.11667 -2.11666 v -2.11666 -2.11667 h -4.10104 -4.10105 v -1.98438 -1.98437 h 2.11667 2.11667 v -2.11667 -2.11666 h -2.11667 -2.11667 v -1.98438 -1.98437 h -4.10104 -4.10104 v -4.10105 -4.10104 h 2.11667 2.11667 v 1.98438 1.98437 h 1.98437 1.98437 v -1.98437 -1.98438 h -1.98437 -1.98437 v -4.10104 -4.10104 h 1.98437 1.98437 v 1.98438 1.98437 h 2.11667 2.11667 v -1.98437 -1.98438 h -2.11667 -2.11667 v -2.11667 -2.11666 h -1.98437 -1.98437 v 2.11666 2.11667 h -2.11667 -2.11667 v 4.10104 4.10104 h -6.08541 -6.085422 v 1.98438 1.98437 h -6.21771 -6.21771 v -1.98437 -1.98438 h -1.98437 -1.98438 v -2.11666 -2.11667 h 1.98438 1.98437 v -1.98437 -1.98438 h 4.10104 4.10105 v 1.98438 1.98437 h -1.98438 -1.98437 v 2.11667 2.11666 h 1.98437 1.98438 v -2.11666 -2.11667 h 2.11666 2.11667 v -1.98437 -1.98438 h 1.98437 1.98438 v 1.98438 1.98437 h 2.116672 2.11666 v -4.10104 -4.10104 h 1.98438 1.98437 v -1.98438 -1.98437 h -1.98437 -1.98438 v 1.98437 1.98438 h -2.11666 -2.116672 v -1.98438 -1.98437 h -1.98438 -1.98437 v 1.98437 1.98438 h -6.21771 -6.21771 v -1.98438 -1.98437 h 2.11667 2.11667 v -4.10104 -4.10105 h 4.10104 4.10104 v 1.98438 1.98437 h 1.98437 1.98438 v -1.98437 -1.98438 h -1.98438 -1.98437 v -4.10104 -4.10104 h -2.11667 -2.11666 v -2.11666 -2.11667 h -1.98438 -1.98437 v -1.984382 -1.98437 h -2.11667 -2.11667 v -2.11667 -2.11666 h -1.98437 -1.98438 v 2.11666 2.11667 h -2.11666 -2.11667 v -2.11667 -2.11666 h -1.984375 -1.984374 v -6.08542 -6.08541 h -2.116667 -2.116667 v 4.10104 4.10104 h -4.101041 -4.101042 v -2.11667 -2.11666 h -1.984374 -1.984375 v 4.10104 4.10104 h 4.101041 4.101042 v 2.11666 2.11667 h -2.116667 -2.116667 v 4.101042 4.10104 h 2.116667 2.116667 v 1.98438 1.98437 h -4.101042 -4.101041 v -1.98437 -1.98438 H 52.521686 50.40502 v 6.08542 6.08541 H 48.420645 46.43627 v 6.21771 6.21771 h -2.116667 -2.116666 v 1.98438 1.98437 h -1.984375 -1.984375 v 2.11667 2.11666 h 1.984375 1.984375 v -2.11666 -2.11667 h 2.116666 2.116667 v 2.11667 2.11666 h 1.984375 1.984375 v 1.98438 1.98437 h -6.085417 -6.085416 v 2.11667 2.11667 H 36.11752 34.000854 v 4.10104 4.10104 h -1.984375 -1.984375 v 1.98437 1.98438 h 4.101041 4.101042 v 2.11667 2.11666 h 1.984375 1.984375 v -2.11666 -2.11667 h -1.984375 -1.984375 v -1.98438 -1.98437 h 4.101041 4.101042 v 1.98437 1.98438 h 10.186458 10.186457 v -4.10104 -4.10104 H 56.622728 46.43627 v -1.98438 -1.98437 h 1.984375 1.984375 v -2.11667 -2.11667 h 4.101041 4.101041 v 2.11667 2.11667 h 6.217708 6.217709 v 8.20208 8.20208 h -2.116667 -2.116667 v 1.98438 1.98437 h 2.116667 2.116667 v 2.11667 2.11667 h 6.085419 6.08541 v -2.11667 -2.11667 h 6.21771 6.21771 v -4.10104 -4.10104 h 4.10104 4.101042 v 4.10104 4.10104 h 1.98438 1.98437 v 2.11667 2.11667 h -1.98437 -1.98438 v 1.98437 1.98437 h 1.98438 1.98437 v 2.11667 2.11667 h 2.11667 2.11667 z m -41.010421,-8.20208 v -1.98438 h 1.984374 1.984375 v 1.98438 1.98437 h -1.984375 -1.984374 z m 8.202079,0 v -1.98438 h 1.98438 1.98437 v -4.10104 -4.10104 h 2.11667 2.11667 v 1.98437 1.98438 h 1.98437 1.98438 v 2.11667 2.11666 h -4.10105 -4.10104 v 1.98438 1.98437 h -1.98437 -1.98438 z m 32.808342,-4.10104 v -2.11667 h 1.98437 1.98437 v 2.11667 2.11666 h -1.98437 -1.98437 z m -8.20209,-4.10105 v -1.98437 h -2.11666 -2.116672 v -4.10104 -4.10104 h 4.101042 4.10104 v 1.98437 1.98438 h 4.10104 4.10104 v 2.11666 2.11667 h -4.10104 -4.10104 v 1.98437 1.98438 h -1.98437 -1.98438 z m -28.839582,-4.10104 v -2.11666 h 2.11667 2.11666 v -1.98438 -1.98437 h 1.98438 1.98437 v 1.98437 1.98438 h -1.98437 -1.98438 v 2.11666 2.11667 h -2.11666 -2.11667 z m 16.40417,0 v -2.11666 h -1.98438 -1.98437 v -1.98438 -1.98437 h 1.98437 1.98438 v 1.98437 1.98438 h 2.11666 2.11667 v 2.11666 2.11667 h -2.11667 -2.11666 z m -53.181251,-4.10104 v -1.98437 h 1.984375 1.984375 v 1.98437 1.98438 h -1.984375 -1.984375 z m 24.606249,-14.41979 v -8.20208 h -2.116667 -2.116667 v 2.11666 2.11667 H 54.506061 50.40502 v 1.98438 1.98437 h 4.101041 4.101041 v 2.11667 2.11666 H 54.506061 50.40502 v -2.11666 -2.11667 H 48.420645 46.43627 v -1.98437 -1.98438 h 1.984375 1.984375 v -4.10104 -4.10104 h 6.217708 6.217708 v 1.98437 1.98438 h 4.101041 4.101042 v 4.10104 4.10104 h 1.984374 1.984375 v -4.10104 -4.10104 h 4.10104 4.10104 v 2.11666 2.11667 h -1.98437 -1.98438 v 1.98438 1.98437 h -2.11666 -2.11667 v 2.11667 2.11666 h 2.11667 2.11666 v 1.98438 1.98437 H 75.14356 71.042519 v -1.98437 -1.98438 h -2.116667 -2.116667 v 1.98438 1.98437 H 64.82481 62.840436 Z m 12.170832,-14.2875 v -2.11667 h -1.984375 -1.984374 v -1.98437 -1.98438 h 1.984374 1.984375 v 1.98438 1.98437 h 2.11667 2.11666 v -1.98437 -1.98438 h 1.98438 1.98437 v -2.11666 -2.11667 h -1.98437 -1.98438 v -1.98437 -1.98438 h -2.11666 -2.11667 v 1.98438 1.98437 h -1.984375 -1.984374 v -6.08541 -6.085422 h 1.984374 1.984375 v 1.98437 1.984382 h 2.11667 2.11666 v -1.984382 -1.98437 h 1.98438 1.98437 v 1.98437 1.984382 h 2.11667 2.11667 v 2.11667 2.11666 h 1.98437 1.98438 v 1.98438 1.98437 h -1.98438 -1.98437 v 2.11667 2.11666 h -2.11667 -2.11667 v 1.98438 1.98437 h -1.98437 -1.98438 v 2.11667 2.11667 h -2.11666 -2.11667 z m 12.43542,-12.30312 v -1.98438 h -2.11667 -2.11667 v -2.11666 -2.11667 h -1.98437 -1.98438 v 2.11667 2.11666 h 1.98438 1.98437 v 1.98438 1.98437 h 2.11667 2.11667 z m -32.808335,8.20208 v -1.98438 h 1.984375 1.984374 v 1.98438 1.98437 h -1.984374 -1.984375 z m 8.202083,-4.10104 v -2.11667 h 1.984374 1.984375 v 2.11667 2.11666 H 64.82481 62.840436 Z m 0,-12.303132 v -1.98437 h 1.984374 1.984375 v 1.98437 1.984382 H 64.82481 62.840436 Z m 77.787494,65.616672 v -1.98438 h 2.11667 2.11667 v -2.11666 -2.11667 h -2.11667 -2.11667 v -1.98438 -1.98437 h 2.11667 2.11667 v -2.11667 -2.11666 h -2.11667 -2.11667 v 2.11666 2.11667 h -1.98437 -1.98438 v 1.98437 1.98438 h 1.98438 1.98437 v 2.11667 2.11666 h -1.98437 -1.98438 v 1.98438 1.98437 h 1.98438 1.98437 z m 4.23334,-36.90938 v -2.11666 h -2.11667 -2.11667 v 2.11666 2.11667 h 2.11667 2.11667 z m -24.60625,-8.20208 v -2.11667 h -2.11667 -2.11667 v -1.98437 -1.98438 h -1.98437 -1.98437 v -2.11666 -2.11667 h -4.10105 -4.10104 v 4.10104 4.10104 h 4.10104 4.10105 v 2.11667 2.11667 h 4.10104 4.10104 z M 54.638353,98.154468 v -1.98437 H 52.521686 50.40502 v 1.98437 1.984382 h 2.116666 2.116667 z m 57.414587,0 v -1.98437 h -2.11667 -2.11667 v 1.98437 1.984382 h 2.11667 2.11667 z m -53.445838,-20.5052 v -2.11667 H 54.506061 50.40502 v 2.11667 2.11667 h 4.101041 4.101041 z M 107.8196,204.91384 v -2.11666 h 4.10104 4.10104 v 2.11666 2.11667 h -4.10104 -4.10104 z m 28.83958,0 v -2.11666 h -2.11666 -2.11667 v -2.11667 -2.11667 h 2.11667 2.11666 v 2.11667 2.11667 h 4.10105 4.10104 v 2.11666 2.11667 h -4.10104 -4.10105 z M 87.446688,180.1753 v -1.98437 h 4.10104 4.10104 v 1.98437 1.98438 h -4.10104 -4.10104 z m -65.616667,-8.20208 v -1.98437 h 4.101041 4.101042 v 1.98437 1.98437 h -4.101042 -4.101041 z m 16.404166,-65.61666 v -1.98438 h 1.984375 1.984375 v 1.98438 1.98437 H 40.218562 38.234187 Z M 13.627938,85.851348 v -14.2875 h 14.287499 14.2875 v 14.2875 14.287502 h -14.2875 -14.287499 z m 24.606249,0 V 75.532598 H 27.915437 17.596688 v 10.31875 10.31875 h 10.318749 10.31875 z m -16.404166,0 v -6.08541 h 6.085416 6.085417 v 6.08541 6.08542 h -6.085417 -6.085416 z m 98.424999,0 v -14.2875 h 14.41979 14.41979 v 14.2875 14.287502 h -14.41979 -14.41979 z m 24.60625,0 v -10.31875 h -10.31875 -10.31875 v 10.31875 10.31875 h 10.31875 10.31875 z m -16.40417,0 v -6.08541 h 6.08542 6.08541 v 6.08541 6.08542 h -6.08541 -6.08542 z m -24.60625,0 v -2.11666 h -2.11666 -2.116672 v -1.98438 -1.98437 h -6.08542 -6.08541 v -4.10104 -4.10105 h 6.08541 6.08542 v 4.10105 4.10104 h 2.116672 2.11666 v -2.11667 -2.11667 h 1.98438 1.98437 v -1.98437 -1.98438 h 4.10104 4.10104 v 8.20209 8.20208 h -6.08541 -6.08542 z m 8.20209,-8.20208 v -2.11667 h -2.11667 -2.11667 v 2.11667 2.11667 h 2.11667 2.11667 z m -32.808342,4.10104 v -1.98437 h 1.98438 1.98437 v 1.98437 1.98438 h -1.98437 -1.98438 z m 0,-8.20208 v -1.98438 h 1.98438 1.98437 v 1.98438 1.98437 h -1.98437 -1.98438 z"
       id="path21" />
  </g>
</svg>
