<svg width="600" height="600" viewbox = "0 0 600 600"  xmlns="http://www.w3.org/2000/svg">
<!--<json>{
  "shapes": [],
  "glyph": "0322,0505,0505,0505,0505,0505,0505,0505,0505,0505,0505,0505,0505,0505,0505,0505,0505,0505,0505,0505,0505,0505,0501,0502,0502,0504,0502,0502,0504,0502,0504,0502,0504,0502,0502,0504,0502,0502,0504,0502,0502,0504,0502,0500,0500,0506,0500,0500,0500,0500,0506,0500,0506,0500,0500,0506,0500,0500,0500,0500,0507,0500,0500,0507,0500,0503,0504,0503,0500,0500,0500,0507,0500,0500,0507,0500,0507,0325,0500,0503,0325,0503,0503,0503,0503,0506,0506,0506,0506,0506,0325,0500,0502,0500,0502,0500,0502,0500,0502,0500,0500,0500,0502,0500,0500,0500,0500,0503,0503,0503,0504,0503,0503,0503,0503,0503,0503,0503,0503,0501,0503,0503,0501,0503,0501,0501,0503,0501,0501,0501,0502,0501,0502,0502,0504,0502,0504,0502,0504,0502,0502,0504,0502,0505,0505,0505,0505,0505,0505,0507,0507,0507,0507,0501,0507,0500,0507,0500,0507,0507,0507,0504,0500,0500,0500,0500,0500,0503,0500,0503,0500,0503,0503,0500,0503,0503,0503,0503,0503,0503,0503,0501,0503,0503,0503,0501,0501,0501,0501,0501,0502,0501,0502,0501,0501,0502,0501,0502,0501,0502,0501,0502,0502,0502,0502,0506,0500,0506,0500,0506,0500,0506,0500,0503,0504,0503,0504,0503,0503,0504,0503,0503,0504,0503,0505,0505,0505,0505,0505,0505,0322,0505,0505,0507,0505,0503,0505,0503,0505,0503,0501,0501,0507,0501,0501,0501,0507,0501,0507,0501,0507,0501,0501,0501,0501,0506,0501,0501,0506,0501,0501,0501,0506,0501,0501,0501,0506,0501,0501,0506,0501,0502,0505,0502,0502,0505,0502,0505,0502,0502,0505,0502,0502,0505,0502,0505,0502,0502,0507,0507,0507,0507,0504,0504,0504,0504,0503,0503,0504,0502,0504,0502,0504,0502,0502,0505,0502,0502,0502,0502,0502,0502,0502,0505,0502,0505,0502,0507,0504,0504,0500,0500,0500,0500,0506,0500,0500,0506,0500,0506,0500,0506,0500,0502,0502,0502,0505,0502,0507,0507,0504,0500,0500,0500,0500,0500,0500,0500,0506,0500,0507,0503,0504,0503,0504,0503,0504,0503,0504,0503,0500,0507,0500,0507,0500,0505,0506,0501,0501,0503,0505,0503,0503,0503,0503,0503,0503,0503,0503,0504,0503,0504,0503,0506,0500,0500,0505,0505,0507,0501,0503,0505,0503,0505,0503,0505,0503,0505,0503,0503,0504,0503,0505,0505,0502,0501,0501,0501,0501,0501,0501,0507,0501,0507,0501,0506,0506,0506,0504,0500,0506,0501,0506,0501,0502,0505,0502,0505,0502,0501,0506,0501,0501,0501,0501,0504,0504,0504,0504,0504,0504,0503,0504,0502,0500,0506,0500,0506,0500,0502,0502,0502,0502,0502,0505,0502,0505,0502,0505,0502,0505,0502,0507,0507,0507,0507,0507,0504,0504,0504,0507,0504,0507,0504,0502,0500,0500,0500,0500,0500,0500,0500,0505,0505,0505,",
  "x0": 300,
  "y0": 300,
  "unit": 72,
  "width": 600,
  "height": 600,
  "style": {
    "color0": "black",
    "fill0": "black",
    "line0": 1,
    "color1": "black",
    "fill1": "black",
    "line1": 5,
    "color2": "red",
    "fill2": "red",
    "line2": 1,
    "color3": "#FF7900",
    "fill3": "#FF7900",
    "line3": 1,
    "color4": "yellow",
    "fill4": "yellow",
    "line4": 1,
    "color5": "green",
    "fill5": "green",
    "line5": 1,
    "color6": "blue",
    "fill6": "blue",
    "line6": 1,
    "color7": "purple",
    "fill7": "purple",
    "line7": 1
  }
}</json>-->	<path d = "M302 500 L302 496 L298 496 L298 500 L302 500 Z" stroke = "#ff0000" stroke-width = "1" fill = "#ff0000" />	<path d = "M293 500 L293 496 L289 496 L289 500 L293 500 Z" stroke = "#ff0000" stroke-width = "1" fill = "#ff0000" />	<path d = "M284 500 L284 496 L280 496 L280 500 L284 500 Z" stroke = "#ff0000" stroke-width = "1" fill = "#ff0000" />	<path d = "M275 491 L275 487 L271 487 L271 491 L275 491 Z" stroke = "#ff0000" stroke-width = "1" fill = "#ff0000" />	<path d = "M266 491 L266 487 L262 487 L262 491 L266 491 Z" stroke = "#ff0000" stroke-width = "1" fill = "#ff0000" />	<path d = "M257 482 L257 478 L253 478 L253 482 L257 482 Z" stroke = "#ff0000" stroke-width = "1" fill = "#ff0000" />	<path d = "M248 473 L248 469 L244 469 L244 473 L248 473 Z" stroke = "#ff0000" stroke-width = "1" fill = "#ff0000" />	<path d = "M239 464 L239 460 L235 460 L235 464 L239 464 Z" stroke = "#ff0000" stroke-width = "1" fill = "#ff0000" />	<path d = "M230 464 L230 460 L226 460 L226 464 L230 464 Z" stroke = "#ff0000" stroke-width = "1" fill = "#ff0000" />	<path d = "M221 455 L221 451 L217 451 L217 455 L221 455 Z" stroke = "#ff0000" stroke-width = "1" fill = "#ff0000" />	<path d = "M212 455 L212 451 L208 451 L208 455 L212 455 Z" stroke = "#ff0000" stroke-width = "1" fill = "#ff0000" />	<path d = "M203 446 L203 442 L199 442 L199 446 L203 446 Z" stroke = "#ff0000" stroke-width = "1" fill = "#ff0000" />	<path d = "M194 446 L194 442 L190 442 L190 446 L194 446 Z" stroke = "#ff0000" stroke-width = "1" fill = "#ff0000" />	<path d = "M185 437 L185 433 L181 433 L181 437 L185 437 Z" stroke = "#ff0000" stroke-width = "1" fill = "#ff0000" />	<path d = "M185 428 L185 424 L181 424 L181 428 L185 428 Z" stroke = "#ff0000" stroke-width = "1" fill = "#ff0000" />	<path d = "M185 419 L185 415 L181 415 L181 419 L185 419 Z" stroke = "#ff0000" stroke-width = "1" fill = "#ff0000" />	<path d = "M176 410 L176 406 L172 406 L172 410 L176 410 Z" stroke = "#ff0000" stroke-width = "1" fill = "#ff0000" />	<path d = "M176 401 L176 397 L172 397 L172 401 L176 401 Z" stroke = "#ff0000" stroke-width = "1" fill = "#ff0000" />	<path d = "M176 392 L176 388 L172 388 L172 392 L176 392 Z" stroke = "#ff0000" stroke-width = "1" fill = "#ff0000" />	<path d = "M176 383 L176 379 L172 379 L172 383 L176 383 Z" stroke = "#ff0000" stroke-width = "1" fill = "#ff0000" />	<path d = "M167 374 L167 370 L163 370 L163 374 L167 374 Z" stroke = "#ff0000" stroke-width = "1" fill = "#ff0000" />	<path d = "M158 365 L158 361 L154 361 L154 365 L158 365 Z" stroke = "#ff0000" stroke-width = "1" fill = "#ff0000" />	<path d = "M158 356 L158 352 L154 352 L154 356 L158 356 Z" stroke = "#ff0000" stroke-width = "1" fill = "#ff0000" />	<path d = "M149 347 L149 343 L145 343 L145 347 L149 347 Z" stroke = "#ff0000" stroke-width = "1" fill = "#ff0000" />	<path d = "M149 338 L149 334 L145 334 L145 338 L149 338 Z" stroke = "#ff0000" stroke-width = "1" fill = "#ff0000" />	<path d = "M149 329 L149 325 L145 325 L145 329 L149 329 Z" stroke = "#ff0000" stroke-width = "1" fill = "#ff0000" />	<path d = "M149 320 L149 316 L145 316 L145 320 L149 320 Z" stroke = "#ff0000" stroke-width = "1" fill = "#ff0000" />	<path d = "M158 311 L158 307 L154 307 L154 311 L158 311 Z" stroke = "#ff0000" stroke-width = "1" fill = "#ff0000" />	<path d = "M158 302 L158 298 L154 298 L154 302 L158 302 Z" stroke = "#ff0000" stroke-width = "1" fill = "#ff0000" />	<path d = "M167 293 L167 289 L163 289 L163 293 L167 293 Z" stroke = "#ff0000" stroke-width = "1" fill = "#ff0000" />	<path d = "M176 293 L176 289 L172 289 L172 293 L176 293 Z" stroke = "#ff0000" stroke-width = "1" fill = "#ff0000" />	<path d = "M185 284 L185 280 L181 280 L181 284 L185 284 Z" stroke = "#ff0000" stroke-width = "1" fill = "#ff0000" />	<path d = "M185 275 L185 271 L181 271 L181 275 L185 275 Z" stroke = "#ff0000" stroke-width = "1" fill = "#ff0000" />	<path d = "M185 266 L185 262 L181 262 L181 266 L185 266 Z" stroke = "#ff0000" stroke-width = "1" fill = "#ff0000" />	<path d = "M185 257 L185 253 L181 253 L181 257 L185 257 Z" stroke = "#ff0000" stroke-width = "1" fill = "#ff0000" />	<path d = "M194 248 L194 244 L190 244 L190 248 L194 248 Z" stroke = "#ff0000" stroke-width = "1" fill = "#ff0000" />	<path d = "M194 239 L194 235 L190 235 L190 239 L194 239 Z" stroke = "#ff0000" stroke-width = "1" fill = "#ff0000" />	<path d = "M203 230 L203 226 L199 226 L199 230 L203 230 Z" stroke = "#ff0000" stroke-width = "1" fill = "#ff0000" />	<path d = "M212 221 L212 217 L208 217 L208 221 L212 221 Z" stroke = "#008000" stroke-width = "1" fill = "#008000" />	<path d = "M221 221 L221 217 L217 217 L217 221 L221 221 Z" stroke = "#008000" stroke-width = "1" fill = "#008000" />	<path d = "M230 221 L230 217 L226 217 L226 221 L230 221 Z" stroke = "#008000" stroke-width = "1" fill = "#008000" />	<path d = "M239 221 L239 217 L235 217 L235 221 L239 221 Z" stroke = "#008000" stroke-width = "1" fill = "#008000" />	<path d = "M248 221 L248 217 L244 217 L244 221 L248 221 Z" stroke = "#008000" stroke-width = "1" fill = "#008000" />	<path d = "M257 221 L257 217 L253 217 L253 221 L257 221 Z" stroke = "#008000" stroke-width = "1" fill = "#008000" />	<path d = "M212 212 L212 208 L208 208 L208 212 L212 212 Z" stroke = "#008000" stroke-width = "1" fill = "#008000" />	<path d = "M203 212 L203 208 L199 208 L199 212 L203 212 Z" stroke = "#008000" stroke-width = "1" fill = "#008000" />	<path d = "M203 203 L203 199 L199 199 L199 203 L203 203 Z" stroke = "#008000" stroke-width = "1" fill = "#008000" />	<path d = "M194 203 L194 199 L190 199 L190 203 L194 203 Z" stroke = "#008000" stroke-width = "1" fill = "#008000" />	<path d = "M194 194 L194 190 L190 190 L190 194 L194 194 Z" stroke = "#008000" stroke-width = "1" fill = "#008000" />	<path d = "M185 194 L185 190 L181 190 L181 194 L185 194 Z" stroke = "#008000" stroke-width = "1" fill = "#008000" />	<path d = "M185 185 L185 181 L181 181 L181 185 L185 185 Z" stroke = "#008000" stroke-width = "1" fill = "#008000" />	<path d = "M176 185 L176 181 L172 181 L172 185 L176 185 Z" stroke = "#008000" stroke-width = "1" fill = "#008000" />	<path d = "M176 176 L176 172 L172 172 L172 176 L176 176 Z" stroke = "#008000" stroke-width = "1" fill = "#008000" />	<path d = "M176 167 L176 163 L172 163 L172 167 L176 167 Z" stroke = "#008000" stroke-width = "1" fill = "#008000" />	<path d = "M176 158 L176 154 L172 154 L172 158 L176 158 Z" stroke = "#008000" stroke-width = "1" fill = "#008000" />	<path d = "M167 158 L167 154 L163 154 L163 158 L167 158 Z" stroke = "#008000" stroke-width = "1" fill = "#008000" />	<path d = "M167 149 L167 145 L163 145 L163 149 L167 149 Z" stroke = "#008000" stroke-width = "1" fill = "#008000" />	<path d = "M167 140 L167 136 L163 136 L163 140 L167 140 Z" stroke = "#008000" stroke-width = "1" fill = "#008000" />	<path d = "M167 131 L167 127 L163 127 L163 131 L167 131 Z" stroke = "#008000" stroke-width = "1" fill = "#008000" />	<path d = "M167 122 L167 118 L163 118 L163 122 L167 122 Z" stroke = "#008000" stroke-width = "1" fill = "#008000" />	<path d = "M176 122 L176 118 L172 118 L172 122 L176 122 Z" stroke = "#008000" stroke-width = "1" fill = "#008000" />	<path d = "M185 122 L185 118 L181 118 L181 122 L185 122 Z" stroke = "#008000" stroke-width = "1" fill = "#008000" />	<path d = "M194 122 L194 118 L190 118 L190 122 L194 122 Z" stroke = "#008000" stroke-width = "1" fill = "#008000" />	<path d = "M203 113 L203 109 L199 109 L199 113 L203 113 Z" stroke = "#008000" stroke-width = "1" fill = "#008000" />	<path d = "M212 113 L212 109 L208 109 L208 113 L212 113 Z" stroke = "#008000" stroke-width = "1" fill = "#008000" />	<path d = "M221 113 L221 109 L217 109 L217 113 L221 113 Z" stroke = "#008000" stroke-width = "1" fill = "#008000" />	<path d = "M230 113 L230 109 L226 109 L226 113 L230 113 Z" stroke = "#008000" stroke-width = "1" fill = "#008000" />	<path d = "M239 113 L239 109 L235 109 L235 113 L239 113 Z" stroke = "#008000" stroke-width = "1" fill = "#008000" />	<path d = "M248 113 L248 109 L244 109 L244 113 L248 113 Z" stroke = "#008000" stroke-width = "1" fill = "#008000" />	<path d = "M257 113 L257 109 L253 109 L253 113 L257 113 Z" stroke = "#008000" stroke-width = "1" fill = "#008000" />	<path d = "M266 113 L266 109 L262 109 L262 113 L266 113 Z" stroke = "#008000" stroke-width = "1" fill = "#008000" />	<path d = "M266 122 L266 118 L262 118 L262 122 L266 122 Z" stroke = "#008000" stroke-width = "1" fill = "#008000" />	<path d = "M275 122 L275 118 L271 118 L271 122 L275 122 Z" stroke = "#008000" stroke-width = "1" fill = "#008000" />	<path d = "M284 122 L284 118 L280 118 L280 122 L284 122 Z" stroke = "#008000" stroke-width = "1" fill = "#008000" />	<path d = "M284 131 L284 127 L280 127 L280 131 L284 131 Z" stroke = "#008000" stroke-width = "1" fill = "#008000" />	<path d = "M293 131 L293 127 L289 127 L289 131 L293 131 Z" stroke = "#008000" stroke-width = "1" fill = "#008000" />	<path d = "M293 140 L293 136 L289 136 L289 140 L293 140 Z" stroke = "#008000" stroke-width = "1" fill = "#008000" />	<path d = "M293 149 L293 145 L289 145 L289 149 L293 149 Z" stroke = "#008000" stroke-width = "1" fill = "#008000" />	<path d = "M302 149 L302 145 L298 145 L298 149 L302 149 Z" stroke = "#008000" stroke-width = "1" fill = "#008000" />	<path d = "M302 158 L302 154 L298 154 L298 158 L302 158 Z" stroke = "#008000" stroke-width = "1" fill = "#008000" />	<path d = "M302 167 L302 163 L298 163 L298 167 L302 167 Z" stroke = "#008000" stroke-width = "1" fill = "#008000" />	<path d = "M302 176 L302 172 L298 172 L298 176 L302 176 Z" stroke = "#008000" stroke-width = "1" fill = "#008000" />	<path d = "M293 176 L293 172 L289 172 L289 176 L293 176 Z" stroke = "#008000" stroke-width = "1" fill = "#008000" />	<path d = "M293 185 L293 181 L289 181 L289 185 L293 185 Z" stroke = "#008000" stroke-width = "1" fill = "#008000" />	<path d = "M284 185 L284 181 L280 181 L280 185 L284 185 Z" stroke = "#008000" stroke-width = "1" fill = "#008000" />	<path d = "M275 185 L275 181 L271 181 L271 185 L275 185 Z" stroke = "#008000" stroke-width = "1" fill = "#008000" />	<path d = "M266 176 L266 172 L262 172 L262 176 L266 176 Z" stroke = "#008000" stroke-width = "1" fill = "#008000" />	<path d = "M257 167 L257 163 L253 163 L253 167 L257 167 Z" stroke = "#008000" stroke-width = "1" fill = "#008000" />	<path d = "M248 158 L248 154 L244 154 L244 158 L248 158 Z" stroke = "#008000" stroke-width = "1" fill = "#008000" />	<path d = "M239 158 L239 154 L235 154 L235 158 L239 158 Z" stroke = "#008000" stroke-width = "1" fill = "#008000" />	<path d = "M230 149 L230 145 L226 145 L226 149 L230 149 Z" stroke = "#008000" stroke-width = "1" fill = "#008000" />	<path d = "M266 212 L266 208 L262 208 L262 212 L266 212 Z" stroke = "#008000" stroke-width = "1" fill = "#008000" />	<path d = "M275 203 L275 199 L271 199 L271 203 L275 203 Z" stroke = "#008000" stroke-width = "1" fill = "#008000" />	<path d = "M284 194 L284 190 L280 190 L280 194 L284 194 Z" stroke = "#008000" stroke-width = "1" fill = "#008000" />	<path d = "M311 176 L311 172 L307 172 L307 176 L311 176 Z" stroke = "#008000" stroke-width = "1" fill = "#008000" />	<path d = "M311 167 L311 163 L307 163 L307 167 L311 167 Z" stroke = "#008000" stroke-width = "1" fill = "#008000" />	<path d = "M311 158 L311 154 L307 154 L307 158 L311 158 Z" stroke = "#008000" stroke-width = "1" fill = "#008000" />	<path d = "M311 149 L311 145 L307 145 L307 149 L311 149 Z" stroke = "#008000" stroke-width = "1" fill = "#008000" />	<path d = "M311 140 L311 136 L307 136 L307 140 L311 140 Z" stroke = "#008000" stroke-width = "1" fill = "#008000" />	<path d = "M320 140 L320 136 L316 136 L316 140 L320 140 Z" stroke = "#008000" stroke-width = "1" fill = "#008000" />	<path d = "M320 131 L320 127 L316 127 L316 131 L320 131 Z" stroke = "#008000" stroke-width = "1" fill = "#008000" />	<path d = "M329 131 L329 127 L325 127 L325 131 L329 131 Z" stroke = "#008000" stroke-width = "1" fill = "#008000" />	<path d = "M329 122 L329 118 L325 118 L325 122 L329 122 Z" stroke = "#008000" stroke-width = "1" fill = "#008000" />	<path d = "M338 122 L338 118 L334 118 L334 122 L338 122 Z" stroke = "#008000" stroke-width = "1" fill = "#008000" />	<path d = "M347 122 L347 118 L343 118 L343 122 L347 122 Z" stroke = "#008000" stroke-width = "1" fill = "#008000" />	<path d = "M347 113 L347 109 L343 109 L343 113 L347 113 Z" stroke = "#008000" stroke-width = "1" fill = "#008000" />	<path d = "M356 113 L356 109 L352 109 L352 113 L356 113 Z" stroke = "#008000" stroke-width = "1" fill = "#008000" />	<path d = "M365 113 L365 109 L361 109 L361 113 L365 113 Z" stroke = "#008000" stroke-width = "1" fill = "#008000" />	<path d = "M374 113 L374 109 L370 109 L370 113 L374 113 Z" stroke = "#008000" stroke-width = "1" fill = "#008000" />	<path d = "M383 113 L383 109 L379 109 L379 113 L383 113 Z" stroke = "#008000" stroke-width = "1" fill = "#008000" />	<path d = "M392 113 L392 109 L388 109 L388 113 L392 113 Z" stroke = "#008000" stroke-width = "1" fill = "#008000" />	<path d = "M401 113 L401 109 L397 109 L397 113 L401 113 Z" stroke = "#008000" stroke-width = "1" fill = "#008000" />	<path d = "M410 113 L410 109 L406 109 L406 113 L410 113 Z" stroke = "#008000" stroke-width = "1" fill = "#008000" />	<path d = "M410 122 L410 118 L406 118 L406 122 L410 122 Z" stroke = "#008000" stroke-width = "1" fill = "#008000" />	<path d = "M419 122 L419 118 L415 118 L415 122 L419 122 Z" stroke = "#008000" stroke-width = "1" fill = "#008000" />	<path d = "M428 122 L428 118 L424 118 L424 122 L428 122 Z" stroke = "#008000" stroke-width = "1" fill = "#008000" />	<path d = "M437 122 L437 118 L433 118 L433 122 L437 122 Z" stroke = "#008000" stroke-width = "1" fill = "#008000" />	<path d = "M437 131 L437 127 L433 127 L433 131 L437 131 Z" stroke = "#008000" stroke-width = "1" fill = "#008000" />	<path d = "M437 140 L437 136 L433 136 L433 140 L437 140 Z" stroke = "#008000" stroke-width = "1" fill = "#008000" />	<path d = "M437 149 L437 145 L433 145 L433 149 L437 149 Z" stroke = "#008000" stroke-width = "1" fill = "#008000" />	<path d = "M437 158 L437 154 L433 154 L433 158 L437 158 Z" stroke = "#008000" stroke-width = "1" fill = "#008000" />	<path d = "M437 167 L437 163 L433 163 L433 167 L437 167 Z" stroke = "#008000" stroke-width = "1" fill = "#008000" />	<path d = "M428 167 L428 163 L424 163 L424 167 L428 167 Z" stroke = "#008000" stroke-width = "1" fill = "#008000" />	<path d = "M428 176 L428 172 L424 172 L424 176 L428 176 Z" stroke = "#008000" stroke-width = "1" fill = "#008000" />	<path d = "M419 176 L419 172 L415 172 L415 176 L419 176 Z" stroke = "#008000" stroke-width = "1" fill = "#008000" />	<path d = "M419 185 L419 181 L415 181 L415 185 L419 185 Z" stroke = "#008000" stroke-width = "1" fill = "#008000" />	<path d = "M419 194 L419 190 L415 190 L415 194 L419 194 Z" stroke = "#008000" stroke-width = "1" fill = "#008000" />	<path d = "M410 194 L410 190 L406 190 L406 194 L410 194 Z" stroke = "#008000" stroke-width = "1" fill = "#008000" />	<path d = "M410 203 L410 199 L406 199 L406 203 L410 203 Z" stroke = "#008000" stroke-width = "1" fill = "#008000" />	<path d = "M401 203 L401 199 L397 199 L397 203 L401 203 Z" stroke = "#008000" stroke-width = "1" fill = "#008000" />	<path d = "M401 212 L401 208 L397 208 L397 212 L401 212 Z" stroke = "#008000" stroke-width = "1" fill = "#008000" />	<path d = "M392 212 L392 208 L388 208 L388 212 L392 212 Z" stroke = "#008000" stroke-width = "1" fill = "#008000" />	<path d = "M392 221 L392 217 L388 217 L388 221 L392 221 Z" stroke = "#008000" stroke-width = "1" fill = "#008000" />	<path d = "M383 221 L383 217 L379 217 L379 221 L383 221 Z" stroke = "#008000" stroke-width = "1" fill = "#008000" />	<path d = "M374 221 L374 217 L370 217 L370 221 L374 221 Z" stroke = "#008000" stroke-width = "1" fill = "#008000" />	<path d = "M365 221 L365 217 L361 217 L361 221 L365 221 Z" stroke = "#008000" stroke-width = "1" fill = "#008000" />	<path d = "M356 221 L356 217 L352 217 L352 221 L356 221 Z" stroke = "#008000" stroke-width = "1" fill = "#008000" />	<path d = "M347 212 L347 208 L343 208 L343 212 L347 212 Z" stroke = "#008000" stroke-width = "1" fill = "#008000" />	<path d = "M338 203 L338 199 L334 199 L334 203 L338 203 Z" stroke = "#008000" stroke-width = "1" fill = "#008000" />	<path d = "M329 194 L329 190 L325 190 L325 194 L329 194 Z" stroke = "#008000" stroke-width = "1" fill = "#008000" />	<path d = "M320 185 L320 181 L316 181 L316 185 L320 185 Z" stroke = "#008000" stroke-width = "1" fill = "#008000" />	<path d = "M329 185 L329 181 L325 181 L325 185 L329 185 Z" stroke = "#008000" stroke-width = "1" fill = "#008000" />	<path d = "M338 176 L338 172 L334 172 L334 176 L338 176 Z" stroke = "#008000" stroke-width = "1" fill = "#008000" />	<path d = "M347 167 L347 163 L343 163 L343 167 L347 167 Z" stroke = "#008000" stroke-width = "1" fill = "#008000" />	<path d = "M356 167 L356 163 L352 163 L352 167 L356 167 Z" stroke = "#008000" stroke-width = "1" fill = "#008000" />	<path d = "M365 158 L365 154 L361 154 L361 158 L365 158 Z" stroke = "#008000" stroke-width = "1" fill = "#008000" />	<path d = "M374 158 L374 154 L370 154 L370 158 L374 158 Z" stroke = "#008000" stroke-width = "1" fill = "#008000" />	<path d = "M383 149 L383 145 L379 145 L379 149 L383 149 Z" stroke = "#008000" stroke-width = "1" fill = "#008000" />	<path d = "M401 230 L401 226 L397 226 L397 230 L401 230 Z" stroke = "#ff0000" stroke-width = "1" fill = "#ff0000" />	<path d = "M410 239 L410 235 L406 235 L406 239 L410 239 Z" stroke = "#ff0000" stroke-width = "1" fill = "#ff0000" />	<path d = "M419 248 L419 244 L415 244 L415 248 L419 248 Z" stroke = "#ff0000" stroke-width = "1" fill = "#ff0000" />	<path d = "M419 257 L419 253 L415 253 L415 257 L419 257 Z" stroke = "#ff0000" stroke-width = "1" fill = "#ff0000" />	<path d = "M419 266 L419 262 L415 262 L415 266 L419 266 Z" stroke = "#ff0000" stroke-width = "1" fill = "#ff0000" />	<path d = "M428 275 L428 271 L424 271 L424 275 L428 275 Z" stroke = "#ff0000" stroke-width = "1" fill = "#ff0000" />	<path d = "M428 284 L428 280 L424 280 L424 284 L428 284 Z" stroke = "#ff0000" stroke-width = "1" fill = "#ff0000" />	<path d = "M428 293 L428 289 L424 289 L424 293 L428 293 Z" stroke = "#ff0000" stroke-width = "1" fill = "#ff0000" />	<path d = "M437 302 L437 298 L433 298 L433 302 L437 302 Z" stroke = "#ff0000" stroke-width = "1" fill = "#ff0000" />	<path d = "M446 311 L446 307 L442 307 L442 311 L446 311 Z" stroke = "#ff0000" stroke-width = "1" fill = "#ff0000" />	<path d = "M455 320 L455 316 L451 316 L451 320 L455 320 Z" stroke = "#ff0000" stroke-width = "1" fill = "#ff0000" />	<path d = "M455 329 L455 325 L451 325 L451 329 L455 329 Z" stroke = "#ff0000" stroke-width = "1" fill = "#ff0000" />	<path d = "M455 338 L455 334 L451 334 L451 338 L455 338 Z" stroke = "#ff0000" stroke-width = "1" fill = "#ff0000" />	<path d = "M455 347 L455 343 L451 343 L451 347 L455 347 Z" stroke = "#ff0000" stroke-width = "1" fill = "#ff0000" />	<path d = "M446 356 L446 352 L442 352 L442 356 L446 356 Z" stroke = "#ff0000" stroke-width = "1" fill = "#ff0000" />	<path d = "M446 365 L446 361 L442 361 L442 365 L446 365 Z" stroke = "#ff0000" stroke-width = "1" fill = "#ff0000" />	<path d = "M437 374 L437 370 L433 370 L433 374 L437 374 Z" stroke = "#ff0000" stroke-width = "1" fill = "#ff0000" />	<path d = "M437 383 L437 379 L433 379 L433 383 L437 383 Z" stroke = "#ff0000" stroke-width = "1" fill = "#ff0000" />	<path d = "M437 392 L437 388 L433 388 L433 392 L437 392 Z" stroke = "#ff0000" stroke-width = "1" fill = "#ff0000" />	<path d = "M428 401 L428 397 L424 397 L424 401 L428 401 Z" stroke = "#ff0000" stroke-width = "1" fill = "#ff0000" />	<path d = "M428 410 L428 406 L424 406 L424 410 L428 410 Z" stroke = "#ff0000" stroke-width = "1" fill = "#ff0000" />	<path d = "M428 419 L428 415 L424 415 L424 419 L428 419 Z" stroke = "#ff0000" stroke-width = "1" fill = "#ff0000" />	<path d = "M419 428 L419 424 L415 424 L415 428 L419 428 Z" stroke = "#ff0000" stroke-width = "1" fill = "#ff0000" />	<path d = "M419 437 L419 433 L415 433 L415 437 L419 437 Z" stroke = "#ff0000" stroke-width = "1" fill = "#ff0000" />	<path d = "M410 446 L410 442 L406 442 L406 446 L410 446 Z" stroke = "#ff0000" stroke-width = "1" fill = "#ff0000" />	<path d = "M401 446 L401 442 L397 442 L397 446 L401 446 Z" stroke = "#ff0000" stroke-width = "1" fill = "#ff0000" />	<path d = "M392 455 L392 451 L388 451 L388 455 L392 455 Z" stroke = "#ff0000" stroke-width = "1" fill = "#ff0000" />	<path d = "M383 455 L383 451 L379 451 L379 455 L383 455 Z" stroke = "#ff0000" stroke-width = "1" fill = "#ff0000" />	<path d = "M374 464 L374 460 L370 460 L370 464 L374 464 Z" stroke = "#ff0000" stroke-width = "1" fill = "#ff0000" />	<path d = "M365 473 L365 469 L361 469 L361 473 L365 473 Z" stroke = "#ff0000" stroke-width = "1" fill = "#ff0000" />	<path d = "M356 473 L356 469 L352 469 L352 473 L356 473 Z" stroke = "#ff0000" stroke-width = "1" fill = "#ff0000" />	<path d = "M347 482 L347 478 L343 478 L343 482 L347 482 Z" stroke = "#ff0000" stroke-width = "1" fill = "#ff0000" />	<path d = "M338 482 L338 478 L334 478 L334 482 L338 482 Z" stroke = "#ff0000" stroke-width = "1" fill = "#ff0000" />	<path d = "M329 491 L329 487 L325 487 L325 491 L329 491 Z" stroke = "#ff0000" stroke-width = "1" fill = "#ff0000" />	<path d = "M320 500 L320 496 L316 496 L316 500 L320 500 Z" stroke = "#ff0000" stroke-width = "1" fill = "#ff0000" />	<path d = "M311 500 L311 496 L307 496 L307 500 L311 500 Z" stroke = "#ff0000" stroke-width = "1" fill = "#ff0000" />	<path d = "M356 464 L356 460 L352 460 L352 464 L356 464 Z" stroke = "#ff0000" stroke-width = "1" fill = "#ff0000" />	<path d = "M365 464 L365 460 L361 460 L361 464 L365 464 Z" stroke = "#ff0000" stroke-width = "1" fill = "#ff0000" />	<path d = "M356 455 L356 451 L352 451 L352 455 L356 455 Z" stroke = "#ff0000" stroke-width = "1" fill = "#ff0000" />	<path d = "M347 446 L347 442 L343 442 L343 446 L347 446 Z" stroke = "#ff0000" stroke-width = "1" fill = "#ff0000" />	<path d = "M338 437 L338 433 L334 433 L334 437 L338 437 Z" stroke = "#ff0000" stroke-width = "1" fill = "#ff0000" />	<path d = "M329 437 L329 433 L325 433 L325 437 L329 437 Z" stroke = "#ff0000" stroke-width = "1" fill = "#ff0000" />	<path d = "M320 446 L320 442 L316 442 L316 446 L320 446 Z" stroke = "#ff0000" stroke-width = "1" fill = "#ff0000" />	<path d = "M311 446 L311 442 L307 442 L307 446 L311 446 Z" stroke = "#ff0000" stroke-width = "1" fill = "#ff0000" />	<path d = "M302 446 L302 442 L298 442 L298 446 L302 446 Z" stroke = "#ff0000" stroke-width = "1" fill = "#ff0000" />	<path d = "M293 446 L293 442 L289 442 L289 446 L293 446 Z" stroke = "#ff0000" stroke-width = "1" fill = "#ff0000" />	<path d = "M284 446 L284 442 L280 442 L280 446 L284 446 Z" stroke = "#ff0000" stroke-width = "1" fill = "#ff0000" />	<path d = "M275 446 L275 442 L271 442 L271 446 L275 446 Z" stroke = "#ff0000" stroke-width = "1" fill = "#ff0000" />	<path d = "M266 446 L266 442 L262 442 L262 446 L266 446 Z" stroke = "#ff0000" stroke-width = "1" fill = "#ff0000" />	<path d = "M257 455 L257 451 L253 451 L253 455 L257 455 Z" stroke = "#ff0000" stroke-width = "1" fill = "#ff0000" />	<path d = "M248 464 L248 460 L244 460 L244 464 L248 464 Z" stroke = "#ff0000" stroke-width = "1" fill = "#ff0000" />	<path d = "M257 437 L257 433 L253 433 L253 437 L257 437 Z" stroke = "#ff0000" stroke-width = "1" fill = "#ff0000" />	<path d = "M257 428 L257 424 L253 424 L253 428 L257 428 Z" stroke = "#ff0000" stroke-width = "1" fill = "#ff0000" />	<path d = "M257 419 L257 415 L253 415 L253 419 L257 419 Z" stroke = "#ff0000" stroke-width = "1" fill = "#ff0000" />	<path d = "M257 410 L257 406 L253 406 L253 410 L257 410 Z" stroke = "#ff0000" stroke-width = "1" fill = "#ff0000" />	<path d = "M248 401 L248 397 L244 397 L244 401 L248 401 Z" stroke = "#ff0000" stroke-width = "1" fill = "#ff0000" />	<path d = "M248 392 L248 388 L244 388 L244 392 L248 392 Z" stroke = "#ff0000" stroke-width = "1" fill = "#ff0000" />	<path d = "M239 383 L239 379 L235 379 L235 383 L239 383 Z" stroke = "#ff0000" stroke-width = "1" fill = "#ff0000" />	<path d = "M230 374 L230 370 L226 370 L226 374 L230 374 Z" stroke = "#ff0000" stroke-width = "1" fill = "#ff0000" />	<path d = "M221 365 L221 361 L217 361 L217 365 L221 365 Z" stroke = "#ff0000" stroke-width = "1" fill = "#ff0000" />	<path d = "M212 365 L212 361 L208 361 L208 365 L212 365 Z" stroke = "#ff0000" stroke-width = "1" fill = "#ff0000" />	<path d = "M203 365 L203 361 L199 361 L199 365 L203 365 Z" stroke = "#ff0000" stroke-width = "1" fill = "#ff0000" />	<path d = "M194 365 L194 361 L190 361 L190 365 L194 365 Z" stroke = "#ff0000" stroke-width = "1" fill = "#ff0000" />	<path d = "M185 374 L185 370 L181 370 L181 374 L185 374 Z" stroke = "#ff0000" stroke-width = "1" fill = "#ff0000" />	<path d = "M203 356 L203 352 L199 352 L199 356 L203 356 Z" stroke = "#ff0000" stroke-width = "1" fill = "#ff0000" />	<path d = "M203 347 L203 343 L199 343 L199 347 L203 347 Z" stroke = "#ff0000" stroke-width = "1" fill = "#ff0000" />	<path d = "M203 338 L203 334 L199 334 L199 338 L203 338 Z" stroke = "#ff0000" stroke-width = "1" fill = "#ff0000" />	<path d = "M203 329 L203 325 L199 325 L199 329 L203 329 Z" stroke = "#ff0000" stroke-width = "1" fill = "#ff0000" />	<path d = "M203 320 L203 316 L199 316 L199 320 L203 320 Z" stroke = "#ff0000" stroke-width = "1" fill = "#ff0000" />	<path d = "M203 311 L203 307 L199 307 L199 311 L203 311 Z" stroke = "#ff0000" stroke-width = "1" fill = "#ff0000" />	<path d = "M203 302 L203 298 L199 298 L199 302 L203 302 Z" stroke = "#ff0000" stroke-width = "1" fill = "#ff0000" />	<path d = "M194 293 L194 289 L190 289 L190 293 L194 293 Z" stroke = "#ff0000" stroke-width = "1" fill = "#ff0000" />	<path d = "M212 293 L212 289 L208 289 L208 293 L212 293 Z" stroke = "#ff0000" stroke-width = "1" fill = "#ff0000" />	<path d = "M221 284 L221 280 L217 280 L217 284 L221 284 Z" stroke = "#ff0000" stroke-width = "1" fill = "#ff0000" />	<path d = "M230 275 L230 271 L226 271 L226 275 L230 275 Z" stroke = "#ff0000" stroke-width = "1" fill = "#ff0000" />	<path d = "M239 266 L239 262 L235 262 L235 266 L239 266 Z" stroke = "#ff0000" stroke-width = "1" fill = "#ff0000" />	<path d = "M248 257 L248 253 L244 253 L244 257 L248 257 Z" stroke = "#ff0000" stroke-width = "1" fill = "#ff0000" />	<path d = "M248 248 L248 244 L244 244 L244 248 L248 248 Z" stroke = "#ff0000" stroke-width = "1" fill = "#ff0000" />	<path d = "M257 239 L257 235 L253 235 L253 239 L257 239 Z" stroke = "#ff0000" stroke-width = "1" fill = "#ff0000" />	<path d = "M266 230 L266 226 L262 226 L262 230 L266 230 Z" stroke = "#ff0000" stroke-width = "1" fill = "#ff0000" />	<path d = "M257 248 L257 244 L253 244 L253 248 L257 248 Z" stroke = "#ff0000" stroke-width = "1" fill = "#ff0000" />	<path d = "M257 257 L257 253 L253 253 L253 257 L257 257 Z" stroke = "#ff0000" stroke-width = "1" fill = "#ff0000" />	<path d = "M266 257 L266 253 L262 253 L262 257 L266 257 Z" stroke = "#ff0000" stroke-width = "1" fill = "#ff0000" />	<path d = "M275 266 L275 262 L271 262 L271 266 L275 266 Z" stroke = "#ff0000" stroke-width = "1" fill = "#ff0000" />	<path d = "M284 266 L284 262 L280 262 L280 266 L284 266 Z" stroke = "#ff0000" stroke-width = "1" fill = "#ff0000" />	<path d = "M293 266 L293 262 L289 262 L289 266 L293 266 Z" stroke = "#ff0000" stroke-width = "1" fill = "#ff0000" />	<path d = "M302 266 L302 262 L298 262 L298 266 L302 266 Z" stroke = "#ff0000" stroke-width = "1" fill = "#ff0000" />	<path d = "M311 266 L311 262 L307 262 L307 266 L311 266 Z" stroke = "#ff0000" stroke-width = "1" fill = "#ff0000" />	<path d = "M320 266 L320 262 L316 262 L316 266 L320 266 Z" stroke = "#ff0000" stroke-width = "1" fill = "#ff0000" />	<path d = "M329 266 L329 262 L325 262 L325 266 L329 266 Z" stroke = "#ff0000" stroke-width = "1" fill = "#ff0000" />	<path d = "M338 266 L338 262 L334 262 L334 266 L338 266 Z" stroke = "#ff0000" stroke-width = "1" fill = "#ff0000" />	<path d = "M347 257 L347 253 L343 253 L343 257 L347 257 Z" stroke = "#ff0000" stroke-width = "1" fill = "#ff0000" />	<path d = "M356 248 L356 244 L352 244 L352 248 L356 248 Z" stroke = "#ff0000" stroke-width = "1" fill = "#ff0000" />	<path d = "M347 239 L347 235 L343 235 L343 239 L347 239 Z" stroke = "#ff0000" stroke-width = "1" fill = "#ff0000" />	<path d = "M347 230 L347 226 L343 226 L343 230 L347 230 Z" stroke = "#ff0000" stroke-width = "1" fill = "#ff0000" />	<path d = "M356 257 L356 253 L352 253 L352 257 L356 257 Z" stroke = "#ff0000" stroke-width = "1" fill = "#ff0000" />	<path d = "M365 257 L365 253 L361 253 L361 257 L365 257 Z" stroke = "#ff0000" stroke-width = "1" fill = "#ff0000" />	<path d = "M374 266 L374 262 L370 262 L370 266 L374 266 Z" stroke = "#ff0000" stroke-width = "1" fill = "#ff0000" />	<path d = "M383 275 L383 271 L379 271 L379 275 L383 275 Z" stroke = "#ff0000" stroke-width = "1" fill = "#ff0000" />	<path d = "M392 284 L392 280 L388 280 L388 284 L392 284 Z" stroke = "#ff0000" stroke-width = "1" fill = "#ff0000" />	<path d = "M401 293 L401 289 L397 289 L397 293 L401 293 Z" stroke = "#ff0000" stroke-width = "1" fill = "#ff0000" />	<path d = "M410 293 L410 289 L406 289 L406 293 L410 293 Z" stroke = "#ff0000" stroke-width = "1" fill = "#ff0000" />	<path d = "M419 284 L419 280 L415 280 L415 284 L419 284 Z" stroke = "#ff0000" stroke-width = "1" fill = "#ff0000" />	<path d = "M410 302 L410 298 L406 298 L406 302 L410 302 Z" stroke = "#ff0000" stroke-width = "1" fill = "#ff0000" />	<path d = "M410 311 L410 307 L406 307 L406 311 L410 311 Z" stroke = "#ff0000" stroke-width = "1" fill = "#ff0000" />	<path d = "M410 320 L410 316 L406 316 L406 320 L410 320 Z" stroke = "#ff0000" stroke-width = "1" fill = "#ff0000" />	<path d = "M410 329 L410 325 L406 325 L406 329 L410 329 Z" stroke = "#ff0000" stroke-width = "1" fill = "#ff0000" />	<path d = "M410 338 L410 334 L406 334 L406 338 L410 338 Z" stroke = "#ff0000" stroke-width = "1" fill = "#ff0000" />	<path d = "M410 347 L410 343 L406 343 L406 347 L410 347 Z" stroke = "#ff0000" stroke-width = "1" fill = "#ff0000" />	<path d = "M410 356 L410 352 L406 352 L406 356 L410 356 Z" stroke = "#ff0000" stroke-width = "1" fill = "#ff0000" />	<path d = "M419 365 L419 361 L415 361 L415 365 L419 365 Z" stroke = "#ff0000" stroke-width = "1" fill = "#ff0000" />	<path d = "M428 374 L428 370 L424 370 L424 374 L428 374 Z" stroke = "#ff0000" stroke-width = "1" fill = "#ff0000" />	<path d = "M401 356 L401 352 L397 352 L397 356 L401 356 Z" stroke = "#ff0000" stroke-width = "1" fill = "#ff0000" />	<path d = "M392 365 L392 361 L388 361 L388 365 L392 365 Z" stroke = "#ff0000" stroke-width = "1" fill = "#ff0000" />	<path d = "M383 374 L383 370 L379 370 L379 374 L383 374 Z" stroke = "#ff0000" stroke-width = "1" fill = "#ff0000" />	<path d = "M374 374 L374 370 L370 370 L370 374 L374 374 Z" stroke = "#ff0000" stroke-width = "1" fill = "#ff0000" />	<path d = "M365 383 L365 379 L361 379 L361 383 L365 383 Z" stroke = "#ff0000" stroke-width = "1" fill = "#ff0000" />	<path d = "M356 392 L356 388 L352 388 L352 392 L356 392 Z" stroke = "#ff0000" stroke-width = "1" fill = "#ff0000" />	<path d = "M356 401 L356 397 L352 397 L352 401 L356 401 Z" stroke = "#ff0000" stroke-width = "1" fill = "#ff0000" />	<path d = "M347 410 L347 406 L343 406 L343 410 L347 410 Z" stroke = "#ff0000" stroke-width = "1" fill = "#ff0000" />	<path d = "M347 419 L347 415 L343 415 L343 419 L347 419 Z" stroke = "#ff0000" stroke-width = "1" fill = "#ff0000" />	<path d = "M347 428 L347 424 L343 424 L343 428 L347 428 Z" stroke = "#ff0000" stroke-width = "1" fill = "#ff0000" />	<path d = "M347 437 L347 433 L343 433 L343 437 L347 437 Z" stroke = "#ff0000" stroke-width = "1" fill = "#ff0000" />	<path d = "M356 383 L356 379 L352 379 L352 383 L356 383 Z" stroke = "#ff0000" stroke-width = "1" fill = "#ff0000" />	<path d = "M347 374 L347 370 L343 370 L343 374 L347 374 Z" stroke = "#ff0000" stroke-width = "1" fill = "#ff0000" />	<path d = "M347 365 L347 361 L343 361 L343 365 L347 365 Z" stroke = "#ff0000" stroke-width = "1" fill = "#ff0000" />	<path d = "M338 356 L338 352 L334 352 L334 356 L338 356 Z" stroke = "#ff0000" stroke-width = "1" fill = "#ff0000" />	<path d = "M329 347 L329 343 L325 343 L325 347 L329 347 Z" stroke = "#ff0000" stroke-width = "1" fill = "#ff0000" />	<path d = "M320 347 L320 343 L316 343 L316 347 L320 347 Z" stroke = "#ff0000" stroke-width = "1" fill = "#ff0000" />	<path d = "M311 347 L311 343 L307 343 L307 347 L311 347 Z" stroke = "#ff0000" stroke-width = "1" fill = "#ff0000" />	<path d = "M302 347 L302 343 L298 343 L298 347 L302 347 Z" stroke = "#ff0000" stroke-width = "1" fill = "#ff0000" />	<path d = "M293 347 L293 343 L289 343 L289 347 L293 347 Z" stroke = "#ff0000" stroke-width = "1" fill = "#ff0000" />	<path d = "M284 347 L284 343 L280 343 L280 347 L284 347 Z" stroke = "#ff0000" stroke-width = "1" fill = "#ff0000" />	<path d = "M275 356 L275 352 L271 352 L271 356 L275 356 Z" stroke = "#ff0000" stroke-width = "1" fill = "#ff0000" />	<path d = "M266 365 L266 361 L262 361 L262 365 L266 365 Z" stroke = "#ff0000" stroke-width = "1" fill = "#ff0000" />	<path d = "M257 374 L257 370 L253 370 L253 374 L257 374 Z" stroke = "#ff0000" stroke-width = "1" fill = "#ff0000" />	<path d = "M248 383 L248 379 L244 379 L244 383 L248 383 Z" stroke = "#ff0000" stroke-width = "1" fill = "#ff0000" />	<path d = "M302 338 L302 334 L298 334 L298 338 L302 338 Z" stroke = "#ff0000" stroke-width = "1" fill = "#ff0000" />	<path d = "M302 329 L302 325 L298 325 L298 329 L302 329 Z" stroke = "#ff0000" stroke-width = "1" fill = "#ff0000" />	<path d = "M302 320 L302 316 L298 316 L298 320 L302 320 Z" stroke = "#ff0000" stroke-width = "1" fill = "#ff0000" />	<path d = "M302 311 L302 307 L298 307 L298 311 L302 311 Z" stroke = "#ff0000" stroke-width = "1" fill = "#ff0000" />	<path d = "M302 302 L302 298 L298 298 L298 302 L302 302 Z" stroke = "#ff0000" stroke-width = "1" fill = "#ff0000" />	<path d = "M302 293 L302 289 L298 289 L298 293 L302 293 Z" stroke = "#ff0000" stroke-width = "1" fill = "#ff0000" />	<path d = "M302 284 L302 280 L298 280 L298 284 L302 284 Z" stroke = "#ff0000" stroke-width = "1" fill = "#ff0000" />	<path d = "M302 275 L302 271 L298 271 L298 275 L302 275 Z" stroke = "#ff0000" stroke-width = "1" fill = "#ff0000" /></svg>