<svg width="600" height="600" viewbox = "0 0 600 600"  xmlns="http://www.w3.org/2000/svg">
<!--<json>{
  "glyph": "0330,0330,0332,0332,0332,0335,0335,0220,0330,0330,0330,0330,0330,0335,0335,0220,0333,0333,0333,0333,0333,0333,0221,0330,0330,0330,0330,0330,0335,0335,0221,0335,0335,0331,0331,0331,0332,0332,0332,0330,0336,0331,0337,0341,0211,0211,0211,0341,",
  "x0": 300,
  "y0": 300,
  "unit": 55.000000000000014,
  "width": 600,
  "height": 600,
  "style": {
    "color0": "black",
    "fill0": "black",
    "line0": 2,
    "color1": "black",
    "fill1": "black",
    "line1": 5,
    "color2": "red",
    "fill2": "red",
    "line2": 1,
    "color3": "#FF7900",
    "fill3": "#FF7900",
    "line3": 1,
    "color4": "yellow",
    "fill4": "yellow",
    "line4": 1,
    "color5": "green",
    "fill5": "green",
    "line5": 1,
    "color6": "blue",
    "fill6": "blue",
    "line6": 1,
    "color7": "purple",
    "fill7": "purple",
    "line7": 1
  },
  "shapes": [
    "0220:0306,0335,0330,0334,0334,0350,0334,0312,0337,0362,0203,0334,0334,0334,0334,0203,0334,0334,0334,0334,0203,0354,0334,0334,0334,0334,0306,0335,0313,0336,0336,0330,0334,0337,0362,0203,0203,0336,0203,0334,0334,0203,0203,0203,0203,0203,0203,0203,0334,0334,0203,0203,0203,0203,0203,0203,0203,0334,0334,0203,0203,0354,0331,0335,0335,0331,0334,0334,0337,0337,0335,0335,0350,0335,0312,0336,0331,0334,0334,0304,0313,",
    "0221:0306,0335,0330,0334,0334,0312,0337,0350,0334,0362,0203,0334,0334,0334,0334,0313,0336,0336,0203,0203,0334,0334,0203,0203,0334,0334,0203,0203,0354,0331,0331,0331,0334,0334,0334,0334,0362,0203,0334,0334,0334,0334,0203,0334,0334,0334,0334,0203,0354,0306,0330,0330,0330,0330,0334,0334,0362,0203,0203,0203,0203,0203,0203,0334,0334,0203,0203,0203,0335,0335,0203,0312,0313,0336,0203,0304,0334,0312,0337,0203,0334,0336,0313,0203,0203,0203,0203,0337,0306,0335,0203,0203,0203,0334,0334,0203,0203,0203,0335,0203,0203,0304,0336,0334,0312,0337,0203,0334,0312,0336,0313,0203,0203,0203,0306,0335,0335,0313,0337,0203,0203,0203,0334,0334,0203,0354,0332,0335,0334,0337,0337,0335,0335,0350,0335,0312,0336,0331,0334,0334,0304,0313,",
    "0222:0220,0210,0210,0210,0336,0336,0330,0330,0347,0337,0337,0335,0335,0330,0336,0336,0347,0335,0335,0337,0337,0330,0335,0335,0350,0334,0310,0337,0330,0336,0313,0335,0304,0335,0335,0336,0336,0347,0337,0337,0332,0332,0336,0336,0347,0337,0337,0333,0321,0342,0330,0335,0335,0350,0335,0310,0337,0342,0334,0334,0342,0336,0335,0313,0304,0335,0335,0335,0334,0336,0331,0337,0211,0211,0211,",
    "0223:0220,0336,0332,0336,0336,0332,0337,0337,0331,0337,0321,0342,0336,0336,0333,0337,0337,0342,0333,0342,0336,0336,0332,0337,0337,0342,0336,0330,0336,0331,0334,0337,0362,0203,0336,0203,0364,0333,0333,0335,0335,0337,0362,0203,0336,0203,0364,0334,0330,0335,0331,0337,0362,0203,0336,0203,0364,0334,0336,0332,0332,0332,0337,0342,0335,0335,0330,0330,0330,0330,0332,0335,0336,0331,0337,0337,0362,0203,0336,0203,0364,0331,0336,0331,0334,0337,0342,0333,0333,0333,0335,0336,0331,0337,0337,0362,0203,0336,0203,0364,0335,0335,0330,0336,0330,0335,0337,0342,0331,0331,0331,0331,0335,0331,0336,0331,0337,0337,0362,0203,0336,0203,0364,0335,0333,0336,0333,0337,0342,0333,0333,0331,0331,0337,0337,0320,0331,0336,0331,0332,01015,0163,0143,0162,0157,0154,0154,0330,0330,0330,0333,0337,",
    "0224:0336,0336,0350,0334,0310,0337,0362,0203,0335,0335,0335,0336,0313,0337,0305,0311,0334,0337,0203,0363,0335,0335,0362,0203,0335,0335,0350,0334,0336,0313,0336,0304,0350,0310,0337,0334,0203,0364,0335,0335,0335,0335,0336,0334,0313,0304,0337,0337,0335,",
    "0225:0220,0210,0224,0224,0224,0224,0211,0331,0336,0331,0332,01015,0155,0141,0160,0365,0330,0330,0330,0333,0337,",
    "0226:0220,0336,0331,0334,0336,0330,0337,0321,0336,0362,0203,0335,0203,0203,0203,0203,0203,0335,0203,0203,0203,0203,0335,0203,0203,0203,0203,0203,0335,0203,0364,0330,0334,0331,0337,0201,0335,0336,0350,0334,0331,0362,0203,0335,0335,0203,0364,0331,0335,0313,0304,0337,0330,0336,0330,0337,0337,0320,0331,0336,0331,0332,01015,0163,0141,0166,0145,0365,0330,0330,0330,0333,0337,",
    "0227:0304,0350,0335,0313,0304,0322,0336,0336,0336,0330,0332,0337,0337,0362,0203,0335,0336,0203,0335,0337,0203,0334,0203,0335,0336,0203,0335,0337,0203,0334,0203,0335,0336,0203,0335,0337,0203,0334,0203,0335,0336,0203,0335,0337,0203,0363,0320,0336,0334,0336,0333,0331,0337,0337,0337,0350,0334,0304,0220,0331,0336,0331,0332,0336,0332,0337,01015,0144,0145,0154,0145,0164,0145,0336,0333,0337,0330,0330,0330,0333,0337,",
    "0230:0313,0334,0336,0330,0335,0335,0305,0334,0337,0311,0337,0362,0203,0335,0335,0203,0335,0350,0335,0336,0203,0363,0313,0336,0331,0304,0335,0337,",
    "0231:0321,0342,0330,0320,0336,0230,0331,0331,0337,0350,0335,0304,",
    "0232:0231,0231,0231,0231,0231,0231,0231,0231,",
    "0233:0220,0336,0210,0232,",
    "0234:0220,0336,0335,0335,0331,0335,0331,0337,0321,0342,0332,0342,0336,0333,0337,0342,0330,0336,0336,0336,0330,0337,0366,0332,0332,0332,0367,0350,0335,0306,0350,0320,0335,0362,0203,0334,0334,0334,0334,0203,0334,0334,0334,0334,0203,0363,0335,0304,0350,0335,0304,0335,0335,0331,0331,0332,01015,0145,0154,0145,0155,0145,0156,0164,040,0144,0157,0167,0156,0365,0330,0330,0330,0330,0330,0333,0333,0333,0336,0332,0337,0333,0337,0337,",
    "0235:0220,0321,0336,0342,0335,0342,0335,0342,0335,0342,0335,0337,",
    "0236:0321,0220,0335,0336,0321,0342,0335,0335,0342,0335,0337,",
    "0237:0220,0336,0331,0332,0336,0321,0342,0335,0342,0335,0342,0335,0342,0335,0330,0330,0333,0333,0337,0337,",
    "01220:0333,0200,0336,0330,0332,0336,0220,0337,0331,0333,0337,",
    "01221:0333,0200,0336,0330,0332,0336,0221,0337,0331,0333,0337,",
    "01222:0333,0200,0336,0330,0332,0336,0332,060,062,062,062,0365,0333,0333,0331,0331,0333,0337,0337,",
    "01223:0333,0200,0336,0330,0332,0336,0332,060,062,062,063,0365,0333,0333,0331,0331,0333,0337,0337,",
    "01224:0333,0200,0336,0330,0332,0336,0332,060,062,062,064,0365,0333,0333,0331,0331,0333,0337,0337,",
    "01225:0333,0200,0336,0330,0332,0336,0332,060,062,062,065,0365,0333,0333,0331,0331,0333,0337,0337,",
    "01226:0333,0200,0336,0330,0332,0336,0332,060,062,062,066,0365,0333,0333,0331,0331,0333,0337,0337,",
    "01227:0333,0200,0336,0330,0332,0336,0332,060,062,062,067,0365,0333,0333,0331,0331,0333,0337,0337,",
    "01230:0333,0200,0336,0330,0332,0336,0332,060,062,063,060,0365,0333,0333,0331,0331,0333,0337,0337,",
    "01231:0333,0200,0336,0330,0332,0336,0332,060,062,063,061,0365,0333,0333,0331,0331,0333,0337,0337,",
    "01232:0333,0200,0336,0330,0332,0336,0332,060,062,063,062,0365,0333,0333,0331,0331,0333,0337,0337,",
    "01233:0333,0200,0336,0330,0332,0336,0332,060,062,063,063,0365,0333,0333,0331,0331,0333,0337,0337,",
    "01234:0333,0200,0336,0330,0332,0336,0332,060,062,063,064,0365,0333,0333,0331,0331,0333,0337,0337,",
    "01235:0333,0200,0336,0330,0332,0336,0332,060,062,063,065,0365,0333,0333,0331,0331,0333,0337,0337,",
    "01236:0333,0200,0336,0330,0332,0336,0332,060,062,063,066,0365,0333,0333,0331,0331,0333,0337,0337,",
    "01237:0333,0200,0336,0330,0332,0336,0332,060,062,063,067,0365,0333,0333,0331,0331,0333,0337,0337,",
    "0240:0220,0336,0331,0333,0336,0321,0335,0342,0335,0335,0342,0335,0330,0330,0332,0332,0337,0337,",
    "01240:0333,0200,0336,0330,0332,0210,0240,0211,0333,0331,0337,",
    "0241:0220,0336,0321,0343,0332,0350,0335,0336,0342,0334,0334,0342,0335,0304,0337,0333,0337,",
    "01241:0333,0200,0336,0332,0330,0210,0241,0211,0333,0331,0337,",
    "0242:0220,0321,0336,0343,0333,0336,0350,0335,0342,0334,0334,0342,0335,0337,0304,0332,0337,",
    "01242:0333,0200,0336,0330,0332,0210,0242,0211,0333,0331,0337,",
    "0243:0220,0336,0331,0332,0336,0321,0343,0332,0350,0334,0336,0342,0335,0335,0342,0337,0334,0334,0335,0304,0332,0330,0330,0337,0337,0333,",
    "01243:0333,0200,0336,0330,0332,0210,0243,0211,0333,0331,0337,",
    "0244:0220,0336,0331,0333,0336,0321,0343,0333,0350,0336,0335,0342,0334,0334,0342,0335,0337,0304,0333,0330,0330,0337,0337,0332,",
    "01244:0333,0200,0336,0330,0332,0210,0244,0211,0333,0331,0337,",
    "0245:0210,0332,0332,0362,0335,0203,0203,0203,0203,0334,0203,0363,0332,0332,0331,0211,",
    "01245:0333,0200,0336,0330,0332,0336,0245,0337,0333,0331,0337,",
    "0246:0210,0332,0332,0335,0306,0336,0330,0335,0335,0335,0321,0362,0203,0335,0335,0203,0364,0331,0350,0335,0337,0366,0333,0333,0333,0333,0334,0334,0334,0334,0367,0335,0336,0342,0334,0334,0342,0330,0330,0330,0330,0335,0335,0335,0304,0337,0211,",
    "01246:0333,0200,0336,0330,0332,0336,0246,",
    "0247:0330,0332,0336,0332,0336,0221,0333,0333,0333,0222,0333,0333,0333,0223,0333,0333,0333,0225,0333,0331,0331,0331,0332,0332,0332,0332,0332,0332,0332,0332,0332,0332,0332,0332,0333,0333,0226,0331,0331,0331,0333,0333,0333,0333,0333,0333,0333,0333,0333,0333,0333,0333,0333,0330,0333,0330,0330,0333,0330,0331,0332,0332,0332,0332,0332,0332,0332,0332,0332,0332,0332,0332,0227,0333,0333,0333,0230,0333,0331,0331,0331,0331,0332,0332,0332,0330,0332,0332,0332,0332,0332,0332,0333,0333,0231,0333,0333,0333,0232,0331,0333,0330,0333,0333,0233,0333,0333,0333,0234,0330,0330,0332,0330,0332,0332,0337,0337,",
    "01247:0333,0200,0336,0330,0332,0220,0336,0247,0337,0331,0333,0337,"
  ]
}</json>-->	<path d = "M87 218 L183 218 L135 135 L87 218 Z" stroke = "#000000" stroke-width = "2" fill = "none" />	<path d = "M99 238 L147 238 L195 238 L218 238 L206 217 L195 197 L183 176 L171 156 L159 135 L147 114 L135 94 L123 114 L111 135 L99 156 L87 176 L75 197 L64 218 L52 238 L75 238 L99 238 Z" stroke = "#000000" stroke-width = "2" fill = "none" />	<path d = "M183 437 L87 437 L135 520 L183 438 Z" stroke = "#000000" stroke-width = "2" fill = "none" />	<path d = "M171 417 L123 417 L75 417 L52 417 L64 437 L75 458 L87 479 L99 499 L111 520 L123 541 L135 561 L147 541 L159 520 L171 499 L183 479 L195 458 L206 438 L218 417 L195 417 L171 417 Z" stroke = "#000000" stroke-width = "2" fill = "none" />	<path d = "M513 438 L417 438 L429 458 L441 479 L465 479 L489 479 L501 458 L513 438 Z" stroke = "#000000" stroke-width = "2" fill = "none" />	<path d = "M477 499 L453 499 L465 520 L477 499 Z" stroke = "#000000" stroke-width = "2" fill = "none" />	<path d = "M525 417 L501 417 L477 417 L453 417 L429 417 L405 417 L382 417 L394 438 L405 458 L417 479 L394 479 L382 479 L382 499 L394 499 L405 499 L417 499 L429 499 L441 520 L453 541 L465 561 L477 541 L489 520 L501 499 L525 499 L548 499 L548 479 L536 479 L525 479 L513 479 L525 458 L536 438 L548 417 L525 417 Z" stroke = "#000000" stroke-width = "2" fill = "none" />	<path d = "M417 218 L513 218 L501 197 L489 176 L465 176 L441 176 L429 197 L417 218 Z" stroke = "#000000" stroke-width = "2" fill = "none" />	<path d = "M453 156 L477 156 L465 135 L453 156 Z" stroke = "#000000" stroke-width = "2" fill = "none" />	<path d = "M405 238 L429 238 L453 238 L477 238 L501 238 L525 238 L548 238 L536 218 L525 197 L513 176 L536 176 L548 176 L548 156 L536 156 L525 156 L513 156 L501 156 L489 135 L477 114 L465 94 L453 114 L441 135 L429 156 L405 156 L382 156 L382 176 L394 176 L405 176 L417 176 L405 197 L394 218 L382 238 L405 238 Z" stroke = "#000000" stroke-width = "2" fill = "none" /><circle cx="300" cy = "328" r = "55.000000000000014" stroke = "#000000" stroke-width = "2" fill = "none" />
<circle cx="300" cy = "328" r = "82.37219079257534" stroke = "#000000" stroke-width = "2" fill = "none" />
</svg>