<svg width="600" height="600" viewbox = "0 0 600 600"  xmlns="http://www.w3.org/2000/svg">
<!--<json>{
  "glyph": "0221,0336,0210,0221,0336,0210,0221,0336,0210,0221,0336,0210,0221,",
  "x0": 300,
  "y0": 300,
  "unit": 121.00000000000004,
  "width": 600,
  "height": 600,
  "style": {
    "color0": "black",
    "fill0": "white",
    "line0": 3,
    "color1": "black",
    "fill1": "black",
    "line1": 5,
    "color2": "red",
    "fill2": "red",
    "line2": 3,
    "color3": "#FF7900",
    "fill3": "#FF7900",
    "line3": 1,
    "color4": "yellow",
    "fill4": "yellow",
    "line4": 1,
    "color5": "green",
    "fill5": "green",
    "line5": 1,
    "color6": "blue",
    "fill6": "blue",
    "line6": 1,
    "color7": "purple",
    "fill7": "purple",
    "line7": 1
  },
  "shapes": [
    "0220:0330,0336,0332,0336,0332,0362,0203,0335,0337,0203,0203,0203,0335,0336,0203,0335,0203,0203,0203,0203,0203,0203,0354,0335,0333,0333,0333,0330,0336,0332,0337,0362,0203,0335,0203,0335,0203,0354,0330,0336,0332,0337,0337,0337,0337,0201,0335,0335,0336,0336,0332,0337,0337,0342,0336,0336,0332,0335,0362,0203,0203,0203,0335,0336,0203,0335,0203,0203,0203,0203,0203,0203,0335,0203,0354,0335,0335,0330,0332,0332,0336,0332,0337,0362,0203,0334,0203,0334,0203,0354,0330,0336,0333,0337,0330,0330,0330,0330,0332,0337,0337,",
    "0221:0332,0336,0332,0337,0220,0333,0333,0333,0220,0336,0330,0332,0336,0333,0330,0334,0337,0337,0362,0203,0203,0336,0203,0364,0335,0335,0333,0333,0333,0362,0203,0203,0203,0203,0203,0364,0334,0330,0336,0330,0337,0332,0332,0336,0332,0337,0337,",
    "0222:0334,0336,0336,0362,0203,0335,0203,0203,0334,0203,0335,0350,0335,0310,0337,0203,0203,0335,0335,0203,0203,0335,0335,0335,0336,0203,0334,0334,0203,0203,0335,0335,0203,0354,0335,0335,0304,0313,0337,0337,",
    "0223:0336,0334,0336,0362,0203,0335,0203,0203,0203,0203,0203,0203,0334,0203,0335,0350,0310,0337,0335,0203,0203,0335,0335,0203,0203,0335,0335,0335,0336,0203,0313,0304,0334,0203,0203,0203,0203,0203,0203,0335,0203,0354,0335,0337,0337,",
    "0224:0334,0306,0362,0203,0335,0335,0203,0203,0335,0335,0203,0203,0335,0335,0203,0354,0335,0342,0335,0201,0334,0334,0201,0335,0331,0350,0335,0304,",
    "0225:0330,0334,0362,0203,0335,0336,0336,0203,0335,0337,0337,0203,0203,0335,0336,0336,0203,0335,0337,0337,0203,0354,0335,0336,0336,0330,0332,0362,0203,0335,0203,0203,0335,0203,0354,0335,0335,0331,0333,0333,0335,0335,0337,0337,0337,0362,0203,0335,0336,0203,0336,0203,0335,0337,0337,0203,0364,0336,0336,0331,0336,0330,0333,0335,0337,0335,0337,0362,0203,0336,0203,0335,0335,0364,0333,0362,0203,0203,0203,0354,0335,0335,0332,0362,0203,0203,0203,0354,0335,0335,0330,0332,0336,0330,0337,0337,",
    "0226:0341,0311,0336,0341,0337,0330,0335,0335,0336,0336,0313,0335,0335,0336,0331,0337,0306,0362,0203,0335,0335,0203,0203,0335,0335,0203,0203,0335,0335,0203,0363,0313,0336,0331,0337,0330,0335,0335,0335,0311,0337,0337,0330,0330,0335,0335,0335,0336,0336,0313,0336,0330,0337,0362,0203,0334,0334,0203,0203,0334,0334,0203,0203,0334,0334,0203,0363,0336,0331,0337,0311,0337,0337,0330,0304,",
    "0227:0304,0350,0335,0304,0330,0336,0336,0330,0337,0337,0222,0331,0336,0336,0331,0337,0337,",
    "0230:0341,0227,0227,0227,0227,0227,0227,0227,0227,",
    "0231:0304,0350,0335,0304,0330,0330,0330,0336,0330,0337,0341,0336,0331,0337,0331,0331,0331,",
    "0232:0230,0231,0231,0231,0231,0231,0231,0231,0231,",
    "01220:0333,0200,0336,0330,0332,0336,0220,0333,0333,0331,0331,0337,0337,",
    "01221:0333,0200,0336,0330,0332,0336,0336,0221,0337,0337,0331,0333,0337,",
    "01222:0333,0200,0336,0330,0332,0336,0222,0333,0333,0331,0331,0337,0337,",
    "01223:0333,0200,0336,0330,0332,0336,0331,0336,0337,0223,0331,0333,0333,0337,0337,",
    "01224:0333,0200,0336,0330,0332,0336,0331,0337,0210,0210,0224,0211,0211,0333,0336,0331,0337,0337,",
    "01225:0333,0200,0336,0330,0332,0210,0210,0210,0210,0225,0211,0211,0211,0211,0333,0331,0337,",
    "01226:0333,0200,0336,0330,0332,0210,0226,0211,0333,0331,0337,",
    "01227:0333,0200,0336,0330,0332,0336,0227,0227,0227,0227,0227,0227,0227,0227,0331,0331,0333,0333,0337,0337,",
    "01230:0333,0200,0336,0330,0332,0336,0230,0331,0331,0333,0333,0337,0337,",
    "01231:0333,0200,0336,0330,0332,0336,0336,0231,0231,0231,0231,0231,0231,0231,0231,0331,0331,0331,0331,0333,0333,0333,0333,0337,0337,0337,",
    "01232:0333,0200,0336,0330,0332,0336,0336,0336,0232,0337,0337,0337,0331,0333,0337,",
    "01233:0333,0200,0336,0330,0332,0210,0233,0211,0333,0331,0337,",
    "01234:0333,0200,0336,0330,0332,0210,0234,0211,0333,0331,0337,",
    "01235:0333,0200,0336,0330,0332,0210,0235,0211,0333,0331,0337,",
    "01236:0333,0200,0336,0330,0332,0210,0236,0211,0333,0331,0337,",
    "01237:0333,0200,0336,0330,0332,0210,0237,0211,0333,0331,0337,",
    "0240:0220,0336,0331,0333,0336,0321,0335,0342,0335,0335,0342,0335,0330,0330,0332,0332,0337,0337,",
    "01240:0333,0200,0336,0330,0332,0210,0240,0211,0333,0331,0337,",
    "0241:0220,0336,0321,0343,0332,0350,0335,0336,0342,0334,0334,0342,0335,0304,0337,0333,0337,",
    "01241:0333,0200,0336,0332,0330,0210,0241,0211,0333,0331,0337,",
    "0242:0220,0321,0336,0343,0333,0336,0350,0335,0342,0334,0334,0342,0335,0337,0304,0332,0337,",
    "01242:0333,0200,0336,0330,0332,0210,0242,0211,0333,0331,0337,",
    "0243:0220,0336,0331,0332,0336,0321,0343,0332,0350,0334,0336,0342,0335,0335,0342,0337,0334,0334,0335,0304,0332,0330,0330,0337,0337,0333,",
    "01243:0333,0200,0336,0330,0332,0210,0243,0211,0333,0331,0337,",
    "0244:0220,0336,0331,0333,0336,0321,0343,0333,0350,0336,0335,0342,0334,0334,0342,0335,0337,0304,0333,0330,0330,0337,0337,0332,",
    "01244:0333,0200,0336,0330,0332,0210,0244,0211,0333,0331,0337,",
    "0245:0210,0332,0332,0362,0335,0203,0203,0203,0203,0334,0203,0363,0332,0332,0331,0211,",
    "01245:0333,0200,0336,0330,0332,0336,0245,0337,0333,0331,0337,",
    "0246:0210,0332,0332,0335,0306,0336,0330,0335,0335,0335,0321,0362,0203,0335,0335,0203,0364,0331,0350,0335,0337,0366,0333,0333,0333,0333,0334,0334,0334,0334,0367,0335,0336,0342,0334,0334,0342,0330,0330,0330,0330,0335,0335,0335,0304,0337,0211,",
    "01246:0333,0200,0336,0330,0332,0336,0246,",
    "0247:0330,0332,0336,0332,0336,0221,0333,0333,0333,0222,0333,0333,0333,0223,0333,0333,0333,0225,0333,0331,0331,0331,0332,0332,0332,0332,0332,0332,0332,0332,0332,0332,0332,0332,0333,0333,0226,0331,0331,0331,0333,0333,0333,0333,0333,0333,0333,0333,0333,0333,0333,0333,0333,0330,0333,0330,0330,0333,0330,0331,0332,0332,0332,0332,0332,0332,0332,0332,0332,0332,0332,0332,0227,0333,0333,0333,0230,0333,0331,0331,0331,0331,0332,0332,0332,0330,0332,0332,0332,0332,0332,0332,0333,0333,0231,0333,0333,0333,0232,0331,0333,0330,0333,0333,0233,0333,0333,0333,0234,0330,0330,0332,0330,0332,0332,0337,0337,",
    "01247:0333,0200,0336,0330,0332,0220,0336,0247,0337,0331,0333,0337,"
  ]
}</json>-->	<path d = "M28 179 L28 149 L88 149 L149 149 L209 149 L209 179 L179 179 L149 179 L118 179 L88 179 L58 179 L28 179 Z" stroke = "#000000" stroke-width = "3" fill = "none" />	<path d = "M103 149 L103 118 L134 118 L134 149 Z" stroke = "#000000" stroke-width = "3" fill = "none" />    <line x1="149" y1="179" x2="149" y2="421" style="stroke:#000000;stroke-width:3" />
    <line x1="88" y1="421" x2="88" y2="179" style="stroke:#000000;stroke-width:3" />
	<path d = "M28 421 L88 421 L149 421 L209 421 L209 451 L179 451 L149 451 L119 451 L88 451 L58 451 L28 451 L28 421 Z" stroke = "#000000" stroke-width = "3" fill = "none" />	<path d = "M103 451 L103 481 L134 481 L134 451 Z" stroke = "#000000" stroke-width = "3" fill = "none" />	<path d = "M391 179 L391 149 L451 149 L512 149 L572 149 L572 179 L542 179 L512 179 L481 179 L451 179 L421 179 L391 179 Z" stroke = "#000000" stroke-width = "3" fill = "none" />	<path d = "M466 149 L466 118 L497 118 L497 149 Z" stroke = "#000000" stroke-width = "3" fill = "none" />    <line x1="512" y1="179" x2="512" y2="421" style="stroke:#000000;stroke-width:3" />
    <line x1="451" y1="421" x2="451" y2="179" style="stroke:#000000;stroke-width:3" />
	<path d = "M391 421 L451 421 L512 421 L572 421 L572 451 L542 451 L512 451 L481 451 L451 451 L421 451 L391 451 L391 421 Z" stroke = "#000000" stroke-width = "3" fill = "none" />	<path d = "M466 451 L466 481 L497 482 L497 451 Z" stroke = "#000000" stroke-width = "3" fill = "none" />	<path d = "M451 209 L330 209 L209 209 L149 209 " stroke = "#000000" stroke-width = "3" fill = "none" />	<path d = "M149 391 L209 391 L270 391 L330 391 L391 391 L451 391 " stroke = "#000000" stroke-width = "3" fill = "none" />	<path d = "M181 247 L181 234 L207 234 L234 234 L260 234 L260 247 L247 247 L234 247 L221 247 L207 247 L194 247 L181 247 Z" stroke = "#000000" stroke-width = "3" fill = "none" />	<path d = "M214 234 L214 221 L227 221 L227 234 Z" stroke = "#000000" stroke-width = "3" fill = "none" />    <line x1="234" y1="247" x2="234" y2="353" style="stroke:#000000;stroke-width:3" />
    <line x1="207" y1="353" x2="207" y2="247" style="stroke:#000000;stroke-width:3" />
	<path d = "M181 353 L207 353 L234 353 L260 353 L260 366 L247 366 L234 366 L221 366 L207 366 L194 366 L181 366 L181 353 Z" stroke = "#000000" stroke-width = "3" fill = "none" />	<path d = "M214 366 L214 379 L227 379 L227 366 Z" stroke = "#000000" stroke-width = "3" fill = "none" />	<path d = "M340 247 L340 234 L366 234 L393 234 L419 234 L419 247 L406 247 L393 247 L379 247 L366 247 L353 247 L340 247 Z" stroke = "#000000" stroke-width = "3" fill = "none" />	<path d = "M373 234 L373 221 L386 221 L386 234 Z" stroke = "#000000" stroke-width = "3" fill = "none" />    <line x1="393" y1="247" x2="393" y2="353" style="stroke:#000000;stroke-width:3" />
    <line x1="366" y1="353" x2="366" y2="247" style="stroke:#000000;stroke-width:3" />
	<path d = "M340 353 L366 353 L393 353 L419 353 L419 366 L406 366 L393 366 L379 366 L366 366 L353 366 L340 366 L340 353 Z" stroke = "#000000" stroke-width = "3" fill = "none" />	<path d = "M373 366 L373 379 L386 379 L386 366 Z" stroke = "#000000" stroke-width = "3" fill = "none" />	<path d = "M366 260 L313 260 L260 260 L234 260 " stroke = "#000000" stroke-width = "3" fill = "none" />	<path d = "M234 340 L260 340 L287 340 L313 340 L340 340 L366 340 " stroke = "#000000" stroke-width = "3" fill = "none" />	<path d = "M248 277 L248 271 L260 271 L271 271 L283 271 L283 277 L277 277 L271 277 L265 277 L260 277 L254 277 L248 277 Z" stroke = "#000000" stroke-width = "3" fill = "none" />	<path d = "M262 271 L262 265 L268 265 L268 271 Z" stroke = "#000000" stroke-width = "3" fill = "none" />    <line x1="271" y1="277" x2="271" y2="323" style="stroke:#000000;stroke-width:3" />
    <line x1="260" y1="323" x2="260" y2="277" style="stroke:#000000;stroke-width:3" />
	<path d = "M248 323 L260 323 L271 323 L283 323 L283 329 L277 329 L271 329 L265 329 L260 329 L254 329 L248 329 L248 323 Z" stroke = "#000000" stroke-width = "3" fill = "none" />	<path d = "M262 329 L262 335 L268 335 L268 329 Z" stroke = "#000000" stroke-width = "3" fill = "none" />	<path d = "M317 277 L317 271 L329 271 L340 271 L352 271 L352 277 L346 277 L340 277 L335 277 L329 277 L323 277 L317 277 Z" stroke = "#000000" stroke-width = "3" fill = "none" />	<path d = "M332 271 L332 265 L338 265 L338 271 Z" stroke = "#000000" stroke-width = "3" fill = "none" />    <line x1="340" y1="277" x2="340" y2="323" style="stroke:#000000;stroke-width:3" />
    <line x1="329" y1="323" x2="329" y2="277" style="stroke:#000000;stroke-width:3" />
	<path d = "M317 323 L329 323 L340 323 L352 323 L352 329 L346 329 L340 329 L335 329 L329 329 L323 329 L317 329 L317 323 Z" stroke = "#000000" stroke-width = "3" fill = "none" />	<path d = "M332 329 L332 335 L338 335 L338 329 Z" stroke = "#000000" stroke-width = "3" fill = "none" />	<path d = "M329 283 L306 283 L283 283 L271 283 " stroke = "#000000" stroke-width = "3" fill = "none" />	<path d = "M271 317 L283 317 L294 317 L306 317 L317 317 L329 317 " stroke = "#000000" stroke-width = "3" fill = "none" />	<path d = "M277 290 L277 287 L282 287 L287 287 L292 287 L292 290 L290 290 L287 290 L285 290 L282 290 L280 290 L277 290 Z" stroke = "#000000" stroke-width = "3" fill = "none" />	<path d = "M284 287 L284 285 L286 285 L286 287 Z" stroke = "#000000" stroke-width = "3" fill = "none" />    <line x1="287" y1="290" x2="287" y2="310" style="stroke:#000000;stroke-width:3" />
    <line x1="282" y1="310" x2="282" y2="290" style="stroke:#000000;stroke-width:3" />
	<path d = "M277 310 L282 310 L287 310 L292 310 L292 313 L290 313 L287 313 L285 313 L282 313 L280 313 L277 313 L277 310 Z" stroke = "#000000" stroke-width = "3" fill = "none" />	<path d = "M284 313 L284 315 L286 315 L286 313 Z" stroke = "#000000" stroke-width = "3" fill = "none" />	<path d = "M308 290 L308 287 L313 287 L318 287 L323 287 L323 290 L320 290 L318 290 L315 290 L313 290 L310 290 L308 290 Z" stroke = "#000000" stroke-width = "3" fill = "none" />	<path d = "M314 287 L314 285 L316 285 L316 287 Z" stroke = "#000000" stroke-width = "3" fill = "none" />    <line x1="318" y1="290" x2="318" y2="310" style="stroke:#000000;stroke-width:3" />
    <line x1="313" y1="310" x2="313" y2="290" style="stroke:#000000;stroke-width:3" />
	<path d = "M308 310 L313 310 L318 310 L323 310 L323 313 L320 313 L318 313 L315 313 L313 313 L310 313 L308 313 L308 310 Z" stroke = "#000000" stroke-width = "3" fill = "none" />	<path d = "M314 313 L314 315 L316 315 L316 313 Z" stroke = "#000000" stroke-width = "3" fill = "none" />	<path d = "M313 292 L303 292 L292 292 L287 292 " stroke = "#000000" stroke-width = "3" fill = "none" />	<path d = "M287 308 L292 308 L297 308 L303 308 L308 308 L313 308 " stroke = "#000000" stroke-width = "3" fill = "none" />	<path d = "M290 296 L290 294 L292 294 L294 294 L297 294 L297 296 L296 296 L294 296 L293 296 L292 296 L291 296 L290 296 Z" stroke = "#000000" stroke-width = "3" fill = "none" />	<path d = "M293 294 L293 293 L294 293 L294 294 Z" stroke = "#000000" stroke-width = "3" fill = "none" />    <line x1="294" y1="296" x2="294" y2="304" style="stroke:#000000;stroke-width:3" />
    <line x1="292" y1="304" x2="292" y2="296" style="stroke:#000000;stroke-width:3" />
	<path d = "M290 304 L292 304 L294 304 L297 304 L297 306 L296 306 L294 306 L293 306 L292 306 L291 306 L290 306 L290 304 Z" stroke = "#000000" stroke-width = "3" fill = "none" />	<path d = "M293 306 L293 307 L294 307 L294 306 Z" stroke = "#000000" stroke-width = "3" fill = "none" />	<path d = "M303 296 L303 294 L306 294 L308 294 L310 294 L310 296 L309 296 L308 296 L307 296 L306 296 L304 296 L303 296 Z" stroke = "#000000" stroke-width = "3" fill = "none" />	<path d = "M306 294 L306 293 L307 293 L307 294 Z" stroke = "#000000" stroke-width = "3" fill = "none" />    <line x1="308" y1="296" x2="308" y2="304" style="stroke:#000000;stroke-width:3" />
    <line x1="306" y1="304" x2="306" y2="296" style="stroke:#000000;stroke-width:3" />
	<path d = "M303 304 L306 304 L308 304 L310 304 L310 306 L309 306 L308 306 L307 306 L306 306 L304 306 L303 306 L303 304 Z" stroke = "#000000" stroke-width = "3" fill = "none" />	<path d = "M306 306 L306 307 L307 307 L307 306 Z" stroke = "#000000" stroke-width = "3" fill = "none" />	<path d = "M306 297 L301 297 L297 297 L294 297 " stroke = "#000000" stroke-width = "3" fill = "none" />	<path d = "M294 303 L297 303 L299 303 L301 303 L303 303 L306 303 " stroke = "#000000" stroke-width = "3" fill = "none" /></svg>