<svg width="600" height="700" viewbox = "0 0 600 700"  xmlns="http://www.w3.org/2000/svg">
<!--<json>{
  "glyph": "0336,0336,0336,0332,0337,0337,0330,0337,0330,0330,0330,0330,0330,0330,0330,0332,0332,0332,0332,01124,01122,01101,01123,01110,01040,01122,01117,01102,01117,01124,",
  "x0": 300,
  "y0": 618.6254999999999,
  "unit": 73.20500000000004,
  "width": 600,
  "height": 700,
  "style": {
    "color0": "black",
    "fill0": "white",
    "line0": 2,
    "color1": "black",
    "fill1": "black",
    "line1": 5,
    "color2": "red",
    "fill2": "red",
    "line2": 1,
    "color3": "#FF7900",
    "fill3": "#FF7900",
    "line3": 1,
    "color4": "yellow",
    "fill4": "yellow",
    "line4": 1,
    "color5": "green",
    "fill5": "green",
    "line5": 1,
    "color6": "blue",
    "fill6": "blue",
    "line6": 1,
    "color7": "purple",
    "fill7": "purple",
    "line7": 1
  },
  "shapes": [
    "0220:0342,0336,0333,0342,0336,0332,0342,0333,0333,0342,0336,0333,0342,0332,0332,0342,0332,0332,0342,0332,0332,0342,0333,0333,0333,0333,0333,0333,0333,0337,0337,0337,",
    "0221:0316,0336,0313,0342,0336,0333,0342,0333,0342,0333,0342,0333,0342,0333,0337,0342,0336,0333,0342,0333,0342,0333,0342,0333,0342,0333,0342,0337,0316,0337,0313,",
    "0222:0362,0203,0335,0203,0203,0203,0203,0203,0203,0335,0203,0335,0203,0203,0203,0203,0203,0203,0354,0335,",
    "0223:0322,0221,0221,0221,0221,0221,0221,0334,0221,0334,0220,0220,0220,0220,0220,0220,0334,0220,0334,0320,",
    "0224:0222,0330,0222,0330,0222,0330,0222,0330,0222,0330,0222,0331,0331,0331,0331,0331,",
    "0225:0223,0330,0223,0330,0223,0330,0223,0330,0223,0330,0223,0331,0331,0331,0331,0331,",
    "0226:0220,0336,0331,0334,0336,0330,0337,0321,0336,0362,0203,0335,0203,0203,0203,0203,0203,0335,0203,0203,0203,0203,0335,0203,0203,0203,0203,0203,0335,0203,0364,0330,0334,0331,0337,0201,0335,0336,0350,0334,0331,0362,0203,0335,0335,0203,0364,0331,0335,0313,0304,0337,0330,0336,0330,0337,0337,0320,0331,0336,0331,0332,01015,0163,0141,0166,0145,0365,0330,0330,0330,0333,0337,",
    "0227:0304,0350,0335,0313,0304,0322,0336,0336,0336,0330,0332,0337,0337,0362,0203,0335,0336,0203,0335,0337,0203,0334,0203,0335,0336,0203,0335,0337,0203,0334,0203,0335,0336,0203,0335,0337,0203,0334,0203,0335,0336,0203,0335,0337,0203,0363,0320,0336,0334,0336,0333,0331,0337,0337,0337,0350,0334,0304,0220,0331,0336,0331,0332,0336,0332,0337,01015,0144,0145,0154,0145,0164,0145,0336,0333,0337,0330,0330,0330,0333,0337,",
    "0230:0313,0334,0336,0330,0335,0335,0305,0334,0337,0311,0337,0362,0203,0335,0335,0203,0335,0350,0335,0336,0203,0363,0313,0336,0331,0304,0335,0337,",
    "0231:0321,0342,0330,0320,0336,0230,0331,0331,0337,0350,0335,0304,",
    "0232:0231,0231,0231,0231,0231,0231,0231,0231,",
    "0233:0220,0336,0210,0232,",
    "0234:0220,0336,0335,0335,0331,0335,0331,0337,0321,0342,0332,0342,0336,0333,0337,0342,0330,0336,0336,0336,0330,0337,0366,0332,0332,0332,0367,0350,0335,0306,0350,0320,0335,0362,0203,0334,0334,0334,0334,0203,0334,0334,0334,0334,0203,0363,0335,0304,0350,0335,0304,0335,0335,0331,0331,0332,01015,0145,0154,0145,0155,0145,0156,0164,040,0144,0157,0167,0156,0365,0330,0330,0330,0330,0330,0333,0333,0333,0336,0332,0337,0333,0337,0337,",
    "0235:0220,0321,0336,0342,0335,0342,0335,0342,0335,0342,0335,0337,",
    "0236:0321,0220,0335,0336,0321,0342,0335,0335,0342,0335,0337,",
    "0237:0220,0336,0331,0332,0336,0321,0342,0335,0342,0335,0342,0335,0342,0335,0330,0330,0333,0333,0337,0337,",
    "01220:0333,0200,0336,0332,0330,0336,0332,0337,0220,0331,0336,0333,0337,0337,",
    "01221:0333,0200,0336,0330,0332,0336,0332,0337,0221,0336,0333,0337,0331,0337,",
    "01222:0333,0200,0336,0330,0332,0336,0332,0336,0332,0222,0332,0337,0337,0331,0337,0333,",
    "01223:0333,0200,0336,0332,0330,0336,0332,0336,0332,0223,0332,0337,0337,0331,0337,0333,0320,",
    "01224:0333,0200,0336,0332,0336,0330,0336,0332,0332,0331,0332,0224,",
    "01225:0333,0200,0336,0330,0332,0336,0331,0332,0336,0331,0332,0225,0331,0332,0320,0337,0337,0337,0333,",
    "01226:0333,0200,0336,0336,0330,0332,0337,0226,0336,0333,0331,0337,0337,",
    "01227:0333,0200,0336,0330,0332,0336,0332,0337,0227,0333,0336,0333,0337,0331,0337,",
    "01230:0333,0200,",
    "01231:0333,0200,",
    "01232:0333,0200,",
    "01233:0333,0200,",
    "01234:0333,0200,",
    "01235:0333,0200,",
    "01236:0333,0200,",
    "01237:0333,0200,",
    "0240:0220,0336,0331,0333,0336,0321,0335,0342,0335,0335,0342,0335,0330,0330,0332,0332,0337,0337,",
    "01240:0333,0200,0336,0330,0332,0210,0240,0211,0333,0331,0337,",
    "0241:0220,0336,0321,0343,0332,0350,0335,0336,0342,0334,0334,0342,0335,0304,0337,0333,0337,",
    "01241:0333,0200,0336,0332,0330,0210,0241,0211,0333,0331,0337,",
    "0242:0220,0321,0336,0343,0333,0336,0350,0335,0342,0334,0334,0342,0335,0337,0304,0332,0337,",
    "01242:0333,0200,0336,0330,0332,0210,0242,0211,0333,0331,0337,",
    "0243:0220,0336,0331,0332,0336,0321,0343,0332,0350,0334,0336,0342,0335,0335,0342,0337,0334,0334,0335,0304,0332,0330,0330,0337,0337,0333,",
    "01243:0333,0200,0336,0330,0332,0210,0243,0211,0333,0331,0337,",
    "0244:0220,0336,0331,0333,0336,0321,0343,0333,0350,0336,0335,0342,0334,0334,0342,0335,0337,0304,0333,0330,0330,0337,0337,0332,",
    "01244:0333,0200,0336,0330,0332,0210,0244,0211,0333,0331,0337,",
    "0245:0210,0332,0332,0362,0335,0203,0203,0203,0203,0334,0203,0363,0332,0332,0331,0211,",
    "01245:0333,0200,0336,0330,0332,0336,0245,0337,0333,0331,0337,",
    "0246:0210,0332,0332,0335,0306,0336,0330,0335,0335,0335,0321,0362,0203,0335,0335,0203,0364,0331,0350,0335,0337,0366,0333,0333,0333,0333,0334,0334,0334,0334,0367,0335,0336,0342,0334,0334,0342,0330,0330,0330,0330,0335,0335,0335,0304,0337,0211,",
    "01246:0333,0200,0336,0330,0332,0336,0246,",
    "0247:0330,0332,0336,0332,0336,0221,0333,0333,0333,0222,0333,0333,0333,0223,0333,0333,0333,0225,0333,0331,0331,0331,0332,0332,0332,0332,0332,0332,0332,0332,0332,0332,0332,0332,0333,0333,0226,0331,0331,0331,0333,0333,0333,0333,0333,0333,0333,0333,0333,0333,0333,0333,0333,0330,0333,0330,0330,0333,0330,0331,0332,0332,0332,0332,0332,0332,0332,0332,0332,0332,0332,0332,0227,0333,0333,0333,0230,0333,0331,0331,0331,0331,0332,0332,0332,0330,0332,0332,0332,0332,0332,0332,0333,0333,0231,0333,0333,0333,0232,0331,0333,0330,0333,0333,0233,0333,0333,0333,0234,0330,0330,0332,0330,0332,0332,0337,0337,",
    "01247:0333,0200,0336,0330,0332,0220,0336,0247,0337,0331,0333,0337,"
  ]
}</json>-->	<path d = "M12 19 L12 10 L3 10 L3 19 L12 19 Z" stroke = "#000000" stroke-width = "2" fill = "none" />	<path d = "M21 19 L21 10 L12 10 L12 19 L21 19 Z" stroke = "#000000" stroke-width = "2" fill = "none" />	<path d = "M30 19 L30 10 L21 10 L21 19 L30 19 Z" stroke = "#000000" stroke-width = "2" fill = "none" />	<path d = "M39 19 L39 10 L30 10 L30 19 L39 19 Z" stroke = "#000000" stroke-width = "2" fill = "none" />	<path d = "M48 19 L48 10 L39 10 L39 19 L48 19 Z" stroke = "#000000" stroke-width = "2" fill = "none" />	<path d = "M30 28 L30 19 L21 19 L21 28 L30 28 Z" stroke = "#000000" stroke-width = "2" fill = "none" />	<path d = "M30 38 L30 28 L21 28 L21 38 L30 38 Z" stroke = "#000000" stroke-width = "2" fill = "none" />	<path d = "M30 47 L30 38 L21 38 L21 47 L30 47 Z" stroke = "#000000" stroke-width = "2" fill = "none" />	<path d = "M30 56 L30 47 L21 47 L21 56 L30 56 Z" stroke = "#000000" stroke-width = "2" fill = "none" />	<path d = "M30 65 L30 56 L21 56 L21 65 L30 65 Z" stroke = "#000000" stroke-width = "2" fill = "none" />	<path d = "M30 74 L30 65 L21 65 L21 74 L30 74 Z" stroke = "#000000" stroke-width = "2" fill = "none" />	<path d = "M67 74 L67 65 L58 65 L58 74 L67 74 Z" stroke = "#000000" stroke-width = "2" fill = "none" />	<path d = "M67 65 L67 56 L58 56 L58 65 L67 65 Z" stroke = "#000000" stroke-width = "2" fill = "none" />	<path d = "M67 56 L67 47 L58 47 L58 56 L67 56 Z" stroke = "#000000" stroke-width = "2" fill = "none" />	<path d = "M67 47 L67 38 L58 38 L58 47 L67 47 Z" stroke = "#000000" stroke-width = "2" fill = "none" />	<path d = "M67 38 L67 28 L58 28 L58 38 L67 38 Z" stroke = "#000000" stroke-width = "2" fill = "none" />	<path d = "M67 28 L67 19 L58 19 L58 28 L67 28 Z" stroke = "#000000" stroke-width = "2" fill = "none" />	<path d = "M67 19 L67 10 L58 10 L58 19 L67 19 Z" stroke = "#000000" stroke-width = "2" fill = "none" />	<path d = "M76 19 L76 10 L67 10 L67 19 L76 19 Z" stroke = "#000000" stroke-width = "2" fill = "none" />	<path d = "M85 19 L85 10 L76 10 L76 19 L85 19 Z" stroke = "#000000" stroke-width = "2" fill = "none" />	<path d = "M94 19 L94 10 L85 10 L85 19 L94 19 Z" stroke = "#000000" stroke-width = "2" fill = "none" />	<path d = "M103 28 L103 19 L94 19 L94 28 L103 28 Z" stroke = "#000000" stroke-width = "2" fill = "none" />	<path d = "M103 38 L103 28 L94 28 L94 38 L103 38 Z" stroke = "#000000" stroke-width = "2" fill = "none" />	<path d = "M94 47 L94 38 L85 38 L85 47 L94 47 Z" stroke = "#000000" stroke-width = "2" fill = "none" />	<path d = "M85 47 L85 38 L76 38 L76 47 L85 47 Z" stroke = "#000000" stroke-width = "2" fill = "none" />	<path d = "M76 47 L76 38 L67 38 L67 47 L76 47 Z" stroke = "#000000" stroke-width = "2" fill = "none" />	<path d = "M85 56 L85 47 L76 47 L76 56 L85 56 Z" stroke = "#000000" stroke-width = "2" fill = "none" />	<path d = "M94 65 L94 56 L85 56 L85 65 L94 65 Z" stroke = "#000000" stroke-width = "2" fill = "none" />	<path d = "M103 74 L103 65 L94 65 L94 74 L103 74 Z" stroke = "#000000" stroke-width = "2" fill = "none" />	<path d = "M122 74 L122 65 L112 65 L112 74 L122 74 Z" stroke = "#000000" stroke-width = "2" fill = "none" />	<path d = "M122 65 L122 56 L112 56 L112 65 L122 65 Z" stroke = "#000000" stroke-width = "2" fill = "none" />	<path d = "M122 56 L122 47 L112 47 L112 56 L122 56 Z" stroke = "#000000" stroke-width = "2" fill = "none" />	<path d = "M122 47 L122 38 L112 38 L112 47 L122 47 Z" stroke = "#000000" stroke-width = "2" fill = "none" />	<path d = "M122 38 L122 28 L112 28 L112 38 L122 38 Z" stroke = "#000000" stroke-width = "2" fill = "none" />	<path d = "M122 28 L122 19 L112 19 L112 28 L122 28 Z" stroke = "#000000" stroke-width = "2" fill = "none" />	<path d = "M131 19 L131 10 L122 10 L122 19 L131 19 Z" stroke = "#000000" stroke-width = "2" fill = "none" />	<path d = "M140 19 L140 10 L131 10 L131 19 L140 19 Z" stroke = "#000000" stroke-width = "2" fill = "none" />	<path d = "M149 19 L149 10 L140 10 L140 19 L149 19 Z" stroke = "#000000" stroke-width = "2" fill = "none" />	<path d = "M158 28 L158 19 L149 19 L149 28 L158 28 Z" stroke = "#000000" stroke-width = "2" fill = "none" />	<path d = "M158 38 L158 28 L149 28 L149 38 L158 38 Z" stroke = "#000000" stroke-width = "2" fill = "none" />	<path d = "M158 47 L158 38 L149 38 L149 47 L158 47 Z" stroke = "#000000" stroke-width = "2" fill = "none" />	<path d = "M158 56 L158 47 L149 47 L149 56 L158 56 Z" stroke = "#000000" stroke-width = "2" fill = "none" />	<path d = "M158 65 L158 56 L149 56 L149 65 L158 65 Z" stroke = "#000000" stroke-width = "2" fill = "none" />	<path d = "M158 74 L158 65 L149 65 L149 74 L158 74 Z" stroke = "#000000" stroke-width = "2" fill = "none" />	<path d = "M149 47 L149 38 L140 38 L140 47 L149 47 Z" stroke = "#000000" stroke-width = "2" fill = "none" />	<path d = "M140 47 L140 38 L131 38 L131 47 L140 47 Z" stroke = "#000000" stroke-width = "2" fill = "none" />	<path d = "M131 47 L131 38 L122 38 L122 47 L131 47 Z" stroke = "#000000" stroke-width = "2" fill = "none" />	<path d = "M176 65 L176 56 L167 56 L167 65 L176 65 Z" stroke = "#000000" stroke-width = "2" fill = "none" />	<path d = "M186 74 L186 65 L176 65 L176 74 L186 74 Z" stroke = "#000000" stroke-width = "2" fill = "none" />	<path d = "M195 74 L195 65 L186 65 L186 74 L195 74 Z" stroke = "#000000" stroke-width = "2" fill = "none" />	<path d = "M204 74 L204 65 L195 65 L195 74 L204 74 Z" stroke = "#000000" stroke-width = "2" fill = "none" />	<path d = "M213 65 L213 56 L204 56 L204 65 L213 65 Z" stroke = "#000000" stroke-width = "2" fill = "none" />	<path d = "M213 56 L213 47 L204 47 L204 56 L213 56 Z" stroke = "#000000" stroke-width = "2" fill = "none" />	<path d = "M204 47 L204 38 L195 38 L195 47 L204 47 Z" stroke = "#000000" stroke-width = "2" fill = "none" />	<path d = "M195 47 L195 38 L186 38 L186 47 L195 47 Z" stroke = "#000000" stroke-width = "2" fill = "none" />	<path d = "M186 47 L186 38 L176 38 L176 47 L186 47 Z" stroke = "#000000" stroke-width = "2" fill = "none" />	<path d = "M176 38 L176 28 L167 28 L167 38 L176 38 Z" stroke = "#000000" stroke-width = "2" fill = "none" />	<path d = "M176 28 L176 19 L167 19 L167 28 L176 28 Z" stroke = "#000000" stroke-width = "2" fill = "none" />	<path d = "M186 19 L186 10 L176 10 L176 19 L186 19 Z" stroke = "#000000" stroke-width = "2" fill = "none" />	<path d = "M195 19 L195 10 L186 10 L186 19 L195 19 Z" stroke = "#000000" stroke-width = "2" fill = "none" />	<path d = "M204 19 L204 10 L195 10 L195 19 L204 19 Z" stroke = "#000000" stroke-width = "2" fill = "none" />	<path d = "M213 28 L213 19 L204 19 L204 28 L213 28 Z" stroke = "#000000" stroke-width = "2" fill = "none" />	<path d = "M231 74 L231 65 L222 65 L222 74 L231 74 Z" stroke = "#000000" stroke-width = "2" fill = "none" />	<path d = "M231 65 L231 56 L222 56 L222 65 L231 65 Z" stroke = "#000000" stroke-width = "2" fill = "none" />	<path d = "M231 56 L231 47 L222 47 L222 56 L231 56 Z" stroke = "#000000" stroke-width = "2" fill = "none" />	<path d = "M231 47 L231 38 L222 38 L222 47 L231 47 Z" stroke = "#000000" stroke-width = "2" fill = "none" />	<path d = "M231 38 L231 28 L222 28 L222 38 L231 38 Z" stroke = "#000000" stroke-width = "2" fill = "none" />	<path d = "M231 28 L231 19 L222 19 L222 28 L231 28 Z" stroke = "#000000" stroke-width = "2" fill = "none" />	<path d = "M231 19 L231 10 L222 10 L222 19 L231 19 Z" stroke = "#000000" stroke-width = "2" fill = "none" />	<path d = "M241 47 L241 38 L231 38 L231 47 L241 47 Z" stroke = "#000000" stroke-width = "2" fill = "none" />	<path d = "M250 47 L250 38 L241 38 L241 47 L250 47 Z" stroke = "#000000" stroke-width = "2" fill = "none" />	<path d = "M259 47 L259 38 L250 38 L250 47 L259 47 Z" stroke = "#000000" stroke-width = "2" fill = "none" />	<path d = "M268 47 L268 38 L259 38 L259 47 L268 47 Z" stroke = "#000000" stroke-width = "2" fill = "none" />	<path d = "M268 38 L268 28 L259 28 L259 38 L268 38 Z" stroke = "#000000" stroke-width = "2" fill = "none" />	<path d = "M268 28 L268 19 L259 19 L259 28 L268 28 Z" stroke = "#000000" stroke-width = "2" fill = "none" />	<path d = "M268 19 L268 10 L259 10 L259 19 L268 19 Z" stroke = "#000000" stroke-width = "2" fill = "none" />	<path d = "M268 56 L268 47 L259 47 L259 56 L268 56 Z" stroke = "#000000" stroke-width = "2" fill = "none" />	<path d = "M268 65 L268 56 L259 56 L259 65 L268 65 Z" stroke = "#000000" stroke-width = "2" fill = "none" />	<path d = "M268 74 L268 65 L259 65 L259 74 L268 74 Z" stroke = "#000000" stroke-width = "2" fill = "none" />	<path d = "M341 74 L341 65 L332 65 L332 74 L341 74 Z" stroke = "#000000" stroke-width = "2" fill = "none" />	<path d = "M341 65 L341 56 L332 56 L332 65 L341 65 Z" stroke = "#000000" stroke-width = "2" fill = "none" />	<path d = "M341 56 L341 47 L332 47 L332 56 L341 56 Z" stroke = "#000000" stroke-width = "2" fill = "none" />	<path d = "M341 47 L341 38 L332 38 L332 47 L341 47 Z" stroke = "#000000" stroke-width = "2" fill = "none" />	<path d = "M341 38 L341 28 L332 28 L332 38 L341 38 Z" stroke = "#000000" stroke-width = "2" fill = "none" />	<path d = "M341 28 L341 19 L332 19 L332 28 L341 28 Z" stroke = "#000000" stroke-width = "2" fill = "none" />	<path d = "M341 19 L341 10 L332 10 L332 19 L341 19 Z" stroke = "#000000" stroke-width = "2" fill = "none" />	<path d = "M350 19 L350 10 L341 10 L341 19 L350 19 Z" stroke = "#000000" stroke-width = "2" fill = "none" />	<path d = "M359 19 L359 10 L350 10 L350 19 L359 19 Z" stroke = "#000000" stroke-width = "2" fill = "none" />	<path d = "M369 19 L369 10 L359 10 L359 19 L369 19 Z" stroke = "#000000" stroke-width = "2" fill = "none" />	<path d = "M378 28 L378 19 L369 19 L369 28 L378 28 Z" stroke = "#000000" stroke-width = "2" fill = "none" />	<path d = "M378 38 L378 28 L369 28 L369 38 L378 38 Z" stroke = "#000000" stroke-width = "2" fill = "none" />	<path d = "M369 47 L369 38 L359 38 L359 47 L369 47 Z" stroke = "#000000" stroke-width = "2" fill = "none" />	<path d = "M359 47 L359 38 L350 38 L350 47 L359 47 Z" stroke = "#000000" stroke-width = "2" fill = "none" />	<path d = "M350 47 L350 38 L341 38 L341 47 L350 47 Z" stroke = "#000000" stroke-width = "2" fill = "none" />	<path d = "M359 56 L359 47 L350 47 L350 56 L359 56 Z" stroke = "#000000" stroke-width = "2" fill = "none" />	<path d = "M369 65 L369 56 L359 56 L359 65 L369 65 Z" stroke = "#000000" stroke-width = "2" fill = "none" />	<path d = "M378 74 L378 65 L369 65 L369 74 L378 74 Z" stroke = "#000000" stroke-width = "2" fill = "none" />	<path d = "M396 65 L396 56 L387 56 L387 65 L396 65 Z" stroke = "#000000" stroke-width = "2" fill = "none" />	<path d = "M396 56 L396 47 L387 47 L387 56 L396 56 Z" stroke = "#000000" stroke-width = "2" fill = "none" />	<path d = "M396 47 L396 38 L387 38 L387 47 L396 47 Z" stroke = "#000000" stroke-width = "2" fill = "none" />	<path d = "M396 38 L396 28 L387 28 L387 38 L396 38 Z" stroke = "#000000" stroke-width = "2" fill = "none" />	<path d = "M396 28 L396 19 L387 19 L387 28 L396 28 Z" stroke = "#000000" stroke-width = "2" fill = "none" />	<path d = "M405 19 L405 10 L396 10 L396 19 L405 19 Z" stroke = "#000000" stroke-width = "2" fill = "none" />	<path d = "M414 19 L414 10 L405 10 L405 19 L414 19 Z" stroke = "#000000" stroke-width = "2" fill = "none" />	<path d = "M424 19 L424 10 L414 10 L414 19 L424 19 Z" stroke = "#000000" stroke-width = "2" fill = "none" />	<path d = "M433 28 L433 19 L424 19 L424 28 L433 28 Z" stroke = "#000000" stroke-width = "2" fill = "none" />	<path d = "M433 38 L433 28 L424 28 L424 38 L433 38 Z" stroke = "#000000" stroke-width = "2" fill = "none" />	<path d = "M433 47 L433 38 L424 38 L424 47 L433 47 Z" stroke = "#000000" stroke-width = "2" fill = "none" />	<path d = "M433 56 L433 47 L424 47 L424 56 L433 56 Z" stroke = "#000000" stroke-width = "2" fill = "none" />	<path d = "M433 65 L433 56 L424 56 L424 65 L433 65 Z" stroke = "#000000" stroke-width = "2" fill = "none" />	<path d = "M424 74 L424 65 L414 65 L414 74 L424 74 Z" stroke = "#000000" stroke-width = "2" fill = "none" />	<path d = "M414 74 L414 65 L405 65 L405 74 L414 74 Z" stroke = "#000000" stroke-width = "2" fill = "none" />	<path d = "M405 74 L405 65 L396 65 L396 74 L405 74 Z" stroke = "#000000" stroke-width = "2" fill = "none" />	<path d = "M451 74 L451 65 L442 65 L442 74 L451 74 Z" stroke = "#000000" stroke-width = "2" fill = "none" />	<path d = "M451 65 L451 56 L442 56 L442 65 L451 65 Z" stroke = "#000000" stroke-width = "2" fill = "none" />	<path d = "M451 56 L451 47 L442 47 L442 56 L451 56 Z" stroke = "#000000" stroke-width = "2" fill = "none" />	<path d = "M451 47 L451 38 L442 38 L442 47 L451 47 Z" stroke = "#000000" stroke-width = "2" fill = "none" />	<path d = "M451 38 L451 28 L442 28 L442 38 L451 38 Z" stroke = "#000000" stroke-width = "2" fill = "none" />	<path d = "M451 28 L451 19 L442 19 L442 28 L451 28 Z" stroke = "#000000" stroke-width = "2" fill = "none" />	<path d = "M451 19 L451 10 L442 10 L442 19 L451 19 Z" stroke = "#000000" stroke-width = "2" fill = "none" />	<path d = "M460 19 L460 10 L451 10 L451 19 L460 19 Z" stroke = "#000000" stroke-width = "2" fill = "none" />	<path d = "M469 19 L469 10 L460 10 L460 19 L469 19 Z" stroke = "#000000" stroke-width = "2" fill = "none" />	<path d = "M478 19 L478 10 L469 10 L469 19 L478 19 Z" stroke = "#000000" stroke-width = "2" fill = "none" />	<path d = "M488 28 L488 19 L478 19 L478 28 L488 28 Z" stroke = "#000000" stroke-width = "2" fill = "none" />	<path d = "M488 38 L488 28 L478 28 L478 38 L488 38 Z" stroke = "#000000" stroke-width = "2" fill = "none" />	<path d = "M478 47 L478 38 L469 38 L469 47 L478 47 Z" stroke = "#000000" stroke-width = "2" fill = "none" />	<path d = "M469 47 L469 38 L460 38 L460 47 L469 47 Z" stroke = "#000000" stroke-width = "2" fill = "none" />	<path d = "M460 47 L460 38 L451 38 L451 47 L460 47 Z" stroke = "#000000" stroke-width = "2" fill = "none" />	<path d = "M488 56 L488 47 L478 47 L478 56 L488 56 Z" stroke = "#000000" stroke-width = "2" fill = "none" />	<path d = "M488 65 L488 56 L478 56 L478 65 L488 65 Z" stroke = "#000000" stroke-width = "2" fill = "none" />	<path d = "M478 74 L478 65 L469 65 L469 74 L478 74 Z" stroke = "#000000" stroke-width = "2" fill = "none" />	<path d = "M469 74 L469 65 L460 65 L460 74 L469 74 Z" stroke = "#000000" stroke-width = "2" fill = "none" />	<path d = "M460 74 L460 65 L451 65 L451 74 L460 74 Z" stroke = "#000000" stroke-width = "2" fill = "none" />	<path d = "M506 65 L506 56 L497 56 L497 65 L506 65 Z" stroke = "#000000" stroke-width = "2" fill = "none" />	<path d = "M506 56 L506 47 L497 47 L497 56 L506 56 Z" stroke = "#000000" stroke-width = "2" fill = "none" />	<path d = "M506 47 L506 38 L497 38 L497 47 L506 47 Z" stroke = "#000000" stroke-width = "2" fill = "none" />	<path d = "M506 38 L506 28 L497 28 L497 38 L506 38 Z" stroke = "#000000" stroke-width = "2" fill = "none" />	<path d = "M506 28 L506 19 L497 19 L497 28 L506 28 Z" stroke = "#000000" stroke-width = "2" fill = "none" />	<path d = "M515 19 L515 10 L506 10 L506 19 L515 19 Z" stroke = "#000000" stroke-width = "2" fill = "none" />	<path d = "M524 19 L524 10 L515 10 L515 19 L524 19 Z" stroke = "#000000" stroke-width = "2" fill = "none" />	<path d = "M533 19 L533 10 L524 10 L524 19 L533 19 Z" stroke = "#000000" stroke-width = "2" fill = "none" />	<path d = "M542 28 L542 19 L533 19 L533 28 L542 28 Z" stroke = "#000000" stroke-width = "2" fill = "none" />	<path d = "M542 38 L542 28 L533 28 L533 38 L542 38 Z" stroke = "#000000" stroke-width = "2" fill = "none" />	<path d = "M542 47 L542 38 L533 38 L533 47 L542 47 Z" stroke = "#000000" stroke-width = "2" fill = "none" />	<path d = "M542 56 L542 47 L533 47 L533 56 L542 56 Z" stroke = "#000000" stroke-width = "2" fill = "none" />	<path d = "M542 65 L542 56 L533 56 L533 65 L542 65 Z" stroke = "#000000" stroke-width = "2" fill = "none" />	<path d = "M533 74 L533 65 L524 65 L524 74 L533 74 Z" stroke = "#000000" stroke-width = "2" fill = "none" />	<path d = "M524 74 L524 65 L515 65 L515 74 L524 74 Z" stroke = "#000000" stroke-width = "2" fill = "none" />	<path d = "M515 74 L515 65 L506 65 L506 74 L515 74 Z" stroke = "#000000" stroke-width = "2" fill = "none" />	<path d = "M561 19 L561 10 L552 10 L552 19 L561 19 Z" stroke = "#000000" stroke-width = "2" fill = "none" />	<path d = "M570 19 L570 10 L561 10 L561 19 L570 19 Z" stroke = "#000000" stroke-width = "2" fill = "none" />	<path d = "M579 19 L579 10 L570 10 L570 19 L579 19 Z" stroke = "#000000" stroke-width = "2" fill = "none" />	<path d = "M588 19 L588 10 L579 10 L579 19 L588 19 Z" stroke = "#000000" stroke-width = "2" fill = "none" />	<path d = "M597 19 L597 10 L588 10 L588 19 L597 19 Z" stroke = "#000000" stroke-width = "2" fill = "none" />	<path d = "M579 28 L579 19 L570 19 L570 28 L579 28 Z" stroke = "#000000" stroke-width = "2" fill = "none" />	<path d = "M579 38 L579 28 L570 28 L570 38 L579 38 Z" stroke = "#000000" stroke-width = "2" fill = "none" />	<path d = "M579 47 L579 38 L570 38 L570 47 L579 47 Z" stroke = "#000000" stroke-width = "2" fill = "none" />	<path d = "M579 56 L579 47 L570 47 L570 56 L579 56 Z" stroke = "#000000" stroke-width = "2" fill = "none" />	<path d = "M579 65 L579 56 L570 56 L570 65 L579 65 Z" stroke = "#000000" stroke-width = "2" fill = "none" />	<path d = "M579 74 L579 65 L570 65 L570 74 L579 74 Z" stroke = "#000000" stroke-width = "2" fill = "none" /></svg>