<svg width="600" height="700" viewbox = "0 0 600 700"  xmlns="http://www.w3.org/2000/svg">
<!--<json>{
  "glyph": "0336,0337,0330,0330,0330,0330,0332,0336,0336,0337,0337,0330,0330,0330,0332,0332,0332,0332,0332,0211,0211,0336,0336,0336,0332,0332,0332,0332,0332,0332,0332,0332,0330,0332,0337,0337,0337,0333,0333,0333,0336,0333,0337,0332,0332,0336,0333,0337,01124,01122,01101,01123,01110,01040,01114,01101,01102,01123,",
  "x0": 300,
  "y0": 465.0454545454545,
  "unit": 55.00000000000001,
  "width": 600,
  "height": 700,
  "style": {
    "color0": "black",
    "fill0": "white",
    "line0": 2,
    "color1": "black",
    "fill1": "black",
    "line1": 5,
    "color2": "red",
    "fill2": "red",
    "line2": 1,
    "color3": "#FF7900",
    "fill3": "#FF7900",
    "line3": 1,
    "color4": "yellow",
    "fill4": "yellow",
    "line4": 1,
    "color5": "green",
    "fill5": "green",
    "line5": 1,
    "color6": "blue",
    "fill6": "blue",
    "line6": 1,
    "color7": "purple",
    "fill7": "purple",
    "line7": 1
  },
  "shapes": [
    "0220:0342,0336,0333,0342,0336,0332,0342,0333,0333,0342,0336,0333,0342,0332,0332,0342,0332,0332,0342,0332,0332,0342,0333,0333,0333,0333,0333,0333,0333,0337,0337,0337,",
    "0221:0316,0336,0313,0342,0336,0333,0342,0333,0342,0333,0342,0333,0342,0333,0337,0342,0336,0333,0342,0333,0342,0333,0342,0333,0342,0333,0342,0337,0316,0337,0313,",
    "0222:0362,0203,0335,0203,0203,0203,0203,0203,0203,0335,0203,0335,0203,0203,0203,0203,0203,0203,0354,0335,",
    "0223:0322,0221,0221,0221,0221,0221,0221,0334,0221,0334,0220,0220,0220,0220,0220,0220,0334,0220,0334,0320,",
    "0224:0222,0330,0222,0330,0222,0330,0222,0330,0222,0330,0222,0331,0331,0331,0331,0331,",
    "0225:0223,0330,0223,0330,0223,0330,0223,0330,0223,0330,0223,0331,0331,0331,0331,0331,",
    "0226:0220,0336,0331,0334,0336,0330,0337,0321,0336,0362,0203,0335,0203,0203,0203,0203,0203,0335,0203,0203,0203,0203,0335,0203,0203,0203,0203,0203,0335,0203,0364,0330,0334,0331,0337,0201,0335,0336,0350,0334,0331,0362,0203,0335,0335,0203,0364,0331,0335,0313,0304,0337,0330,0336,0330,0337,0337,0320,0331,0336,0331,0332,01015,0163,0141,0166,0145,0365,0330,0330,0330,0333,0337,",
    "0227:0304,0350,0335,0313,0304,0322,0336,0336,0336,0330,0332,0337,0337,0362,0203,0335,0336,0203,0335,0337,0203,0334,0203,0335,0336,0203,0335,0337,0203,0334,0203,0335,0336,0203,0335,0337,0203,0334,0203,0335,0336,0203,0335,0337,0203,0363,0320,0336,0334,0336,0333,0331,0337,0337,0337,0350,0334,0304,0220,0331,0336,0331,0332,0336,0332,0337,01015,0144,0145,0154,0145,0164,0145,0336,0333,0337,0330,0330,0330,0333,0337,",
    "0230:0313,0334,0336,0330,0335,0335,0305,0334,0337,0311,0337,0362,0203,0335,0335,0203,0335,0350,0335,0336,0203,0363,0313,0336,0331,0304,0335,0337,",
    "0231:0321,0342,0330,0320,0336,0230,0331,0331,0337,0350,0335,0304,",
    "0232:0231,0231,0231,0231,0231,0231,0231,0231,",
    "0233:0220,0336,0210,0232,",
    "0234:0220,0336,0335,0335,0331,0335,0331,0337,0321,0342,0332,0342,0336,0333,0337,0342,0330,0336,0336,0336,0330,0337,0366,0332,0332,0332,0367,0350,0335,0306,0350,0320,0335,0362,0203,0334,0334,0334,0334,0203,0334,0334,0334,0334,0203,0363,0335,0304,0350,0335,0304,0335,0335,0331,0331,0332,01015,0145,0154,0145,0155,0145,0156,0164,040,0144,0157,0167,0156,0365,0330,0330,0330,0330,0330,0333,0333,0333,0336,0332,0337,0333,0337,0337,",
    "0235:0220,0321,0336,0342,0335,0342,0335,0342,0335,0342,0335,0337,",
    "0236:0321,0220,0335,0336,0321,0342,0335,0335,0342,0335,0337,",
    "0237:0220,0336,0331,0332,0336,0321,0342,0335,0342,0335,0342,0335,0342,0335,0330,0330,0333,0333,0337,0337,",
    "01220:0333,0200,0336,0332,0330,0336,0332,0337,0220,0331,0336,0333,0337,0337,",
    "01221:0333,0200,0336,0330,0332,0336,0332,0337,0221,0336,0333,0337,0331,0337,",
    "01222:0333,0200,0336,0330,0332,0336,0332,0336,0332,0222,0332,0337,0337,0331,0337,0333,",
    "01223:0333,0200,0336,0332,0330,0336,0332,0336,0332,0223,0332,0337,0337,0331,0337,0333,0320,",
    "01224:0333,0200,0336,0332,0336,0330,0336,0332,0332,0331,0332,0224,",
    "01225:0333,0200,0336,0330,0332,0336,0331,0332,0336,0331,0332,0225,0331,0332,0320,0337,0337,0337,0333,",
    "01226:0333,0200,0336,0336,0330,0332,0337,0226,0336,0333,0331,0337,0337,",
    "01227:0333,0200,0336,0330,0332,0336,0332,0337,0227,0333,0336,0333,0337,0331,0337,",
    "01230:0333,0200,",
    "01231:0333,0200,",
    "01232:0333,0200,",
    "01233:0333,0200,",
    "01234:0333,0200,",
    "01235:0333,0200,",
    "01236:0333,0200,",
    "01237:0333,0200,",
    "0240:0220,0336,0331,0333,0336,0321,0335,0342,0335,0335,0342,0335,0330,0330,0332,0332,0337,0337,",
    "01240:0333,0200,0336,0330,0332,0210,0240,0211,0333,0331,0337,",
    "0241:0220,0336,0321,0343,0332,0350,0335,0336,0342,0334,0334,0342,0335,0304,0337,0333,0337,",
    "01241:0333,0200,0336,0332,0330,0210,0241,0211,0333,0331,0337,",
    "0242:0220,0321,0336,0343,0333,0336,0350,0335,0342,0334,0334,0342,0335,0337,0304,0332,0337,",
    "01242:0333,0200,0336,0330,0332,0210,0242,0211,0333,0331,0337,",
    "0243:0220,0336,0331,0332,0336,0321,0343,0332,0350,0334,0336,0342,0335,0335,0342,0337,0334,0334,0335,0304,0332,0330,0330,0337,0337,0333,",
    "01243:0333,0200,0336,0330,0332,0210,0243,0211,0333,0331,0337,",
    "0244:0220,0336,0331,0333,0336,0321,0343,0333,0350,0336,0335,0342,0334,0334,0342,0335,0337,0304,0333,0330,0330,0337,0337,0332,",
    "01244:0333,0200,0336,0330,0332,0210,0244,0211,0333,0331,0337,",
    "0245:0210,0332,0332,0362,0335,0203,0203,0203,0203,0334,0203,0363,0332,0332,0331,0211,",
    "01245:0333,0200,0336,0330,0332,0336,0245,0337,0333,0331,0337,",
    "0246:0210,0332,0332,0335,0306,0336,0330,0335,0335,0335,0321,0362,0203,0335,0335,0203,0364,0331,0350,0335,0337,0366,0333,0333,0333,0333,0334,0334,0334,0334,0367,0335,0336,0342,0334,0334,0342,0330,0330,0330,0330,0335,0335,0335,0304,0337,0211,",
    "01246:0333,0200,0336,0330,0332,0336,0246,",
    "0247:0330,0332,0336,0332,0336,0221,0333,0333,0333,0222,0333,0333,0333,0223,0333,0333,0333,0225,0333,0331,0331,0331,0332,0332,0332,0332,0332,0332,0332,0332,0332,0332,0332,0332,0333,0333,0226,0331,0331,0331,0333,0333,0333,0333,0333,0333,0333,0333,0333,0333,0333,0333,0333,0330,0333,0330,0330,0333,0330,0331,0332,0332,0332,0332,0332,0332,0332,0332,0332,0332,0332,0332,0227,0333,0333,0333,0230,0333,0331,0331,0331,0331,0332,0332,0332,0330,0332,0332,0332,0332,0332,0332,0333,0333,0231,0333,0333,0333,0232,0331,0333,0330,0333,0333,0233,0333,0333,0333,0234,0330,0330,0332,0330,0332,0332,0337,0337,",
    "01247:0333,0200,0336,0330,0332,0220,0336,0247,0337,0331,0333,0337,"
  ]
}</json>-->	<path d = "M46 22 L46 13 L37 13 L37 22 L46 22 Z" stroke = "#000000" stroke-width = "2" fill = "none" />	<path d = "M55 22 L55 13 L46 13 L46 22 L55 22 Z" stroke = "#000000" stroke-width = "2" fill = "none" />	<path d = "M64 22 L64 13 L55 13 L55 22 L64 22 Z" stroke = "#000000" stroke-width = "2" fill = "none" />	<path d = "M73 22 L73 13 L64 13 L64 22 L73 22 Z" stroke = "#000000" stroke-width = "2" fill = "none" />	<path d = "M82 22 L82 13 L73 13 L73 22 L82 22 Z" stroke = "#000000" stroke-width = "2" fill = "none" />	<path d = "M64 31 L64 22 L55 22 L55 31 L64 31 Z" stroke = "#000000" stroke-width = "2" fill = "none" />	<path d = "M64 40 L64 31 L55 31 L55 40 L64 40 Z" stroke = "#000000" stroke-width = "2" fill = "none" />	<path d = "M64 49 L64 40 L55 40 L55 49 L64 49 Z" stroke = "#000000" stroke-width = "2" fill = "none" />	<path d = "M64 58 L64 49 L55 49 L55 58 L64 58 Z" stroke = "#000000" stroke-width = "2" fill = "none" />	<path d = "M64 67 L64 58 L55 58 L55 67 L64 67 Z" stroke = "#000000" stroke-width = "2" fill = "none" />	<path d = "M64 76 L64 67 L55 67 L55 76 L64 76 Z" stroke = "#000000" stroke-width = "2" fill = "none" />	<path d = "M100 76 L100 67 L91 67 L91 76 L100 76 Z" stroke = "#000000" stroke-width = "2" fill = "none" />	<path d = "M100 67 L100 58 L91 58 L91 67 L100 67 Z" stroke = "#000000" stroke-width = "2" fill = "none" />	<path d = "M100 58 L100 49 L91 49 L91 58 L100 58 Z" stroke = "#000000" stroke-width = "2" fill = "none" />	<path d = "M100 49 L100 40 L91 40 L91 49 L100 49 Z" stroke = "#000000" stroke-width = "2" fill = "none" />	<path d = "M100 40 L100 31 L91 31 L91 40 L100 40 Z" stroke = "#000000" stroke-width = "2" fill = "none" />	<path d = "M100 31 L100 22 L91 22 L91 31 L100 31 Z" stroke = "#000000" stroke-width = "2" fill = "none" />	<path d = "M100 22 L100 13 L91 13 L91 22 L100 22 Z" stroke = "#000000" stroke-width = "2" fill = "none" />	<path d = "M109 22 L109 13 L100 13 L100 22 L109 22 Z" stroke = "#000000" stroke-width = "2" fill = "none" />	<path d = "M118 22 L118 13 L109 13 L109 22 L118 22 Z" stroke = "#000000" stroke-width = "2" fill = "none" />	<path d = "M127 22 L127 13 L118 13 L118 22 L127 22 Z" stroke = "#000000" stroke-width = "2" fill = "none" />	<path d = "M136 31 L136 22 L127 22 L127 31 L136 31 Z" stroke = "#000000" stroke-width = "2" fill = "none" />	<path d = "M136 40 L136 31 L127 31 L127 40 L136 40 Z" stroke = "#000000" stroke-width = "2" fill = "none" />	<path d = "M127 49 L127 40 L118 40 L118 49 L127 49 Z" stroke = "#000000" stroke-width = "2" fill = "none" />	<path d = "M118 49 L118 40 L109 40 L109 49 L118 49 Z" stroke = "#000000" stroke-width = "2" fill = "none" />	<path d = "M109 49 L109 40 L100 40 L100 49 L109 49 Z" stroke = "#000000" stroke-width = "2" fill = "none" />	<path d = "M118 58 L118 49 L109 49 L109 58 L118 58 Z" stroke = "#000000" stroke-width = "2" fill = "none" />	<path d = "M127 67 L127 58 L118 58 L118 67 L127 67 Z" stroke = "#000000" stroke-width = "2" fill = "none" />	<path d = "M136 76 L136 67 L127 67 L127 76 L136 76 Z" stroke = "#000000" stroke-width = "2" fill = "none" />	<path d = "M154 76 L154 67 L145 67 L145 76 L154 76 Z" stroke = "#000000" stroke-width = "2" fill = "none" />	<path d = "M154 67 L154 58 L145 58 L145 67 L154 67 Z" stroke = "#000000" stroke-width = "2" fill = "none" />	<path d = "M154 58 L154 49 L145 49 L145 58 L154 58 Z" stroke = "#000000" stroke-width = "2" fill = "none" />	<path d = "M154 49 L154 40 L145 40 L145 49 L154 49 Z" stroke = "#000000" stroke-width = "2" fill = "none" />	<path d = "M154 40 L154 31 L145 31 L145 40 L154 40 Z" stroke = "#000000" stroke-width = "2" fill = "none" />	<path d = "M154 31 L154 22 L145 22 L145 31 L154 31 Z" stroke = "#000000" stroke-width = "2" fill = "none" />	<path d = "M163 22 L163 13 L154 13 L154 22 L163 22 Z" stroke = "#000000" stroke-width = "2" fill = "none" />	<path d = "M172 22 L172 13 L163 13 L163 22 L172 22 Z" stroke = "#000000" stroke-width = "2" fill = "none" />	<path d = "M181 22 L181 13 L172 13 L172 22 L181 22 Z" stroke = "#000000" stroke-width = "2" fill = "none" />	<path d = "M190 31 L190 22 L181 22 L181 31 L190 31 Z" stroke = "#000000" stroke-width = "2" fill = "none" />	<path d = "M190 40 L190 31 L181 31 L181 40 L190 40 Z" stroke = "#000000" stroke-width = "2" fill = "none" />	<path d = "M190 49 L190 40 L181 40 L181 49 L190 49 Z" stroke = "#000000" stroke-width = "2" fill = "none" />	<path d = "M190 58 L190 49 L181 49 L181 58 L190 58 Z" stroke = "#000000" stroke-width = "2" fill = "none" />	<path d = "M190 67 L190 58 L181 58 L181 67 L190 67 Z" stroke = "#000000" stroke-width = "2" fill = "none" />	<path d = "M190 76 L190 67 L181 67 L181 76 L190 76 Z" stroke = "#000000" stroke-width = "2" fill = "none" />	<path d = "M181 49 L181 40 L172 40 L172 49 L181 49 Z" stroke = "#000000" stroke-width = "2" fill = "none" />	<path d = "M172 49 L172 40 L163 40 L163 49 L172 49 Z" stroke = "#000000" stroke-width = "2" fill = "none" />	<path d = "M163 49 L163 40 L154 40 L154 49 L163 49 Z" stroke = "#000000" stroke-width = "2" fill = "none" />	<path d = "M208 67 L208 58 L199 58 L199 67 L208 67 Z" stroke = "#000000" stroke-width = "2" fill = "none" />	<path d = "M217 76 L217 67 L208 67 L208 76 L217 76 Z" stroke = "#000000" stroke-width = "2" fill = "none" />	<path d = "M226 76 L226 67 L217 67 L217 76 L226 76 Z" stroke = "#000000" stroke-width = "2" fill = "none" />	<path d = "M235 76 L235 67 L226 67 L226 76 L235 76 Z" stroke = "#000000" stroke-width = "2" fill = "none" />	<path d = "M244 67 L244 58 L235 58 L235 67 L244 67 Z" stroke = "#000000" stroke-width = "2" fill = "none" />	<path d = "M244 58 L244 49 L235 49 L235 58 L244 58 Z" stroke = "#000000" stroke-width = "2" fill = "none" />	<path d = "M235 49 L235 40 L226 40 L226 49 L235 49 Z" stroke = "#000000" stroke-width = "2" fill = "none" />	<path d = "M226 49 L226 40 L217 40 L217 49 L226 49 Z" stroke = "#000000" stroke-width = "2" fill = "none" />	<path d = "M217 49 L217 40 L208 40 L208 49 L217 49 Z" stroke = "#000000" stroke-width = "2" fill = "none" />	<path d = "M208 40 L208 31 L199 31 L199 40 L208 40 Z" stroke = "#000000" stroke-width = "2" fill = "none" />	<path d = "M208 31 L208 22 L199 22 L199 31 L208 31 Z" stroke = "#000000" stroke-width = "2" fill = "none" />	<path d = "M217 22 L217 13 L208 13 L208 22 L217 22 Z" stroke = "#000000" stroke-width = "2" fill = "none" />	<path d = "M226 22 L226 13 L217 13 L217 22 L226 22 Z" stroke = "#000000" stroke-width = "2" fill = "none" />	<path d = "M235 22 L235 13 L226 13 L226 22 L235 22 Z" stroke = "#000000" stroke-width = "2" fill = "none" />	<path d = "M244 31 L244 22 L235 22 L235 31 L244 31 Z" stroke = "#000000" stroke-width = "2" fill = "none" />	<path d = "M262 76 L262 67 L253 67 L253 76 L262 76 Z" stroke = "#000000" stroke-width = "2" fill = "none" />	<path d = "M262 67 L262 58 L253 58 L253 67 L262 67 Z" stroke = "#000000" stroke-width = "2" fill = "none" />	<path d = "M262 58 L262 49 L253 49 L253 58 L262 58 Z" stroke = "#000000" stroke-width = "2" fill = "none" />	<path d = "M262 49 L262 40 L253 40 L253 49 L262 49 Z" stroke = "#000000" stroke-width = "2" fill = "none" />	<path d = "M262 40 L262 31 L253 31 L253 40 L262 40 Z" stroke = "#000000" stroke-width = "2" fill = "none" />	<path d = "M262 31 L262 22 L253 22 L253 31 L262 31 Z" stroke = "#000000" stroke-width = "2" fill = "none" />	<path d = "M262 22 L262 13 L253 13 L253 22 L262 22 Z" stroke = "#000000" stroke-width = "2" fill = "none" />	<path d = "M271 49 L271 40 L262 40 L262 49 L271 49 Z" stroke = "#000000" stroke-width = "2" fill = "none" />	<path d = "M280 49 L280 40 L271 40 L271 49 L280 49 Z" stroke = "#000000" stroke-width = "2" fill = "none" />	<path d = "M289 49 L289 40 L280 40 L280 49 L289 49 Z" stroke = "#000000" stroke-width = "2" fill = "none" />	<path d = "M298 49 L298 40 L289 40 L289 49 L298 49 Z" stroke = "#000000" stroke-width = "2" fill = "none" />	<path d = "M298 40 L298 31 L289 31 L289 40 L298 40 Z" stroke = "#000000" stroke-width = "2" fill = "none" />	<path d = "M298 31 L298 22 L289 22 L289 31 L298 31 Z" stroke = "#000000" stroke-width = "2" fill = "none" />	<path d = "M298 22 L298 13 L289 13 L289 22 L298 22 Z" stroke = "#000000" stroke-width = "2" fill = "none" />	<path d = "M298 58 L298 49 L289 49 L289 58 L298 58 Z" stroke = "#000000" stroke-width = "2" fill = "none" />	<path d = "M298 67 L298 58 L289 58 L289 67 L298 67 Z" stroke = "#000000" stroke-width = "2" fill = "none" />	<path d = "M298 76 L298 67 L289 67 L289 76 L298 76 Z" stroke = "#000000" stroke-width = "2" fill = "none" />	<path d = "M370 76 L370 67 L361 67 L361 76 L370 76 Z" stroke = "#000000" stroke-width = "2" fill = "none" />	<path d = "M370 67 L370 58 L361 58 L361 67 L370 67 Z" stroke = "#000000" stroke-width = "2" fill = "none" />	<path d = "M370 58 L370 49 L361 49 L361 58 L370 58 Z" stroke = "#000000" stroke-width = "2" fill = "none" />	<path d = "M370 49 L370 40 L361 40 L361 49 L370 49 Z" stroke = "#000000" stroke-width = "2" fill = "none" />	<path d = "M370 40 L370 31 L361 31 L361 40 L370 40 Z" stroke = "#000000" stroke-width = "2" fill = "none" />	<path d = "M370 31 L370 22 L361 22 L361 31 L370 31 Z" stroke = "#000000" stroke-width = "2" fill = "none" />	<path d = "M370 22 L370 13 L361 13 L361 22 L370 22 Z" stroke = "#000000" stroke-width = "2" fill = "none" />	<path d = "M379 76 L379 67 L370 67 L370 76 L379 76 Z" stroke = "#000000" stroke-width = "2" fill = "none" />	<path d = "M388 76 L388 67 L379 67 L379 76 L388 76 Z" stroke = "#000000" stroke-width = "2" fill = "none" />	<path d = "M397 76 L397 67 L388 67 L388 76 L397 76 Z" stroke = "#000000" stroke-width = "2" fill = "none" />	<path d = "M406 76 L406 67 L397 67 L397 76 L406 76 Z" stroke = "#000000" stroke-width = "2" fill = "none" />	<path d = "M424 76 L424 67 L415 67 L415 76 L424 76 Z" stroke = "#000000" stroke-width = "2" fill = "none" />	<path d = "M424 67 L424 58 L415 58 L415 67 L424 67 Z" stroke = "#000000" stroke-width = "2" fill = "none" />	<path d = "M424 58 L424 49 L415 49 L415 58 L424 58 Z" stroke = "#000000" stroke-width = "2" fill = "none" />	<path d = "M424 49 L424 40 L415 40 L415 49 L424 49 Z" stroke = "#000000" stroke-width = "2" fill = "none" />	<path d = "M424 40 L424 31 L415 31 L415 40 L424 40 Z" stroke = "#000000" stroke-width = "2" fill = "none" />	<path d = "M424 31 L424 22 L415 22 L415 31 L424 31 Z" stroke = "#000000" stroke-width = "2" fill = "none" />	<path d = "M433 22 L433 13 L424 13 L424 22 L433 22 Z" stroke = "#000000" stroke-width = "2" fill = "none" />	<path d = "M442 22 L442 13 L433 13 L433 22 L442 22 Z" stroke = "#000000" stroke-width = "2" fill = "none" />	<path d = "M451 22 L451 13 L442 13 L442 22 L451 22 Z" stroke = "#000000" stroke-width = "2" fill = "none" />	<path d = "M460 31 L460 22 L451 22 L451 31 L460 31 Z" stroke = "#000000" stroke-width = "2" fill = "none" />	<path d = "M460 40 L460 31 L451 31 L451 40 L460 40 Z" stroke = "#000000" stroke-width = "2" fill = "none" />	<path d = "M460 49 L460 40 L451 40 L451 49 L460 49 Z" stroke = "#000000" stroke-width = "2" fill = "none" />	<path d = "M460 58 L460 49 L451 49 L451 58 L460 58 Z" stroke = "#000000" stroke-width = "2" fill = "none" />	<path d = "M460 67 L460 58 L451 58 L451 67 L460 67 Z" stroke = "#000000" stroke-width = "2" fill = "none" />	<path d = "M460 76 L460 67 L451 67 L451 76 L460 76 Z" stroke = "#000000" stroke-width = "2" fill = "none" />	<path d = "M451 49 L451 40 L442 40 L442 49 L451 49 Z" stroke = "#000000" stroke-width = "2" fill = "none" />	<path d = "M442 49 L442 40 L433 40 L433 49 L442 49 Z" stroke = "#000000" stroke-width = "2" fill = "none" />	<path d = "M433 49 L433 40 L424 40 L424 49 L433 49 Z" stroke = "#000000" stroke-width = "2" fill = "none" />	<path d = "M478 76 L478 67 L469 67 L469 76 L478 76 Z" stroke = "#000000" stroke-width = "2" fill = "none" />	<path d = "M478 67 L478 58 L469 58 L469 67 L478 67 Z" stroke = "#000000" stroke-width = "2" fill = "none" />	<path d = "M478 58 L478 49 L469 49 L469 58 L478 58 Z" stroke = "#000000" stroke-width = "2" fill = "none" />	<path d = "M478 49 L478 40 L469 40 L469 49 L478 49 Z" stroke = "#000000" stroke-width = "2" fill = "none" />	<path d = "M478 40 L478 31 L469 31 L469 40 L478 40 Z" stroke = "#000000" stroke-width = "2" fill = "none" />	<path d = "M478 31 L478 22 L469 22 L469 31 L478 31 Z" stroke = "#000000" stroke-width = "2" fill = "none" />	<path d = "M478 22 L478 13 L469 13 L469 22 L478 22 Z" stroke = "#000000" stroke-width = "2" fill = "none" />	<path d = "M487 22 L487 13 L478 13 L478 22 L487 22 Z" stroke = "#000000" stroke-width = "2" fill = "none" />	<path d = "M496 22 L496 13 L487 13 L487 22 L496 22 Z" stroke = "#000000" stroke-width = "2" fill = "none" />	<path d = "M505 22 L505 13 L496 13 L496 22 L505 22 Z" stroke = "#000000" stroke-width = "2" fill = "none" />	<path d = "M514 31 L514 22 L505 22 L505 31 L514 31 Z" stroke = "#000000" stroke-width = "2" fill = "none" />	<path d = "M514 40 L514 31 L505 31 L505 40 L514 40 Z" stroke = "#000000" stroke-width = "2" fill = "none" />	<path d = "M505 49 L505 40 L496 40 L496 49 L505 49 Z" stroke = "#000000" stroke-width = "2" fill = "none" />	<path d = "M496 49 L496 40 L487 40 L487 49 L496 49 Z" stroke = "#000000" stroke-width = "2" fill = "none" />	<path d = "M487 49 L487 40 L478 40 L478 49 L487 49 Z" stroke = "#000000" stroke-width = "2" fill = "none" />	<path d = "M514 58 L514 49 L505 49 L505 58 L514 58 Z" stroke = "#000000" stroke-width = "2" fill = "none" />	<path d = "M514 67 L514 58 L505 58 L505 67 L514 67 Z" stroke = "#000000" stroke-width = "2" fill = "none" />	<path d = "M505 76 L505 67 L496 67 L496 76 L505 76 Z" stroke = "#000000" stroke-width = "2" fill = "none" />	<path d = "M496 76 L496 67 L487 67 L487 76 L496 76 Z" stroke = "#000000" stroke-width = "2" fill = "none" />	<path d = "M487 76 L487 67 L478 67 L478 76 L487 76 Z" stroke = "#000000" stroke-width = "2" fill = "none" />	<path d = "M532 67 L532 58 L523 58 L523 67 L532 67 Z" stroke = "#000000" stroke-width = "2" fill = "none" />	<path d = "M541 76 L541 67 L532 67 L532 76 L541 76 Z" stroke = "#000000" stroke-width = "2" fill = "none" />	<path d = "M550 76 L550 67 L541 67 L541 76 L550 76 Z" stroke = "#000000" stroke-width = "2" fill = "none" />	<path d = "M559 76 L559 67 L550 67 L550 76 L559 76 Z" stroke = "#000000" stroke-width = "2" fill = "none" />	<path d = "M568 67 L568 58 L559 58 L559 67 L568 67 Z" stroke = "#000000" stroke-width = "2" fill = "none" />	<path d = "M568 58 L568 49 L559 49 L559 58 L568 58 Z" stroke = "#000000" stroke-width = "2" fill = "none" />	<path d = "M559 49 L559 40 L550 40 L550 49 L559 49 Z" stroke = "#000000" stroke-width = "2" fill = "none" />	<path d = "M550 49 L550 40 L541 40 L541 49 L550 49 Z" stroke = "#000000" stroke-width = "2" fill = "none" />	<path d = "M541 49 L541 40 L532 40 L532 49 L541 49 Z" stroke = "#000000" stroke-width = "2" fill = "none" />	<path d = "M532 40 L532 31 L523 31 L523 40 L532 40 Z" stroke = "#000000" stroke-width = "2" fill = "none" />	<path d = "M532 31 L532 22 L523 22 L523 31 L532 31 Z" stroke = "#000000" stroke-width = "2" fill = "none" />	<path d = "M541 22 L541 13 L532 13 L532 22 L541 22 Z" stroke = "#000000" stroke-width = "2" fill = "none" />	<path d = "M550 22 L550 13 L541 13 L541 22 L550 22 Z" stroke = "#000000" stroke-width = "2" fill = "none" />	<path d = "M559 22 L559 13 L550 13 L550 22 L559 22 Z" stroke = "#000000" stroke-width = "2" fill = "none" />	<path d = "M568 31 L568 22 L559 22 L559 31 L568 31 Z" stroke = "#000000" stroke-width = "2" fill = "none" /></svg>