<svg width="600" height="700" viewbox = "0 0 600 700"  xmlns="http://www.w3.org/2000/svg">
<!--<json>{
  "glyph": "0330,0330,0330,0330,0332,0336,0336,0332,0337,0337,0330,0330,0330,0332,0332,0332,0332,0332,0211,0211,0336,0336,0336,0332,0332,0332,0332,0332,0332,0332,0332,0330,0332,0337,0337,0337,0333,01115,01101,01107,01111,01103,01040,01123,01131,01115,01102,01117,01114,01123,",
  "x0": 300,
  "y0": 400,
  "unit": 45.45454545454545,
  "width": 600,
  "height": 700,
  "style": {
    "color0": "black",
    "fill0": "white",
    "line0": 2,
    "color1": "black",
    "fill1": "black",
    "line1": 5,
    "color2": "red",
    "fill2": "red",
    "line2": 1,
    "color3": "#FF7900",
    "fill3": "#FF7900",
    "line3": 1,
    "color4": "yellow",
    "fill4": "yellow",
    "line4": 1,
    "color5": "green",
    "fill5": "green",
    "line5": 1,
    "color6": "blue",
    "fill6": "blue",
    "line6": 1,
    "color7": "purple",
    "fill7": "purple",
    "line7": 1
  },
  "shapes": [
    "0220:0342,0336,0333,0342,0336,0332,0342,0333,0333,0342,0336,0333,0342,0332,0332,0342,0332,0332,0342,0332,0332,0342,0333,0333,0333,0333,0333,0333,0333,0337,0337,0337,",
    "0221:0316,0336,0313,0342,0336,0333,0342,0333,0342,0333,0342,0333,0342,0333,0337,0342,0336,0333,0342,0333,0342,0333,0342,0333,0342,0333,0342,0337,0316,0337,0313,",
    "0222:0362,0203,0335,0203,0203,0203,0203,0203,0203,0335,0203,0335,0203,0203,0203,0203,0203,0203,0354,0335,",
    "0223:0322,0221,0221,0221,0221,0221,0221,0334,0221,0334,0220,0220,0220,0220,0220,0220,0334,0220,0334,0320,",
    "0224:0222,0330,0222,0330,0222,0330,0222,0330,0222,0330,0222,0331,0331,0331,0331,0331,",
    "0225:0223,0330,0223,0330,0223,0330,0223,0330,0223,0330,0223,0331,0331,0331,0331,0331,",
    "0226:0220,0336,0331,0334,0336,0330,0337,0321,0336,0362,0203,0335,0203,0203,0203,0203,0203,0335,0203,0203,0203,0203,0335,0203,0203,0203,0203,0203,0335,0203,0364,0330,0334,0331,0337,0201,0335,0336,0350,0334,0331,0362,0203,0335,0335,0203,0364,0331,0335,0313,0304,0337,0330,0336,0330,0337,0337,0320,0331,0336,0331,0332,01015,0163,0141,0166,0145,0365,0330,0330,0330,0333,0337,",
    "0227:0304,0350,0335,0313,0304,0322,0336,0336,0336,0330,0332,0337,0337,0362,0203,0335,0336,0203,0335,0337,0203,0334,0203,0335,0336,0203,0335,0337,0203,0334,0203,0335,0336,0203,0335,0337,0203,0334,0203,0335,0336,0203,0335,0337,0203,0363,0320,0336,0334,0336,0333,0331,0337,0337,0337,0350,0334,0304,0220,0331,0336,0331,0332,0336,0332,0337,01015,0144,0145,0154,0145,0164,0145,0336,0333,0337,0330,0330,0330,0333,0337,",
    "0230:0313,0334,0336,0330,0335,0335,0305,0334,0337,0311,0337,0362,0203,0335,0335,0203,0335,0350,0335,0336,0203,0363,0313,0336,0331,0304,0335,0337,",
    "0231:0321,0342,0330,0320,0336,0230,0331,0331,0337,0350,0335,0304,",
    "0232:0231,0231,0231,0231,0231,0231,0231,0231,",
    "0233:0220,0336,0210,0232,",
    "0234:0220,0336,0335,0335,0331,0335,0331,0337,0321,0342,0332,0342,0336,0333,0337,0342,0330,0336,0336,0336,0330,0337,0366,0332,0332,0332,0367,0350,0335,0306,0350,0320,0335,0362,0203,0334,0334,0334,0334,0203,0334,0334,0334,0334,0203,0363,0335,0304,0350,0335,0304,0335,0335,0331,0331,0332,01015,0145,0154,0145,0155,0145,0156,0164,040,0144,0157,0167,0156,0365,0330,0330,0330,0330,0330,0333,0333,0333,0336,0332,0337,0333,0337,0337,",
    "0235:0220,0321,0336,0342,0335,0342,0335,0342,0335,0342,0335,0337,",
    "0236:0321,0220,0335,0336,0321,0342,0335,0335,0342,0335,0337,",
    "0237:0220,0336,0331,0332,0336,0321,0342,0335,0342,0335,0342,0335,0342,0335,0330,0330,0333,0333,0337,0337,",
    "01220:0333,0200,0336,0332,0330,0336,0332,0337,0220,0331,0336,0333,0337,0337,",
    "01221:0333,0200,0336,0330,0332,0336,0332,0337,0221,0336,0333,0337,0331,0337,",
    "01222:0333,0200,0336,0330,0332,0336,0332,0336,0332,0222,0332,0337,0337,0331,0337,0333,",
    "01223:0333,0200,0336,0332,0330,0336,0332,0336,0332,0223,0332,0337,0337,0331,0337,0333,0320,",
    "01224:0333,0200,0336,0332,0336,0330,0336,0332,0332,0331,0332,0224,",
    "01225:0333,0200,0336,0330,0332,0336,0331,0332,0336,0331,0332,0225,0331,0332,0320,0337,0337,0337,0333,",
    "01226:0333,0200,0336,0336,0330,0332,0337,0226,0336,0333,0331,0337,0337,",
    "01227:0333,0200,0336,0330,0332,0336,0332,0337,0227,0333,0336,0333,0337,0331,0337,",
    "01230:0333,0200,",
    "01231:0333,0200,",
    "01232:0333,0200,",
    "01233:0333,0200,",
    "01234:0333,0200,",
    "01235:0333,0200,",
    "01236:0333,0200,",
    "01237:0333,0200,",
    "0240:0220,0336,0331,0333,0336,0321,0335,0342,0335,0335,0342,0335,0330,0330,0332,0332,0337,0337,",
    "01240:0333,0200,0336,0330,0332,0210,0240,0211,0333,0331,0337,",
    "0241:0220,0336,0321,0343,0332,0350,0335,0336,0342,0334,0334,0342,0335,0304,0337,0333,0337,",
    "01241:0333,0200,0336,0332,0330,0210,0241,0211,0333,0331,0337,",
    "0242:0220,0321,0336,0343,0333,0336,0350,0335,0342,0334,0334,0342,0335,0337,0304,0332,0337,",
    "01242:0333,0200,0336,0330,0332,0210,0242,0211,0333,0331,0337,",
    "0243:0220,0336,0331,0332,0336,0321,0343,0332,0350,0334,0336,0342,0335,0335,0342,0337,0334,0334,0335,0304,0332,0330,0330,0337,0337,0333,",
    "01243:0333,0200,0336,0330,0332,0210,0243,0211,0333,0331,0337,",
    "0244:0220,0336,0331,0333,0336,0321,0343,0333,0350,0336,0335,0342,0334,0334,0342,0335,0337,0304,0333,0330,0330,0337,0337,0332,",
    "01244:0333,0200,0336,0330,0332,0210,0244,0211,0333,0331,0337,",
    "0245:0210,0332,0332,0362,0335,0203,0203,0203,0203,0334,0203,0363,0332,0332,0331,0211,",
    "01245:0333,0200,0336,0330,0332,0336,0245,0337,0333,0331,0337,",
    "0246:0210,0332,0332,0335,0306,0336,0330,0335,0335,0335,0321,0362,0203,0335,0335,0203,0364,0331,0350,0335,0337,0366,0333,0333,0333,0333,0334,0334,0334,0334,0367,0335,0336,0342,0334,0334,0342,0330,0330,0330,0330,0335,0335,0335,0304,0337,0211,",
    "01246:0333,0200,0336,0330,0332,0336,0246,",
    "0247:0330,0332,0336,0332,0336,0221,0333,0333,0333,0222,0333,0333,0333,0223,0333,0333,0333,0225,0333,0331,0331,0331,0332,0332,0332,0332,0332,0332,0332,0332,0332,0332,0332,0332,0333,0333,0226,0331,0331,0331,0333,0333,0333,0333,0333,0333,0333,0333,0333,0333,0333,0333,0333,0330,0333,0330,0330,0333,0330,0331,0332,0332,0332,0332,0332,0332,0332,0332,0332,0332,0332,0332,0227,0333,0333,0333,0230,0333,0331,0331,0331,0331,0332,0332,0332,0330,0332,0332,0332,0332,0332,0332,0333,0333,0231,0333,0333,0333,0232,0331,0333,0330,0333,0333,0233,0333,0333,0333,0234,0330,0330,0332,0330,0332,0332,0337,0337,",
    "01247:0333,0200,0336,0330,0332,0220,0336,0247,0337,0331,0333,0337,"
  ]
}</json>-->	<path d = "M20 78 L20 71 L12 71 L12 78 L20 78 Z" stroke = "#000000" stroke-width = "2" fill = "none" />	<path d = "M20 71 L20 63 L12 63 L12 71 L20 71 Z" stroke = "#000000" stroke-width = "2" fill = "none" />	<path d = "M20 63 L20 56 L12 56 L12 63 L20 63 Z" stroke = "#000000" stroke-width = "2" fill = "none" />	<path d = "M20 56 L20 48 L12 48 L12 56 L20 56 Z" stroke = "#000000" stroke-width = "2" fill = "none" />	<path d = "M20 48 L20 41 L12 41 L12 48 L20 48 Z" stroke = "#000000" stroke-width = "2" fill = "none" />	<path d = "M20 41 L20 33 L12 33 L12 41 L20 41 Z" stroke = "#000000" stroke-width = "2" fill = "none" />	<path d = "M20 33 L20 26 L12 26 L12 33 L20 33 Z" stroke = "#000000" stroke-width = "2" fill = "none" />	<path d = "M27 41 L27 33 L20 33 L20 41 L27 41 Z" stroke = "#000000" stroke-width = "2" fill = "none" />	<path d = "M35 48 L35 41 L27 41 L27 48 L35 48 Z" stroke = "#000000" stroke-width = "2" fill = "none" />	<path d = "M35 56 L35 48 L27 48 L27 56 L35 56 Z" stroke = "#000000" stroke-width = "2" fill = "none" />	<path d = "M42 41 L42 33 L35 33 L35 41 L42 41 Z" stroke = "#000000" stroke-width = "2" fill = "none" />	<path d = "M49 33 L49 26 L42 26 L42 33 L49 33 Z" stroke = "#000000" stroke-width = "2" fill = "none" />	<path d = "M49 41 L49 33 L42 33 L42 41 L49 41 Z" stroke = "#000000" stroke-width = "2" fill = "none" />	<path d = "M49 48 L49 41 L42 41 L42 48 L49 48 Z" stroke = "#000000" stroke-width = "2" fill = "none" />	<path d = "M49 56 L49 48 L42 48 L42 56 L49 56 Z" stroke = "#000000" stroke-width = "2" fill = "none" />	<path d = "M49 63 L49 56 L42 56 L42 63 L49 63 Z" stroke = "#000000" stroke-width = "2" fill = "none" />	<path d = "M49 71 L49 63 L42 63 L42 71 L49 71 Z" stroke = "#000000" stroke-width = "2" fill = "none" />	<path d = "M49 78 L49 71 L42 71 L42 78 L49 78 Z" stroke = "#000000" stroke-width = "2" fill = "none" />	<path d = "M64 78 L64 71 L57 71 L57 78 L64 78 Z" stroke = "#000000" stroke-width = "2" fill = "none" />	<path d = "M64 71 L64 63 L57 63 L57 71 L64 71 Z" stroke = "#000000" stroke-width = "2" fill = "none" />	<path d = "M64 63 L64 56 L57 56 L57 63 L64 63 Z" stroke = "#000000" stroke-width = "2" fill = "none" />	<path d = "M64 56 L64 48 L57 48 L57 56 L64 56 Z" stroke = "#000000" stroke-width = "2" fill = "none" />	<path d = "M64 48 L64 41 L57 41 L57 48 L64 48 Z" stroke = "#000000" stroke-width = "2" fill = "none" />	<path d = "M64 41 L64 33 L57 33 L57 41 L64 41 Z" stroke = "#000000" stroke-width = "2" fill = "none" />	<path d = "M72 33 L72 26 L64 26 L64 33 L72 33 Z" stroke = "#000000" stroke-width = "2" fill = "none" />	<path d = "M79 33 L79 26 L72 26 L72 33 L79 33 Z" stroke = "#000000" stroke-width = "2" fill = "none" />	<path d = "M87 33 L87 26 L79 26 L79 33 L87 33 Z" stroke = "#000000" stroke-width = "2" fill = "none" />	<path d = "M94 41 L94 33 L87 33 L87 41 L94 41 Z" stroke = "#000000" stroke-width = "2" fill = "none" />	<path d = "M94 48 L94 41 L87 41 L87 48 L94 48 Z" stroke = "#000000" stroke-width = "2" fill = "none" />	<path d = "M94 56 L94 48 L87 48 L87 56 L94 56 Z" stroke = "#000000" stroke-width = "2" fill = "none" />	<path d = "M94 63 L94 56 L87 56 L87 63 L94 63 Z" stroke = "#000000" stroke-width = "2" fill = "none" />	<path d = "M94 71 L94 63 L87 63 L87 71 L94 71 Z" stroke = "#000000" stroke-width = "2" fill = "none" />	<path d = "M94 78 L94 71 L87 71 L87 78 L94 78 Z" stroke = "#000000" stroke-width = "2" fill = "none" />	<path d = "M87 56 L87 48 L79 48 L79 56 L87 56 Z" stroke = "#000000" stroke-width = "2" fill = "none" />	<path d = "M79 56 L79 48 L72 48 L72 56 L79 56 Z" stroke = "#000000" stroke-width = "2" fill = "none" />	<path d = "M72 56 L72 48 L64 48 L64 56 L72 56 Z" stroke = "#000000" stroke-width = "2" fill = "none" />	<path d = "M109 71 L109 63 L101 63 L101 71 L109 71 Z" stroke = "#000000" stroke-width = "2" fill = "none" />	<path d = "M109 63 L109 56 L101 56 L101 63 L109 63 Z" stroke = "#000000" stroke-width = "2" fill = "none" />	<path d = "M109 56 L109 48 L101 48 L101 56 L109 56 Z" stroke = "#000000" stroke-width = "2" fill = "none" />	<path d = "M109 48 L109 41 L101 41 L101 48 L109 48 Z" stroke = "#000000" stroke-width = "2" fill = "none" />	<path d = "M109 41 L109 33 L101 33 L101 41 L109 41 Z" stroke = "#000000" stroke-width = "2" fill = "none" />	<path d = "M116 33 L116 26 L109 26 L109 33 L116 33 Z" stroke = "#000000" stroke-width = "2" fill = "none" />	<path d = "M124 33 L124 26 L116 26 L116 33 L124 33 Z" stroke = "#000000" stroke-width = "2" fill = "none" />	<path d = "M131 33 L131 26 L124 26 L124 33 L131 33 Z" stroke = "#000000" stroke-width = "2" fill = "none" />	<path d = "M139 41 L139 33 L131 33 L131 41 L139 41 Z" stroke = "#000000" stroke-width = "2" fill = "none" />	<path d = "M131 56 L131 48 L124 48 L124 56 L131 56 Z" stroke = "#000000" stroke-width = "2" fill = "none" />	<path d = "M124 56 L124 48 L116 48 L116 56 L124 56 Z" stroke = "#000000" stroke-width = "2" fill = "none" />	<path d = "M139 56 L139 48 L131 48 L131 56 L139 56 Z" stroke = "#000000" stroke-width = "2" fill = "none" />	<path d = "M139 63 L139 56 L131 56 L131 63 L139 63 Z" stroke = "#000000" stroke-width = "2" fill = "none" />	<path d = "M139 71 L139 63 L131 63 L131 71 L139 71 Z" stroke = "#000000" stroke-width = "2" fill = "none" />	<path d = "M139 78 L139 71 L131 71 L131 78 L139 78 Z" stroke = "#000000" stroke-width = "2" fill = "none" />	<path d = "M131 78 L131 71 L124 71 L124 78 L131 78 Z" stroke = "#000000" stroke-width = "2" fill = "none" />	<path d = "M124 78 L124 71 L116 71 L116 78 L124 78 Z" stroke = "#000000" stroke-width = "2" fill = "none" />	<path d = "M116 78 L116 71 L109 71 L109 78 L116 78 Z" stroke = "#000000" stroke-width = "2" fill = "none" />	<path d = "M161 78 L161 71 L154 71 L154 78 L161 78 Z" stroke = "#000000" stroke-width = "2" fill = "none" />	<path d = "M168 78 L168 71 L161 71 L161 78 L168 78 Z" stroke = "#000000" stroke-width = "2" fill = "none" />	<path d = "M176 78 L176 71 L168 71 L168 78 L176 78 Z" stroke = "#000000" stroke-width = "2" fill = "none" />	<path d = "M168 71 L168 63 L161 63 L161 71 L168 71 Z" stroke = "#000000" stroke-width = "2" fill = "none" />	<path d = "M168 63 L168 56 L161 56 L161 63 L168 63 Z" stroke = "#000000" stroke-width = "2" fill = "none" />	<path d = "M168 56 L168 48 L161 48 L161 56 L168 56 Z" stroke = "#000000" stroke-width = "2" fill = "none" />	<path d = "M168 48 L168 41 L161 41 L161 48 L168 48 Z" stroke = "#000000" stroke-width = "2" fill = "none" />	<path d = "M168 41 L168 33 L161 33 L161 41 L168 41 Z" stroke = "#000000" stroke-width = "2" fill = "none" />	<path d = "M168 33 L168 26 L161 26 L161 33 L168 33 Z" stroke = "#000000" stroke-width = "2" fill = "none" />	<path d = "M161 33 L161 26 L154 26 L154 33 L161 33 Z" stroke = "#000000" stroke-width = "2" fill = "none" />	<path d = "M176 33 L176 26 L168 26 L168 33 L176 33 Z" stroke = "#000000" stroke-width = "2" fill = "none" />	<path d = "M198 71 L198 63 L191 63 L191 71 L198 71 Z" stroke = "#000000" stroke-width = "2" fill = "none" />	<path d = "M198 63 L198 56 L191 56 L191 63 L198 63 Z" stroke = "#000000" stroke-width = "2" fill = "none" />	<path d = "M198 56 L198 48 L191 48 L191 56 L198 56 Z" stroke = "#000000" stroke-width = "2" fill = "none" />	<path d = "M198 48 L198 41 L191 41 L191 48 L198 48 Z" stroke = "#000000" stroke-width = "2" fill = "none" />	<path d = "M198 41 L198 33 L191 33 L191 41 L198 41 Z" stroke = "#000000" stroke-width = "2" fill = "none" />	<path d = "M206 33 L206 26 L198 26 L198 33 L206 33 Z" stroke = "#000000" stroke-width = "2" fill = "none" />	<path d = "M213 33 L213 26 L206 26 L206 33 L213 33 Z" stroke = "#000000" stroke-width = "2" fill = "none" />	<path d = "M220 33 L220 26 L213 26 L213 33 L220 33 Z" stroke = "#000000" stroke-width = "2" fill = "none" />	<path d = "M228 41 L228 33 L220 33 L220 41 L228 41 Z" stroke = "#000000" stroke-width = "2" fill = "none" />	<path d = "M228 71 L228 63 L220 63 L220 71 L228 71 Z" stroke = "#000000" stroke-width = "2" fill = "none" />	<path d = "M220 78 L220 71 L213 71 L213 78 L220 78 Z" stroke = "#000000" stroke-width = "2" fill = "none" />	<path d = "M213 78 L213 71 L206 71 L206 78 L213 78 Z" stroke = "#000000" stroke-width = "2" fill = "none" />	<path d = "M206 78 L206 71 L198 71 L198 78 L206 78 Z" stroke = "#000000" stroke-width = "2" fill = "none" />	<path d = "M287 71 L287 63 L280 63 L280 71 L287 71 Z" stroke = "#000000" stroke-width = "2" fill = "none" />	<path d = "M295 78 L295 71 L287 71 L287 78 L295 78 Z" stroke = "#000000" stroke-width = "2" fill = "none" />	<path d = "M302 78 L302 71 L295 71 L295 78 L302 78 Z" stroke = "#000000" stroke-width = "2" fill = "none" />	<path d = "M310 78 L310 71 L302 71 L302 78 L310 78 Z" stroke = "#000000" stroke-width = "2" fill = "none" />	<path d = "M317 71 L317 63 L310 63 L310 71 L317 71 Z" stroke = "#000000" stroke-width = "2" fill = "none" />	<path d = "M317 63 L317 56 L310 56 L310 63 L317 63 Z" stroke = "#000000" stroke-width = "2" fill = "none" />	<path d = "M310 56 L310 48 L302 48 L302 56 L310 56 Z" stroke = "#000000" stroke-width = "2" fill = "none" />	<path d = "M302 56 L302 48 L295 48 L295 56 L302 56 Z" stroke = "#000000" stroke-width = "2" fill = "none" />	<path d = "M295 56 L295 48 L287 48 L287 56 L295 56 Z" stroke = "#000000" stroke-width = "2" fill = "none" />	<path d = "M287 48 L287 41 L280 41 L280 48 L287 48 Z" stroke = "#000000" stroke-width = "2" fill = "none" />	<path d = "M287 41 L287 33 L280 33 L280 41 L287 41 Z" stroke = "#000000" stroke-width = "2" fill = "none" />	<path d = "M295 33 L295 26 L287 26 L287 33 L295 33 Z" stroke = "#000000" stroke-width = "2" fill = "none" />	<path d = "M302 33 L302 26 L295 26 L295 33 L302 33 Z" stroke = "#000000" stroke-width = "2" fill = "none" />	<path d = "M310 33 L310 26 L302 26 L302 33 L310 33 Z" stroke = "#000000" stroke-width = "2" fill = "none" />	<path d = "M317 41 L317 33 L310 33 L310 41 L317 41 Z" stroke = "#000000" stroke-width = "2" fill = "none" />	<path d = "M332 48 L332 41 L325 41 L325 48 L332 48 Z" stroke = "#000000" stroke-width = "2" fill = "none" />	<path d = "M332 41 L332 33 L325 33 L325 41 L332 41 Z" stroke = "#000000" stroke-width = "2" fill = "none" />	<path d = "M332 33 L332 26 L325 26 L325 33 L332 33 Z" stroke = "#000000" stroke-width = "2" fill = "none" />	<path d = "M339 56 L339 48 L332 48 L332 56 L339 56 Z" stroke = "#000000" stroke-width = "2" fill = "none" />	<path d = "M347 63 L347 56 L339 56 L339 63 L347 63 Z" stroke = "#000000" stroke-width = "2" fill = "none" />	<path d = "M347 71 L347 63 L339 63 L339 71 L347 71 Z" stroke = "#000000" stroke-width = "2" fill = "none" />	<path d = "M347 78 L347 71 L339 71 L339 78 L347 78 Z" stroke = "#000000" stroke-width = "2" fill = "none" />	<path d = "M354 56 L354 48 L347 48 L347 56 L354 56 Z" stroke = "#000000" stroke-width = "2" fill = "none" />	<path d = "M362 48 L362 41 L354 41 L354 48 L362 48 Z" stroke = "#000000" stroke-width = "2" fill = "none" />	<path d = "M362 41 L362 33 L354 33 L354 41 L362 41 Z" stroke = "#000000" stroke-width = "2" fill = "none" />	<path d = "M362 33 L362 26 L354 26 L354 33 L362 33 Z" stroke = "#000000" stroke-width = "2" fill = "none" />	<path d = "M377 78 L377 71 L369 71 L369 78 L377 78 Z" stroke = "#000000" stroke-width = "2" fill = "none" />	<path d = "M377 71 L377 63 L369 63 L369 71 L377 71 Z" stroke = "#000000" stroke-width = "2" fill = "none" />	<path d = "M377 63 L377 56 L369 56 L369 63 L377 63 Z" stroke = "#000000" stroke-width = "2" fill = "none" />	<path d = "M377 56 L377 48 L369 48 L369 56 L377 56 Z" stroke = "#000000" stroke-width = "2" fill = "none" />	<path d = "M377 48 L377 41 L369 41 L369 48 L377 48 Z" stroke = "#000000" stroke-width = "2" fill = "none" />	<path d = "M377 41 L377 33 L369 33 L369 41 L377 41 Z" stroke = "#000000" stroke-width = "2" fill = "none" />	<path d = "M377 33 L377 26 L369 26 L369 33 L377 33 Z" stroke = "#000000" stroke-width = "2" fill = "none" />	<path d = "M384 41 L384 33 L377 33 L377 41 L384 41 Z" stroke = "#000000" stroke-width = "2" fill = "none" />	<path d = "M392 48 L392 41 L384 41 L384 48 L392 48 Z" stroke = "#000000" stroke-width = "2" fill = "none" />	<path d = "M392 56 L392 48 L384 48 L384 56 L392 56 Z" stroke = "#000000" stroke-width = "2" fill = "none" />	<path d = "M399 41 L399 33 L392 33 L392 41 L399 41 Z" stroke = "#000000" stroke-width = "2" fill = "none" />	<path d = "M406 33 L406 26 L399 26 L399 33 L406 33 Z" stroke = "#000000" stroke-width = "2" fill = "none" />	<path d = "M406 41 L406 33 L399 33 L399 41 L406 41 Z" stroke = "#000000" stroke-width = "2" fill = "none" />	<path d = "M406 48 L406 41 L399 41 L399 48 L406 48 Z" stroke = "#000000" stroke-width = "2" fill = "none" />	<path d = "M406 56 L406 48 L399 48 L399 56 L406 56 Z" stroke = "#000000" stroke-width = "2" fill = "none" />	<path d = "M406 63 L406 56 L399 56 L399 63 L406 63 Z" stroke = "#000000" stroke-width = "2" fill = "none" />	<path d = "M406 71 L406 63 L399 63 L399 71 L406 71 Z" stroke = "#000000" stroke-width = "2" fill = "none" />	<path d = "M406 78 L406 71 L399 71 L399 78 L406 78 Z" stroke = "#000000" stroke-width = "2" fill = "none" />	<path d = "M421 78 L421 71 L414 71 L414 78 L421 78 Z" stroke = "#000000" stroke-width = "2" fill = "none" />	<path d = "M421 71 L421 63 L414 63 L414 71 L421 71 Z" stroke = "#000000" stroke-width = "2" fill = "none" />	<path d = "M421 63 L421 56 L414 56 L414 63 L421 63 Z" stroke = "#000000" stroke-width = "2" fill = "none" />	<path d = "M421 56 L421 48 L414 48 L414 56 L421 56 Z" stroke = "#000000" stroke-width = "2" fill = "none" />	<path d = "M421 48 L421 41 L414 41 L414 48 L421 48 Z" stroke = "#000000" stroke-width = "2" fill = "none" />	<path d = "M421 41 L421 33 L414 33 L414 41 L421 41 Z" stroke = "#000000" stroke-width = "2" fill = "none" />	<path d = "M421 33 L421 26 L414 26 L414 33 L421 33 Z" stroke = "#000000" stroke-width = "2" fill = "none" />	<path d = "M429 33 L429 26 L421 26 L421 33 L429 33 Z" stroke = "#000000" stroke-width = "2" fill = "none" />	<path d = "M436 33 L436 26 L429 26 L429 33 L436 33 Z" stroke = "#000000" stroke-width = "2" fill = "none" />	<path d = "M444 33 L444 26 L436 26 L436 33 L444 33 Z" stroke = "#000000" stroke-width = "2" fill = "none" />	<path d = "M451 41 L451 33 L444 33 L444 41 L451 41 Z" stroke = "#000000" stroke-width = "2" fill = "none" />	<path d = "M451 48 L451 41 L444 41 L444 48 L451 48 Z" stroke = "#000000" stroke-width = "2" fill = "none" />	<path d = "M444 56 L444 48 L436 48 L436 56 L444 56 Z" stroke = "#000000" stroke-width = "2" fill = "none" />	<path d = "M436 56 L436 48 L429 48 L429 56 L436 56 Z" stroke = "#000000" stroke-width = "2" fill = "none" />	<path d = "M429 56 L429 48 L421 48 L421 56 L429 56 Z" stroke = "#000000" stroke-width = "2" fill = "none" />	<path d = "M451 63 L451 56 L444 56 L444 63 L451 63 Z" stroke = "#000000" stroke-width = "2" fill = "none" />	<path d = "M451 71 L451 63 L444 63 L444 71 L451 71 Z" stroke = "#000000" stroke-width = "2" fill = "none" />	<path d = "M444 78 L444 71 L436 71 L436 78 L444 78 Z" stroke = "#000000" stroke-width = "2" fill = "none" />	<path d = "M436 78 L436 71 L429 71 L429 78 L436 78 Z" stroke = "#000000" stroke-width = "2" fill = "none" />	<path d = "M429 78 L429 71 L421 71 L421 78 L429 78 Z" stroke = "#000000" stroke-width = "2" fill = "none" />	<path d = "M466 71 L466 63 L458 63 L458 71 L466 71 Z" stroke = "#000000" stroke-width = "2" fill = "none" />	<path d = "M466 63 L466 56 L458 56 L458 63 L466 63 Z" stroke = "#000000" stroke-width = "2" fill = "none" />	<path d = "M466 56 L466 48 L458 48 L458 56 L466 56 Z" stroke = "#000000" stroke-width = "2" fill = "none" />	<path d = "M466 48 L466 41 L458 41 L458 48 L466 48 Z" stroke = "#000000" stroke-width = "2" fill = "none" />	<path d = "M466 41 L466 33 L458 33 L458 41 L466 41 Z" stroke = "#000000" stroke-width = "2" fill = "none" />	<path d = "M473 33 L473 26 L466 26 L466 33 L473 33 Z" stroke = "#000000" stroke-width = "2" fill = "none" />	<path d = "M481 33 L481 26 L473 26 L473 33 L481 33 Z" stroke = "#000000" stroke-width = "2" fill = "none" />	<path d = "M488 33 L488 26 L481 26 L481 33 L488 33 Z" stroke = "#000000" stroke-width = "2" fill = "none" />	<path d = "M496 41 L496 33 L488 33 L488 41 L496 41 Z" stroke = "#000000" stroke-width = "2" fill = "none" />	<path d = "M496 48 L496 41 L488 41 L488 48 L496 48 Z" stroke = "#000000" stroke-width = "2" fill = "none" />	<path d = "M496 56 L496 48 L488 48 L488 56 L496 56 Z" stroke = "#000000" stroke-width = "2" fill = "none" />	<path d = "M496 63 L496 56 L488 56 L488 63 L496 63 Z" stroke = "#000000" stroke-width = "2" fill = "none" />	<path d = "M496 71 L496 63 L488 63 L488 71 L496 71 Z" stroke = "#000000" stroke-width = "2" fill = "none" />	<path d = "M488 78 L488 71 L481 71 L481 78 L488 78 Z" stroke = "#000000" stroke-width = "2" fill = "none" />	<path d = "M481 78 L481 71 L473 71 L473 78 L481 78 Z" stroke = "#000000" stroke-width = "2" fill = "none" />	<path d = "M473 78 L473 71 L466 71 L466 78 L473 78 Z" stroke = "#000000" stroke-width = "2" fill = "none" />	<path d = "M511 78 L511 71 L503 71 L503 78 L511 78 Z" stroke = "#000000" stroke-width = "2" fill = "none" />	<path d = "M511 71 L511 63 L503 63 L503 71 L511 71 Z" stroke = "#000000" stroke-width = "2" fill = "none" />	<path d = "M511 63 L511 56 L503 56 L503 63 L511 63 Z" stroke = "#000000" stroke-width = "2" fill = "none" />	<path d = "M511 56 L511 48 L503 48 L503 56 L511 56 Z" stroke = "#000000" stroke-width = "2" fill = "none" />	<path d = "M511 48 L511 41 L503 41 L503 48 L511 48 Z" stroke = "#000000" stroke-width = "2" fill = "none" />	<path d = "M511 41 L511 33 L503 33 L503 41 L511 41 Z" stroke = "#000000" stroke-width = "2" fill = "none" />	<path d = "M511 33 L511 26 L503 26 L503 33 L511 33 Z" stroke = "#000000" stroke-width = "2" fill = "none" />	<path d = "M518 78 L518 71 L511 71 L511 78 L518 78 Z" stroke = "#000000" stroke-width = "2" fill = "none" />	<path d = "M525 78 L525 71 L518 71 L518 78 L525 78 Z" stroke = "#000000" stroke-width = "2" fill = "none" />	<path d = "M533 78 L533 71 L525 71 L525 78 L533 78 Z" stroke = "#000000" stroke-width = "2" fill = "none" />	<path d = "M540 78 L540 71 L533 71 L533 78 L540 78 Z" stroke = "#000000" stroke-width = "2" fill = "none" />	<path d = "M555 71 L555 63 L548 63 L548 71 L555 71 Z" stroke = "#000000" stroke-width = "2" fill = "none" />	<path d = "M563 78 L563 71 L555 71 L555 78 L563 78 Z" stroke = "#000000" stroke-width = "2" fill = "none" />	<path d = "M570 78 L570 71 L563 71 L563 78 L570 78 Z" stroke = "#000000" stroke-width = "2" fill = "none" />	<path d = "M577 78 L577 71 L570 71 L570 78 L577 78 Z" stroke = "#000000" stroke-width = "2" fill = "none" />	<path d = "M585 71 L585 63 L577 63 L577 71 L585 71 Z" stroke = "#000000" stroke-width = "2" fill = "none" />	<path d = "M585 63 L585 56 L577 56 L577 63 L585 63 Z" stroke = "#000000" stroke-width = "2" fill = "none" />	<path d = "M577 56 L577 48 L570 48 L570 56 L577 56 Z" stroke = "#000000" stroke-width = "2" fill = "none" />	<path d = "M570 56 L570 48 L563 48 L563 56 L570 56 Z" stroke = "#000000" stroke-width = "2" fill = "none" />	<path d = "M563 56 L563 48 L555 48 L555 56 L563 56 Z" stroke = "#000000" stroke-width = "2" fill = "none" />	<path d = "M555 48 L555 41 L548 41 L548 48 L555 48 Z" stroke = "#000000" stroke-width = "2" fill = "none" />	<path d = "M555 41 L555 33 L548 33 L548 41 L555 41 Z" stroke = "#000000" stroke-width = "2" fill = "none" />	<path d = "M563 33 L563 26 L555 26 L555 33 L563 33 Z" stroke = "#000000" stroke-width = "2" fill = "none" />	<path d = "M570 33 L570 26 L563 26 L563 33 L570 33 Z" stroke = "#000000" stroke-width = "2" fill = "none" />	<path d = "M577 33 L577 26 L570 26 L570 33 L577 33 Z" stroke = "#000000" stroke-width = "2" fill = "none" />	<path d = "M585 41 L585 33 L577 33 L577 41 L585 41 Z" stroke = "#000000" stroke-width = "2" fill = "none" /></svg>