<svg width="600" height="700" viewbox = "0 0 600 700"  xmlns="http://www.w3.org/2000/svg">
<!--<json>{
  "glyph": "0332,0336,0332,0337,0330,0330,0330,0330,0332,0336,0336,0331,0332,0331,0332,0337,0337,0330,0330,0330,0332,0332,0332,0332,0332,0211,0211,0336,0336,0336,0332,0332,0332,0332,0332,0332,0332,0332,0330,0332,0337,0337,0337,0333,0333,0333,0336,0333,0337,0332,0332,0336,0333,0337,0333,0336,0333,0337,0333,01124,01122,01101,01126,01105,01114,01123,",
  "x0": 295,
  "y0": 497.87231404958663,
  "unit": 60.50000000000002,
  "width": 600,
  "height": 700,
  "style": {
    "color0": "black",
    "fill0": "white",
    "line0": 2,
    "color1": "black",
    "fill1": "black",
    "line1": 5,
    "color2": "red",
    "fill2": "red",
    "line2": 1,
    "color3": "#FF7900",
    "fill3": "#FF7900",
    "line3": 1,
    "color4": "yellow",
    "fill4": "yellow",
    "line4": 1,
    "color5": "green",
    "fill5": "green",
    "line5": 1,
    "color6": "blue",
    "fill6": "blue",
    "line6": 1,
    "color7": "purple",
    "fill7": "purple",
    "line7": 1
  },
  "shapes": [
    "0220:0342,0336,0333,0342,0336,0332,0342,0333,0333,0342,0336,0333,0342,0332,0332,0342,0332,0332,0342,0332,0332,0342,0333,0333,0333,0333,0333,0333,0333,0337,0337,0337,",
    "0221:0316,0336,0313,0342,0336,0333,0342,0333,0342,0333,0342,0333,0342,0333,0337,0342,0336,0333,0342,0333,0342,0333,0342,0333,0342,0333,0342,0337,0316,0337,0313,",
    "0222:0362,0203,0335,0203,0203,0203,0203,0203,0203,0335,0203,0335,0203,0203,0203,0203,0203,0203,0354,0335,",
    "0223:0322,0221,0221,0221,0221,0221,0221,0334,0221,0334,0220,0220,0220,0220,0220,0220,0334,0220,0334,0320,",
    "0224:0222,0330,0222,0330,0222,0330,0222,0330,0222,0330,0222,0331,0331,0331,0331,0331,",
    "0225:0223,0330,0223,0330,0223,0330,0223,0330,0223,0330,0223,0331,0331,0331,0331,0331,",
    "0226:0220,0336,0331,0334,0336,0330,0337,0321,0336,0362,0203,0335,0203,0203,0203,0203,0203,0335,0203,0203,0203,0203,0335,0203,0203,0203,0203,0203,0335,0203,0364,0330,0334,0331,0337,0201,0335,0336,0350,0334,0331,0362,0203,0335,0335,0203,0364,0331,0335,0313,0304,0337,0330,0336,0330,0337,0337,0320,0331,0336,0331,0332,01015,0163,0141,0166,0145,0365,0330,0330,0330,0333,0337,",
    "0227:0304,0350,0335,0313,0304,0322,0336,0336,0336,0330,0332,0337,0337,0362,0203,0335,0336,0203,0335,0337,0203,0334,0203,0335,0336,0203,0335,0337,0203,0334,0203,0335,0336,0203,0335,0337,0203,0334,0203,0335,0336,0203,0335,0337,0203,0363,0320,0336,0334,0336,0333,0331,0337,0337,0337,0350,0334,0304,0220,0331,0336,0331,0332,0336,0332,0337,01015,0144,0145,0154,0145,0164,0145,0336,0333,0337,0330,0330,0330,0333,0337,",
    "0230:0313,0334,0336,0330,0335,0335,0305,0334,0337,0311,0337,0362,0203,0335,0335,0203,0335,0350,0335,0336,0203,0363,0313,0336,0331,0304,0335,0337,",
    "0231:0321,0342,0330,0320,0336,0230,0331,0331,0337,0350,0335,0304,",
    "0232:0231,0231,0231,0231,0231,0231,0231,0231,",
    "0233:0220,0336,0210,0232,",
    "0234:0220,0336,0335,0335,0331,0335,0331,0337,0321,0342,0332,0342,0336,0333,0337,0342,0330,0336,0336,0336,0330,0337,0366,0332,0332,0332,0367,0350,0335,0306,0350,0320,0335,0362,0203,0334,0334,0334,0334,0203,0334,0334,0334,0334,0203,0363,0335,0304,0350,0335,0304,0335,0335,0331,0331,0332,01015,0145,0154,0145,0155,0145,0156,0164,040,0144,0157,0167,0156,0365,0330,0330,0330,0330,0330,0333,0333,0333,0336,0332,0337,0333,0337,0337,",
    "0235:0220,0321,0336,0342,0335,0342,0335,0342,0335,0342,0335,0337,",
    "0236:0321,0220,0335,0336,0321,0342,0335,0335,0342,0335,0337,",
    "0237:0220,0336,0331,0332,0336,0321,0342,0335,0342,0335,0342,0335,0342,0335,0330,0330,0333,0333,0337,0337,",
    "01220:0333,0200,0336,0332,0330,0336,0332,0337,0220,0331,0336,0333,0337,0337,",
    "01221:0333,0200,0336,0330,0332,0336,0332,0337,0221,0336,0333,0337,0331,0337,",
    "01222:0333,0200,0336,0330,0332,0336,0332,0336,0332,0222,0332,0337,0337,0331,0337,0333,",
    "01223:0333,0200,0336,0332,0330,0336,0332,0336,0332,0223,0332,0337,0337,0331,0337,0333,0320,",
    "01224:0333,0200,0336,0332,0336,0330,0336,0332,0332,0331,0332,0224,",
    "01225:0333,0200,0336,0330,0332,0336,0331,0332,0336,0331,0332,0225,0331,0332,0320,0337,0337,0337,0333,",
    "01226:0333,0200,0336,0336,0330,0332,0337,0226,0336,0333,0331,0337,0337,",
    "01227:0333,0200,0336,0330,0332,0336,0332,0337,0227,0333,0336,0333,0337,0331,0337,",
    "01230:0333,0200,",
    "01231:0333,0200,",
    "01232:0333,0200,",
    "01233:0333,0200,",
    "01234:0333,0200,",
    "01235:0333,0200,",
    "01236:0333,0200,",
    "01237:0333,0200,",
    "0240:0220,0336,0331,0333,0336,0321,0335,0342,0335,0335,0342,0335,0330,0330,0332,0332,0337,0337,",
    "01240:0333,0200,0336,0330,0332,0210,0240,0211,0333,0331,0337,",
    "0241:0220,0336,0321,0343,0332,0350,0335,0336,0342,0334,0334,0342,0335,0304,0337,0333,0337,",
    "01241:0333,0200,0336,0332,0330,0210,0241,0211,0333,0331,0337,",
    "0242:0220,0321,0336,0343,0333,0336,0350,0335,0342,0334,0334,0342,0335,0337,0304,0332,0337,",
    "01242:0333,0200,0336,0330,0332,0210,0242,0211,0333,0331,0337,",
    "0243:0220,0336,0331,0332,0336,0321,0343,0332,0350,0334,0336,0342,0335,0335,0342,0337,0334,0334,0335,0304,0332,0330,0330,0337,0337,0333,",
    "01243:0333,0200,0336,0330,0332,0210,0243,0211,0333,0331,0337,",
    "0244:0220,0336,0331,0333,0336,0321,0343,0333,0350,0336,0335,0342,0334,0334,0342,0335,0337,0304,0333,0330,0330,0337,0337,0332,",
    "01244:0333,0200,0336,0330,0332,0210,0244,0211,0333,0331,0337,",
    "0245:0210,0332,0332,0362,0335,0203,0203,0203,0203,0334,0203,0363,0332,0332,0331,0211,",
    "01245:0333,0200,0336,0330,0332,0336,0245,0337,0333,0331,0337,",
    "0246:0210,0332,0332,0335,0306,0336,0330,0335,0335,0335,0321,0362,0203,0335,0335,0203,0364,0331,0350,0335,0337,0366,0333,0333,0333,0333,0334,0334,0334,0334,0367,0335,0336,0342,0334,0334,0342,0330,0330,0330,0330,0335,0335,0335,0304,0337,0211,",
    "01246:0333,0200,0336,0330,0332,0336,0246,",
    "0247:0330,0332,0336,0332,0336,0221,0333,0333,0333,0222,0333,0333,0333,0223,0333,0333,0333,0225,0333,0331,0331,0331,0332,0332,0332,0332,0332,0332,0332,0332,0332,0332,0332,0332,0333,0333,0226,0331,0331,0331,0333,0333,0333,0333,0333,0333,0333,0333,0333,0333,0333,0333,0333,0330,0333,0330,0330,0333,0330,0331,0332,0332,0332,0332,0332,0332,0332,0332,0332,0332,0332,0332,0227,0333,0333,0333,0230,0333,0331,0331,0331,0331,0332,0332,0332,0330,0332,0332,0332,0332,0332,0332,0333,0333,0231,0333,0333,0333,0232,0331,0333,0330,0333,0333,0233,0333,0333,0333,0234,0330,0330,0332,0330,0332,0332,0337,0337,",
    "01247:0333,0200,0336,0330,0332,0220,0336,0247,0337,0331,0333,0337,"
  ]
}</json>-->	<path d = "M93 40 L93 30 L83 30 L83 40 L93 40 Z" stroke = "#000000" stroke-width = "2" fill = "none" />	<path d = "M103 40 L103 30 L93 30 L93 40 L103 40 Z" stroke = "#000000" stroke-width = "2" fill = "none" />	<path d = "M113 40 L113 30 L103 30 L103 40 L113 40 Z" stroke = "#000000" stroke-width = "2" fill = "none" />	<path d = "M123 40 L123 30 L113 30 L113 40 L123 40 Z" stroke = "#000000" stroke-width = "2" fill = "none" />	<path d = "M133 40 L133 30 L123 30 L123 40 L133 40 Z" stroke = "#000000" stroke-width = "2" fill = "none" />	<path d = "M113 50 L113 40 L103 40 L103 50 L113 50 Z" stroke = "#000000" stroke-width = "2" fill = "none" />	<path d = "M113 60 L113 50 L103 50 L103 60 L113 60 Z" stroke = "#000000" stroke-width = "2" fill = "none" />	<path d = "M113 70 L113 60 L103 60 L103 70 L113 70 Z" stroke = "#000000" stroke-width = "2" fill = "none" />	<path d = "M113 80 L113 70 L103 70 L103 80 L113 80 Z" stroke = "#000000" stroke-width = "2" fill = "none" />	<path d = "M113 90 L113 80 L103 80 L103 90 L113 90 Z" stroke = "#000000" stroke-width = "2" fill = "none" />	<path d = "M113 100 L113 90 L103 90 L103 100 L113 100 Z" stroke = "#000000" stroke-width = "2" fill = "none" />	<path d = "M153 100 L153 90 L143 90 L143 100 L153 100 Z" stroke = "#000000" stroke-width = "2" fill = "none" />	<path d = "M153 90 L153 80 L143 80 L143 90 L153 90 Z" stroke = "#000000" stroke-width = "2" fill = "none" />	<path d = "M153 80 L153 70 L143 70 L143 80 L153 80 Z" stroke = "#000000" stroke-width = "2" fill = "none" />	<path d = "M153 70 L153 60 L143 60 L143 70 L153 70 Z" stroke = "#000000" stroke-width = "2" fill = "none" />	<path d = "M153 60 L153 50 L143 50 L143 60 L153 60 Z" stroke = "#000000" stroke-width = "2" fill = "none" />	<path d = "M153 50 L153 40 L143 40 L143 50 L153 50 Z" stroke = "#000000" stroke-width = "2" fill = "none" />	<path d = "M153 40 L153 30 L143 30 L143 40 L153 40 Z" stroke = "#000000" stroke-width = "2" fill = "none" />	<path d = "M162 40 L162 30 L153 30 L153 40 L162 40 Z" stroke = "#000000" stroke-width = "2" fill = "none" />	<path d = "M172 40 L172 30 L162 30 L162 40 L172 40 Z" stroke = "#000000" stroke-width = "2" fill = "none" />	<path d = "M182 40 L182 30 L172 30 L172 40 L182 40 Z" stroke = "#000000" stroke-width = "2" fill = "none" />	<path d = "M192 50 L192 40 L182 40 L182 50 L192 50 Z" stroke = "#000000" stroke-width = "2" fill = "none" />	<path d = "M192 60 L192 50 L182 50 L182 60 L192 60 Z" stroke = "#000000" stroke-width = "2" fill = "none" />	<path d = "M182 70 L182 60 L172 60 L172 70 L182 70 Z" stroke = "#000000" stroke-width = "2" fill = "none" />	<path d = "M172 70 L172 60 L162 60 L162 70 L172 70 Z" stroke = "#000000" stroke-width = "2" fill = "none" />	<path d = "M162 70 L162 60 L153 60 L153 70 L162 70 Z" stroke = "#000000" stroke-width = "2" fill = "none" />	<path d = "M172 80 L172 70 L162 70 L162 80 L172 80 Z" stroke = "#000000" stroke-width = "2" fill = "none" />	<path d = "M182 90 L182 80 L172 80 L172 90 L182 90 Z" stroke = "#000000" stroke-width = "2" fill = "none" />	<path d = "M192 100 L192 90 L182 90 L182 100 L192 100 Z" stroke = "#000000" stroke-width = "2" fill = "none" />	<path d = "M212 100 L212 90 L202 90 L202 100 L212 100 Z" stroke = "#000000" stroke-width = "2" fill = "none" />	<path d = "M212 90 L212 80 L202 80 L202 90 L212 90 Z" stroke = "#000000" stroke-width = "2" fill = "none" />	<path d = "M212 80 L212 70 L202 70 L202 80 L212 80 Z" stroke = "#000000" stroke-width = "2" fill = "none" />	<path d = "M212 70 L212 60 L202 60 L202 70 L212 70 Z" stroke = "#000000" stroke-width = "2" fill = "none" />	<path d = "M212 60 L212 50 L202 50 L202 60 L212 60 Z" stroke = "#000000" stroke-width = "2" fill = "none" />	<path d = "M212 50 L212 40 L202 40 L202 50 L212 50 Z" stroke = "#000000" stroke-width = "2" fill = "none" />	<path d = "M222 40 L222 30 L212 30 L212 40 L222 40 Z" stroke = "#000000" stroke-width = "2" fill = "none" />	<path d = "M232 40 L232 30 L222 30 L222 40 L232 40 Z" stroke = "#000000" stroke-width = "2" fill = "none" />	<path d = "M242 40 L242 30 L232 30 L232 40 L242 40 Z" stroke = "#000000" stroke-width = "2" fill = "none" />	<path d = "M252 50 L252 40 L242 40 L242 50 L252 50 Z" stroke = "#000000" stroke-width = "2" fill = "none" />	<path d = "M252 60 L252 50 L242 50 L242 60 L252 60 Z" stroke = "#000000" stroke-width = "2" fill = "none" />	<path d = "M252 70 L252 60 L242 60 L242 70 L252 70 Z" stroke = "#000000" stroke-width = "2" fill = "none" />	<path d = "M252 80 L252 70 L242 70 L242 80 L252 80 Z" stroke = "#000000" stroke-width = "2" fill = "none" />	<path d = "M252 90 L252 80 L242 80 L242 90 L252 90 Z" stroke = "#000000" stroke-width = "2" fill = "none" />	<path d = "M252 100 L252 90 L242 90 L242 100 L252 100 Z" stroke = "#000000" stroke-width = "2" fill = "none" />	<path d = "M242 70 L242 60 L232 60 L232 70 L242 70 Z" stroke = "#000000" stroke-width = "2" fill = "none" />	<path d = "M232 70 L232 60 L222 60 L222 70 L232 70 Z" stroke = "#000000" stroke-width = "2" fill = "none" />	<path d = "M222 70 L222 60 L212 60 L212 70 L222 70 Z" stroke = "#000000" stroke-width = "2" fill = "none" />	<path d = "M271 80 L271 70 L261 70 L261 80 L271 80 Z" stroke = "#000000" stroke-width = "2" fill = "none" />	<path d = "M271 70 L271 60 L261 60 L261 70 L271 70 Z" stroke = "#000000" stroke-width = "2" fill = "none" />	<path d = "M271 60 L271 50 L261 50 L261 60 L271 60 Z" stroke = "#000000" stroke-width = "2" fill = "none" />	<path d = "M271 50 L271 40 L261 40 L261 50 L271 50 Z" stroke = "#000000" stroke-width = "2" fill = "none" />	<path d = "M271 40 L271 30 L261 30 L261 40 L271 40 Z" stroke = "#000000" stroke-width = "2" fill = "none" />	<path d = "M281 90 L281 80 L271 80 L271 90 L281 90 Z" stroke = "#000000" stroke-width = "2" fill = "none" />	<path d = "M291 100 L291 90 L281 90 L281 100 L291 100 Z" stroke = "#000000" stroke-width = "2" fill = "none" />	<path d = "M301 90 L301 80 L291 80 L291 90 L301 90 Z" stroke = "#000000" stroke-width = "2" fill = "none" />	<path d = "M311 80 L311 70 L301 70 L301 80 L311 80 Z" stroke = "#000000" stroke-width = "2" fill = "none" />	<path d = "M311 70 L311 60 L301 60 L301 70 L311 70 Z" stroke = "#000000" stroke-width = "2" fill = "none" />	<path d = "M311 60 L311 50 L301 50 L301 60 L311 60 Z" stroke = "#000000" stroke-width = "2" fill = "none" />	<path d = "M311 50 L311 40 L301 40 L301 50 L311 50 Z" stroke = "#000000" stroke-width = "2" fill = "none" />	<path d = "M311 40 L311 30 L301 30 L301 40 L311 40 Z" stroke = "#000000" stroke-width = "2" fill = "none" />	<path d = "M331 100 L331 90 L321 90 L321 100 L331 100 Z" stroke = "#000000" stroke-width = "2" fill = "none" />	<path d = "M331 90 L331 80 L321 80 L321 90 L331 90 Z" stroke = "#000000" stroke-width = "2" fill = "none" />	<path d = "M331 80 L331 70 L321 70 L321 80 L331 80 Z" stroke = "#000000" stroke-width = "2" fill = "none" />	<path d = "M331 70 L331 60 L321 60 L321 70 L331 70 Z" stroke = "#000000" stroke-width = "2" fill = "none" />	<path d = "M331 60 L331 50 L321 50 L321 60 L331 60 Z" stroke = "#000000" stroke-width = "2" fill = "none" />	<path d = "M331 50 L331 40 L321 40 L321 50 L331 50 Z" stroke = "#000000" stroke-width = "2" fill = "none" />	<path d = "M331 40 L331 30 L321 30 L321 40 L331 40 Z" stroke = "#000000" stroke-width = "2" fill = "none" />	<path d = "M341 40 L341 30 L331 30 L331 40 L341 40 Z" stroke = "#000000" stroke-width = "2" fill = "none" />	<path d = "M351 40 L351 30 L341 30 L341 40 L351 40 Z" stroke = "#000000" stroke-width = "2" fill = "none" />	<path d = "M360 40 L360 30 L351 30 L351 40 L360 40 Z" stroke = "#000000" stroke-width = "2" fill = "none" />	<path d = "M370 40 L370 30 L360 30 L360 40 L370 40 Z" stroke = "#000000" stroke-width = "2" fill = "none" />	<path d = "M351 70 L351 60 L341 60 L341 70 L351 70 Z" stroke = "#000000" stroke-width = "2" fill = "none" />	<path d = "M341 70 L341 60 L331 60 L331 70 L341 70 Z" stroke = "#000000" stroke-width = "2" fill = "none" />	<path d = "M341 100 L341 90 L331 90 L331 100 L341 100 Z" stroke = "#000000" stroke-width = "2" fill = "none" />	<path d = "M351 100 L351 90 L341 90 L341 100 L351 100 Z" stroke = "#000000" stroke-width = "2" fill = "none" />	<path d = "M360 100 L360 90 L351 90 L351 100 L360 100 Z" stroke = "#000000" stroke-width = "2" fill = "none" />	<path d = "M370 100 L370 90 L360 90 L360 100 L370 100 Z" stroke = "#000000" stroke-width = "2" fill = "none" />	<path d = "M390 100 L390 90 L380 90 L380 100 L390 100 Z" stroke = "#000000" stroke-width = "2" fill = "none" />	<path d = "M390 90 L390 80 L380 80 L380 90 L390 90 Z" stroke = "#000000" stroke-width = "2" fill = "none" />	<path d = "M390 80 L390 70 L380 70 L380 80 L390 80 Z" stroke = "#000000" stroke-width = "2" fill = "none" />	<path d = "M390 70 L390 60 L380 60 L380 70 L390 70 Z" stroke = "#000000" stroke-width = "2" fill = "none" />	<path d = "M390 60 L390 50 L380 50 L380 60 L390 60 Z" stroke = "#000000" stroke-width = "2" fill = "none" />	<path d = "M390 50 L390 40 L380 40 L380 50 L390 50 Z" stroke = "#000000" stroke-width = "2" fill = "none" />	<path d = "M390 40 L390 30 L380 30 L380 40 L390 40 Z" stroke = "#000000" stroke-width = "2" fill = "none" />	<path d = "M400 100 L400 90 L390 90 L390 100 L400 100 Z" stroke = "#000000" stroke-width = "2" fill = "none" />	<path d = "M410 100 L410 90 L400 90 L400 100 L410 100 Z" stroke = "#000000" stroke-width = "2" fill = "none" />	<path d = "M420 100 L420 90 L410 90 L410 100 L420 100 Z" stroke = "#000000" stroke-width = "2" fill = "none" />	<path d = "M430 100 L430 90 L420 90 L420 100 L430 100 Z" stroke = "#000000" stroke-width = "2" fill = "none" />	<path d = "M450 90 L450 80 L440 80 L440 90 L450 90 Z" stroke = "#000000" stroke-width = "2" fill = "none" />	<path d = "M459 100 L459 90 L450 90 L450 100 L459 100 Z" stroke = "#000000" stroke-width = "2" fill = "none" />	<path d = "M469 100 L469 90 L459 90 L459 100 L469 100 Z" stroke = "#000000" stroke-width = "2" fill = "none" />	<path d = "M479 100 L479 90 L469 90 L469 100 L479 100 Z" stroke = "#000000" stroke-width = "2" fill = "none" />	<path d = "M489 90 L489 80 L479 80 L479 90 L489 90 Z" stroke = "#000000" stroke-width = "2" fill = "none" />	<path d = "M489 80 L489 70 L479 70 L479 80 L489 80 Z" stroke = "#000000" stroke-width = "2" fill = "none" />	<path d = "M479 70 L479 60 L469 60 L469 70 L479 70 Z" stroke = "#000000" stroke-width = "2" fill = "none" />	<path d = "M469 70 L469 60 L459 60 L459 70 L469 70 Z" stroke = "#000000" stroke-width = "2" fill = "none" />	<path d = "M459 70 L459 60 L450 60 L450 70 L459 70 Z" stroke = "#000000" stroke-width = "2" fill = "none" />	<path d = "M450 60 L450 50 L440 50 L440 60 L450 60 Z" stroke = "#000000" stroke-width = "2" fill = "none" />	<path d = "M450 50 L450 40 L440 40 L440 50 L450 50 Z" stroke = "#000000" stroke-width = "2" fill = "none" />	<path d = "M459 40 L459 30 L450 30 L450 40 L459 40 Z" stroke = "#000000" stroke-width = "2" fill = "none" />	<path d = "M469 40 L469 30 L459 30 L459 40 L469 40 Z" stroke = "#000000" stroke-width = "2" fill = "none" />	<path d = "M479 40 L479 30 L469 30 L469 40 L479 40 Z" stroke = "#000000" stroke-width = "2" fill = "none" />	<path d = "M489 50 L489 40 L479 40 L479 50 L489 50 Z" stroke = "#000000" stroke-width = "2" fill = "none" /></svg>