<svg width="600" height="700" viewbox = "0 0 600 700"  xmlns="http://www.w3.org/2000/svg">
<!--<json>{
  "glyph": "0333,0336,0333,0337,0330,0330,0330,0330,0332,0336,0336,0337,0337,0330,0330,0330,0332,0332,0332,0332,0332,0211,0211,0336,0336,0336,0332,0332,0332,0332,0332,0332,0332,0332,0330,0332,0337,0337,0337,0333,0333,0333,0336,0333,0337,0332,0332,0336,0333,0337,01123,01124,01122,01105,01105,01124,01123,",
  "x0": 300,
  "y0": 618.6254999999999,
  "unit": 73.20500000000004,
  "width": 600,
  "height": 700,
  "style": {
    "color0": "black",
    "fill0": "white",
    "line0": 2,
    "color1": "black",
    "fill1": "black",
    "line1": 5,
    "color2": "red",
    "fill2": "red",
    "line2": 1,
    "color3": "#FF7900",
    "fill3": "#FF7900",
    "line3": 1,
    "color4": "yellow",
    "fill4": "yellow",
    "line4": 1,
    "color5": "green",
    "fill5": "green",
    "line5": 1,
    "color6": "blue",
    "fill6": "blue",
    "line6": 1,
    "color7": "purple",
    "fill7": "purple",
    "line7": 1
  },
  "shapes": [
    "0220:0342,0336,0333,0342,0336,0332,0342,0333,0333,0342,0336,0333,0342,0332,0332,0342,0332,0332,0342,0332,0332,0342,0333,0333,0333,0333,0333,0333,0333,0337,0337,0337,",
    "0221:0316,0336,0313,0342,0336,0333,0342,0333,0342,0333,0342,0333,0342,0333,0337,0342,0336,0333,0342,0333,0342,0333,0342,0333,0342,0333,0342,0337,0316,0337,0313,",
    "0222:0362,0203,0335,0203,0203,0203,0203,0203,0203,0335,0203,0335,0203,0203,0203,0203,0203,0203,0354,0335,",
    "0223:0322,0221,0221,0221,0221,0221,0221,0334,0221,0334,0220,0220,0220,0220,0220,0220,0334,0220,0334,0320,",
    "0224:0222,0330,0222,0330,0222,0330,0222,0330,0222,0330,0222,0331,0331,0331,0331,0331,",
    "0225:0223,0330,0223,0330,0223,0330,0223,0330,0223,0330,0223,0331,0331,0331,0331,0331,",
    "0226:0220,0336,0331,0334,0336,0330,0337,0321,0336,0362,0203,0335,0203,0203,0203,0203,0203,0335,0203,0203,0203,0203,0335,0203,0203,0203,0203,0203,0335,0203,0364,0330,0334,0331,0337,0201,0335,0336,0350,0334,0331,0362,0203,0335,0335,0203,0364,0331,0335,0313,0304,0337,0330,0336,0330,0337,0337,0320,0331,0336,0331,0332,01015,0163,0141,0166,0145,0365,0330,0330,0330,0333,0337,",
    "0227:0304,0350,0335,0313,0304,0322,0336,0336,0336,0330,0332,0337,0337,0362,0203,0335,0336,0203,0335,0337,0203,0334,0203,0335,0336,0203,0335,0337,0203,0334,0203,0335,0336,0203,0335,0337,0203,0334,0203,0335,0336,0203,0335,0337,0203,0363,0320,0336,0334,0336,0333,0331,0337,0337,0337,0350,0334,0304,0220,0331,0336,0331,0332,0336,0332,0337,01015,0144,0145,0154,0145,0164,0145,0336,0333,0337,0330,0330,0330,0333,0337,",
    "0230:0313,0334,0336,0330,0335,0335,0305,0334,0337,0311,0337,0362,0203,0335,0335,0203,0335,0350,0335,0336,0203,0363,0313,0336,0331,0304,0335,0337,",
    "0231:0321,0342,0330,0320,0336,0230,0331,0331,0337,0350,0335,0304,",
    "0232:0231,0231,0231,0231,0231,0231,0231,0231,",
    "0233:0220,0336,0210,0232,",
    "0234:0220,0336,0335,0335,0331,0335,0331,0337,0321,0342,0332,0342,0336,0333,0337,0342,0330,0336,0336,0336,0330,0337,0366,0332,0332,0332,0367,0350,0335,0306,0350,0320,0335,0362,0203,0334,0334,0334,0334,0203,0334,0334,0334,0334,0203,0363,0335,0304,0350,0335,0304,0335,0335,0331,0331,0332,01015,0145,0154,0145,0155,0145,0156,0164,040,0144,0157,0167,0156,0365,0330,0330,0330,0330,0330,0333,0333,0333,0336,0332,0337,0333,0337,0337,",
    "0235:0220,0321,0336,0342,0335,0342,0335,0342,0335,0342,0335,0337,",
    "0236:0321,0220,0335,0336,0321,0342,0335,0335,0342,0335,0337,",
    "0237:0220,0336,0331,0332,0336,0321,0342,0335,0342,0335,0342,0335,0342,0335,0330,0330,0333,0333,0337,0337,",
    "01220:0333,0200,0336,0332,0330,0336,0332,0337,0220,0331,0336,0333,0337,0337,",
    "01221:0333,0200,0336,0330,0332,0336,0332,0337,0221,0336,0333,0337,0331,0337,",
    "01222:0333,0200,0336,0330,0332,0336,0332,0336,0332,0222,0332,0337,0337,0331,0337,0333,",
    "01223:0333,0200,0336,0332,0330,0336,0332,0336,0332,0223,0332,0337,0337,0331,0337,0333,0320,",
    "01224:0333,0200,0336,0332,0336,0330,0336,0332,0332,0331,0332,0224,",
    "01225:0333,0200,0336,0330,0332,0336,0331,0332,0336,0331,0332,0225,0331,0332,0320,0337,0337,0337,0333,",
    "01226:0333,0200,0336,0336,0330,0332,0337,0226,0336,0333,0331,0337,0337,",
    "01227:0333,0200,0336,0330,0332,0336,0332,0337,0227,0333,0336,0333,0337,0331,0337,",
    "01230:0333,0200,",
    "01231:0333,0200,",
    "01232:0333,0200,",
    "01233:0333,0200,",
    "01234:0333,0200,",
    "01235:0333,0200,",
    "01236:0333,0200,",
    "01237:0333,0200,",
    "0240:0220,0336,0331,0333,0336,0321,0335,0342,0335,0335,0342,0335,0330,0330,0332,0332,0337,0337,",
    "01240:0333,0200,0336,0330,0332,0210,0240,0211,0333,0331,0337,",
    "0241:0220,0336,0321,0343,0332,0350,0335,0336,0342,0334,0334,0342,0335,0304,0337,0333,0337,",
    "01241:0333,0200,0336,0332,0330,0210,0241,0211,0333,0331,0337,",
    "0242:0220,0321,0336,0343,0333,0336,0350,0335,0342,0334,0334,0342,0335,0337,0304,0332,0337,",
    "01242:0333,0200,0336,0330,0332,0210,0242,0211,0333,0331,0337,",
    "0243:0220,0336,0331,0332,0336,0321,0343,0332,0350,0334,0336,0342,0335,0335,0342,0337,0334,0334,0335,0304,0332,0330,0330,0337,0337,0333,",
    "01243:0333,0200,0336,0330,0332,0210,0243,0211,0333,0331,0337,",
    "0244:0220,0336,0331,0333,0336,0321,0343,0333,0350,0336,0335,0342,0334,0334,0342,0335,0337,0304,0333,0330,0330,0337,0337,0332,",
    "01244:0333,0200,0336,0330,0332,0210,0244,0211,0333,0331,0337,",
    "0245:0210,0332,0332,0362,0335,0203,0203,0203,0203,0334,0203,0363,0332,0332,0331,0211,",
    "01245:0333,0200,0336,0330,0332,0336,0245,0337,0333,0331,0337,",
    "0246:0210,0332,0332,0335,0306,0336,0330,0335,0335,0335,0321,0362,0203,0335,0335,0203,0364,0331,0350,0335,0337,0366,0333,0333,0333,0333,0334,0334,0334,0334,0367,0335,0336,0342,0334,0334,0342,0330,0330,0330,0330,0335,0335,0335,0304,0337,0211,",
    "01246:0333,0200,0336,0330,0332,0336,0246,",
    "0247:0330,0332,0336,0332,0336,0221,0333,0333,0333,0222,0333,0333,0333,0223,0333,0333,0333,0225,0333,0331,0331,0331,0332,0332,0332,0332,0332,0332,0332,0332,0332,0332,0332,0332,0333,0333,0226,0331,0331,0331,0333,0333,0333,0333,0333,0333,0333,0333,0333,0333,0333,0333,0333,0330,0333,0330,0330,0333,0330,0331,0332,0332,0332,0332,0332,0332,0332,0332,0332,0332,0332,0332,0227,0333,0333,0333,0230,0333,0331,0331,0331,0331,0332,0332,0332,0330,0332,0332,0332,0332,0332,0332,0333,0333,0231,0333,0333,0333,0232,0331,0333,0330,0333,0333,0233,0333,0333,0333,0234,0330,0330,0332,0330,0332,0332,0337,0337,",
    "01247:0333,0200,0336,0330,0332,0220,0336,0247,0337,0331,0333,0337,"
  ]
}</json>-->	<path d = "M72 88 L72 76 L60 76 L60 88 L72 88 Z" stroke = "#000000" stroke-width = "2" fill = "none" />	<path d = "M84 100 L84 88 L72 88 L72 100 L84 100 Z" stroke = "#000000" stroke-width = "2" fill = "none" />	<path d = "M96 100 L96 88 L84 88 L84 100 L96 100 Z" stroke = "#000000" stroke-width = "2" fill = "none" />	<path d = "M108 100 L108 88 L96 88 L96 100 L108 100 Z" stroke = "#000000" stroke-width = "2" fill = "none" />	<path d = "M120 88 L120 76 L108 76 L108 88 L120 88 Z" stroke = "#000000" stroke-width = "2" fill = "none" />	<path d = "M120 76 L120 64 L108 64 L108 76 L120 76 Z" stroke = "#000000" stroke-width = "2" fill = "none" />	<path d = "M108 64 L108 52 L96 52 L96 64 L108 64 Z" stroke = "#000000" stroke-width = "2" fill = "none" />	<path d = "M96 64 L96 52 L84 52 L84 64 L96 64 Z" stroke = "#000000" stroke-width = "2" fill = "none" />	<path d = "M84 64 L84 52 L72 52 L72 64 L84 64 Z" stroke = "#000000" stroke-width = "2" fill = "none" />	<path d = "M72 52 L72 40 L60 40 L60 52 L72 52 Z" stroke = "#000000" stroke-width = "2" fill = "none" />	<path d = "M72 40 L72 28 L60 28 L60 40 L72 40 Z" stroke = "#000000" stroke-width = "2" fill = "none" />	<path d = "M84 28 L84 16 L72 16 L72 28 L84 28 Z" stroke = "#000000" stroke-width = "2" fill = "none" />	<path d = "M96 28 L96 16 L84 16 L84 28 L96 28 Z" stroke = "#000000" stroke-width = "2" fill = "none" />	<path d = "M108 28 L108 16 L96 16 L96 28 L108 28 Z" stroke = "#000000" stroke-width = "2" fill = "none" />	<path d = "M120 40 L120 28 L108 28 L108 40 L120 40 Z" stroke = "#000000" stroke-width = "2" fill = "none" />	<path d = "M144 28 L144 16 L132 16 L132 28 L144 28 Z" stroke = "#000000" stroke-width = "2" fill = "none" />	<path d = "M156 28 L156 16 L144 16 L144 28 L156 28 Z" stroke = "#000000" stroke-width = "2" fill = "none" />	<path d = "M168 28 L168 16 L156 16 L156 28 L168 28 Z" stroke = "#000000" stroke-width = "2" fill = "none" />	<path d = "M180 28 L180 16 L168 16 L168 28 L180 28 Z" stroke = "#000000" stroke-width = "2" fill = "none" />	<path d = "M192 28 L192 16 L180 16 L180 28 L192 28 Z" stroke = "#000000" stroke-width = "2" fill = "none" />	<path d = "M168 40 L168 28 L156 28 L156 40 L168 40 Z" stroke = "#000000" stroke-width = "2" fill = "none" />	<path d = "M168 52 L168 40 L156 40 L156 52 L168 52 Z" stroke = "#000000" stroke-width = "2" fill = "none" />	<path d = "M168 64 L168 52 L156 52 L156 64 L168 64 Z" stroke = "#000000" stroke-width = "2" fill = "none" />	<path d = "M168 76 L168 64 L156 64 L156 76 L168 76 Z" stroke = "#000000" stroke-width = "2" fill = "none" />	<path d = "M168 88 L168 76 L156 76 L156 88 L168 88 Z" stroke = "#000000" stroke-width = "2" fill = "none" />	<path d = "M168 100 L168 88 L156 88 L156 100 L168 100 Z" stroke = "#000000" stroke-width = "2" fill = "none" />	<path d = "M216 100 L216 88 L204 88 L204 100 L216 100 Z" stroke = "#000000" stroke-width = "2" fill = "none" />	<path d = "M216 88 L216 76 L204 76 L204 88 L216 88 Z" stroke = "#000000" stroke-width = "2" fill = "none" />	<path d = "M216 76 L216 64 L204 64 L204 76 L216 76 Z" stroke = "#000000" stroke-width = "2" fill = "none" />	<path d = "M216 64 L216 52 L204 52 L204 64 L216 64 Z" stroke = "#000000" stroke-width = "2" fill = "none" />	<path d = "M216 52 L216 40 L204 40 L204 52 L216 52 Z" stroke = "#000000" stroke-width = "2" fill = "none" />	<path d = "M216 40 L216 28 L204 28 L204 40 L216 40 Z" stroke = "#000000" stroke-width = "2" fill = "none" />	<path d = "M216 28 L216 16 L204 16 L204 28 L216 28 Z" stroke = "#000000" stroke-width = "2" fill = "none" />	<path d = "M228 28 L228 16 L216 16 L216 28 L228 28 Z" stroke = "#000000" stroke-width = "2" fill = "none" />	<path d = "M240 28 L240 16 L228 16 L228 28 L240 28 Z" stroke = "#000000" stroke-width = "2" fill = "none" />	<path d = "M252 28 L252 16 L240 16 L240 28 L252 28 Z" stroke = "#000000" stroke-width = "2" fill = "none" />	<path d = "M264 40 L264 28 L252 28 L252 40 L264 40 Z" stroke = "#000000" stroke-width = "2" fill = "none" />	<path d = "M264 52 L264 40 L252 40 L252 52 L264 52 Z" stroke = "#000000" stroke-width = "2" fill = "none" />	<path d = "M252 64 L252 52 L240 52 L240 64 L252 64 Z" stroke = "#000000" stroke-width = "2" fill = "none" />	<path d = "M240 64 L240 52 L228 52 L228 64 L240 64 Z" stroke = "#000000" stroke-width = "2" fill = "none" />	<path d = "M228 64 L228 52 L216 52 L216 64 L228 64 Z" stroke = "#000000" stroke-width = "2" fill = "none" />	<path d = "M240 76 L240 64 L228 64 L228 76 L240 76 Z" stroke = "#000000" stroke-width = "2" fill = "none" />	<path d = "M252 88 L252 76 L240 76 L240 88 L252 88 Z" stroke = "#000000" stroke-width = "2" fill = "none" />	<path d = "M264 100 L264 88 L252 88 L252 100 L264 100 Z" stroke = "#000000" stroke-width = "2" fill = "none" />	<path d = "M288 100 L288 88 L276 88 L276 100 L288 100 Z" stroke = "#000000" stroke-width = "2" fill = "none" />	<path d = "M288 88 L288 76 L276 76 L276 88 L288 88 Z" stroke = "#000000" stroke-width = "2" fill = "none" />	<path d = "M288 76 L288 64 L276 64 L276 76 L288 76 Z" stroke = "#000000" stroke-width = "2" fill = "none" />	<path d = "M288 64 L288 52 L276 52 L276 64 L288 64 Z" stroke = "#000000" stroke-width = "2" fill = "none" />	<path d = "M288 52 L288 40 L276 40 L276 52 L288 52 Z" stroke = "#000000" stroke-width = "2" fill = "none" />	<path d = "M288 40 L288 28 L276 28 L276 40 L288 40 Z" stroke = "#000000" stroke-width = "2" fill = "none" />	<path d = "M288 28 L288 16 L276 16 L276 28 L288 28 Z" stroke = "#000000" stroke-width = "2" fill = "none" />	<path d = "M300 28 L300 16 L288 16 L288 28 L300 28 Z" stroke = "#000000" stroke-width = "2" fill = "none" />	<path d = "M312 28 L312 16 L300 16 L300 28 L312 28 Z" stroke = "#000000" stroke-width = "2" fill = "none" />	<path d = "M324 28 L324 16 L312 16 L312 28 L324 28 Z" stroke = "#000000" stroke-width = "2" fill = "none" />	<path d = "M336 28 L336 16 L324 16 L324 28 L336 28 Z" stroke = "#000000" stroke-width = "2" fill = "none" />	<path d = "M312 64 L312 52 L300 52 L300 64 L312 64 Z" stroke = "#000000" stroke-width = "2" fill = "none" />	<path d = "M300 64 L300 52 L288 52 L288 64 L300 64 Z" stroke = "#000000" stroke-width = "2" fill = "none" />	<path d = "M300 100 L300 88 L288 88 L288 100 L300 100 Z" stroke = "#000000" stroke-width = "2" fill = "none" />	<path d = "M312 100 L312 88 L300 88 L300 100 L312 100 Z" stroke = "#000000" stroke-width = "2" fill = "none" />	<path d = "M324 100 L324 88 L312 88 L312 100 L324 100 Z" stroke = "#000000" stroke-width = "2" fill = "none" />	<path d = "M336 100 L336 88 L324 88 L324 100 L336 100 Z" stroke = "#000000" stroke-width = "2" fill = "none" />	<path d = "M360 100 L360 88 L348 88 L348 100 L360 100 Z" stroke = "#000000" stroke-width = "2" fill = "none" />	<path d = "M360 88 L360 76 L348 76 L348 88 L360 88 Z" stroke = "#000000" stroke-width = "2" fill = "none" />	<path d = "M360 76 L360 64 L348 64 L348 76 L360 76 Z" stroke = "#000000" stroke-width = "2" fill = "none" />	<path d = "M360 64 L360 52 L348 52 L348 64 L360 64 Z" stroke = "#000000" stroke-width = "2" fill = "none" />	<path d = "M360 52 L360 40 L348 40 L348 52 L360 52 Z" stroke = "#000000" stroke-width = "2" fill = "none" />	<path d = "M360 40 L360 28 L348 28 L348 40 L360 40 Z" stroke = "#000000" stroke-width = "2" fill = "none" />	<path d = "M360 28 L360 16 L348 16 L348 28 L360 28 Z" stroke = "#000000" stroke-width = "2" fill = "none" />	<path d = "M372 28 L372 16 L360 16 L360 28 L372 28 Z" stroke = "#000000" stroke-width = "2" fill = "none" />	<path d = "M384 28 L384 16 L372 16 L372 28 L384 28 Z" stroke = "#000000" stroke-width = "2" fill = "none" />	<path d = "M396 28 L396 16 L384 16 L384 28 L396 28 Z" stroke = "#000000" stroke-width = "2" fill = "none" />	<path d = "M408 28 L408 16 L396 16 L396 28 L408 28 Z" stroke = "#000000" stroke-width = "2" fill = "none" />	<path d = "M384 64 L384 52 L372 52 L372 64 L384 64 Z" stroke = "#000000" stroke-width = "2" fill = "none" />	<path d = "M372 64 L372 52 L360 52 L360 64 L372 64 Z" stroke = "#000000" stroke-width = "2" fill = "none" />	<path d = "M372 100 L372 88 L360 88 L360 100 L372 100 Z" stroke = "#000000" stroke-width = "2" fill = "none" />	<path d = "M384 100 L384 88 L372 88 L372 100 L384 100 Z" stroke = "#000000" stroke-width = "2" fill = "none" />	<path d = "M396 100 L396 88 L384 88 L384 100 L396 100 Z" stroke = "#000000" stroke-width = "2" fill = "none" />	<path d = "M408 100 L408 88 L396 88 L396 100 L408 100 Z" stroke = "#000000" stroke-width = "2" fill = "none" />	<path d = "M432 28 L432 16 L420 16 L420 28 L432 28 Z" stroke = "#000000" stroke-width = "2" fill = "none" />	<path d = "M444 28 L444 16 L432 16 L432 28 L444 28 Z" stroke = "#000000" stroke-width = "2" fill = "none" />	<path d = "M456 28 L456 16 L444 16 L444 28 L456 28 Z" stroke = "#000000" stroke-width = "2" fill = "none" />	<path d = "M468 28 L468 16 L456 16 L456 28 L468 28 Z" stroke = "#000000" stroke-width = "2" fill = "none" />	<path d = "M480 28 L480 16 L468 16 L468 28 L480 28 Z" stroke = "#000000" stroke-width = "2" fill = "none" />	<path d = "M456 40 L456 28 L444 28 L444 40 L456 40 Z" stroke = "#000000" stroke-width = "2" fill = "none" />	<path d = "M456 52 L456 40 L444 40 L444 52 L456 52 Z" stroke = "#000000" stroke-width = "2" fill = "none" />	<path d = "M456 64 L456 52 L444 52 L444 64 L456 64 Z" stroke = "#000000" stroke-width = "2" fill = "none" />	<path d = "M456 76 L456 64 L444 64 L444 76 L456 76 Z" stroke = "#000000" stroke-width = "2" fill = "none" />	<path d = "M456 88 L456 76 L444 76 L444 88 L456 88 Z" stroke = "#000000" stroke-width = "2" fill = "none" />	<path d = "M456 100 L456 88 L444 88 L444 100 L456 100 Z" stroke = "#000000" stroke-width = "2" fill = "none" />	<path d = "M504 88 L504 76 L492 76 L492 88 L504 88 Z" stroke = "#000000" stroke-width = "2" fill = "none" />	<path d = "M516 100 L516 88 L504 88 L504 100 L516 100 Z" stroke = "#000000" stroke-width = "2" fill = "none" />	<path d = "M528 100 L528 88 L516 88 L516 100 L528 100 Z" stroke = "#000000" stroke-width = "2" fill = "none" />	<path d = "M540 100 L540 88 L528 88 L528 100 L540 100 Z" stroke = "#000000" stroke-width = "2" fill = "none" />	<path d = "M552 88 L552 76 L540 76 L540 88 L552 88 Z" stroke = "#000000" stroke-width = "2" fill = "none" />	<path d = "M552 76 L552 64 L540 64 L540 76 L552 76 Z" stroke = "#000000" stroke-width = "2" fill = "none" />	<path d = "M540 64 L540 52 L528 52 L528 64 L540 64 Z" stroke = "#000000" stroke-width = "2" fill = "none" />	<path d = "M528 64 L528 52 L516 52 L516 64 L528 64 Z" stroke = "#000000" stroke-width = "2" fill = "none" />	<path d = "M516 64 L516 52 L504 52 L504 64 L516 64 Z" stroke = "#000000" stroke-width = "2" fill = "none" />	<path d = "M504 52 L504 40 L492 40 L492 52 L504 52 Z" stroke = "#000000" stroke-width = "2" fill = "none" />	<path d = "M504 40 L504 28 L492 28 L492 40 L504 40 Z" stroke = "#000000" stroke-width = "2" fill = "none" />	<path d = "M516 28 L516 16 L504 16 L504 28 L516 28 Z" stroke = "#000000" stroke-width = "2" fill = "none" />	<path d = "M528 28 L528 16 L516 16 L516 28 L528 28 Z" stroke = "#000000" stroke-width = "2" fill = "none" />	<path d = "M540 28 L540 16 L528 16 L528 28 L540 28 Z" stroke = "#000000" stroke-width = "2" fill = "none" />	<path d = "M552 40 L552 28 L540 28 L540 40 L552 40 Z" stroke = "#000000" stroke-width = "2" fill = "none" /></svg>