<svg width="600" height="700" viewbox = "0 0 600 700"  xmlns="http://www.w3.org/2000/svg">
<!--<json>{
  "glyph": "0336,0333,0337,0336,0337,0330,0330,0330,0330,0332,0336,0336,0337,0337,0330,0330,0330,0332,0332,0332,0332,0332,0211,0211,0336,0336,0336,0332,0332,0332,0332,0332,0332,0332,0332,0330,0332,0337,0337,0337,0333,0333,0333,0336,0333,0337,0332,0332,0336,0333,0337,01124,01122,01101,01123,01110,01103,01117,01122,01105,",
  "x0": 300,
  "y0": 526.55,
  "unit": 60.500000000000014,
  "width": 600,
  "height": 700,
  "style": {
    "color0": "black",
    "fill0": "white",
    "line0": 2,
    "color1": "black",
    "fill1": "black",
    "line1": 5,
    "color2": "red",
    "fill2": "red",
    "line2": 1,
    "color3": "#FF7900",
    "fill3": "#FF7900",
    "line3": 1,
    "color4": "yellow",
    "fill4": "yellow",
    "line4": 1,
    "color5": "green",
    "fill5": "green",
    "line5": 1,
    "color6": "blue",
    "fill6": "blue",
    "line6": 1,
    "color7": "purple",
    "fill7": "purple",
    "line7": 1
  },
  "shapes": [
    "0220:0342,0336,0333,0342,0336,0332,0342,0333,0333,0342,0336,0333,0342,0332,0332,0342,0332,0332,0342,0332,0332,0342,0333,0333,0333,0333,0333,0333,0333,0337,0337,0337,",
    "0221:0316,0336,0313,0342,0336,0333,0342,0333,0342,0333,0342,0333,0342,0333,0337,0342,0336,0333,0342,0333,0342,0333,0342,0333,0342,0333,0342,0337,0316,0337,0313,",
    "0222:0362,0203,0335,0203,0203,0203,0203,0203,0203,0335,0203,0335,0203,0203,0203,0203,0203,0203,0354,0335,",
    "0223:0322,0221,0221,0221,0221,0221,0221,0334,0221,0334,0220,0220,0220,0220,0220,0220,0334,0220,0334,0320,",
    "0224:0222,0330,0222,0330,0222,0330,0222,0330,0222,0330,0222,0331,0331,0331,0331,0331,",
    "0225:0223,0330,0223,0330,0223,0330,0223,0330,0223,0330,0223,0331,0331,0331,0331,0331,",
    "0226:0220,0336,0331,0334,0336,0330,0337,0321,0336,0362,0203,0335,0203,0203,0203,0203,0203,0335,0203,0203,0203,0203,0335,0203,0203,0203,0203,0203,0335,0203,0364,0330,0334,0331,0337,0201,0335,0336,0350,0334,0331,0362,0203,0335,0335,0203,0364,0331,0335,0313,0304,0337,0330,0336,0330,0337,0337,0320,0331,0336,0331,0332,01015,0163,0141,0166,0145,0365,0330,0330,0330,0333,0337,",
    "0227:0304,0350,0335,0313,0304,0322,0336,0336,0336,0330,0332,0337,0337,0362,0203,0335,0336,0203,0335,0337,0203,0334,0203,0335,0336,0203,0335,0337,0203,0334,0203,0335,0336,0203,0335,0337,0203,0334,0203,0335,0336,0203,0335,0337,0203,0363,0320,0336,0334,0336,0333,0331,0337,0337,0337,0350,0334,0304,0220,0331,0336,0331,0332,0336,0332,0337,01015,0144,0145,0154,0145,0164,0145,0336,0333,0337,0330,0330,0330,0333,0337,",
    "0230:0313,0334,0336,0330,0335,0335,0305,0334,0337,0311,0337,0362,0203,0335,0335,0203,0335,0350,0335,0336,0203,0363,0313,0336,0331,0304,0335,0337,",
    "0231:0321,0342,0330,0320,0336,0230,0331,0331,0337,0350,0335,0304,",
    "0232:0231,0231,0231,0231,0231,0231,0231,0231,",
    "0233:0220,0336,0210,0232,",
    "0234:0220,0336,0335,0335,0331,0335,0331,0337,0321,0342,0332,0342,0336,0333,0337,0342,0330,0336,0336,0336,0330,0337,0366,0332,0332,0332,0367,0350,0335,0306,0350,0320,0335,0362,0203,0334,0334,0334,0334,0203,0334,0334,0334,0334,0203,0363,0335,0304,0350,0335,0304,0335,0335,0331,0331,0332,01015,0145,0154,0145,0155,0145,0156,0164,040,0144,0157,0167,0156,0365,0330,0330,0330,0330,0330,0333,0333,0333,0336,0332,0337,0333,0337,0337,",
    "0235:0220,0321,0336,0342,0335,0342,0335,0342,0335,0342,0335,0337,",
    "0236:0321,0220,0335,0336,0321,0342,0335,0335,0342,0335,0337,",
    "0237:0220,0336,0331,0332,0336,0321,0342,0335,0342,0335,0342,0335,0342,0335,0330,0330,0333,0333,0337,0337,",
    "01220:0333,0200,0336,0332,0330,0336,0332,0337,0220,0331,0336,0333,0337,0337,",
    "01221:0333,0200,0336,0330,0332,0336,0332,0337,0221,0336,0333,0337,0331,0337,",
    "01222:0333,0200,0336,0330,0332,0336,0332,0336,0332,0222,0332,0337,0337,0331,0337,0333,",
    "01223:0333,0200,0336,0332,0330,0336,0332,0336,0332,0223,0332,0337,0337,0331,0337,0333,0320,",
    "01224:0333,0200,0336,0332,0336,0330,0336,0332,0332,0331,0332,0224,",
    "01225:0333,0200,0336,0330,0332,0336,0331,0332,0336,0331,0332,0225,0331,0332,0320,0337,0337,0337,0333,",
    "01226:0333,0200,0336,0336,0330,0332,0337,0226,0336,0333,0331,0337,0337,",
    "01227:0333,0200,0336,0330,0332,0336,0332,0337,0227,0333,0336,0333,0337,0331,0337,",
    "01230:0333,0200,",
    "01231:0333,0200,",
    "01232:0333,0200,",
    "01233:0333,0200,",
    "01234:0333,0200,",
    "01235:0333,0200,",
    "01236:0333,0200,",
    "01237:0333,0200,",
    "0240:0220,0336,0331,0333,0336,0321,0335,0342,0335,0335,0342,0335,0330,0330,0332,0332,0337,0337,",
    "01240:0333,0200,0336,0330,0332,0210,0240,0211,0333,0331,0337,",
    "0241:0220,0336,0321,0343,0332,0350,0335,0336,0342,0334,0334,0342,0335,0304,0337,0333,0337,",
    "01241:0333,0200,0336,0332,0330,0210,0241,0211,0333,0331,0337,",
    "0242:0220,0321,0336,0343,0333,0336,0350,0335,0342,0334,0334,0342,0335,0337,0304,0332,0337,",
    "01242:0333,0200,0336,0330,0332,0210,0242,0211,0333,0331,0337,",
    "0243:0220,0336,0331,0332,0336,0321,0343,0332,0350,0334,0336,0342,0335,0335,0342,0337,0334,0334,0335,0304,0332,0330,0330,0337,0337,0333,",
    "01243:0333,0200,0336,0330,0332,0210,0243,0211,0333,0331,0337,",
    "0244:0220,0336,0331,0333,0336,0321,0343,0333,0350,0336,0335,0342,0334,0334,0342,0335,0337,0304,0333,0330,0330,0337,0337,0332,",
    "01244:0333,0200,0336,0330,0332,0210,0244,0211,0333,0331,0337,",
    "0245:0210,0332,0332,0362,0335,0203,0203,0203,0203,0334,0203,0363,0332,0332,0331,0211,",
    "01245:0333,0200,0336,0330,0332,0336,0245,0337,0333,0331,0337,",
    "0246:0210,0332,0332,0335,0306,0336,0330,0335,0335,0335,0321,0362,0203,0335,0335,0203,0364,0331,0350,0335,0337,0366,0333,0333,0333,0333,0334,0334,0334,0334,0367,0335,0336,0342,0334,0334,0342,0330,0330,0330,0330,0335,0335,0335,0304,0337,0211,",
    "01246:0333,0200,0336,0330,0332,0336,0246,",
    "0247:0330,0332,0336,0332,0336,0221,0333,0333,0333,0222,0333,0333,0333,0223,0333,0333,0333,0225,0333,0331,0331,0331,0332,0332,0332,0332,0332,0332,0332,0332,0332,0332,0332,0332,0333,0333,0226,0331,0331,0331,0333,0333,0333,0333,0333,0333,0333,0333,0333,0333,0333,0333,0333,0330,0333,0330,0330,0333,0330,0331,0332,0332,0332,0332,0332,0332,0332,0332,0332,0332,0332,0332,0227,0333,0333,0333,0230,0333,0331,0331,0331,0331,0332,0332,0332,0330,0332,0332,0332,0332,0332,0332,0333,0333,0231,0333,0333,0333,0232,0331,0333,0330,0333,0333,0233,0333,0333,0333,0234,0330,0330,0332,0330,0332,0332,0337,0337,",
    "01247:0333,0200,0336,0330,0332,0220,0336,0247,0337,0331,0333,0337,"
  ]
}</json>-->	<path d = "M51 39 L51 29 L41 29 L41 39 L51 39 Z" stroke = "#000000" stroke-width = "2" fill = "none" />	<path d = "M61 39 L61 29 L51 29 L51 39 L61 39 Z" stroke = "#000000" stroke-width = "2" fill = "none" />	<path d = "M71 39 L71 29 L61 29 L61 39 L71 39 Z" stroke = "#000000" stroke-width = "2" fill = "none" />	<path d = "M81 39 L81 29 L71 29 L71 39 L81 39 Z" stroke = "#000000" stroke-width = "2" fill = "none" />	<path d = "M91 39 L91 29 L81 29 L81 39 L91 39 Z" stroke = "#000000" stroke-width = "2" fill = "none" />	<path d = "M71 49 L71 39 L61 39 L61 49 L71 49 Z" stroke = "#000000" stroke-width = "2" fill = "none" />	<path d = "M71 59 L71 49 L61 49 L61 59 L71 59 Z" stroke = "#000000" stroke-width = "2" fill = "none" />	<path d = "M71 68 L71 59 L61 59 L61 68 L71 68 Z" stroke = "#000000" stroke-width = "2" fill = "none" />	<path d = "M71 78 L71 68 L61 68 L61 78 L71 78 Z" stroke = "#000000" stroke-width = "2" fill = "none" />	<path d = "M71 88 L71 78 L61 78 L61 88 L71 88 Z" stroke = "#000000" stroke-width = "2" fill = "none" />	<path d = "M71 98 L71 88 L61 88 L61 98 L71 98 Z" stroke = "#000000" stroke-width = "2" fill = "none" />	<path d = "M111 98 L111 88 L101 88 L101 98 L111 98 Z" stroke = "#000000" stroke-width = "2" fill = "none" />	<path d = "M111 88 L111 78 L101 78 L101 88 L111 88 Z" stroke = "#000000" stroke-width = "2" fill = "none" />	<path d = "M111 78 L111 68 L101 68 L101 78 L111 78 Z" stroke = "#000000" stroke-width = "2" fill = "none" />	<path d = "M111 68 L111 59 L101 59 L101 68 L111 68 Z" stroke = "#000000" stroke-width = "2" fill = "none" />	<path d = "M111 59 L111 49 L101 49 L101 59 L111 59 Z" stroke = "#000000" stroke-width = "2" fill = "none" />	<path d = "M111 49 L111 39 L101 39 L101 49 L111 49 Z" stroke = "#000000" stroke-width = "2" fill = "none" />	<path d = "M111 39 L111 29 L101 29 L101 39 L111 39 Z" stroke = "#000000" stroke-width = "2" fill = "none" />	<path d = "M121 39 L121 29 L111 29 L111 39 L121 39 Z" stroke = "#000000" stroke-width = "2" fill = "none" />	<path d = "M131 39 L131 29 L121 29 L121 39 L131 39 Z" stroke = "#000000" stroke-width = "2" fill = "none" />	<path d = "M140 39 L140 29 L131 29 L131 39 L140 39 Z" stroke = "#000000" stroke-width = "2" fill = "none" />	<path d = "M150 49 L150 39 L140 39 L140 49 L150 49 Z" stroke = "#000000" stroke-width = "2" fill = "none" />	<path d = "M150 59 L150 49 L140 49 L140 59 L150 59 Z" stroke = "#000000" stroke-width = "2" fill = "none" />	<path d = "M140 68 L140 59 L131 59 L131 68 L140 68 Z" stroke = "#000000" stroke-width = "2" fill = "none" />	<path d = "M131 68 L131 59 L121 59 L121 68 L131 68 Z" stroke = "#000000" stroke-width = "2" fill = "none" />	<path d = "M121 68 L121 59 L111 59 L111 68 L121 68 Z" stroke = "#000000" stroke-width = "2" fill = "none" />	<path d = "M131 78 L131 68 L121 68 L121 78 L131 78 Z" stroke = "#000000" stroke-width = "2" fill = "none" />	<path d = "M140 88 L140 78 L131 78 L131 88 L140 88 Z" stroke = "#000000" stroke-width = "2" fill = "none" />	<path d = "M150 98 L150 88 L140 88 L140 98 L150 98 Z" stroke = "#000000" stroke-width = "2" fill = "none" />	<path d = "M170 98 L170 88 L160 88 L160 98 L170 98 Z" stroke = "#000000" stroke-width = "2" fill = "none" />	<path d = "M170 88 L170 78 L160 78 L160 88 L170 88 Z" stroke = "#000000" stroke-width = "2" fill = "none" />	<path d = "M170 78 L170 68 L160 68 L160 78 L170 78 Z" stroke = "#000000" stroke-width = "2" fill = "none" />	<path d = "M170 68 L170 59 L160 59 L160 68 L170 68 Z" stroke = "#000000" stroke-width = "2" fill = "none" />	<path d = "M170 59 L170 49 L160 49 L160 59 L170 59 Z" stroke = "#000000" stroke-width = "2" fill = "none" />	<path d = "M170 49 L170 39 L160 39 L160 49 L170 49 Z" stroke = "#000000" stroke-width = "2" fill = "none" />	<path d = "M180 39 L180 29 L170 29 L170 39 L180 39 Z" stroke = "#000000" stroke-width = "2" fill = "none" />	<path d = "M190 39 L190 29 L180 29 L180 39 L190 39 Z" stroke = "#000000" stroke-width = "2" fill = "none" />	<path d = "M200 39 L200 29 L190 29 L190 39 L200 39 Z" stroke = "#000000" stroke-width = "2" fill = "none" />	<path d = "M210 49 L210 39 L200 39 L200 49 L210 49 Z" stroke = "#000000" stroke-width = "2" fill = "none" />	<path d = "M210 59 L210 49 L200 49 L200 59 L210 59 Z" stroke = "#000000" stroke-width = "2" fill = "none" />	<path d = "M210 68 L210 59 L200 59 L200 68 L210 68 Z" stroke = "#000000" stroke-width = "2" fill = "none" />	<path d = "M210 78 L210 68 L200 68 L200 78 L210 78 Z" stroke = "#000000" stroke-width = "2" fill = "none" />	<path d = "M210 88 L210 78 L200 78 L200 88 L210 88 Z" stroke = "#000000" stroke-width = "2" fill = "none" />	<path d = "M210 98 L210 88 L200 88 L200 98 L210 98 Z" stroke = "#000000" stroke-width = "2" fill = "none" />	<path d = "M200 68 L200 59 L190 59 L190 68 L200 68 Z" stroke = "#000000" stroke-width = "2" fill = "none" />	<path d = "M190 68 L190 59 L180 59 L180 68 L190 68 Z" stroke = "#000000" stroke-width = "2" fill = "none" />	<path d = "M180 68 L180 59 L170 59 L170 68 L180 68 Z" stroke = "#000000" stroke-width = "2" fill = "none" />	<path d = "M230 88 L230 78 L220 78 L220 88 L230 88 Z" stroke = "#000000" stroke-width = "2" fill = "none" />	<path d = "M239 98 L239 88 L230 88 L230 98 L239 98 Z" stroke = "#000000" stroke-width = "2" fill = "none" />	<path d = "M249 98 L249 88 L239 88 L239 98 L249 98 Z" stroke = "#000000" stroke-width = "2" fill = "none" />	<path d = "M259 98 L259 88 L249 88 L249 98 L259 98 Z" stroke = "#000000" stroke-width = "2" fill = "none" />	<path d = "M269 88 L269 78 L259 78 L259 88 L269 88 Z" stroke = "#000000" stroke-width = "2" fill = "none" />	<path d = "M269 78 L269 68 L259 68 L259 78 L269 78 Z" stroke = "#000000" stroke-width = "2" fill = "none" />	<path d = "M259 68 L259 59 L249 59 L249 68 L259 68 Z" stroke = "#000000" stroke-width = "2" fill = "none" />	<path d = "M249 68 L249 59 L239 59 L239 68 L249 68 Z" stroke = "#000000" stroke-width = "2" fill = "none" />	<path d = "M239 68 L239 59 L230 59 L230 68 L239 68 Z" stroke = "#000000" stroke-width = "2" fill = "none" />	<path d = "M230 59 L230 49 L220 49 L220 59 L230 59 Z" stroke = "#000000" stroke-width = "2" fill = "none" />	<path d = "M230 49 L230 39 L220 39 L220 49 L230 49 Z" stroke = "#000000" stroke-width = "2" fill = "none" />	<path d = "M239 39 L239 29 L230 29 L230 39 L239 39 Z" stroke = "#000000" stroke-width = "2" fill = "none" />	<path d = "M249 39 L249 29 L239 29 L239 39 L249 39 Z" stroke = "#000000" stroke-width = "2" fill = "none" />	<path d = "M259 39 L259 29 L249 29 L249 39 L259 39 Z" stroke = "#000000" stroke-width = "2" fill = "none" />	<path d = "M269 49 L269 39 L259 39 L259 49 L269 49 Z" stroke = "#000000" stroke-width = "2" fill = "none" />	<path d = "M289 98 L289 88 L279 88 L279 98 L289 98 Z" stroke = "#000000" stroke-width = "2" fill = "none" />	<path d = "M289 88 L289 78 L279 78 L279 88 L289 88 Z" stroke = "#000000" stroke-width = "2" fill = "none" />	<path d = "M289 78 L289 68 L279 68 L279 78 L289 78 Z" stroke = "#000000" stroke-width = "2" fill = "none" />	<path d = "M289 68 L289 59 L279 59 L279 68 L289 68 Z" stroke = "#000000" stroke-width = "2" fill = "none" />	<path d = "M289 59 L289 49 L279 49 L279 59 L289 59 Z" stroke = "#000000" stroke-width = "2" fill = "none" />	<path d = "M289 49 L289 39 L279 39 L279 49 L289 49 Z" stroke = "#000000" stroke-width = "2" fill = "none" />	<path d = "M289 39 L289 29 L279 29 L279 39 L289 39 Z" stroke = "#000000" stroke-width = "2" fill = "none" />	<path d = "M299 68 L299 59 L289 59 L289 68 L299 68 Z" stroke = "#000000" stroke-width = "2" fill = "none" />	<path d = "M309 68 L309 59 L299 59 L299 68 L309 68 Z" stroke = "#000000" stroke-width = "2" fill = "none" />	<path d = "M319 68 L319 59 L309 59 L309 68 L319 68 Z" stroke = "#000000" stroke-width = "2" fill = "none" />	<path d = "M329 68 L329 59 L319 59 L319 68 L329 68 Z" stroke = "#000000" stroke-width = "2" fill = "none" />	<path d = "M329 59 L329 49 L319 49 L319 59 L329 59 Z" stroke = "#000000" stroke-width = "2" fill = "none" />	<path d = "M329 49 L329 39 L319 39 L319 49 L329 49 Z" stroke = "#000000" stroke-width = "2" fill = "none" />	<path d = "M329 39 L329 29 L319 29 L319 39 L329 39 Z" stroke = "#000000" stroke-width = "2" fill = "none" />	<path d = "M329 78 L329 68 L319 68 L319 78 L329 78 Z" stroke = "#000000" stroke-width = "2" fill = "none" />	<path d = "M329 88 L329 78 L319 78 L319 88 L329 88 Z" stroke = "#000000" stroke-width = "2" fill = "none" />	<path d = "M329 98 L329 88 L319 88 L319 98 L329 98 Z" stroke = "#000000" stroke-width = "2" fill = "none" />	<path d = "M348 88 L348 78 L338 78 L338 88 L348 88 Z" stroke = "#000000" stroke-width = "2" fill = "none" />	<path d = "M348 78 L348 68 L338 68 L338 78 L348 78 Z" stroke = "#000000" stroke-width = "2" fill = "none" />	<path d = "M348 68 L348 59 L338 59 L338 68 L348 68 Z" stroke = "#000000" stroke-width = "2" fill = "none" />	<path d = "M348 59 L348 49 L338 49 L338 59 L348 59 Z" stroke = "#000000" stroke-width = "2" fill = "none" />	<path d = "M348 49 L348 39 L338 39 L338 49 L348 49 Z" stroke = "#000000" stroke-width = "2" fill = "none" />	<path d = "M358 39 L358 29 L348 29 L348 39 L358 39 Z" stroke = "#000000" stroke-width = "2" fill = "none" />	<path d = "M368 39 L368 29 L358 29 L358 39 L368 39 Z" stroke = "#000000" stroke-width = "2" fill = "none" />	<path d = "M378 39 L378 29 L368 29 L368 39 L378 39 Z" stroke = "#000000" stroke-width = "2" fill = "none" />	<path d = "M388 49 L388 39 L378 39 L378 49 L388 49 Z" stroke = "#000000" stroke-width = "2" fill = "none" />	<path d = "M388 88 L388 78 L378 78 L378 88 L388 88 Z" stroke = "#000000" stroke-width = "2" fill = "none" />	<path d = "M378 98 L378 88 L368 88 L368 98 L378 98 Z" stroke = "#000000" stroke-width = "2" fill = "none" />	<path d = "M368 98 L368 88 L358 88 L358 98 L368 98 Z" stroke = "#000000" stroke-width = "2" fill = "none" />	<path d = "M358 98 L358 88 L348 88 L348 98 L358 98 Z" stroke = "#000000" stroke-width = "2" fill = "none" />	<path d = "M408 88 L408 78 L398 78 L398 88 L408 88 Z" stroke = "#000000" stroke-width = "2" fill = "none" />	<path d = "M408 78 L408 68 L398 68 L398 78 L408 78 Z" stroke = "#000000" stroke-width = "2" fill = "none" />	<path d = "M408 68 L408 59 L398 59 L398 68 L408 68 Z" stroke = "#000000" stroke-width = "2" fill = "none" />	<path d = "M408 59 L408 49 L398 49 L398 59 L408 59 Z" stroke = "#000000" stroke-width = "2" fill = "none" />	<path d = "M408 49 L408 39 L398 39 L398 49 L408 49 Z" stroke = "#000000" stroke-width = "2" fill = "none" />	<path d = "M418 39 L418 29 L408 29 L408 39 L418 39 Z" stroke = "#000000" stroke-width = "2" fill = "none" />	<path d = "M428 39 L428 29 L418 29 L418 39 L428 39 Z" stroke = "#000000" stroke-width = "2" fill = "none" />	<path d = "M437 39 L437 29 L428 29 L428 39 L437 39 Z" stroke = "#000000" stroke-width = "2" fill = "none" />	<path d = "M447 49 L447 39 L437 39 L437 49 L447 49 Z" stroke = "#000000" stroke-width = "2" fill = "none" />	<path d = "M447 59 L447 49 L437 49 L437 59 L447 59 Z" stroke = "#000000" stroke-width = "2" fill = "none" />	<path d = "M447 68 L447 59 L437 59 L437 68 L447 68 Z" stroke = "#000000" stroke-width = "2" fill = "none" />	<path d = "M447 78 L447 68 L437 68 L437 78 L447 78 Z" stroke = "#000000" stroke-width = "2" fill = "none" />	<path d = "M447 88 L447 78 L437 78 L437 88 L447 88 Z" stroke = "#000000" stroke-width = "2" fill = "none" />	<path d = "M437 98 L437 88 L428 88 L428 98 L437 98 Z" stroke = "#000000" stroke-width = "2" fill = "none" />	<path d = "M428 98 L428 88 L418 88 L418 98 L428 98 Z" stroke = "#000000" stroke-width = "2" fill = "none" />	<path d = "M418 98 L418 88 L408 88 L408 98 L418 98 Z" stroke = "#000000" stroke-width = "2" fill = "none" />	<path d = "M467 98 L467 88 L457 88 L457 98 L467 98 Z" stroke = "#000000" stroke-width = "2" fill = "none" />	<path d = "M467 88 L467 78 L457 78 L457 88 L467 88 Z" stroke = "#000000" stroke-width = "2" fill = "none" />	<path d = "M467 78 L467 68 L457 68 L457 78 L467 78 Z" stroke = "#000000" stroke-width = "2" fill = "none" />	<path d = "M467 68 L467 59 L457 59 L457 68 L467 68 Z" stroke = "#000000" stroke-width = "2" fill = "none" />	<path d = "M467 59 L467 49 L457 49 L457 59 L467 59 Z" stroke = "#000000" stroke-width = "2" fill = "none" />	<path d = "M467 49 L467 39 L457 39 L457 49 L467 49 Z" stroke = "#000000" stroke-width = "2" fill = "none" />	<path d = "M467 39 L467 29 L457 29 L457 39 L467 39 Z" stroke = "#000000" stroke-width = "2" fill = "none" />	<path d = "M477 39 L477 29 L467 29 L467 39 L477 39 Z" stroke = "#000000" stroke-width = "2" fill = "none" />	<path d = "M487 39 L487 29 L477 29 L477 39 L487 39 Z" stroke = "#000000" stroke-width = "2" fill = "none" />	<path d = "M497 39 L497 29 L487 29 L487 39 L497 39 Z" stroke = "#000000" stroke-width = "2" fill = "none" />	<path d = "M507 49 L507 39 L497 39 L497 49 L507 49 Z" stroke = "#000000" stroke-width = "2" fill = "none" />	<path d = "M507 59 L507 49 L497 49 L497 59 L507 59 Z" stroke = "#000000" stroke-width = "2" fill = "none" />	<path d = "M497 68 L497 59 L487 59 L487 68 L497 68 Z" stroke = "#000000" stroke-width = "2" fill = "none" />	<path d = "M487 68 L487 59 L477 59 L477 68 L487 68 Z" stroke = "#000000" stroke-width = "2" fill = "none" />	<path d = "M477 68 L477 59 L467 59 L467 68 L477 68 Z" stroke = "#000000" stroke-width = "2" fill = "none" />	<path d = "M487 78 L487 68 L477 68 L477 78 L487 78 Z" stroke = "#000000" stroke-width = "2" fill = "none" />	<path d = "M497 88 L497 78 L487 78 L487 88 L497 88 Z" stroke = "#000000" stroke-width = "2" fill = "none" />	<path d = "M507 98 L507 88 L497 88 L497 98 L507 98 Z" stroke = "#000000" stroke-width = "2" fill = "none" />	<path d = "M527 98 L527 88 L517 88 L517 98 L527 98 Z" stroke = "#000000" stroke-width = "2" fill = "none" />	<path d = "M527 88 L527 78 L517 78 L517 88 L527 88 Z" stroke = "#000000" stroke-width = "2" fill = "none" />	<path d = "M527 78 L527 68 L517 68 L517 78 L527 78 Z" stroke = "#000000" stroke-width = "2" fill = "none" />	<path d = "M527 68 L527 59 L517 59 L517 68 L527 68 Z" stroke = "#000000" stroke-width = "2" fill = "none" />	<path d = "M527 59 L527 49 L517 49 L517 59 L527 59 Z" stroke = "#000000" stroke-width = "2" fill = "none" />	<path d = "M527 49 L527 39 L517 39 L517 49 L527 49 Z" stroke = "#000000" stroke-width = "2" fill = "none" />	<path d = "M527 39 L527 29 L517 29 L517 39 L527 39 Z" stroke = "#000000" stroke-width = "2" fill = "none" />	<path d = "M536 39 L536 29 L527 29 L527 39 L536 39 Z" stroke = "#000000" stroke-width = "2" fill = "none" />	<path d = "M546 39 L546 29 L536 29 L536 39 L546 39 Z" stroke = "#000000" stroke-width = "2" fill = "none" />	<path d = "M556 39 L556 29 L546 29 L546 39 L556 39 Z" stroke = "#000000" stroke-width = "2" fill = "none" />	<path d = "M566 39 L566 29 L556 29 L556 39 L566 39 Z" stroke = "#000000" stroke-width = "2" fill = "none" />	<path d = "M546 68 L546 59 L536 59 L536 68 L546 68 Z" stroke = "#000000" stroke-width = "2" fill = "none" />	<path d = "M536 68 L536 59 L527 59 L527 68 L536 68 Z" stroke = "#000000" stroke-width = "2" fill = "none" />	<path d = "M536 98 L536 88 L527 88 L527 98 L536 98 Z" stroke = "#000000" stroke-width = "2" fill = "none" />	<path d = "M546 98 L546 88 L536 88 L536 98 L546 98 Z" stroke = "#000000" stroke-width = "2" fill = "none" />	<path d = "M556 98 L556 88 L546 88 L546 98 L556 98 Z" stroke = "#000000" stroke-width = "2" fill = "none" />	<path d = "M566 98 L566 88 L556 88 L556 98 L566 98 Z" stroke = "#000000" stroke-width = "2" fill = "none" /></svg>