<svg width="600" height="700" viewbox = "0 0 600 700"  xmlns="http://www.w3.org/2000/svg">
<!--<json>{
  "glyph": "0330,0330,0330,0330,0332,0336,0336,0332,0337,0337,0330,0330,0330,0332,0332,0332,0332,0332,0211,0211,0336,0336,0336,0332,0332,0332,0332,0332,0332,0332,0332,0330,0332,0337,0337,0337,0333,0333,01124,01122,01101,01123,01110,01040,01106,01105,01105,01104,",
  "x0": 300,
  "y0": 400,
  "unit": 45.45454545454545,
  "width": 600,
  "height": 700,
  "style": {
    "color0": "black",
    "fill0": "white",
    "line0": 2,
    "color1": "black",
    "fill1": "black",
    "line1": 5,
    "color2": "red",
    "fill2": "red",
    "line2": 1,
    "color3": "#FF7900",
    "fill3": "#FF7900",
    "line3": 1,
    "color4": "yellow",
    "fill4": "yellow",
    "line4": 1,
    "color5": "green",
    "fill5": "green",
    "line5": 1,
    "color6": "blue",
    "fill6": "blue",
    "line6": 1,
    "color7": "purple",
    "fill7": "purple",
    "line7": 1
  },
  "shapes": [
    "0220:0342,0336,0333,0342,0336,0332,0342,0333,0333,0342,0336,0333,0342,0332,0332,0342,0332,0332,0342,0332,0332,0342,0333,0333,0333,0333,0333,0333,0333,0337,0337,0337,",
    "0221:0316,0336,0313,0342,0336,0333,0342,0333,0342,0333,0342,0333,0342,0333,0337,0342,0336,0333,0342,0333,0342,0333,0342,0333,0342,0333,0342,0337,0316,0337,0313,",
    "0222:0362,0203,0335,0203,0203,0203,0203,0203,0203,0335,0203,0335,0203,0203,0203,0203,0203,0203,0354,0335,",
    "0223:0322,0221,0221,0221,0221,0221,0221,0334,0221,0334,0220,0220,0220,0220,0220,0220,0334,0220,0334,0320,",
    "0224:0222,0330,0222,0330,0222,0330,0222,0330,0222,0330,0222,0331,0331,0331,0331,0331,",
    "0225:0223,0330,0223,0330,0223,0330,0223,0330,0223,0330,0223,0331,0331,0331,0331,0331,",
    "0226:0220,0336,0331,0334,0336,0330,0337,0321,0336,0362,0203,0335,0203,0203,0203,0203,0203,0335,0203,0203,0203,0203,0335,0203,0203,0203,0203,0203,0335,0203,0364,0330,0334,0331,0337,0201,0335,0336,0350,0334,0331,0362,0203,0335,0335,0203,0364,0331,0335,0313,0304,0337,0330,0336,0330,0337,0337,0320,0331,0336,0331,0332,01015,0163,0141,0166,0145,0365,0330,0330,0330,0333,0337,",
    "0227:0304,0350,0335,0313,0304,0322,0336,0336,0336,0330,0332,0337,0337,0362,0203,0335,0336,0203,0335,0337,0203,0334,0203,0335,0336,0203,0335,0337,0203,0334,0203,0335,0336,0203,0335,0337,0203,0334,0203,0335,0336,0203,0335,0337,0203,0363,0320,0336,0334,0336,0333,0331,0337,0337,0337,0350,0334,0304,0220,0331,0336,0331,0332,0336,0332,0337,01015,0144,0145,0154,0145,0164,0145,0336,0333,0337,0330,0330,0330,0333,0337,",
    "0230:0313,0334,0336,0330,0335,0335,0305,0334,0337,0311,0337,0362,0203,0335,0335,0203,0335,0350,0335,0336,0203,0363,0313,0336,0331,0304,0335,0337,",
    "0231:0321,0342,0330,0320,0336,0230,0331,0331,0337,0350,0335,0304,",
    "0232:0231,0231,0231,0231,0231,0231,0231,0231,",
    "0233:0220,0336,0210,0232,",
    "0234:0220,0336,0335,0335,0331,0335,0331,0337,0321,0342,0332,0342,0336,0333,0337,0342,0330,0336,0336,0336,0330,0337,0366,0332,0332,0332,0367,0350,0335,0306,0350,0320,0335,0362,0203,0334,0334,0334,0334,0203,0334,0334,0334,0334,0203,0363,0335,0304,0350,0335,0304,0335,0335,0331,0331,0332,01015,0145,0154,0145,0155,0145,0156,0164,040,0144,0157,0167,0156,0365,0330,0330,0330,0330,0330,0333,0333,0333,0336,0332,0337,0333,0337,0337,",
    "0235:0220,0321,0336,0342,0335,0342,0335,0342,0335,0342,0335,0337,",
    "0236:0321,0220,0335,0336,0321,0342,0335,0335,0342,0335,0337,",
    "0237:0220,0336,0331,0332,0336,0321,0342,0335,0342,0335,0342,0335,0342,0335,0330,0330,0333,0333,0337,0337,",
    "01220:0333,0200,0336,0332,0330,0336,0332,0337,0220,0331,0336,0333,0337,0337,",
    "01221:0333,0200,0336,0330,0332,0336,0332,0337,0221,0336,0333,0337,0331,0337,",
    "01222:0333,0200,0336,0330,0332,0336,0332,0336,0332,0222,0332,0337,0337,0331,0337,0333,",
    "01223:0333,0200,0336,0332,0330,0336,0332,0336,0332,0223,0332,0337,0337,0331,0337,0333,0320,",
    "01224:0333,0200,0336,0332,0336,0330,0336,0332,0332,0331,0332,0224,",
    "01225:0333,0200,0336,0330,0332,0336,0331,0332,0336,0331,0332,0225,0331,0332,0320,0337,0337,0337,0333,",
    "01226:0333,0200,0336,0336,0330,0332,0337,0226,0336,0333,0331,0337,0337,",
    "01227:0333,0200,0336,0330,0332,0336,0332,0337,0227,0333,0336,0333,0337,0331,0337,",
    "01230:0333,0200,",
    "01231:0333,0200,",
    "01232:0333,0200,",
    "01233:0333,0200,",
    "01234:0333,0200,",
    "01235:0333,0200,",
    "01236:0333,0200,",
    "01237:0333,0200,",
    "0240:0220,0336,0331,0333,0336,0321,0335,0342,0335,0335,0342,0335,0330,0330,0332,0332,0337,0337,",
    "01240:0333,0200,0336,0330,0332,0210,0240,0211,0333,0331,0337,",
    "0241:0220,0336,0321,0343,0332,0350,0335,0336,0342,0334,0334,0342,0335,0304,0337,0333,0337,",
    "01241:0333,0200,0336,0332,0330,0210,0241,0211,0333,0331,0337,",
    "0242:0220,0321,0336,0343,0333,0336,0350,0335,0342,0334,0334,0342,0335,0337,0304,0332,0337,",
    "01242:0333,0200,0336,0330,0332,0210,0242,0211,0333,0331,0337,",
    "0243:0220,0336,0331,0332,0336,0321,0343,0332,0350,0334,0336,0342,0335,0335,0342,0337,0334,0334,0335,0304,0332,0330,0330,0337,0337,0333,",
    "01243:0333,0200,0336,0330,0332,0210,0243,0211,0333,0331,0337,",
    "0244:0220,0336,0331,0333,0336,0321,0343,0333,0350,0336,0335,0342,0334,0334,0342,0335,0337,0304,0333,0330,0330,0337,0337,0332,",
    "01244:0333,0200,0336,0330,0332,0210,0244,0211,0333,0331,0337,",
    "0245:0210,0332,0332,0362,0335,0203,0203,0203,0203,0334,0203,0363,0332,0332,0331,0211,",
    "01245:0333,0200,0336,0330,0332,0336,0245,0337,0333,0331,0337,",
    "0246:0210,0332,0332,0335,0306,0336,0330,0335,0335,0335,0321,0362,0203,0335,0335,0203,0364,0331,0350,0335,0337,0366,0333,0333,0333,0333,0334,0334,0334,0334,0367,0335,0336,0342,0334,0334,0342,0330,0330,0330,0330,0335,0335,0335,0304,0337,0211,",
    "01246:0333,0200,0336,0330,0332,0336,0246,",
    "0247:0330,0332,0336,0332,0336,0221,0333,0333,0333,0222,0333,0333,0333,0223,0333,0333,0333,0225,0333,0331,0331,0331,0332,0332,0332,0332,0332,0332,0332,0332,0332,0332,0332,0332,0333,0333,0226,0331,0331,0331,0333,0333,0333,0333,0333,0333,0333,0333,0333,0333,0333,0333,0333,0330,0333,0330,0330,0333,0330,0331,0332,0332,0332,0332,0332,0332,0332,0332,0332,0332,0332,0332,0227,0333,0333,0333,0230,0333,0331,0331,0331,0331,0332,0332,0332,0330,0332,0332,0332,0332,0332,0332,0333,0333,0231,0333,0333,0333,0232,0331,0333,0330,0333,0333,0233,0333,0333,0333,0234,0330,0330,0332,0330,0332,0332,0337,0337,",
    "01247:0333,0200,0336,0330,0332,0220,0336,0247,0337,0331,0333,0337,"
  ]
}</json>-->	<path d = "M79 33 L79 26 L72 26 L72 33 L79 33 Z" stroke = "#000000" stroke-width = "2" fill = "none" />	<path d = "M87 33 L87 26 L79 26 L79 33 L87 33 Z" stroke = "#000000" stroke-width = "2" fill = "none" />	<path d = "M94 33 L94 26 L87 26 L87 33 L94 33 Z" stroke = "#000000" stroke-width = "2" fill = "none" />	<path d = "M101 33 L101 26 L94 26 L94 33 L101 33 Z" stroke = "#000000" stroke-width = "2" fill = "none" />	<path d = "M109 33 L109 26 L101 26 L101 33 L109 33 Z" stroke = "#000000" stroke-width = "2" fill = "none" />	<path d = "M94 41 L94 33 L87 33 L87 41 L94 41 Z" stroke = "#000000" stroke-width = "2" fill = "none" />	<path d = "M94 48 L94 41 L87 41 L87 48 L94 48 Z" stroke = "#000000" stroke-width = "2" fill = "none" />	<path d = "M94 56 L94 48 L87 48 L87 56 L94 56 Z" stroke = "#000000" stroke-width = "2" fill = "none" />	<path d = "M94 63 L94 56 L87 56 L87 63 L94 63 Z" stroke = "#000000" stroke-width = "2" fill = "none" />	<path d = "M94 71 L94 63 L87 63 L87 71 L94 71 Z" stroke = "#000000" stroke-width = "2" fill = "none" />	<path d = "M94 78 L94 71 L87 71 L87 78 L94 78 Z" stroke = "#000000" stroke-width = "2" fill = "none" />	<path d = "M124 78 L124 71 L116 71 L116 78 L124 78 Z" stroke = "#000000" stroke-width = "2" fill = "none" />	<path d = "M124 71 L124 63 L116 63 L116 71 L124 71 Z" stroke = "#000000" stroke-width = "2" fill = "none" />	<path d = "M124 63 L124 56 L116 56 L116 63 L124 63 Z" stroke = "#000000" stroke-width = "2" fill = "none" />	<path d = "M124 56 L124 48 L116 48 L116 56 L124 56 Z" stroke = "#000000" stroke-width = "2" fill = "none" />	<path d = "M124 48 L124 41 L116 41 L116 48 L124 48 Z" stroke = "#000000" stroke-width = "2" fill = "none" />	<path d = "M124 41 L124 33 L116 33 L116 41 L124 41 Z" stroke = "#000000" stroke-width = "2" fill = "none" />	<path d = "M124 33 L124 26 L116 26 L116 33 L124 33 Z" stroke = "#000000" stroke-width = "2" fill = "none" />	<path d = "M131 33 L131 26 L124 26 L124 33 L131 33 Z" stroke = "#000000" stroke-width = "2" fill = "none" />	<path d = "M139 33 L139 26 L131 26 L131 33 L139 33 Z" stroke = "#000000" stroke-width = "2" fill = "none" />	<path d = "M146 33 L146 26 L139 26 L139 33 L146 33 Z" stroke = "#000000" stroke-width = "2" fill = "none" />	<path d = "M154 41 L154 33 L146 33 L146 41 L154 41 Z" stroke = "#000000" stroke-width = "2" fill = "none" />	<path d = "M154 48 L154 41 L146 41 L146 48 L154 48 Z" stroke = "#000000" stroke-width = "2" fill = "none" />	<path d = "M146 56 L146 48 L139 48 L139 56 L146 56 Z" stroke = "#000000" stroke-width = "2" fill = "none" />	<path d = "M139 56 L139 48 L131 48 L131 56 L139 56 Z" stroke = "#000000" stroke-width = "2" fill = "none" />	<path d = "M131 56 L131 48 L124 48 L124 56 L131 56 Z" stroke = "#000000" stroke-width = "2" fill = "none" />	<path d = "M139 63 L139 56 L131 56 L131 63 L139 63 Z" stroke = "#000000" stroke-width = "2" fill = "none" />	<path d = "M146 71 L146 63 L139 63 L139 71 L146 71 Z" stroke = "#000000" stroke-width = "2" fill = "none" />	<path d = "M154 78 L154 71 L146 71 L146 78 L154 78 Z" stroke = "#000000" stroke-width = "2" fill = "none" />	<path d = "M168 78 L168 71 L161 71 L161 78 L168 78 Z" stroke = "#000000" stroke-width = "2" fill = "none" />	<path d = "M168 71 L168 63 L161 63 L161 71 L168 71 Z" stroke = "#000000" stroke-width = "2" fill = "none" />	<path d = "M168 63 L168 56 L161 56 L161 63 L168 63 Z" stroke = "#000000" stroke-width = "2" fill = "none" />	<path d = "M168 56 L168 48 L161 48 L161 56 L168 56 Z" stroke = "#000000" stroke-width = "2" fill = "none" />	<path d = "M168 48 L168 41 L161 41 L161 48 L168 48 Z" stroke = "#000000" stroke-width = "2" fill = "none" />	<path d = "M168 41 L168 33 L161 33 L161 41 L168 41 Z" stroke = "#000000" stroke-width = "2" fill = "none" />	<path d = "M176 33 L176 26 L168 26 L168 33 L176 33 Z" stroke = "#000000" stroke-width = "2" fill = "none" />	<path d = "M183 33 L183 26 L176 26 L176 33 L183 33 Z" stroke = "#000000" stroke-width = "2" fill = "none" />	<path d = "M191 33 L191 26 L183 26 L183 33 L191 33 Z" stroke = "#000000" stroke-width = "2" fill = "none" />	<path d = "M198 41 L198 33 L191 33 L191 41 L198 41 Z" stroke = "#000000" stroke-width = "2" fill = "none" />	<path d = "M198 48 L198 41 L191 41 L191 48 L198 48 Z" stroke = "#000000" stroke-width = "2" fill = "none" />	<path d = "M198 56 L198 48 L191 48 L191 56 L198 56 Z" stroke = "#000000" stroke-width = "2" fill = "none" />	<path d = "M198 63 L198 56 L191 56 L191 63 L198 63 Z" stroke = "#000000" stroke-width = "2" fill = "none" />	<path d = "M198 71 L198 63 L191 63 L191 71 L198 71 Z" stroke = "#000000" stroke-width = "2" fill = "none" />	<path d = "M198 78 L198 71 L191 71 L191 78 L198 78 Z" stroke = "#000000" stroke-width = "2" fill = "none" />	<path d = "M191 56 L191 48 L183 48 L183 56 L191 56 Z" stroke = "#000000" stroke-width = "2" fill = "none" />	<path d = "M183 56 L183 48 L176 48 L176 56 L183 56 Z" stroke = "#000000" stroke-width = "2" fill = "none" />	<path d = "M176 56 L176 48 L168 48 L168 56 L176 56 Z" stroke = "#000000" stroke-width = "2" fill = "none" />	<path d = "M213 71 L213 63 L206 63 L206 71 L213 71 Z" stroke = "#000000" stroke-width = "2" fill = "none" />	<path d = "M220 78 L220 71 L213 71 L213 78 L220 78 Z" stroke = "#000000" stroke-width = "2" fill = "none" />	<path d = "M228 78 L228 71 L220 71 L220 78 L228 78 Z" stroke = "#000000" stroke-width = "2" fill = "none" />	<path d = "M235 78 L235 71 L228 71 L228 78 L235 78 Z" stroke = "#000000" stroke-width = "2" fill = "none" />	<path d = "M243 71 L243 63 L235 63 L235 71 L243 71 Z" stroke = "#000000" stroke-width = "2" fill = "none" />	<path d = "M243 63 L243 56 L235 56 L235 63 L243 63 Z" stroke = "#000000" stroke-width = "2" fill = "none" />	<path d = "M235 56 L235 48 L228 48 L228 56 L235 56 Z" stroke = "#000000" stroke-width = "2" fill = "none" />	<path d = "M228 56 L228 48 L220 48 L220 56 L228 56 Z" stroke = "#000000" stroke-width = "2" fill = "none" />	<path d = "M220 56 L220 48 L213 48 L213 56 L220 56 Z" stroke = "#000000" stroke-width = "2" fill = "none" />	<path d = "M213 48 L213 41 L206 41 L206 48 L213 48 Z" stroke = "#000000" stroke-width = "2" fill = "none" />	<path d = "M213 41 L213 33 L206 33 L206 41 L213 41 Z" stroke = "#000000" stroke-width = "2" fill = "none" />	<path d = "M220 33 L220 26 L213 26 L213 33 L220 33 Z" stroke = "#000000" stroke-width = "2" fill = "none" />	<path d = "M228 33 L228 26 L220 26 L220 33 L228 33 Z" stroke = "#000000" stroke-width = "2" fill = "none" />	<path d = "M235 33 L235 26 L228 26 L228 33 L235 33 Z" stroke = "#000000" stroke-width = "2" fill = "none" />	<path d = "M243 41 L243 33 L235 33 L235 41 L243 41 Z" stroke = "#000000" stroke-width = "2" fill = "none" />	<path d = "M258 78 L258 71 L250 71 L250 78 L258 78 Z" stroke = "#000000" stroke-width = "2" fill = "none" />	<path d = "M258 71 L258 63 L250 63 L250 71 L258 71 Z" stroke = "#000000" stroke-width = "2" fill = "none" />	<path d = "M258 63 L258 56 L250 56 L250 63 L258 63 Z" stroke = "#000000" stroke-width = "2" fill = "none" />	<path d = "M258 56 L258 48 L250 48 L250 56 L258 56 Z" stroke = "#000000" stroke-width = "2" fill = "none" />	<path d = "M258 48 L258 41 L250 41 L250 48 L258 48 Z" stroke = "#000000" stroke-width = "2" fill = "none" />	<path d = "M258 41 L258 33 L250 33 L250 41 L258 41 Z" stroke = "#000000" stroke-width = "2" fill = "none" />	<path d = "M258 33 L258 26 L250 26 L250 33 L258 33 Z" stroke = "#000000" stroke-width = "2" fill = "none" />	<path d = "M265 56 L265 48 L258 48 L258 56 L265 56 Z" stroke = "#000000" stroke-width = "2" fill = "none" />	<path d = "M273 56 L273 48 L265 48 L265 56 L273 56 Z" stroke = "#000000" stroke-width = "2" fill = "none" />	<path d = "M280 56 L280 48 L273 48 L273 56 L280 56 Z" stroke = "#000000" stroke-width = "2" fill = "none" />	<path d = "M287 56 L287 48 L280 48 L280 56 L287 56 Z" stroke = "#000000" stroke-width = "2" fill = "none" />	<path d = "M287 48 L287 41 L280 41 L280 48 L287 48 Z" stroke = "#000000" stroke-width = "2" fill = "none" />	<path d = "M287 41 L287 33 L280 33 L280 41 L287 41 Z" stroke = "#000000" stroke-width = "2" fill = "none" />	<path d = "M287 33 L287 26 L280 26 L280 33 L287 33 Z" stroke = "#000000" stroke-width = "2" fill = "none" />	<path d = "M287 63 L287 56 L280 56 L280 63 L287 63 Z" stroke = "#000000" stroke-width = "2" fill = "none" />	<path d = "M287 71 L287 63 L280 63 L280 71 L287 71 Z" stroke = "#000000" stroke-width = "2" fill = "none" />	<path d = "M287 78 L287 71 L280 71 L280 78 L287 78 Z" stroke = "#000000" stroke-width = "2" fill = "none" />	<path d = "M347 78 L347 71 L339 71 L339 78 L347 78 Z" stroke = "#000000" stroke-width = "2" fill = "none" />	<path d = "M347 71 L347 63 L339 63 L339 71 L347 71 Z" stroke = "#000000" stroke-width = "2" fill = "none" />	<path d = "M347 63 L347 56 L339 56 L339 63 L347 63 Z" stroke = "#000000" stroke-width = "2" fill = "none" />	<path d = "M347 56 L347 48 L339 48 L339 56 L347 56 Z" stroke = "#000000" stroke-width = "2" fill = "none" />	<path d = "M347 48 L347 41 L339 41 L339 48 L347 48 Z" stroke = "#000000" stroke-width = "2" fill = "none" />	<path d = "M347 41 L347 33 L339 33 L339 41 L347 41 Z" stroke = "#000000" stroke-width = "2" fill = "none" />	<path d = "M347 33 L347 26 L339 26 L339 33 L347 33 Z" stroke = "#000000" stroke-width = "2" fill = "none" />	<path d = "M354 33 L354 26 L347 26 L347 33 L354 33 Z" stroke = "#000000" stroke-width = "2" fill = "none" />	<path d = "M362 33 L362 26 L354 26 L354 33 L362 33 Z" stroke = "#000000" stroke-width = "2" fill = "none" />	<path d = "M369 33 L369 26 L362 26 L362 33 L369 33 Z" stroke = "#000000" stroke-width = "2" fill = "none" />	<path d = "M377 33 L377 26 L369 26 L369 33 L377 33 Z" stroke = "#000000" stroke-width = "2" fill = "none" />	<path d = "M362 56 L362 48 L354 48 L354 56 L362 56 Z" stroke = "#000000" stroke-width = "2" fill = "none" />	<path d = "M354 56 L354 48 L347 48 L347 56 L354 56 Z" stroke = "#000000" stroke-width = "2" fill = "none" />	<path d = "M392 78 L392 71 L384 71 L384 78 L392 78 Z" stroke = "#000000" stroke-width = "2" fill = "none" />	<path d = "M392 71 L392 63 L384 63 L384 71 L392 71 Z" stroke = "#000000" stroke-width = "2" fill = "none" />	<path d = "M392 63 L392 56 L384 56 L384 63 L392 63 Z" stroke = "#000000" stroke-width = "2" fill = "none" />	<path d = "M392 56 L392 48 L384 48 L384 56 L392 56 Z" stroke = "#000000" stroke-width = "2" fill = "none" />	<path d = "M392 48 L392 41 L384 41 L384 48 L392 48 Z" stroke = "#000000" stroke-width = "2" fill = "none" />	<path d = "M392 41 L392 33 L384 33 L384 41 L392 41 Z" stroke = "#000000" stroke-width = "2" fill = "none" />	<path d = "M392 33 L392 26 L384 26 L384 33 L392 33 Z" stroke = "#000000" stroke-width = "2" fill = "none" />	<path d = "M399 33 L399 26 L392 26 L392 33 L399 33 Z" stroke = "#000000" stroke-width = "2" fill = "none" />	<path d = "M406 33 L406 26 L399 26 L399 33 L406 33 Z" stroke = "#000000" stroke-width = "2" fill = "none" />	<path d = "M414 33 L414 26 L406 26 L406 33 L414 33 Z" stroke = "#000000" stroke-width = "2" fill = "none" />	<path d = "M421 33 L421 26 L414 26 L414 33 L421 33 Z" stroke = "#000000" stroke-width = "2" fill = "none" />	<path d = "M406 56 L406 48 L399 48 L399 56 L406 56 Z" stroke = "#000000" stroke-width = "2" fill = "none" />	<path d = "M399 56 L399 48 L392 48 L392 56 L399 56 Z" stroke = "#000000" stroke-width = "2" fill = "none" />	<path d = "M399 78 L399 71 L392 71 L392 78 L399 78 Z" stroke = "#000000" stroke-width = "2" fill = "none" />	<path d = "M406 78 L406 71 L399 71 L399 78 L406 78 Z" stroke = "#000000" stroke-width = "2" fill = "none" />	<path d = "M414 78 L414 71 L406 71 L406 78 L414 78 Z" stroke = "#000000" stroke-width = "2" fill = "none" />	<path d = "M421 78 L421 71 L414 71 L414 78 L421 78 Z" stroke = "#000000" stroke-width = "2" fill = "none" />	<path d = "M436 78 L436 71 L429 71 L429 78 L436 78 Z" stroke = "#000000" stroke-width = "2" fill = "none" />	<path d = "M436 71 L436 63 L429 63 L429 71 L436 71 Z" stroke = "#000000" stroke-width = "2" fill = "none" />	<path d = "M436 63 L436 56 L429 56 L429 63 L436 63 Z" stroke = "#000000" stroke-width = "2" fill = "none" />	<path d = "M436 56 L436 48 L429 48 L429 56 L436 56 Z" stroke = "#000000" stroke-width = "2" fill = "none" />	<path d = "M436 48 L436 41 L429 41 L429 48 L436 48 Z" stroke = "#000000" stroke-width = "2" fill = "none" />	<path d = "M436 41 L436 33 L429 33 L429 41 L436 41 Z" stroke = "#000000" stroke-width = "2" fill = "none" />	<path d = "M436 33 L436 26 L429 26 L429 33 L436 33 Z" stroke = "#000000" stroke-width = "2" fill = "none" />	<path d = "M444 33 L444 26 L436 26 L436 33 L444 33 Z" stroke = "#000000" stroke-width = "2" fill = "none" />	<path d = "M451 33 L451 26 L444 26 L444 33 L451 33 Z" stroke = "#000000" stroke-width = "2" fill = "none" />	<path d = "M458 33 L458 26 L451 26 L451 33 L458 33 Z" stroke = "#000000" stroke-width = "2" fill = "none" />	<path d = "M466 33 L466 26 L458 26 L458 33 L466 33 Z" stroke = "#000000" stroke-width = "2" fill = "none" />	<path d = "M451 56 L451 48 L444 48 L444 56 L451 56 Z" stroke = "#000000" stroke-width = "2" fill = "none" />	<path d = "M444 56 L444 48 L436 48 L436 56 L444 56 Z" stroke = "#000000" stroke-width = "2" fill = "none" />	<path d = "M444 78 L444 71 L436 71 L436 78 L444 78 Z" stroke = "#000000" stroke-width = "2" fill = "none" />	<path d = "M451 78 L451 71 L444 71 L444 78 L451 78 Z" stroke = "#000000" stroke-width = "2" fill = "none" />	<path d = "M458 78 L458 71 L451 71 L451 78 L458 78 Z" stroke = "#000000" stroke-width = "2" fill = "none" />	<path d = "M466 78 L466 71 L458 71 L458 78 L466 78 Z" stroke = "#000000" stroke-width = "2" fill = "none" />	<path d = "M481 78 L481 71 L473 71 L473 78 L481 78 Z" stroke = "#000000" stroke-width = "2" fill = "none" />	<path d = "M481 71 L481 63 L473 63 L473 71 L481 71 Z" stroke = "#000000" stroke-width = "2" fill = "none" />	<path d = "M481 63 L481 56 L473 56 L473 63 L481 63 Z" stroke = "#000000" stroke-width = "2" fill = "none" />	<path d = "M481 56 L481 48 L473 48 L473 56 L481 56 Z" stroke = "#000000" stroke-width = "2" fill = "none" />	<path d = "M481 48 L481 41 L473 41 L473 48 L481 48 Z" stroke = "#000000" stroke-width = "2" fill = "none" />	<path d = "M481 41 L481 33 L473 33 L473 41 L481 41 Z" stroke = "#000000" stroke-width = "2" fill = "none" />	<path d = "M481 33 L481 26 L473 26 L473 33 L481 33 Z" stroke = "#000000" stroke-width = "2" fill = "none" />	<path d = "M488 33 L488 26 L481 26 L481 33 L488 33 Z" stroke = "#000000" stroke-width = "2" fill = "none" />	<path d = "M496 33 L496 26 L488 26 L488 33 L496 33 Z" stroke = "#000000" stroke-width = "2" fill = "none" />	<path d = "M503 41 L503 33 L496 33 L496 41 L503 41 Z" stroke = "#000000" stroke-width = "2" fill = "none" />	<path d = "M511 48 L511 41 L503 41 L503 48 L511 48 Z" stroke = "#000000" stroke-width = "2" fill = "none" />	<path d = "M511 56 L511 48 L503 48 L503 56 L511 56 Z" stroke = "#000000" stroke-width = "2" fill = "none" />	<path d = "M511 63 L511 56 L503 56 L503 63 L511 63 Z" stroke = "#000000" stroke-width = "2" fill = "none" />	<path d = "M503 71 L503 63 L496 63 L496 71 L503 71 Z" stroke = "#000000" stroke-width = "2" fill = "none" />	<path d = "M496 78 L496 71 L488 71 L488 78 L496 78 Z" stroke = "#000000" stroke-width = "2" fill = "none" />	<path d = "M488 78 L488 71 L481 71 L481 78 L488 78 Z" stroke = "#000000" stroke-width = "2" fill = "none" /></svg>