<svg width="600" height="700" viewbox = "0 0 600 700"  xmlns="http://www.w3.org/2000/svg">
<!--<json>{
  "glyph": "0332,0336,0332,0337,0330,0330,0330,0330,0332,0336,0336,0337,0337,0330,0330,0330,0332,0332,0332,0332,0332,0211,0211,0336,0336,0336,0332,0332,0332,0332,0332,0332,0332,0332,0330,0332,0337,0337,0337,0333,0333,0333,0336,0333,0337,0332,0332,0336,0333,0337,01124,01122,01101,01123,01110,01040,01123,01124,01101,01124,01111,01117,01116,",
  "x0": 300,
  "y0": 400,
  "unit": 45.45454545454545,
  "width": 600,
  "height": 700,
  "style": {
    "color0": "black",
    "fill0": "white",
    "line0": 2,
    "color1": "black",
    "fill1": "black",
    "line1": 5,
    "color2": "red",
    "fill2": "red",
    "line2": 1,
    "color3": "#FF7900",
    "fill3": "#FF7900",
    "line3": 1,
    "color4": "yellow",
    "fill4": "yellow",
    "line4": 1,
    "color5": "green",
    "fill5": "green",
    "line5": 1,
    "color6": "blue",
    "fill6": "blue",
    "line6": 1,
    "color7": "purple",
    "fill7": "purple",
    "line7": 1
  },
  "shapes": [
    "0220:0342,0336,0333,0342,0336,0332,0342,0333,0333,0342,0336,0333,0342,0332,0332,0342,0332,0332,0342,0332,0332,0342,0333,0333,0333,0333,0333,0333,0333,0337,0337,0337,",
    "0221:0316,0336,0313,0342,0336,0333,0342,0333,0342,0333,0342,0333,0342,0333,0337,0342,0336,0333,0342,0333,0342,0333,0342,0333,0342,0333,0342,0337,0316,0337,0313,",
    "0222:0362,0203,0335,0203,0203,0203,0203,0203,0203,0335,0203,0335,0203,0203,0203,0203,0203,0203,0354,0335,",
    "0223:0322,0221,0221,0221,0221,0221,0221,0334,0221,0334,0220,0220,0220,0220,0220,0220,0334,0220,0334,0320,",
    "0224:0222,0330,0222,0330,0222,0330,0222,0330,0222,0330,0222,0331,0331,0331,0331,0331,",
    "0225:0223,0330,0223,0330,0223,0330,0223,0330,0223,0330,0223,0331,0331,0331,0331,0331,",
    "0226:0220,0336,0331,0334,0336,0330,0337,0321,0336,0362,0203,0335,0203,0203,0203,0203,0203,0335,0203,0203,0203,0203,0335,0203,0203,0203,0203,0203,0335,0203,0364,0330,0334,0331,0337,0201,0335,0336,0350,0334,0331,0362,0203,0335,0335,0203,0364,0331,0335,0313,0304,0337,0330,0336,0330,0337,0337,0320,0331,0336,0331,0332,01015,0163,0141,0166,0145,0365,0330,0330,0330,0333,0337,",
    "0227:0304,0350,0335,0313,0304,0322,0336,0336,0336,0330,0332,0337,0337,0362,0203,0335,0336,0203,0335,0337,0203,0334,0203,0335,0336,0203,0335,0337,0203,0334,0203,0335,0336,0203,0335,0337,0203,0334,0203,0335,0336,0203,0335,0337,0203,0363,0320,0336,0334,0336,0333,0331,0337,0337,0337,0350,0334,0304,0220,0331,0336,0331,0332,0336,0332,0337,01015,0144,0145,0154,0145,0164,0145,0336,0333,0337,0330,0330,0330,0333,0337,",
    "0230:0313,0334,0336,0330,0335,0335,0305,0334,0337,0311,0337,0362,0203,0335,0335,0203,0335,0350,0335,0336,0203,0363,0313,0336,0331,0304,0335,0337,",
    "0231:0321,0342,0330,0320,0336,0230,0331,0331,0337,0350,0335,0304,",
    "0232:0231,0231,0231,0231,0231,0231,0231,0231,",
    "0233:0220,0336,0210,0232,",
    "0234:0220,0336,0335,0335,0331,0335,0331,0337,0321,0342,0332,0342,0336,0333,0337,0342,0330,0336,0336,0336,0330,0337,0366,0332,0332,0332,0367,0350,0335,0306,0350,0320,0335,0362,0203,0334,0334,0334,0334,0203,0334,0334,0334,0334,0203,0363,0335,0304,0350,0335,0304,0335,0335,0331,0331,0332,01015,0145,0154,0145,0155,0145,0156,0164,040,0144,0157,0167,0156,0365,0330,0330,0330,0330,0330,0333,0333,0333,0336,0332,0337,0333,0337,0337,",
    "0235:0220,0321,0336,0342,0335,0342,0335,0342,0335,0342,0335,0337,",
    "0236:0321,0220,0335,0336,0321,0342,0335,0335,0342,0335,0337,",
    "0237:0220,0336,0331,0332,0336,0321,0342,0335,0342,0335,0342,0335,0342,0335,0330,0330,0333,0333,0337,0337,",
    "01220:0333,0200,0336,0332,0330,0336,0332,0337,0220,0331,0336,0333,0337,0337,",
    "01221:0333,0200,0336,0330,0332,0336,0332,0337,0221,0336,0333,0337,0331,0337,",
    "01222:0333,0200,0336,0330,0332,0336,0332,0336,0332,0222,0332,0337,0337,0331,0337,0333,",
    "01223:0333,0200,0336,0332,0330,0336,0332,0336,0332,0223,0332,0337,0337,0331,0337,0333,0320,",
    "01224:0333,0200,0336,0332,0336,0330,0336,0332,0332,0331,0332,0224,",
    "01225:0333,0200,0336,0330,0332,0336,0331,0332,0336,0331,0332,0225,0331,0332,0320,0337,0337,0337,0333,",
    "01226:0333,0200,0336,0336,0330,0332,0337,0226,0336,0333,0331,0337,0337,",
    "01227:0333,0200,0336,0330,0332,0336,0332,0337,0227,0333,0336,0333,0337,0331,0337,",
    "01230:0333,0200,",
    "01231:0333,0200,",
    "01232:0333,0200,",
    "01233:0333,0200,",
    "01234:0333,0200,",
    "01235:0333,0200,",
    "01236:0333,0200,",
    "01237:0333,0200,",
    "0240:0220,0336,0331,0333,0336,0321,0335,0342,0335,0335,0342,0335,0330,0330,0332,0332,0337,0337,",
    "01240:0333,0200,0336,0330,0332,0210,0240,0211,0333,0331,0337,",
    "0241:0220,0336,0321,0343,0332,0350,0335,0336,0342,0334,0334,0342,0335,0304,0337,0333,0337,",
    "01241:0333,0200,0336,0332,0330,0210,0241,0211,0333,0331,0337,",
    "0242:0220,0321,0336,0343,0333,0336,0350,0335,0342,0334,0334,0342,0335,0337,0304,0332,0337,",
    "01242:0333,0200,0336,0330,0332,0210,0242,0211,0333,0331,0337,",
    "0243:0220,0336,0331,0332,0336,0321,0343,0332,0350,0334,0336,0342,0335,0335,0342,0337,0334,0334,0335,0304,0332,0330,0330,0337,0337,0333,",
    "01243:0333,0200,0336,0330,0332,0210,0243,0211,0333,0331,0337,",
    "0244:0220,0336,0331,0333,0336,0321,0343,0333,0350,0336,0335,0342,0334,0334,0342,0335,0337,0304,0333,0330,0330,0337,0337,0332,",
    "01244:0333,0200,0336,0330,0332,0210,0244,0211,0333,0331,0337,",
    "0245:0210,0332,0332,0362,0335,0203,0203,0203,0203,0334,0203,0363,0332,0332,0331,0211,",
    "01245:0333,0200,0336,0330,0332,0336,0245,0337,0333,0331,0337,",
    "0246:0210,0332,0332,0335,0306,0336,0330,0335,0335,0335,0321,0362,0203,0335,0335,0203,0364,0331,0350,0335,0337,0366,0333,0333,0333,0333,0334,0334,0334,0334,0367,0335,0336,0342,0334,0334,0342,0330,0330,0330,0330,0335,0335,0335,0304,0337,0211,",
    "01246:0333,0200,0336,0330,0332,0336,0246,",
    "0247:0330,0332,0336,0332,0336,0221,0333,0333,0333,0222,0333,0333,0333,0223,0333,0333,0333,0225,0333,0331,0331,0331,0332,0332,0332,0332,0332,0332,0332,0332,0332,0332,0332,0332,0333,0333,0226,0331,0331,0331,0333,0333,0333,0333,0333,0333,0333,0333,0333,0333,0333,0333,0333,0330,0333,0330,0330,0333,0330,0331,0332,0332,0332,0332,0332,0332,0332,0332,0332,0332,0332,0332,0227,0333,0333,0333,0230,0333,0331,0331,0331,0331,0332,0332,0332,0330,0332,0332,0332,0332,0332,0332,0333,0333,0231,0333,0333,0333,0232,0331,0333,0330,0333,0333,0233,0333,0333,0333,0234,0330,0330,0332,0330,0332,0332,0337,0337,",
    "01247:0333,0200,0336,0330,0332,0220,0336,0247,0337,0331,0333,0337,"
  ]
}</json>-->	<path d = "M22 33 L22 26 L15 26 L15 33 L22 33 Z" stroke = "#000000" stroke-width = "2" fill = "none" />	<path d = "M30 33 L30 26 L22 26 L22 33 L30 33 Z" stroke = "#000000" stroke-width = "2" fill = "none" />	<path d = "M37 33 L37 26 L30 26 L30 33 L37 33 Z" stroke = "#000000" stroke-width = "2" fill = "none" />	<path d = "M45 33 L45 26 L37 26 L37 33 L45 33 Z" stroke = "#000000" stroke-width = "2" fill = "none" />	<path d = "M52 33 L52 26 L45 26 L45 33 L52 33 Z" stroke = "#000000" stroke-width = "2" fill = "none" />	<path d = "M37 41 L37 33 L30 33 L30 41 L37 41 Z" stroke = "#000000" stroke-width = "2" fill = "none" />	<path d = "M37 48 L37 41 L30 41 L30 48 L37 48 Z" stroke = "#000000" stroke-width = "2" fill = "none" />	<path d = "M37 56 L37 48 L30 48 L30 56 L37 56 Z" stroke = "#000000" stroke-width = "2" fill = "none" />	<path d = "M37 63 L37 56 L30 56 L30 63 L37 63 Z" stroke = "#000000" stroke-width = "2" fill = "none" />	<path d = "M37 71 L37 63 L30 63 L30 71 L37 71 Z" stroke = "#000000" stroke-width = "2" fill = "none" />	<path d = "M37 78 L37 71 L30 71 L30 78 L37 78 Z" stroke = "#000000" stroke-width = "2" fill = "none" />	<path d = "M67 78 L67 71 L59 71 L59 78 L67 78 Z" stroke = "#000000" stroke-width = "2" fill = "none" />	<path d = "M67 71 L67 63 L59 63 L59 71 L67 71 Z" stroke = "#000000" stroke-width = "2" fill = "none" />	<path d = "M67 63 L67 56 L59 56 L59 63 L67 63 Z" stroke = "#000000" stroke-width = "2" fill = "none" />	<path d = "M67 56 L67 48 L59 48 L59 56 L67 56 Z" stroke = "#000000" stroke-width = "2" fill = "none" />	<path d = "M67 48 L67 41 L59 41 L59 48 L67 48 Z" stroke = "#000000" stroke-width = "2" fill = "none" />	<path d = "M67 41 L67 33 L59 33 L59 41 L67 41 Z" stroke = "#000000" stroke-width = "2" fill = "none" />	<path d = "M67 33 L67 26 L59 26 L59 33 L67 33 Z" stroke = "#000000" stroke-width = "2" fill = "none" />	<path d = "M74 33 L74 26 L67 26 L67 33 L74 33 Z" stroke = "#000000" stroke-width = "2" fill = "none" />	<path d = "M82 33 L82 26 L74 26 L74 33 L82 33 Z" stroke = "#000000" stroke-width = "2" fill = "none" />	<path d = "M89 33 L89 26 L82 26 L82 33 L89 33 Z" stroke = "#000000" stroke-width = "2" fill = "none" />	<path d = "M97 41 L97 33 L89 33 L89 41 L97 41 Z" stroke = "#000000" stroke-width = "2" fill = "none" />	<path d = "M97 48 L97 41 L89 41 L89 48 L97 48 Z" stroke = "#000000" stroke-width = "2" fill = "none" />	<path d = "M89 56 L89 48 L82 48 L82 56 L89 56 Z" stroke = "#000000" stroke-width = "2" fill = "none" />	<path d = "M82 56 L82 48 L74 48 L74 56 L82 56 Z" stroke = "#000000" stroke-width = "2" fill = "none" />	<path d = "M74 56 L74 48 L67 48 L67 56 L74 56 Z" stroke = "#000000" stroke-width = "2" fill = "none" />	<path d = "M82 63 L82 56 L74 56 L74 63 L82 63 Z" stroke = "#000000" stroke-width = "2" fill = "none" />	<path d = "M89 71 L89 63 L82 63 L82 71 L89 71 Z" stroke = "#000000" stroke-width = "2" fill = "none" />	<path d = "M97 78 L97 71 L89 71 L89 78 L97 78 Z" stroke = "#000000" stroke-width = "2" fill = "none" />	<path d = "M112 78 L112 71 L104 71 L104 78 L112 78 Z" stroke = "#000000" stroke-width = "2" fill = "none" />	<path d = "M112 71 L112 63 L104 63 L104 71 L112 71 Z" stroke = "#000000" stroke-width = "2" fill = "none" />	<path d = "M112 63 L112 56 L104 56 L104 63 L112 63 Z" stroke = "#000000" stroke-width = "2" fill = "none" />	<path d = "M112 56 L112 48 L104 48 L104 56 L112 56 Z" stroke = "#000000" stroke-width = "2" fill = "none" />	<path d = "M112 48 L112 41 L104 41 L104 48 L112 48 Z" stroke = "#000000" stroke-width = "2" fill = "none" />	<path d = "M112 41 L112 33 L104 33 L104 41 L112 41 Z" stroke = "#000000" stroke-width = "2" fill = "none" />	<path d = "M119 33 L119 26 L112 26 L112 33 L119 33 Z" stroke = "#000000" stroke-width = "2" fill = "none" />	<path d = "M126 33 L126 26 L119 26 L119 33 L126 33 Z" stroke = "#000000" stroke-width = "2" fill = "none" />	<path d = "M134 33 L134 26 L126 26 L126 33 L134 33 Z" stroke = "#000000" stroke-width = "2" fill = "none" />	<path d = "M141 41 L141 33 L134 33 L134 41 L141 41 Z" stroke = "#000000" stroke-width = "2" fill = "none" />	<path d = "M141 48 L141 41 L134 41 L134 48 L141 48 Z" stroke = "#000000" stroke-width = "2" fill = "none" />	<path d = "M141 56 L141 48 L134 48 L134 56 L141 56 Z" stroke = "#000000" stroke-width = "2" fill = "none" />	<path d = "M141 63 L141 56 L134 56 L134 63 L141 63 Z" stroke = "#000000" stroke-width = "2" fill = "none" />	<path d = "M141 71 L141 63 L134 63 L134 71 L141 71 Z" stroke = "#000000" stroke-width = "2" fill = "none" />	<path d = "M141 78 L141 71 L134 71 L134 78 L141 78 Z" stroke = "#000000" stroke-width = "2" fill = "none" />	<path d = "M134 56 L134 48 L126 48 L126 56 L134 56 Z" stroke = "#000000" stroke-width = "2" fill = "none" />	<path d = "M126 56 L126 48 L119 48 L119 56 L126 56 Z" stroke = "#000000" stroke-width = "2" fill = "none" />	<path d = "M119 56 L119 48 L112 48 L112 56 L119 56 Z" stroke = "#000000" stroke-width = "2" fill = "none" />	<path d = "M156 71 L156 63 L149 63 L149 71 L156 71 Z" stroke = "#000000" stroke-width = "2" fill = "none" />	<path d = "M164 78 L164 71 L156 71 L156 78 L164 78 Z" stroke = "#000000" stroke-width = "2" fill = "none" />	<path d = "M171 78 L171 71 L164 71 L164 78 L171 78 Z" stroke = "#000000" stroke-width = "2" fill = "none" />	<path d = "M179 78 L179 71 L171 71 L171 78 L179 78 Z" stroke = "#000000" stroke-width = "2" fill = "none" />	<path d = "M186 71 L186 63 L179 63 L179 71 L186 71 Z" stroke = "#000000" stroke-width = "2" fill = "none" />	<path d = "M186 63 L186 56 L179 56 L179 63 L186 63 Z" stroke = "#000000" stroke-width = "2" fill = "none" />	<path d = "M179 56 L179 48 L171 48 L171 56 L179 56 Z" stroke = "#000000" stroke-width = "2" fill = "none" />	<path d = "M171 56 L171 48 L164 48 L164 56 L171 56 Z" stroke = "#000000" stroke-width = "2" fill = "none" />	<path d = "M164 56 L164 48 L156 48 L156 56 L164 56 Z" stroke = "#000000" stroke-width = "2" fill = "none" />	<path d = "M156 48 L156 41 L149 41 L149 48 L156 48 Z" stroke = "#000000" stroke-width = "2" fill = "none" />	<path d = "M156 41 L156 33 L149 33 L149 41 L156 41 Z" stroke = "#000000" stroke-width = "2" fill = "none" />	<path d = "M164 33 L164 26 L156 26 L156 33 L164 33 Z" stroke = "#000000" stroke-width = "2" fill = "none" />	<path d = "M171 33 L171 26 L164 26 L164 33 L171 33 Z" stroke = "#000000" stroke-width = "2" fill = "none" />	<path d = "M179 33 L179 26 L171 26 L171 33 L179 33 Z" stroke = "#000000" stroke-width = "2" fill = "none" />	<path d = "M186 41 L186 33 L179 33 L179 41 L186 41 Z" stroke = "#000000" stroke-width = "2" fill = "none" />	<path d = "M201 78 L201 71 L193 71 L193 78 L201 78 Z" stroke = "#000000" stroke-width = "2" fill = "none" />	<path d = "M201 71 L201 63 L193 63 L193 71 L201 71 Z" stroke = "#000000" stroke-width = "2" fill = "none" />	<path d = "M201 63 L201 56 L193 56 L193 63 L201 63 Z" stroke = "#000000" stroke-width = "2" fill = "none" />	<path d = "M201 56 L201 48 L193 48 L193 56 L201 56 Z" stroke = "#000000" stroke-width = "2" fill = "none" />	<path d = "M201 48 L201 41 L193 41 L193 48 L201 48 Z" stroke = "#000000" stroke-width = "2" fill = "none" />	<path d = "M201 41 L201 33 L193 33 L193 41 L201 41 Z" stroke = "#000000" stroke-width = "2" fill = "none" />	<path d = "M201 33 L201 26 L193 26 L193 33 L201 33 Z" stroke = "#000000" stroke-width = "2" fill = "none" />	<path d = "M208 56 L208 48 L201 48 L201 56 L208 56 Z" stroke = "#000000" stroke-width = "2" fill = "none" />	<path d = "M216 56 L216 48 L208 48 L208 56 L216 56 Z" stroke = "#000000" stroke-width = "2" fill = "none" />	<path d = "M223 56 L223 48 L216 48 L216 56 L223 56 Z" stroke = "#000000" stroke-width = "2" fill = "none" />	<path d = "M231 56 L231 48 L223 48 L223 56 L231 56 Z" stroke = "#000000" stroke-width = "2" fill = "none" />	<path d = "M231 48 L231 41 L223 41 L223 48 L231 48 Z" stroke = "#000000" stroke-width = "2" fill = "none" />	<path d = "M231 41 L231 33 L223 33 L223 41 L231 41 Z" stroke = "#000000" stroke-width = "2" fill = "none" />	<path d = "M231 33 L231 26 L223 26 L223 33 L231 33 Z" stroke = "#000000" stroke-width = "2" fill = "none" />	<path d = "M231 63 L231 56 L223 56 L223 63 L231 63 Z" stroke = "#000000" stroke-width = "2" fill = "none" />	<path d = "M231 71 L231 63 L223 63 L223 71 L231 71 Z" stroke = "#000000" stroke-width = "2" fill = "none" />	<path d = "M231 78 L231 71 L223 71 L223 78 L231 78 Z" stroke = "#000000" stroke-width = "2" fill = "none" />	<path d = "M290 71 L290 63 L283 63 L283 71 L290 71 Z" stroke = "#000000" stroke-width = "2" fill = "none" />	<path d = "M298 78 L298 71 L290 71 L290 78 L298 78 Z" stroke = "#000000" stroke-width = "2" fill = "none" />	<path d = "M305 78 L305 71 L298 71 L298 78 L305 78 Z" stroke = "#000000" stroke-width = "2" fill = "none" />	<path d = "M312 78 L312 71 L305 71 L305 78 L312 78 Z" stroke = "#000000" stroke-width = "2" fill = "none" />	<path d = "M320 71 L320 63 L312 63 L312 71 L320 71 Z" stroke = "#000000" stroke-width = "2" fill = "none" />	<path d = "M320 63 L320 56 L312 56 L312 63 L320 63 Z" stroke = "#000000" stroke-width = "2" fill = "none" />	<path d = "M312 56 L312 48 L305 48 L305 56 L312 56 Z" stroke = "#000000" stroke-width = "2" fill = "none" />	<path d = "M305 56 L305 48 L298 48 L298 56 L305 56 Z" stroke = "#000000" stroke-width = "2" fill = "none" />	<path d = "M298 56 L298 48 L290 48 L290 56 L298 56 Z" stroke = "#000000" stroke-width = "2" fill = "none" />	<path d = "M290 48 L290 41 L283 41 L283 48 L290 48 Z" stroke = "#000000" stroke-width = "2" fill = "none" />	<path d = "M290 41 L290 33 L283 33 L283 41 L290 41 Z" stroke = "#000000" stroke-width = "2" fill = "none" />	<path d = "M298 33 L298 26 L290 26 L290 33 L298 33 Z" stroke = "#000000" stroke-width = "2" fill = "none" />	<path d = "M305 33 L305 26 L298 26 L298 33 L305 33 Z" stroke = "#000000" stroke-width = "2" fill = "none" />	<path d = "M312 33 L312 26 L305 26 L305 33 L312 33 Z" stroke = "#000000" stroke-width = "2" fill = "none" />	<path d = "M320 41 L320 33 L312 33 L312 41 L320 41 Z" stroke = "#000000" stroke-width = "2" fill = "none" />	<path d = "M335 33 L335 26 L327 26 L327 33 L335 33 Z" stroke = "#000000" stroke-width = "2" fill = "none" />	<path d = "M342 33 L342 26 L335 26 L335 33 L342 33 Z" stroke = "#000000" stroke-width = "2" fill = "none" />	<path d = "M350 33 L350 26 L342 26 L342 33 L350 33 Z" stroke = "#000000" stroke-width = "2" fill = "none" />	<path d = "M357 33 L357 26 L350 26 L350 33 L357 33 Z" stroke = "#000000" stroke-width = "2" fill = "none" />	<path d = "M364 33 L364 26 L357 26 L357 33 L364 33 Z" stroke = "#000000" stroke-width = "2" fill = "none" />	<path d = "M350 41 L350 33 L342 33 L342 41 L350 41 Z" stroke = "#000000" stroke-width = "2" fill = "none" />	<path d = "M350 48 L350 41 L342 41 L342 48 L350 48 Z" stroke = "#000000" stroke-width = "2" fill = "none" />	<path d = "M350 56 L350 48 L342 48 L342 56 L350 56 Z" stroke = "#000000" stroke-width = "2" fill = "none" />	<path d = "M350 63 L350 56 L342 56 L342 63 L350 63 Z" stroke = "#000000" stroke-width = "2" fill = "none" />	<path d = "M350 71 L350 63 L342 63 L342 71 L350 71 Z" stroke = "#000000" stroke-width = "2" fill = "none" />	<path d = "M350 78 L350 71 L342 71 L342 78 L350 78 Z" stroke = "#000000" stroke-width = "2" fill = "none" />	<path d = "M379 78 L379 71 L372 71 L372 78 L379 78 Z" stroke = "#000000" stroke-width = "2" fill = "none" />	<path d = "M379 71 L379 63 L372 63 L372 71 L379 71 Z" stroke = "#000000" stroke-width = "2" fill = "none" />	<path d = "M379 63 L379 56 L372 56 L372 63 L379 63 Z" stroke = "#000000" stroke-width = "2" fill = "none" />	<path d = "M379 56 L379 48 L372 48 L372 56 L379 56 Z" stroke = "#000000" stroke-width = "2" fill = "none" />	<path d = "M379 48 L379 41 L372 41 L372 48 L379 48 Z" stroke = "#000000" stroke-width = "2" fill = "none" />	<path d = "M379 41 L379 33 L372 33 L372 41 L379 41 Z" stroke = "#000000" stroke-width = "2" fill = "none" />	<path d = "M387 33 L387 26 L379 26 L379 33 L387 33 Z" stroke = "#000000" stroke-width = "2" fill = "none" />	<path d = "M394 33 L394 26 L387 26 L387 33 L394 33 Z" stroke = "#000000" stroke-width = "2" fill = "none" />	<path d = "M402 33 L402 26 L394 26 L394 33 L402 33 Z" stroke = "#000000" stroke-width = "2" fill = "none" />	<path d = "M409 41 L409 33 L402 33 L402 41 L409 41 Z" stroke = "#000000" stroke-width = "2" fill = "none" />	<path d = "M409 48 L409 41 L402 41 L402 48 L409 48 Z" stroke = "#000000" stroke-width = "2" fill = "none" />	<path d = "M409 56 L409 48 L402 48 L402 56 L409 56 Z" stroke = "#000000" stroke-width = "2" fill = "none" />	<path d = "M409 63 L409 56 L402 56 L402 63 L409 63 Z" stroke = "#000000" stroke-width = "2" fill = "none" />	<path d = "M409 71 L409 63 L402 63 L402 71 L409 71 Z" stroke = "#000000" stroke-width = "2" fill = "none" />	<path d = "M409 78 L409 71 L402 71 L402 78 L409 78 Z" stroke = "#000000" stroke-width = "2" fill = "none" />	<path d = "M402 56 L402 48 L394 48 L394 56 L402 56 Z" stroke = "#000000" stroke-width = "2" fill = "none" />	<path d = "M394 56 L394 48 L387 48 L387 56 L394 56 Z" stroke = "#000000" stroke-width = "2" fill = "none" />	<path d = "M387 56 L387 48 L379 48 L379 56 L387 56 Z" stroke = "#000000" stroke-width = "2" fill = "none" />	<path d = "M424 33 L424 26 L417 26 L417 33 L424 33 Z" stroke = "#000000" stroke-width = "2" fill = "none" />	<path d = "M431 33 L431 26 L424 26 L424 33 L431 33 Z" stroke = "#000000" stroke-width = "2" fill = "none" />	<path d = "M439 33 L439 26 L431 26 L431 33 L439 33 Z" stroke = "#000000" stroke-width = "2" fill = "none" />	<path d = "M446 33 L446 26 L439 26 L439 33 L446 33 Z" stroke = "#000000" stroke-width = "2" fill = "none" />	<path d = "M454 33 L454 26 L446 26 L446 33 L454 33 Z" stroke = "#000000" stroke-width = "2" fill = "none" />	<path d = "M439 41 L439 33 L431 33 L431 41 L439 41 Z" stroke = "#000000" stroke-width = "2" fill = "none" />	<path d = "M439 48 L439 41 L431 41 L431 48 L439 48 Z" stroke = "#000000" stroke-width = "2" fill = "none" />	<path d = "M439 56 L439 48 L431 48 L431 56 L439 56 Z" stroke = "#000000" stroke-width = "2" fill = "none" />	<path d = "M439 63 L439 56 L431 56 L431 63 L439 63 Z" stroke = "#000000" stroke-width = "2" fill = "none" />	<path d = "M439 71 L439 63 L431 63 L431 71 L439 71 Z" stroke = "#000000" stroke-width = "2" fill = "none" />	<path d = "M439 78 L439 71 L431 71 L431 78 L439 78 Z" stroke = "#000000" stroke-width = "2" fill = "none" />	<path d = "M476 78 L476 71 L469 71 L469 78 L476 78 Z" stroke = "#000000" stroke-width = "2" fill = "none" />	<path d = "M483 78 L483 71 L476 71 L476 78 L483 78 Z" stroke = "#000000" stroke-width = "2" fill = "none" />	<path d = "M491 78 L491 71 L483 71 L483 78 L491 78 Z" stroke = "#000000" stroke-width = "2" fill = "none" />	<path d = "M483 71 L483 63 L476 63 L476 71 L483 71 Z" stroke = "#000000" stroke-width = "2" fill = "none" />	<path d = "M483 63 L483 56 L476 56 L476 63 L483 63 Z" stroke = "#000000" stroke-width = "2" fill = "none" />	<path d = "M483 56 L483 48 L476 48 L476 56 L483 56 Z" stroke = "#000000" stroke-width = "2" fill = "none" />	<path d = "M483 48 L483 41 L476 41 L476 48 L483 48 Z" stroke = "#000000" stroke-width = "2" fill = "none" />	<path d = "M483 41 L483 33 L476 33 L476 41 L483 41 Z" stroke = "#000000" stroke-width = "2" fill = "none" />	<path d = "M483 33 L483 26 L476 26 L476 33 L483 33 Z" stroke = "#000000" stroke-width = "2" fill = "none" />	<path d = "M476 33 L476 26 L469 26 L469 33 L476 33 Z" stroke = "#000000" stroke-width = "2" fill = "none" />	<path d = "M491 33 L491 26 L483 26 L483 33 L491 33 Z" stroke = "#000000" stroke-width = "2" fill = "none" />	<path d = "M513 71 L513 63 L506 63 L506 71 L513 71 Z" stroke = "#000000" stroke-width = "2" fill = "none" />	<path d = "M513 63 L513 56 L506 56 L506 63 L513 63 Z" stroke = "#000000" stroke-width = "2" fill = "none" />	<path d = "M513 56 L513 48 L506 48 L506 56 L513 56 Z" stroke = "#000000" stroke-width = "2" fill = "none" />	<path d = "M513 48 L513 41 L506 41 L506 48 L513 48 Z" stroke = "#000000" stroke-width = "2" fill = "none" />	<path d = "M513 41 L513 33 L506 33 L506 41 L513 41 Z" stroke = "#000000" stroke-width = "2" fill = "none" />	<path d = "M521 33 L521 26 L513 26 L513 33 L521 33 Z" stroke = "#000000" stroke-width = "2" fill = "none" />	<path d = "M528 33 L528 26 L521 26 L521 33 L528 33 Z" stroke = "#000000" stroke-width = "2" fill = "none" />	<path d = "M536 33 L536 26 L528 26 L528 33 L536 33 Z" stroke = "#000000" stroke-width = "2" fill = "none" />	<path d = "M543 41 L543 33 L536 33 L536 41 L543 41 Z" stroke = "#000000" stroke-width = "2" fill = "none" />	<path d = "M543 48 L543 41 L536 41 L536 48 L543 48 Z" stroke = "#000000" stroke-width = "2" fill = "none" />	<path d = "M543 56 L543 48 L536 48 L536 56 L543 56 Z" stroke = "#000000" stroke-width = "2" fill = "none" />	<path d = "M543 63 L543 56 L536 56 L536 63 L543 63 Z" stroke = "#000000" stroke-width = "2" fill = "none" />	<path d = "M543 71 L543 63 L536 63 L536 71 L543 71 Z" stroke = "#000000" stroke-width = "2" fill = "none" />	<path d = "M536 78 L536 71 L528 71 L528 78 L536 78 Z" stroke = "#000000" stroke-width = "2" fill = "none" />	<path d = "M528 78 L528 71 L521 71 L521 78 L528 78 Z" stroke = "#000000" stroke-width = "2" fill = "none" />	<path d = "M521 78 L521 71 L513 71 L513 78 L521 78 Z" stroke = "#000000" stroke-width = "2" fill = "none" />	<path d = "M558 78 L558 71 L550 71 L550 78 L558 78 Z" stroke = "#000000" stroke-width = "2" fill = "none" />	<path d = "M558 71 L558 63 L550 63 L550 71 L558 71 Z" stroke = "#000000" stroke-width = "2" fill = "none" />	<path d = "M558 63 L558 56 L550 56 L550 63 L558 63 Z" stroke = "#000000" stroke-width = "2" fill = "none" />	<path d = "M558 56 L558 48 L550 48 L550 56 L558 56 Z" stroke = "#000000" stroke-width = "2" fill = "none" />	<path d = "M558 48 L558 41 L550 41 L550 48 L558 48 Z" stroke = "#000000" stroke-width = "2" fill = "none" />	<path d = "M558 41 L558 33 L550 33 L550 41 L558 41 Z" stroke = "#000000" stroke-width = "2" fill = "none" />	<path d = "M558 33 L558 26 L550 26 L550 33 L558 33 Z" stroke = "#000000" stroke-width = "2" fill = "none" />	<path d = "M565 48 L565 41 L558 41 L558 48 L565 48 Z" stroke = "#000000" stroke-width = "2" fill = "none" />	<path d = "M573 56 L573 48 L565 48 L565 56 L573 56 Z" stroke = "#000000" stroke-width = "2" fill = "none" />	<path d = "M580 63 L580 56 L573 56 L573 63 L580 63 Z" stroke = "#000000" stroke-width = "2" fill = "none" />	<path d = "M588 71 L588 63 L580 63 L580 71 L588 71 Z" stroke = "#000000" stroke-width = "2" fill = "none" />	<path d = "M588 78 L588 71 L580 71 L580 78 L588 78 Z" stroke = "#000000" stroke-width = "2" fill = "none" />	<path d = "M588 63 L588 56 L580 56 L580 63 L588 63 Z" stroke = "#000000" stroke-width = "2" fill = "none" />	<path d = "M588 56 L588 48 L580 48 L580 56 L588 56 Z" stroke = "#000000" stroke-width = "2" fill = "none" />	<path d = "M588 48 L588 41 L580 41 L580 48 L588 48 Z" stroke = "#000000" stroke-width = "2" fill = "none" />	<path d = "M588 41 L588 33 L580 33 L580 41 L588 41 Z" stroke = "#000000" stroke-width = "2" fill = "none" />	<path d = "M588 33 L588 26 L580 26 L580 33 L588 33 Z" stroke = "#000000" stroke-width = "2" fill = "none" /></svg>