<svg width="600" height="700" viewbox = "0 0 600 700"  xmlns="http://www.w3.org/2000/svg">
<!--<json>{
  "glyph": "0330,0330,0330,0330,0332,0336,0336,0332,0337,0337,0330,0330,0330,0332,0332,0332,0332,0332,0211,0211,0336,0336,0336,0332,0332,0332,0332,0332,0332,0332,0332,0330,0332,0337,0337,0337,0333,0333,0333,0336,0333,0337,01105,01126,01105,01116,01124,01123,",
  "x0": 300,
  "y0": 400,
  "unit": 45.45454545454545,
  "width": 600,
  "height": 700,
  "style": {
    "color0": "black",
    "fill0": "white",
    "line0": 1,
    "color1": "black",
    "fill1": "black",
    "line1": 5,
    "color2": "red",
    "fill2": "red",
    "line2": 1,
    "color3": "#FF7900",
    "fill3": "#FF7900",
    "line3": 1,
    "color4": "yellow",
    "fill4": "yellow",
    "line4": 1,
    "color5": "green",
    "fill5": "green",
    "line5": 1,
    "color6": "blue",
    "fill6": "blue",
    "line6": 1,
    "color7": "purple",
    "fill7": "purple",
    "line7": 1
  },
  "shapes": [
    "0220:0342,0336,0333,0342,0336,0332,0342,0333,0333,0342,0336,0333,0342,0332,0332,0342,0332,0332,0342,0332,0332,0342,0333,0333,0333,0333,0333,0333,0333,0337,0337,0337,",
    "0221:0316,0336,0313,0342,0336,0333,0342,0333,0342,0333,0342,0333,0342,0333,0337,0342,0336,0333,0342,0333,0342,0333,0342,0333,0342,0333,0342,0337,0316,0337,0313,",
    "0222:0362,0203,0335,0203,0203,0203,0203,0203,0203,0335,0203,0335,0203,0203,0203,0203,0203,0203,0354,0335,",
    "0223:0322,0221,0221,0221,0221,0221,0221,0334,0221,0334,0220,0220,0220,0220,0220,0220,0334,0220,0334,0320,",
    "0224:0222,0330,0222,0330,0222,0330,0222,0330,0222,0330,0222,0331,0331,0331,0331,0331,",
    "0225:0223,0330,0223,0330,0223,0330,0223,0330,0223,0330,0223,0331,0331,0331,0331,0331,",
    "0226:0220,0336,0331,0334,0336,0330,0337,0321,0336,0362,0203,0335,0203,0203,0203,0203,0203,0335,0203,0203,0203,0203,0335,0203,0203,0203,0203,0203,0335,0203,0364,0330,0334,0331,0337,0201,0335,0336,0350,0334,0331,0362,0203,0335,0335,0203,0364,0331,0335,0313,0304,0337,0330,0336,0330,0337,0337,0320,0331,0336,0331,0332,01015,0163,0141,0166,0145,0365,0330,0330,0330,0333,0337,",
    "0227:0304,0350,0335,0313,0304,0322,0336,0336,0336,0330,0332,0337,0337,0362,0203,0335,0336,0203,0335,0337,0203,0334,0203,0335,0336,0203,0335,0337,0203,0334,0203,0335,0336,0203,0335,0337,0203,0334,0203,0335,0336,0203,0335,0337,0203,0363,0320,0336,0334,0336,0333,0331,0337,0337,0337,0350,0334,0304,0220,0331,0336,0331,0332,0336,0332,0337,01015,0144,0145,0154,0145,0164,0145,0336,0333,0337,0330,0330,0330,0333,0337,",
    "0230:0313,0334,0336,0330,0335,0335,0305,0334,0337,0311,0337,0362,0203,0335,0335,0203,0335,0350,0335,0336,0203,0363,0313,0336,0331,0304,0335,0337,",
    "0231:0321,0342,0330,0320,0336,0230,0331,0331,0337,0350,0335,0304,",
    "0232:0231,0231,0231,0231,0231,0231,0231,0231,",
    "0233:0220,0336,0210,0232,",
    "0234:0220,0336,0335,0335,0331,0335,0331,0337,0321,0342,0332,0342,0336,0333,0337,0342,0330,0336,0336,0336,0330,0337,0366,0332,0332,0332,0367,0350,0335,0306,0350,0320,0335,0362,0203,0334,0334,0334,0334,0203,0334,0334,0334,0334,0203,0363,0335,0304,0350,0335,0304,0335,0335,0331,0331,0332,01015,0145,0154,0145,0155,0145,0156,0164,040,0144,0157,0167,0156,0365,0330,0330,0330,0330,0330,0333,0333,0333,0336,0332,0337,0333,0337,0337,",
    "0235:0220,0321,0336,0342,0335,0342,0335,0342,0335,0342,0335,0337,",
    "0236:0321,0220,0335,0336,0321,0342,0335,0335,0342,0335,0337,",
    "0237:0220,0336,0331,0332,0336,0321,0342,0335,0342,0335,0342,0335,0342,0335,0330,0330,0333,0333,0337,0337,",
    "01220:0333,0200,0336,0332,0330,0336,0332,0337,0220,0331,0336,0333,0337,0337,",
    "01221:0333,0200,0336,0330,0332,0336,0332,0337,0221,0336,0333,0337,0331,0337,",
    "01222:0333,0200,0336,0330,0332,0336,0332,0336,0332,0222,0332,0337,0337,0331,0337,0333,",
    "01223:0333,0200,0336,0332,0330,0336,0332,0336,0332,0223,0332,0337,0337,0331,0337,0333,0320,",
    "01224:0333,0200,0336,0332,0336,0330,0336,0332,0332,0331,0332,0224,",
    "01225:0333,0200,0336,0330,0332,0336,0331,0332,0336,0331,0332,0225,0331,0332,0320,0337,0337,0337,0333,",
    "01226:0333,0200,0336,0336,0330,0332,0337,0226,0336,0333,0331,0337,0337,",
    "01227:0333,0200,0336,0330,0332,0336,0332,0337,0227,0333,0336,0333,0337,0331,0337,",
    "01230:0333,0200,",
    "01231:0333,0200,",
    "01232:0333,0200,",
    "01233:0333,0200,",
    "01234:0333,0200,",
    "01235:0333,0200,",
    "01236:0333,0200,",
    "01237:0333,0200,",
    "0240:0220,0336,0331,0333,0336,0321,0335,0342,0335,0335,0342,0335,0330,0330,0332,0332,0337,0337,",
    "01240:0333,0200,0336,0330,0332,0210,0240,0211,0333,0331,0337,",
    "0241:0220,0336,0321,0343,0332,0350,0335,0336,0342,0334,0334,0342,0335,0304,0337,0333,0337,",
    "01241:0333,0200,0336,0332,0330,0210,0241,0211,0333,0331,0337,",
    "0242:0220,0321,0336,0343,0333,0336,0350,0335,0342,0334,0334,0342,0335,0337,0304,0332,0337,",
    "01242:0333,0200,0336,0330,0332,0210,0242,0211,0333,0331,0337,",
    "0243:0220,0336,0331,0332,0336,0321,0343,0332,0350,0334,0336,0342,0335,0335,0342,0337,0334,0334,0335,0304,0332,0330,0330,0337,0337,0333,",
    "01243:0333,0200,0336,0330,0332,0210,0243,0211,0333,0331,0337,",
    "0244:0220,0336,0331,0333,0336,0321,0343,0333,0350,0336,0335,0342,0334,0334,0342,0335,0337,0304,0333,0330,0330,0337,0337,0332,",
    "01244:0333,0200,0336,0330,0332,0210,0244,0211,0333,0331,0337,",
    "0245:0210,0332,0332,0362,0335,0203,0203,0203,0203,0334,0203,0363,0332,0332,0331,0211,",
    "01245:0333,0200,0336,0330,0332,0336,0245,0337,0333,0331,0337,",
    "0246:0210,0332,0332,0335,0306,0336,0330,0335,0335,0335,0321,0362,0203,0335,0335,0203,0364,0331,0350,0335,0337,0366,0333,0333,0333,0333,0334,0334,0334,0334,0367,0335,0336,0342,0334,0334,0342,0330,0330,0330,0330,0335,0335,0335,0304,0337,0211,",
    "01246:0333,0200,0336,0330,0332,0336,0246,",
    "0247:0330,0332,0336,0332,0336,0221,0333,0333,0333,0222,0333,0333,0333,0223,0333,0333,0333,0225,0333,0331,0331,0331,0332,0332,0332,0332,0332,0332,0332,0332,0332,0332,0332,0332,0333,0333,0226,0331,0331,0331,0333,0333,0333,0333,0333,0333,0333,0333,0333,0333,0333,0333,0333,0330,0333,0330,0330,0333,0330,0331,0332,0332,0332,0332,0332,0332,0332,0332,0332,0332,0332,0332,0227,0333,0333,0333,0230,0333,0331,0331,0331,0331,0332,0332,0332,0330,0332,0332,0332,0332,0332,0332,0333,0333,0231,0333,0333,0333,0232,0331,0333,0330,0333,0333,0233,0333,0333,0333,0234,0330,0330,0332,0330,0332,0332,0337,0337,",
    "01247:0333,0200,0336,0330,0332,0220,0336,0247,0337,0331,0333,0337,"
  ]
}</json>-->	<path d = "M168 78 L168 71 L161 71 L161 78 L168 78 Z" stroke = "#000000" stroke-width = "1" fill = "none" />	<path d = "M168 71 L168 63 L161 63 L161 71 L168 71 Z" stroke = "#000000" stroke-width = "1" fill = "none" />	<path d = "M168 63 L168 56 L161 56 L161 63 L168 63 Z" stroke = "#000000" stroke-width = "1" fill = "none" />	<path d = "M168 56 L168 48 L161 48 L161 56 L168 56 Z" stroke = "#000000" stroke-width = "1" fill = "none" />	<path d = "M168 48 L168 41 L161 41 L161 48 L168 48 Z" stroke = "#000000" stroke-width = "1" fill = "none" />	<path d = "M168 41 L168 33 L161 33 L161 41 L168 41 Z" stroke = "#000000" stroke-width = "1" fill = "none" />	<path d = "M168 33 L168 26 L161 26 L161 33 L168 33 Z" stroke = "#000000" stroke-width = "1" fill = "none" />	<path d = "M176 33 L176 26 L168 26 L168 33 L176 33 Z" stroke = "#000000" stroke-width = "1" fill = "none" />	<path d = "M183 33 L183 26 L176 26 L176 33 L183 33 Z" stroke = "#000000" stroke-width = "1" fill = "none" />	<path d = "M191 33 L191 26 L183 26 L183 33 L191 33 Z" stroke = "#000000" stroke-width = "1" fill = "none" />	<path d = "M198 33 L198 26 L191 26 L191 33 L198 33 Z" stroke = "#000000" stroke-width = "1" fill = "none" />	<path d = "M183 56 L183 48 L176 48 L176 56 L183 56 Z" stroke = "#000000" stroke-width = "1" fill = "none" />	<path d = "M176 56 L176 48 L168 48 L168 56 L176 56 Z" stroke = "#000000" stroke-width = "1" fill = "none" />	<path d = "M176 78 L176 71 L168 71 L168 78 L176 78 Z" stroke = "#000000" stroke-width = "1" fill = "none" />	<path d = "M183 78 L183 71 L176 71 L176 78 L183 78 Z" stroke = "#000000" stroke-width = "1" fill = "none" />	<path d = "M191 78 L191 71 L183 71 L183 78 L191 78 Z" stroke = "#000000" stroke-width = "1" fill = "none" />	<path d = "M198 78 L198 71 L191 71 L191 78 L198 78 Z" stroke = "#000000" stroke-width = "1" fill = "none" />	<path d = "M213 63 L213 56 L206 56 L206 63 L213 63 Z" stroke = "#000000" stroke-width = "1" fill = "none" />	<path d = "M213 56 L213 48 L206 48 L206 56 L213 56 Z" stroke = "#000000" stroke-width = "1" fill = "none" />	<path d = "M213 48 L213 41 L206 41 L206 48 L213 48 Z" stroke = "#000000" stroke-width = "1" fill = "none" />	<path d = "M213 41 L213 33 L206 33 L206 41 L213 41 Z" stroke = "#000000" stroke-width = "1" fill = "none" />	<path d = "M213 33 L213 26 L206 26 L206 33 L213 33 Z" stroke = "#000000" stroke-width = "1" fill = "none" />	<path d = "M220 71 L220 63 L213 63 L213 71 L220 71 Z" stroke = "#000000" stroke-width = "1" fill = "none" />	<path d = "M228 78 L228 71 L220 71 L220 78 L228 78 Z" stroke = "#000000" stroke-width = "1" fill = "none" />	<path d = "M235 71 L235 63 L228 63 L228 71 L235 71 Z" stroke = "#000000" stroke-width = "1" fill = "none" />	<path d = "M243 63 L243 56 L235 56 L235 63 L243 63 Z" stroke = "#000000" stroke-width = "1" fill = "none" />	<path d = "M243 56 L243 48 L235 48 L235 56 L243 56 Z" stroke = "#000000" stroke-width = "1" fill = "none" />	<path d = "M243 48 L243 41 L235 41 L235 48 L243 48 Z" stroke = "#000000" stroke-width = "1" fill = "none" />	<path d = "M243 41 L243 33 L235 33 L235 41 L243 41 Z" stroke = "#000000" stroke-width = "1" fill = "none" />	<path d = "M243 33 L243 26 L235 26 L235 33 L243 33 Z" stroke = "#000000" stroke-width = "1" fill = "none" />	<path d = "M258 78 L258 71 L250 71 L250 78 L258 78 Z" stroke = "#000000" stroke-width = "1" fill = "none" />	<path d = "M258 71 L258 63 L250 63 L250 71 L258 71 Z" stroke = "#000000" stroke-width = "1" fill = "none" />	<path d = "M258 63 L258 56 L250 56 L250 63 L258 63 Z" stroke = "#000000" stroke-width = "1" fill = "none" />	<path d = "M258 56 L258 48 L250 48 L250 56 L258 56 Z" stroke = "#000000" stroke-width = "1" fill = "none" />	<path d = "M258 48 L258 41 L250 41 L250 48 L258 48 Z" stroke = "#000000" stroke-width = "1" fill = "none" />	<path d = "M258 41 L258 33 L250 33 L250 41 L258 41 Z" stroke = "#000000" stroke-width = "1" fill = "none" />	<path d = "M258 33 L258 26 L250 26 L250 33 L258 33 Z" stroke = "#000000" stroke-width = "1" fill = "none" />	<path d = "M265 33 L265 26 L258 26 L258 33 L265 33 Z" stroke = "#000000" stroke-width = "1" fill = "none" />	<path d = "M273 33 L273 26 L265 26 L265 33 L273 33 Z" stroke = "#000000" stroke-width = "1" fill = "none" />	<path d = "M280 33 L280 26 L273 26 L273 33 L280 33 Z" stroke = "#000000" stroke-width = "1" fill = "none" />	<path d = "M287 33 L287 26 L280 26 L280 33 L287 33 Z" stroke = "#000000" stroke-width = "1" fill = "none" />	<path d = "M273 56 L273 48 L265 48 L265 56 L273 56 Z" stroke = "#000000" stroke-width = "1" fill = "none" />	<path d = "M265 56 L265 48 L258 48 L258 56 L265 56 Z" stroke = "#000000" stroke-width = "1" fill = "none" />	<path d = "M265 78 L265 71 L258 71 L258 78 L265 78 Z" stroke = "#000000" stroke-width = "1" fill = "none" />	<path d = "M273 78 L273 71 L265 71 L265 78 L273 78 Z" stroke = "#000000" stroke-width = "1" fill = "none" />	<path d = "M280 78 L280 71 L273 71 L273 78 L280 78 Z" stroke = "#000000" stroke-width = "1" fill = "none" />	<path d = "M287 78 L287 71 L280 71 L280 78 L287 78 Z" stroke = "#000000" stroke-width = "1" fill = "none" />	<path d = "M302 78 L302 71 L295 71 L295 78 L302 78 Z" stroke = "#000000" stroke-width = "1" fill = "none" />	<path d = "M302 71 L302 63 L295 63 L295 71 L302 71 Z" stroke = "#000000" stroke-width = "1" fill = "none" />	<path d = "M302 63 L302 56 L295 56 L295 63 L302 63 Z" stroke = "#000000" stroke-width = "1" fill = "none" />	<path d = "M302 56 L302 48 L295 48 L295 56 L302 56 Z" stroke = "#000000" stroke-width = "1" fill = "none" />	<path d = "M302 48 L302 41 L295 41 L295 48 L302 48 Z" stroke = "#000000" stroke-width = "1" fill = "none" />	<path d = "M302 41 L302 33 L295 33 L295 41 L302 41 Z" stroke = "#000000" stroke-width = "1" fill = "none" />	<path d = "M302 33 L302 26 L295 26 L295 33 L302 33 Z" stroke = "#000000" stroke-width = "1" fill = "none" />	<path d = "M310 48 L310 41 L302 41 L302 48 L310 48 Z" stroke = "#000000" stroke-width = "1" fill = "none" />	<path d = "M317 56 L317 48 L310 48 L310 56 L317 56 Z" stroke = "#000000" stroke-width = "1" fill = "none" />	<path d = "M325 63 L325 56 L317 56 L317 63 L325 63 Z" stroke = "#000000" stroke-width = "1" fill = "none" />	<path d = "M332 71 L332 63 L325 63 L325 71 L332 71 Z" stroke = "#000000" stroke-width = "1" fill = "none" />	<path d = "M332 78 L332 71 L325 71 L325 78 L332 78 Z" stroke = "#000000" stroke-width = "1" fill = "none" />	<path d = "M332 63 L332 56 L325 56 L325 63 L332 63 Z" stroke = "#000000" stroke-width = "1" fill = "none" />	<path d = "M332 56 L332 48 L325 48 L325 56 L332 56 Z" stroke = "#000000" stroke-width = "1" fill = "none" />	<path d = "M332 48 L332 41 L325 41 L325 48 L332 48 Z" stroke = "#000000" stroke-width = "1" fill = "none" />	<path d = "M332 41 L332 33 L325 33 L325 41 L332 41 Z" stroke = "#000000" stroke-width = "1" fill = "none" />	<path d = "M332 33 L332 26 L325 26 L325 33 L332 33 Z" stroke = "#000000" stroke-width = "1" fill = "none" />	<path d = "M347 33 L347 26 L339 26 L339 33 L347 33 Z" stroke = "#000000" stroke-width = "1" fill = "none" />	<path d = "M354 33 L354 26 L347 26 L347 33 L354 33 Z" stroke = "#000000" stroke-width = "1" fill = "none" />	<path d = "M362 33 L362 26 L354 26 L354 33 L362 33 Z" stroke = "#000000" stroke-width = "1" fill = "none" />	<path d = "M369 33 L369 26 L362 26 L362 33 L369 33 Z" stroke = "#000000" stroke-width = "1" fill = "none" />	<path d = "M377 33 L377 26 L369 26 L369 33 L377 33 Z" stroke = "#000000" stroke-width = "1" fill = "none" />	<path d = "M362 41 L362 33 L354 33 L354 41 L362 41 Z" stroke = "#000000" stroke-width = "1" fill = "none" />	<path d = "M362 48 L362 41 L354 41 L354 48 L362 48 Z" stroke = "#000000" stroke-width = "1" fill = "none" />	<path d = "M362 56 L362 48 L354 48 L354 56 L362 56 Z" stroke = "#000000" stroke-width = "1" fill = "none" />	<path d = "M362 63 L362 56 L354 56 L354 63 L362 63 Z" stroke = "#000000" stroke-width = "1" fill = "none" />	<path d = "M362 71 L362 63 L354 63 L354 71 L362 71 Z" stroke = "#000000" stroke-width = "1" fill = "none" />	<path d = "M362 78 L362 71 L354 71 L354 78 L362 78 Z" stroke = "#000000" stroke-width = "1" fill = "none" />	<path d = "M392 71 L392 63 L384 63 L384 71 L392 71 Z" stroke = "#000000" stroke-width = "1" fill = "none" />	<path d = "M399 78 L399 71 L392 71 L392 78 L399 78 Z" stroke = "#000000" stroke-width = "1" fill = "none" />	<path d = "M406 78 L406 71 L399 71 L399 78 L406 78 Z" stroke = "#000000" stroke-width = "1" fill = "none" />	<path d = "M414 78 L414 71 L406 71 L406 78 L414 78 Z" stroke = "#000000" stroke-width = "1" fill = "none" />	<path d = "M421 71 L421 63 L414 63 L414 71 L421 71 Z" stroke = "#000000" stroke-width = "1" fill = "none" />	<path d = "M421 63 L421 56 L414 56 L414 63 L421 63 Z" stroke = "#000000" stroke-width = "1" fill = "none" />	<path d = "M414 56 L414 48 L406 48 L406 56 L414 56 Z" stroke = "#000000" stroke-width = "1" fill = "none" />	<path d = "M406 56 L406 48 L399 48 L399 56 L406 56 Z" stroke = "#000000" stroke-width = "1" fill = "none" />	<path d = "M399 56 L399 48 L392 48 L392 56 L399 56 Z" stroke = "#000000" stroke-width = "1" fill = "none" />	<path d = "M392 48 L392 41 L384 41 L384 48 L392 48 Z" stroke = "#000000" stroke-width = "1" fill = "none" />	<path d = "M392 41 L392 33 L384 33 L384 41 L392 41 Z" stroke = "#000000" stroke-width = "1" fill = "none" />	<path d = "M399 33 L399 26 L392 26 L392 33 L399 33 Z" stroke = "#000000" stroke-width = "1" fill = "none" />	<path d = "M406 33 L406 26 L399 26 L399 33 L406 33 Z" stroke = "#000000" stroke-width = "1" fill = "none" />	<path d = "M414 33 L414 26 L406 26 L406 33 L414 33 Z" stroke = "#000000" stroke-width = "1" fill = "none" />	<path d = "M421 41 L421 33 L414 33 L414 41 L421 41 Z" stroke = "#000000" stroke-width = "1" fill = "none" /></svg>