<svg width="600" height="700" viewbox = "0 0 600 700"  xmlns="http://www.w3.org/2000/svg">
<!--<json>{
  "glyph": "0332,0336,0332,0337,0330,0330,0330,0330,0332,0336,0336,0337,0337,0330,0330,0330,0332,0332,0332,0332,0332,0211,0211,0336,0336,0336,0332,0332,0332,0332,0332,0332,0332,0332,0330,0332,0337,0337,0337,0333,0333,0333,0336,0333,0337,0332,0332,0336,0333,0337,0333,0333,0333,0333,01127,01105,01102,",
  "x0": 300,
  "y0": 693.2280499999999,
  "unit": 80.52550000000005,
  "width": 600,
  "height": 700,
  "style": {
    "color0": "black",
    "fill0": "white",
    "line0": 2,
    "color1": "black",
    "fill1": "black",
    "line1": 5,
    "color2": "red",
    "fill2": "red",
    "line2": 1,
    "color3": "#FF7900",
    "fill3": "#FF7900",
    "line3": 1,
    "color4": "yellow",
    "fill4": "yellow",
    "line4": 1,
    "color5": "green",
    "fill5": "green",
    "line5": 1,
    "color6": "blue",
    "fill6": "blue",
    "line6": 1,
    "color7": "purple",
    "fill7": "purple",
    "line7": 1
  },
  "shapes": [
    "0220:0342,0336,0333,0342,0336,0332,0342,0333,0333,0342,0336,0333,0342,0332,0332,0342,0332,0332,0342,0332,0332,0342,0333,0333,0333,0333,0333,0333,0333,0337,0337,0337,",
    "0221:0316,0336,0313,0342,0336,0333,0342,0333,0342,0333,0342,0333,0342,0333,0337,0342,0336,0333,0342,0333,0342,0333,0342,0333,0342,0333,0342,0337,0316,0337,0313,",
    "0222:0362,0203,0335,0203,0203,0203,0203,0203,0203,0335,0203,0335,0203,0203,0203,0203,0203,0203,0354,0335,",
    "0223:0322,0221,0221,0221,0221,0221,0221,0334,0221,0334,0220,0220,0220,0220,0220,0220,0334,0220,0334,0320,",
    "0224:0222,0330,0222,0330,0222,0330,0222,0330,0222,0330,0222,0331,0331,0331,0331,0331,",
    "0225:0223,0330,0223,0330,0223,0330,0223,0330,0223,0330,0223,0331,0331,0331,0331,0331,",
    "0226:0220,0336,0331,0334,0336,0330,0337,0321,0336,0362,0203,0335,0203,0203,0203,0203,0203,0335,0203,0203,0203,0203,0335,0203,0203,0203,0203,0203,0335,0203,0364,0330,0334,0331,0337,0201,0335,0336,0350,0334,0331,0362,0203,0335,0335,0203,0364,0331,0335,0313,0304,0337,0330,0336,0330,0337,0337,0320,0331,0336,0331,0332,01015,0163,0141,0166,0145,0365,0330,0330,0330,0333,0337,",
    "0227:0304,0350,0335,0313,0304,0322,0336,0336,0336,0330,0332,0337,0337,0362,0203,0335,0336,0203,0335,0337,0203,0334,0203,0335,0336,0203,0335,0337,0203,0334,0203,0335,0336,0203,0335,0337,0203,0334,0203,0335,0336,0203,0335,0337,0203,0363,0320,0336,0334,0336,0333,0331,0337,0337,0337,0350,0334,0304,0220,0331,0336,0331,0332,0336,0332,0337,01015,0144,0145,0154,0145,0164,0145,0336,0333,0337,0330,0330,0330,0333,0337,",
    "0230:0313,0334,0336,0330,0335,0335,0305,0334,0337,0311,0337,0362,0203,0335,0335,0203,0335,0350,0335,0336,0203,0363,0313,0336,0331,0304,0335,0337,",
    "0231:0321,0342,0330,0320,0336,0230,0331,0331,0337,0350,0335,0304,",
    "0232:0231,0231,0231,0231,0231,0231,0231,0231,",
    "0233:0220,0336,0210,0232,",
    "0234:0220,0336,0335,0335,0331,0335,0331,0337,0321,0342,0332,0342,0336,0333,0337,0342,0330,0336,0336,0336,0330,0337,0366,0332,0332,0332,0367,0350,0335,0306,0350,0320,0335,0362,0203,0334,0334,0334,0334,0203,0334,0334,0334,0334,0203,0363,0335,0304,0350,0335,0304,0335,0335,0331,0331,0332,01015,0145,0154,0145,0155,0145,0156,0164,040,0144,0157,0167,0156,0365,0330,0330,0330,0330,0330,0333,0333,0333,0336,0332,0337,0333,0337,0337,",
    "0235:0220,0321,0336,0342,0335,0342,0335,0342,0335,0342,0335,0337,",
    "0236:0321,0220,0335,0336,0321,0342,0335,0335,0342,0335,0337,",
    "0237:0220,0336,0331,0332,0336,0321,0342,0335,0342,0335,0342,0335,0342,0335,0330,0330,0333,0333,0337,0337,",
    "01220:0333,0200,0336,0332,0330,0336,0332,0337,0220,0331,0336,0333,0337,0337,",
    "01221:0333,0200,0336,0330,0332,0336,0332,0337,0221,0336,0333,0337,0331,0337,",
    "01222:0333,0200,0336,0330,0332,0336,0332,0336,0332,0222,0332,0337,0337,0331,0337,0333,",
    "01223:0333,0200,0336,0332,0330,0336,0332,0336,0332,0223,0332,0337,0337,0331,0337,0333,0320,",
    "01224:0333,0200,0336,0332,0336,0330,0336,0332,0332,0331,0332,0224,",
    "01225:0333,0200,0336,0330,0332,0336,0331,0332,0336,0331,0332,0225,0331,0332,0320,0337,0337,0337,0333,",
    "01226:0333,0200,0336,0336,0330,0332,0337,0226,0336,0333,0331,0337,0337,",
    "01227:0333,0200,0336,0330,0332,0336,0332,0337,0227,0333,0336,0333,0337,0331,0337,",
    "01230:0333,0200,",
    "01231:0333,0200,",
    "01232:0333,0200,",
    "01233:0333,0200,",
    "01234:0333,0200,",
    "01235:0333,0200,",
    "01236:0333,0200,",
    "01237:0333,0200,",
    "0240:0220,0336,0331,0333,0336,0321,0335,0342,0335,0335,0342,0335,0330,0330,0332,0332,0337,0337,",
    "01240:0333,0200,0336,0330,0332,0210,0240,0211,0333,0331,0337,",
    "0241:0220,0336,0321,0343,0332,0350,0335,0336,0342,0334,0334,0342,0335,0304,0337,0333,0337,",
    "01241:0333,0200,0336,0332,0330,0210,0241,0211,0333,0331,0337,",
    "0242:0220,0321,0336,0343,0333,0336,0350,0335,0342,0334,0334,0342,0335,0337,0304,0332,0337,",
    "01242:0333,0200,0336,0330,0332,0210,0242,0211,0333,0331,0337,",
    "0243:0220,0336,0331,0332,0336,0321,0343,0332,0350,0334,0336,0342,0335,0335,0342,0337,0334,0334,0335,0304,0332,0330,0330,0337,0337,0333,",
    "01243:0333,0200,0336,0330,0332,0210,0243,0211,0333,0331,0337,",
    "0244:0220,0336,0331,0333,0336,0321,0343,0333,0350,0336,0335,0342,0334,0334,0342,0335,0337,0304,0333,0330,0330,0337,0337,0332,",
    "01244:0333,0200,0336,0330,0332,0210,0244,0211,0333,0331,0337,",
    "0245:0210,0332,0332,0362,0335,0203,0203,0203,0203,0334,0203,0363,0332,0332,0331,0211,",
    "01245:0333,0200,0336,0330,0332,0336,0245,0337,0333,0331,0337,",
    "0246:0210,0332,0332,0335,0306,0336,0330,0335,0335,0335,0321,0362,0203,0335,0335,0203,0364,0331,0350,0335,0337,0366,0333,0333,0333,0333,0334,0334,0334,0334,0367,0335,0336,0342,0334,0334,0342,0330,0330,0330,0330,0335,0335,0335,0304,0337,0211,",
    "01246:0333,0200,0336,0330,0332,0336,0246,",
    "0247:0330,0332,0336,0332,0336,0221,0333,0333,0333,0222,0333,0333,0333,0223,0333,0333,0333,0225,0333,0331,0331,0331,0332,0332,0332,0332,0332,0332,0332,0332,0332,0332,0332,0332,0333,0333,0226,0331,0331,0331,0333,0333,0333,0333,0333,0333,0333,0333,0333,0333,0333,0333,0333,0330,0333,0330,0330,0333,0330,0331,0332,0332,0332,0332,0332,0332,0332,0332,0332,0332,0332,0332,0227,0333,0333,0333,0230,0333,0331,0331,0331,0331,0332,0332,0332,0330,0332,0332,0332,0332,0332,0332,0333,0333,0231,0333,0333,0333,0232,0331,0333,0330,0333,0333,0233,0333,0333,0333,0234,0330,0330,0332,0330,0332,0332,0337,0337,",
    "01247:0333,0200,0336,0330,0332,0220,0336,0247,0337,0331,0333,0337,"
  ]
}</json>-->	<path d = "M230 110 L230 97 L217 97 L217 110 L230 110 Z" stroke = "#000000" stroke-width = "2" fill = "none" />	<path d = "M230 97 L230 83 L217 83 L217 97 L230 97 Z" stroke = "#000000" stroke-width = "2" fill = "none" />	<path d = "M230 83 L230 70 L217 70 L217 83 L230 83 Z" stroke = "#000000" stroke-width = "2" fill = "none" />	<path d = "M230 70 L230 57 L217 57 L217 70 L230 70 Z" stroke = "#000000" stroke-width = "2" fill = "none" />	<path d = "M230 57 L230 44 L217 44 L217 57 L230 57 Z" stroke = "#000000" stroke-width = "2" fill = "none" />	<path d = "M230 44 L230 31 L217 31 L217 44 L230 44 Z" stroke = "#000000" stroke-width = "2" fill = "none" />	<path d = "M243 123 L243 110 L230 110 L230 123 L243 123 Z" stroke = "#000000" stroke-width = "2" fill = "none" />	<path d = "M256 110 L256 97 L243 97 L243 110 L256 110 Z" stroke = "#000000" stroke-width = "2" fill = "none" />	<path d = "M256 97 L256 83 L243 83 L243 97 L256 97 Z" stroke = "#000000" stroke-width = "2" fill = "none" />	<path d = "M256 83 L256 70 L243 70 L243 83 L256 83 Z" stroke = "#000000" stroke-width = "2" fill = "none" />	<path d = "M269 123 L269 110 L256 110 L256 123 L269 123 Z" stroke = "#000000" stroke-width = "2" fill = "none" />	<path d = "M282 110 L282 97 L269 97 L269 110 L282 110 Z" stroke = "#000000" stroke-width = "2" fill = "none" />	<path d = "M282 97 L282 83 L269 83 L269 97 L282 97 Z" stroke = "#000000" stroke-width = "2" fill = "none" />	<path d = "M282 83 L282 70 L269 70 L269 83 L282 83 Z" stroke = "#000000" stroke-width = "2" fill = "none" />	<path d = "M282 70 L282 57 L269 57 L269 70 L282 70 Z" stroke = "#000000" stroke-width = "2" fill = "none" />	<path d = "M282 57 L282 44 L269 44 L269 57 L282 57 Z" stroke = "#000000" stroke-width = "2" fill = "none" />	<path d = "M282 44 L282 31 L269 31 L269 44 L282 44 Z" stroke = "#000000" stroke-width = "2" fill = "none" />	<path d = "M309 123 L309 110 L296 110 L296 123 L309 123 Z" stroke = "#000000" stroke-width = "2" fill = "none" />	<path d = "M309 110 L309 97 L296 97 L296 110 L309 110 Z" stroke = "#000000" stroke-width = "2" fill = "none" />	<path d = "M309 97 L309 83 L296 83 L296 97 L309 97 Z" stroke = "#000000" stroke-width = "2" fill = "none" />	<path d = "M309 83 L309 70 L296 70 L296 83 L309 83 Z" stroke = "#000000" stroke-width = "2" fill = "none" />	<path d = "M309 70 L309 57 L296 57 L296 70 L309 70 Z" stroke = "#000000" stroke-width = "2" fill = "none" />	<path d = "M309 57 L309 44 L296 44 L296 57 L309 57 Z" stroke = "#000000" stroke-width = "2" fill = "none" />	<path d = "M309 44 L309 31 L296 31 L296 44 L309 44 Z" stroke = "#000000" stroke-width = "2" fill = "none" />	<path d = "M322 44 L322 31 L309 31 L309 44 L322 44 Z" stroke = "#000000" stroke-width = "2" fill = "none" />	<path d = "M335 44 L335 31 L322 31 L322 44 L335 44 Z" stroke = "#000000" stroke-width = "2" fill = "none" />	<path d = "M348 44 L348 31 L335 31 L335 44 L348 44 Z" stroke = "#000000" stroke-width = "2" fill = "none" />	<path d = "M361 44 L361 31 L348 31 L348 44 L361 44 Z" stroke = "#000000" stroke-width = "2" fill = "none" />	<path d = "M335 83 L335 70 L322 70 L322 83 L335 83 Z" stroke = "#000000" stroke-width = "2" fill = "none" />	<path d = "M322 83 L322 70 L309 70 L309 83 L322 83 Z" stroke = "#000000" stroke-width = "2" fill = "none" />	<path d = "M322 123 L322 110 L309 110 L309 123 L322 123 Z" stroke = "#000000" stroke-width = "2" fill = "none" />	<path d = "M335 123 L335 110 L322 110 L322 123 L335 123 Z" stroke = "#000000" stroke-width = "2" fill = "none" />	<path d = "M348 123 L348 110 L335 110 L335 123 L348 123 Z" stroke = "#000000" stroke-width = "2" fill = "none" />	<path d = "M361 123 L361 110 L348 110 L348 123 L361 123 Z" stroke = "#000000" stroke-width = "2" fill = "none" />	<path d = "M388 123 L388 110 L375 110 L375 123 L388 123 Z" stroke = "#000000" stroke-width = "2" fill = "none" />	<path d = "M388 110 L388 97 L375 97 L375 110 L388 110 Z" stroke = "#000000" stroke-width = "2" fill = "none" />	<path d = "M388 97 L388 83 L375 83 L375 97 L388 97 Z" stroke = "#000000" stroke-width = "2" fill = "none" />	<path d = "M388 83 L388 70 L375 70 L375 83 L388 83 Z" stroke = "#000000" stroke-width = "2" fill = "none" />	<path d = "M388 70 L388 57 L375 57 L375 70 L388 70 Z" stroke = "#000000" stroke-width = "2" fill = "none" />	<path d = "M388 57 L388 44 L375 44 L375 57 L388 57 Z" stroke = "#000000" stroke-width = "2" fill = "none" />	<path d = "M388 44 L388 31 L375 31 L375 44 L388 44 Z" stroke = "#000000" stroke-width = "2" fill = "none" />	<path d = "M401 44 L401 31 L388 31 L388 44 L401 44 Z" stroke = "#000000" stroke-width = "2" fill = "none" />	<path d = "M414 44 L414 31 L401 31 L401 44 L414 44 Z" stroke = "#000000" stroke-width = "2" fill = "none" />	<path d = "M427 44 L427 31 L414 31 L414 44 L427 44 Z" stroke = "#000000" stroke-width = "2" fill = "none" />	<path d = "M441 57 L441 44 L427 44 L427 57 L441 57 Z" stroke = "#000000" stroke-width = "2" fill = "none" />	<path d = "M441 70 L441 57 L427 57 L427 70 L441 70 Z" stroke = "#000000" stroke-width = "2" fill = "none" />	<path d = "M427 83 L427 70 L414 70 L414 83 L427 83 Z" stroke = "#000000" stroke-width = "2" fill = "none" />	<path d = "M414 83 L414 70 L401 70 L401 83 L414 83 Z" stroke = "#000000" stroke-width = "2" fill = "none" />	<path d = "M401 83 L401 70 L388 70 L388 83 L401 83 Z" stroke = "#000000" stroke-width = "2" fill = "none" />	<path d = "M441 97 L441 83 L427 83 L427 97 L441 97 Z" stroke = "#000000" stroke-width = "2" fill = "none" />	<path d = "M441 110 L441 97 L427 97 L427 110 L441 110 Z" stroke = "#000000" stroke-width = "2" fill = "none" />	<path d = "M427 123 L427 110 L414 110 L414 123 L427 123 Z" stroke = "#000000" stroke-width = "2" fill = "none" />	<path d = "M414 123 L414 110 L401 110 L401 123 L414 123 Z" stroke = "#000000" stroke-width = "2" fill = "none" />	<path d = "M401 123 L401 110 L388 110 L388 123 L401 123 Z" stroke = "#000000" stroke-width = "2" fill = "none" /></svg>