<svg width="600" height="700" viewbox = "0 0 600 700"  xmlns="http://www.w3.org/2000/svg">
<!--<json>{
  "glyph": "0332,0336,0332,0337,0330,0330,0330,0330,0332,0336,0336,0337,0337,0330,0330,0330,0332,0332,0332,0332,0332,0211,0211,0336,0336,0336,0332,0332,0332,0332,0332,0332,0332,0332,0330,0332,0337,0337,0337,0333,0333,0333,0336,0333,0337,0332,0332,0336,0333,0337,0333,01115,01101,01107,01111,01103,01040,01102,01117,01117,01113,",
  "x0": 300,
  "y0": 400,
  "unit": 45.45454545454545,
  "width": 600,
  "height": 700,
  "style": {
    "color0": "black",
    "fill0": "white",
    "line0": 2,
    "color1": "black",
    "fill1": "black",
    "line1": 5,
    "color2": "red",
    "fill2": "red",
    "line2": 1,
    "color3": "#FF7900",
    "fill3": "#FF7900",
    "line3": 1,
    "color4": "yellow",
    "fill4": "yellow",
    "line4": 1,
    "color5": "green",
    "fill5": "green",
    "line5": 1,
    "color6": "blue",
    "fill6": "blue",
    "line6": 1,
    "color7": "purple",
    "fill7": "purple",
    "line7": 1
  },
  "shapes": [
    "0220:0342,0336,0333,0342,0336,0332,0342,0333,0333,0342,0336,0333,0342,0332,0332,0342,0332,0332,0342,0332,0332,0342,0333,0333,0333,0333,0333,0333,0333,0337,0337,0337,",
    "0221:0316,0336,0313,0342,0336,0333,0342,0333,0342,0333,0342,0333,0342,0333,0337,0342,0336,0333,0342,0333,0342,0333,0342,0333,0342,0333,0342,0337,0316,0337,0313,",
    "0222:0362,0203,0335,0203,0203,0203,0203,0203,0203,0335,0203,0335,0203,0203,0203,0203,0203,0203,0354,0335,",
    "0223:0322,0221,0221,0221,0221,0221,0221,0334,0221,0334,0220,0220,0220,0220,0220,0220,0334,0220,0334,0320,",
    "0224:0222,0330,0222,0330,0222,0330,0222,0330,0222,0330,0222,0331,0331,0331,0331,0331,",
    "0225:0223,0330,0223,0330,0223,0330,0223,0330,0223,0330,0223,0331,0331,0331,0331,0331,",
    "0226:0220,0336,0331,0334,0336,0330,0337,0321,0336,0362,0203,0335,0203,0203,0203,0203,0203,0335,0203,0203,0203,0203,0335,0203,0203,0203,0203,0203,0335,0203,0364,0330,0334,0331,0337,0201,0335,0336,0350,0334,0331,0362,0203,0335,0335,0203,0364,0331,0335,0313,0304,0337,0330,0336,0330,0337,0337,0320,0331,0336,0331,0332,01015,0163,0141,0166,0145,0365,0330,0330,0330,0333,0337,",
    "0227:0304,0350,0335,0313,0304,0322,0336,0336,0336,0330,0332,0337,0337,0362,0203,0335,0336,0203,0335,0337,0203,0334,0203,0335,0336,0203,0335,0337,0203,0334,0203,0335,0336,0203,0335,0337,0203,0334,0203,0335,0336,0203,0335,0337,0203,0363,0320,0336,0334,0336,0333,0331,0337,0337,0337,0350,0334,0304,0220,0331,0336,0331,0332,0336,0332,0337,01015,0144,0145,0154,0145,0164,0145,0336,0333,0337,0330,0330,0330,0333,0337,",
    "0230:0313,0334,0336,0330,0335,0335,0305,0334,0337,0311,0337,0362,0203,0335,0335,0203,0335,0350,0335,0336,0203,0363,0313,0336,0331,0304,0335,0337,",
    "0231:0321,0342,0330,0320,0336,0230,0331,0331,0337,0350,0335,0304,",
    "0232:0231,0231,0231,0231,0231,0231,0231,0231,",
    "0233:0220,0336,0210,0232,",
    "0234:0220,0336,0335,0335,0331,0335,0331,0337,0321,0342,0332,0342,0336,0333,0337,0342,0330,0336,0336,0336,0330,0337,0366,0332,0332,0332,0367,0350,0335,0306,0350,0320,0335,0362,0203,0334,0334,0334,0334,0203,0334,0334,0334,0334,0203,0363,0335,0304,0350,0335,0304,0335,0335,0331,0331,0332,01015,0145,0154,0145,0155,0145,0156,0164,040,0144,0157,0167,0156,0365,0330,0330,0330,0330,0330,0333,0333,0333,0336,0332,0337,0333,0337,0337,",
    "0235:0220,0321,0336,0342,0335,0342,0335,0342,0335,0342,0335,0337,",
    "0236:0321,0220,0335,0336,0321,0342,0335,0335,0342,0335,0337,",
    "0237:0220,0336,0331,0332,0336,0321,0342,0335,0342,0335,0342,0335,0342,0335,0330,0330,0333,0333,0337,0337,",
    "01220:0333,0200,0336,0332,0330,0336,0332,0337,0220,0331,0336,0333,0337,0337,",
    "01221:0333,0200,0336,0330,0332,0336,0332,0337,0221,0336,0333,0337,0331,0337,",
    "01222:0333,0200,0336,0330,0332,0336,0332,0336,0332,0222,0332,0337,0337,0331,0337,0333,",
    "01223:0333,0200,0336,0332,0330,0336,0332,0336,0332,0223,0332,0337,0337,0331,0337,0333,0320,",
    "01224:0333,0200,0336,0332,0336,0330,0336,0332,0332,0331,0332,0224,",
    "01225:0333,0200,0336,0330,0332,0336,0331,0332,0336,0331,0332,0225,0331,0332,0320,0337,0337,0337,0333,",
    "01226:0333,0200,0336,0336,0330,0332,0337,0226,0336,0333,0331,0337,0337,",
    "01227:0333,0200,0336,0330,0332,0336,0332,0337,0227,0333,0336,0333,0337,0331,0337,",
    "01230:0333,0200,",
    "01231:0333,0200,",
    "01232:0333,0200,",
    "01233:0333,0200,",
    "01234:0333,0200,",
    "01235:0333,0200,",
    "01236:0333,0200,",
    "01237:0333,0200,",
    "0240:0220,0336,0331,0333,0336,0321,0335,0342,0335,0335,0342,0335,0330,0330,0332,0332,0337,0337,",
    "01240:0333,0200,0336,0330,0332,0210,0240,0211,0333,0331,0337,",
    "0241:0220,0336,0321,0343,0332,0350,0335,0336,0342,0334,0334,0342,0335,0304,0337,0333,0337,",
    "01241:0333,0200,0336,0332,0330,0210,0241,0211,0333,0331,0337,",
    "0242:0220,0321,0336,0343,0333,0336,0350,0335,0342,0334,0334,0342,0335,0337,0304,0332,0337,",
    "01242:0333,0200,0336,0330,0332,0210,0242,0211,0333,0331,0337,",
    "0243:0220,0336,0331,0332,0336,0321,0343,0332,0350,0334,0336,0342,0335,0335,0342,0337,0334,0334,0335,0304,0332,0330,0330,0337,0337,0333,",
    "01243:0333,0200,0336,0330,0332,0210,0243,0211,0333,0331,0337,",
    "0244:0220,0336,0331,0333,0336,0321,0343,0333,0350,0336,0335,0342,0334,0334,0342,0335,0337,0304,0333,0330,0330,0337,0337,0332,",
    "01244:0333,0200,0336,0330,0332,0210,0244,0211,0333,0331,0337,",
    "0245:0210,0332,0332,0362,0335,0203,0203,0203,0203,0334,0203,0363,0332,0332,0331,0211,",
    "01245:0333,0200,0336,0330,0332,0336,0245,0337,0333,0331,0337,",
    "0246:0210,0332,0332,0335,0306,0336,0330,0335,0335,0335,0321,0362,0203,0335,0335,0203,0364,0331,0350,0335,0337,0366,0333,0333,0333,0333,0334,0334,0334,0334,0367,0335,0336,0342,0334,0334,0342,0330,0330,0330,0330,0335,0335,0335,0304,0337,0211,",
    "01246:0333,0200,0336,0330,0332,0336,0246,",
    "0247:0330,0332,0336,0332,0336,0221,0333,0333,0333,0222,0333,0333,0333,0223,0333,0333,0333,0225,0333,0331,0331,0331,0332,0332,0332,0332,0332,0332,0332,0332,0332,0332,0332,0332,0333,0333,0226,0331,0331,0331,0333,0333,0333,0333,0333,0333,0333,0333,0333,0333,0333,0333,0333,0330,0333,0330,0330,0333,0330,0331,0332,0332,0332,0332,0332,0332,0332,0332,0332,0332,0332,0332,0227,0333,0333,0333,0230,0333,0331,0331,0331,0331,0332,0332,0332,0330,0332,0332,0332,0332,0332,0332,0333,0333,0231,0333,0333,0333,0232,0331,0333,0330,0333,0333,0233,0333,0333,0333,0234,0330,0330,0332,0330,0332,0332,0337,0337,",
    "01247:0333,0200,0336,0330,0332,0220,0336,0247,0337,0331,0333,0337,"
  ]
}</json>-->	<path d = "M82 78 L82 71 L74 71 L74 78 L82 78 Z" stroke = "#000000" stroke-width = "2" fill = "none" />	<path d = "M82 71 L82 63 L74 63 L74 71 L82 71 Z" stroke = "#000000" stroke-width = "2" fill = "none" />	<path d = "M82 63 L82 56 L74 56 L74 63 L82 63 Z" stroke = "#000000" stroke-width = "2" fill = "none" />	<path d = "M82 56 L82 48 L74 48 L74 56 L82 56 Z" stroke = "#000000" stroke-width = "2" fill = "none" />	<path d = "M82 48 L82 41 L74 41 L74 48 L82 48 Z" stroke = "#000000" stroke-width = "2" fill = "none" />	<path d = "M82 41 L82 33 L74 33 L74 41 L82 41 Z" stroke = "#000000" stroke-width = "2" fill = "none" />	<path d = "M82 33 L82 26 L74 26 L74 33 L82 33 Z" stroke = "#000000" stroke-width = "2" fill = "none" />	<path d = "M89 41 L89 33 L82 33 L82 41 L89 41 Z" stroke = "#000000" stroke-width = "2" fill = "none" />	<path d = "M97 48 L97 41 L89 41 L89 48 L97 48 Z" stroke = "#000000" stroke-width = "2" fill = "none" />	<path d = "M97 56 L97 48 L89 48 L89 56 L97 56 Z" stroke = "#000000" stroke-width = "2" fill = "none" />	<path d = "M104 41 L104 33 L97 33 L97 41 L104 41 Z" stroke = "#000000" stroke-width = "2" fill = "none" />	<path d = "M112 33 L112 26 L104 26 L104 33 L112 33 Z" stroke = "#000000" stroke-width = "2" fill = "none" />	<path d = "M112 41 L112 33 L104 33 L104 41 L112 41 Z" stroke = "#000000" stroke-width = "2" fill = "none" />	<path d = "M112 48 L112 41 L104 41 L104 48 L112 48 Z" stroke = "#000000" stroke-width = "2" fill = "none" />	<path d = "M112 56 L112 48 L104 48 L104 56 L112 56 Z" stroke = "#000000" stroke-width = "2" fill = "none" />	<path d = "M112 63 L112 56 L104 56 L104 63 L112 63 Z" stroke = "#000000" stroke-width = "2" fill = "none" />	<path d = "M112 71 L112 63 L104 63 L104 71 L112 71 Z" stroke = "#000000" stroke-width = "2" fill = "none" />	<path d = "M112 78 L112 71 L104 71 L104 78 L112 78 Z" stroke = "#000000" stroke-width = "2" fill = "none" />	<path d = "M126 78 L126 71 L119 71 L119 78 L126 78 Z" stroke = "#000000" stroke-width = "2" fill = "none" />	<path d = "M126 71 L126 63 L119 63 L119 71 L126 71 Z" stroke = "#000000" stroke-width = "2" fill = "none" />	<path d = "M126 63 L126 56 L119 56 L119 63 L126 63 Z" stroke = "#000000" stroke-width = "2" fill = "none" />	<path d = "M126 56 L126 48 L119 48 L119 56 L126 56 Z" stroke = "#000000" stroke-width = "2" fill = "none" />	<path d = "M126 48 L126 41 L119 41 L119 48 L126 48 Z" stroke = "#000000" stroke-width = "2" fill = "none" />	<path d = "M126 41 L126 33 L119 33 L119 41 L126 41 Z" stroke = "#000000" stroke-width = "2" fill = "none" />	<path d = "M134 33 L134 26 L126 26 L126 33 L134 33 Z" stroke = "#000000" stroke-width = "2" fill = "none" />	<path d = "M141 33 L141 26 L134 26 L134 33 L141 33 Z" stroke = "#000000" stroke-width = "2" fill = "none" />	<path d = "M149 33 L149 26 L141 26 L141 33 L149 33 Z" stroke = "#000000" stroke-width = "2" fill = "none" />	<path d = "M156 41 L156 33 L149 33 L149 41 L156 41 Z" stroke = "#000000" stroke-width = "2" fill = "none" />	<path d = "M156 48 L156 41 L149 41 L149 48 L156 48 Z" stroke = "#000000" stroke-width = "2" fill = "none" />	<path d = "M156 56 L156 48 L149 48 L149 56 L156 56 Z" stroke = "#000000" stroke-width = "2" fill = "none" />	<path d = "M156 63 L156 56 L149 56 L149 63 L156 63 Z" stroke = "#000000" stroke-width = "2" fill = "none" />	<path d = "M156 71 L156 63 L149 63 L149 71 L156 71 Z" stroke = "#000000" stroke-width = "2" fill = "none" />	<path d = "M156 78 L156 71 L149 71 L149 78 L156 78 Z" stroke = "#000000" stroke-width = "2" fill = "none" />	<path d = "M149 56 L149 48 L141 48 L141 56 L149 56 Z" stroke = "#000000" stroke-width = "2" fill = "none" />	<path d = "M141 56 L141 48 L134 48 L134 56 L141 56 Z" stroke = "#000000" stroke-width = "2" fill = "none" />	<path d = "M134 56 L134 48 L126 48 L126 56 L134 56 Z" stroke = "#000000" stroke-width = "2" fill = "none" />	<path d = "M171 71 L171 63 L164 63 L164 71 L171 71 Z" stroke = "#000000" stroke-width = "2" fill = "none" />	<path d = "M171 63 L171 56 L164 56 L164 63 L171 63 Z" stroke = "#000000" stroke-width = "2" fill = "none" />	<path d = "M171 56 L171 48 L164 48 L164 56 L171 56 Z" stroke = "#000000" stroke-width = "2" fill = "none" />	<path d = "M171 48 L171 41 L164 41 L164 48 L171 48 Z" stroke = "#000000" stroke-width = "2" fill = "none" />	<path d = "M171 41 L171 33 L164 33 L164 41 L171 41 Z" stroke = "#000000" stroke-width = "2" fill = "none" />	<path d = "M179 33 L179 26 L171 26 L171 33 L179 33 Z" stroke = "#000000" stroke-width = "2" fill = "none" />	<path d = "M186 33 L186 26 L179 26 L179 33 L186 33 Z" stroke = "#000000" stroke-width = "2" fill = "none" />	<path d = "M193 33 L193 26 L186 26 L186 33 L193 33 Z" stroke = "#000000" stroke-width = "2" fill = "none" />	<path d = "M201 41 L201 33 L193 33 L193 41 L201 41 Z" stroke = "#000000" stroke-width = "2" fill = "none" />	<path d = "M193 56 L193 48 L186 48 L186 56 L193 56 Z" stroke = "#000000" stroke-width = "2" fill = "none" />	<path d = "M186 56 L186 48 L179 48 L179 56 L186 56 Z" stroke = "#000000" stroke-width = "2" fill = "none" />	<path d = "M201 56 L201 48 L193 48 L193 56 L201 56 Z" stroke = "#000000" stroke-width = "2" fill = "none" />	<path d = "M201 63 L201 56 L193 56 L193 63 L201 63 Z" stroke = "#000000" stroke-width = "2" fill = "none" />	<path d = "M201 71 L201 63 L193 63 L193 71 L201 71 Z" stroke = "#000000" stroke-width = "2" fill = "none" />	<path d = "M201 78 L201 71 L193 71 L193 78 L201 78 Z" stroke = "#000000" stroke-width = "2" fill = "none" />	<path d = "M193 78 L193 71 L186 71 L186 78 L193 78 Z" stroke = "#000000" stroke-width = "2" fill = "none" />	<path d = "M186 78 L186 71 L179 71 L179 78 L186 78 Z" stroke = "#000000" stroke-width = "2" fill = "none" />	<path d = "M179 78 L179 71 L171 71 L171 78 L179 78 Z" stroke = "#000000" stroke-width = "2" fill = "none" />	<path d = "M223 78 L223 71 L216 71 L216 78 L223 78 Z" stroke = "#000000" stroke-width = "2" fill = "none" />	<path d = "M231 78 L231 71 L223 71 L223 78 L231 78 Z" stroke = "#000000" stroke-width = "2" fill = "none" />	<path d = "M238 78 L238 71 L231 71 L231 78 L238 78 Z" stroke = "#000000" stroke-width = "2" fill = "none" />	<path d = "M231 71 L231 63 L223 63 L223 71 L231 71 Z" stroke = "#000000" stroke-width = "2" fill = "none" />	<path d = "M231 63 L231 56 L223 56 L223 63 L231 63 Z" stroke = "#000000" stroke-width = "2" fill = "none" />	<path d = "M231 56 L231 48 L223 48 L223 56 L231 56 Z" stroke = "#000000" stroke-width = "2" fill = "none" />	<path d = "M231 48 L231 41 L223 41 L223 48 L231 48 Z" stroke = "#000000" stroke-width = "2" fill = "none" />	<path d = "M231 41 L231 33 L223 33 L223 41 L231 41 Z" stroke = "#000000" stroke-width = "2" fill = "none" />	<path d = "M231 33 L231 26 L223 26 L223 33 L231 33 Z" stroke = "#000000" stroke-width = "2" fill = "none" />	<path d = "M223 33 L223 26 L216 26 L216 33 L223 33 Z" stroke = "#000000" stroke-width = "2" fill = "none" />	<path d = "M238 33 L238 26 L231 26 L231 33 L238 33 Z" stroke = "#000000" stroke-width = "2" fill = "none" />	<path d = "M260 71 L260 63 L253 63 L253 71 L260 71 Z" stroke = "#000000" stroke-width = "2" fill = "none" />	<path d = "M260 63 L260 56 L253 56 L253 63 L260 63 Z" stroke = "#000000" stroke-width = "2" fill = "none" />	<path d = "M260 56 L260 48 L253 48 L253 56 L260 56 Z" stroke = "#000000" stroke-width = "2" fill = "none" />	<path d = "M260 48 L260 41 L253 41 L253 48 L260 48 Z" stroke = "#000000" stroke-width = "2" fill = "none" />	<path d = "M260 41 L260 33 L253 33 L253 41 L260 41 Z" stroke = "#000000" stroke-width = "2" fill = "none" />	<path d = "M268 33 L268 26 L260 26 L260 33 L268 33 Z" stroke = "#000000" stroke-width = "2" fill = "none" />	<path d = "M275 33 L275 26 L268 26 L268 33 L275 33 Z" stroke = "#000000" stroke-width = "2" fill = "none" />	<path d = "M283 33 L283 26 L275 26 L275 33 L283 33 Z" stroke = "#000000" stroke-width = "2" fill = "none" />	<path d = "M290 41 L290 33 L283 33 L283 41 L290 41 Z" stroke = "#000000" stroke-width = "2" fill = "none" />	<path d = "M290 71 L290 63 L283 63 L283 71 L290 71 Z" stroke = "#000000" stroke-width = "2" fill = "none" />	<path d = "M283 78 L283 71 L275 71 L275 78 L283 78 Z" stroke = "#000000" stroke-width = "2" fill = "none" />	<path d = "M275 78 L275 71 L268 71 L268 78 L275 78 Z" stroke = "#000000" stroke-width = "2" fill = "none" />	<path d = "M268 78 L268 71 L260 71 L260 78 L268 78 Z" stroke = "#000000" stroke-width = "2" fill = "none" />	<path d = "M350 78 L350 71 L342 71 L342 78 L350 78 Z" stroke = "#000000" stroke-width = "2" fill = "none" />	<path d = "M350 71 L350 63 L342 63 L342 71 L350 71 Z" stroke = "#000000" stroke-width = "2" fill = "none" />	<path d = "M350 63 L350 56 L342 56 L342 63 L350 63 Z" stroke = "#000000" stroke-width = "2" fill = "none" />	<path d = "M350 56 L350 48 L342 48 L342 56 L350 56 Z" stroke = "#000000" stroke-width = "2" fill = "none" />	<path d = "M350 48 L350 41 L342 41 L342 48 L350 48 Z" stroke = "#000000" stroke-width = "2" fill = "none" />	<path d = "M350 41 L350 33 L342 33 L342 41 L350 41 Z" stroke = "#000000" stroke-width = "2" fill = "none" />	<path d = "M350 33 L350 26 L342 26 L342 33 L350 33 Z" stroke = "#000000" stroke-width = "2" fill = "none" />	<path d = "M357 33 L357 26 L350 26 L350 33 L357 33 Z" stroke = "#000000" stroke-width = "2" fill = "none" />	<path d = "M364 33 L364 26 L357 26 L357 33 L364 33 Z" stroke = "#000000" stroke-width = "2" fill = "none" />	<path d = "M372 33 L372 26 L364 26 L364 33 L372 33 Z" stroke = "#000000" stroke-width = "2" fill = "none" />	<path d = "M379 41 L379 33 L372 33 L372 41 L379 41 Z" stroke = "#000000" stroke-width = "2" fill = "none" />	<path d = "M379 48 L379 41 L372 41 L372 48 L379 48 Z" stroke = "#000000" stroke-width = "2" fill = "none" />	<path d = "M372 56 L372 48 L364 48 L364 56 L372 56 Z" stroke = "#000000" stroke-width = "2" fill = "none" />	<path d = "M364 56 L364 48 L357 48 L357 56 L364 56 Z" stroke = "#000000" stroke-width = "2" fill = "none" />	<path d = "M357 56 L357 48 L350 48 L350 56 L357 56 Z" stroke = "#000000" stroke-width = "2" fill = "none" />	<path d = "M379 63 L379 56 L372 56 L372 63 L379 63 Z" stroke = "#000000" stroke-width = "2" fill = "none" />	<path d = "M379 71 L379 63 L372 63 L372 71 L379 71 Z" stroke = "#000000" stroke-width = "2" fill = "none" />	<path d = "M372 78 L372 71 L364 71 L364 78 L372 78 Z" stroke = "#000000" stroke-width = "2" fill = "none" />	<path d = "M364 78 L364 71 L357 71 L357 78 L364 78 Z" stroke = "#000000" stroke-width = "2" fill = "none" />	<path d = "M357 78 L357 71 L350 71 L350 78 L357 78 Z" stroke = "#000000" stroke-width = "2" fill = "none" />	<path d = "M394 71 L394 63 L387 63 L387 71 L394 71 Z" stroke = "#000000" stroke-width = "2" fill = "none" />	<path d = "M394 63 L394 56 L387 56 L387 63 L394 63 Z" stroke = "#000000" stroke-width = "2" fill = "none" />	<path d = "M394 56 L394 48 L387 48 L387 56 L394 56 Z" stroke = "#000000" stroke-width = "2" fill = "none" />	<path d = "M394 48 L394 41 L387 41 L387 48 L394 48 Z" stroke = "#000000" stroke-width = "2" fill = "none" />	<path d = "M394 41 L394 33 L387 33 L387 41 L394 41 Z" stroke = "#000000" stroke-width = "2" fill = "none" />	<path d = "M402 33 L402 26 L394 26 L394 33 L402 33 Z" stroke = "#000000" stroke-width = "2" fill = "none" />	<path d = "M409 33 L409 26 L402 26 L402 33 L409 33 Z" stroke = "#000000" stroke-width = "2" fill = "none" />	<path d = "M417 33 L417 26 L409 26 L409 33 L417 33 Z" stroke = "#000000" stroke-width = "2" fill = "none" />	<path d = "M424 41 L424 33 L417 33 L417 41 L424 41 Z" stroke = "#000000" stroke-width = "2" fill = "none" />	<path d = "M424 48 L424 41 L417 41 L417 48 L424 48 Z" stroke = "#000000" stroke-width = "2" fill = "none" />	<path d = "M424 56 L424 48 L417 48 L417 56 L424 56 Z" stroke = "#000000" stroke-width = "2" fill = "none" />	<path d = "M424 63 L424 56 L417 56 L417 63 L424 63 Z" stroke = "#000000" stroke-width = "2" fill = "none" />	<path d = "M424 71 L424 63 L417 63 L417 71 L424 71 Z" stroke = "#000000" stroke-width = "2" fill = "none" />	<path d = "M417 78 L417 71 L409 71 L409 78 L417 78 Z" stroke = "#000000" stroke-width = "2" fill = "none" />	<path d = "M409 78 L409 71 L402 71 L402 78 L409 78 Z" stroke = "#000000" stroke-width = "2" fill = "none" />	<path d = "M402 78 L402 71 L394 71 L394 78 L402 78 Z" stroke = "#000000" stroke-width = "2" fill = "none" />	<path d = "M439 71 L439 63 L431 63 L431 71 L439 71 Z" stroke = "#000000" stroke-width = "2" fill = "none" />	<path d = "M439 63 L439 56 L431 56 L431 63 L439 63 Z" stroke = "#000000" stroke-width = "2" fill = "none" />	<path d = "M439 56 L439 48 L431 48 L431 56 L439 56 Z" stroke = "#000000" stroke-width = "2" fill = "none" />	<path d = "M439 48 L439 41 L431 41 L431 48 L439 48 Z" stroke = "#000000" stroke-width = "2" fill = "none" />	<path d = "M439 41 L439 33 L431 33 L431 41 L439 41 Z" stroke = "#000000" stroke-width = "2" fill = "none" />	<path d = "M446 33 L446 26 L439 26 L439 33 L446 33 Z" stroke = "#000000" stroke-width = "2" fill = "none" />	<path d = "M454 33 L454 26 L446 26 L446 33 L454 33 Z" stroke = "#000000" stroke-width = "2" fill = "none" />	<path d = "M461 33 L461 26 L454 26 L454 33 L461 33 Z" stroke = "#000000" stroke-width = "2" fill = "none" />	<path d = "M469 41 L469 33 L461 33 L461 41 L469 41 Z" stroke = "#000000" stroke-width = "2" fill = "none" />	<path d = "M469 48 L469 41 L461 41 L461 48 L469 48 Z" stroke = "#000000" stroke-width = "2" fill = "none" />	<path d = "M469 56 L469 48 L461 48 L461 56 L469 56 Z" stroke = "#000000" stroke-width = "2" fill = "none" />	<path d = "M469 63 L469 56 L461 56 L461 63 L469 63 Z" stroke = "#000000" stroke-width = "2" fill = "none" />	<path d = "M469 71 L469 63 L461 63 L461 71 L469 71 Z" stroke = "#000000" stroke-width = "2" fill = "none" />	<path d = "M461 78 L461 71 L454 71 L454 78 L461 78 Z" stroke = "#000000" stroke-width = "2" fill = "none" />	<path d = "M454 78 L454 71 L446 71 L446 78 L454 78 Z" stroke = "#000000" stroke-width = "2" fill = "none" />	<path d = "M446 78 L446 71 L439 71 L439 78 L446 78 Z" stroke = "#000000" stroke-width = "2" fill = "none" />	<path d = "M483 78 L483 71 L476 71 L476 78 L483 78 Z" stroke = "#000000" stroke-width = "2" fill = "none" />	<path d = "M483 71 L483 63 L476 63 L476 71 L483 71 Z" stroke = "#000000" stroke-width = "2" fill = "none" />	<path d = "M483 63 L483 56 L476 56 L476 63 L483 63 Z" stroke = "#000000" stroke-width = "2" fill = "none" />	<path d = "M483 56 L483 48 L476 48 L476 56 L483 56 Z" stroke = "#000000" stroke-width = "2" fill = "none" />	<path d = "M483 48 L483 41 L476 41 L476 48 L483 48 Z" stroke = "#000000" stroke-width = "2" fill = "none" />	<path d = "M483 41 L483 33 L476 33 L476 41 L483 41 Z" stroke = "#000000" stroke-width = "2" fill = "none" />	<path d = "M483 33 L483 26 L476 26 L476 33 L483 33 Z" stroke = "#000000" stroke-width = "2" fill = "none" />	<path d = "M491 56 L491 48 L483 48 L483 56 L491 56 Z" stroke = "#000000" stroke-width = "2" fill = "none" />	<path d = "M498 48 L498 41 L491 41 L491 48 L498 48 Z" stroke = "#000000" stroke-width = "2" fill = "none" />	<path d = "M506 41 L506 33 L498 33 L498 41 L506 41 Z" stroke = "#000000" stroke-width = "2" fill = "none" />	<path d = "M513 33 L513 26 L506 26 L506 33 L513 33 Z" stroke = "#000000" stroke-width = "2" fill = "none" />	<path d = "M498 63 L498 56 L491 56 L491 63 L498 63 Z" stroke = "#000000" stroke-width = "2" fill = "none" />	<path d = "M506 71 L506 63 L498 63 L498 71 L506 71 Z" stroke = "#000000" stroke-width = "2" fill = "none" />	<path d = "M513 78 L513 71 L506 71 L506 78 L513 78 Z" stroke = "#000000" stroke-width = "2" fill = "none" /></svg>