<svg width="600" height="700" viewbox = "0 0 600 700"  xmlns="http://www.w3.org/2000/svg">
<!--<json>{
  "glyph": "0336,0333,0337,0330,0330,0330,0330,0332,0336,0336,0332,0337,0337,0330,0330,0330,0332,0332,0332,0332,0332,0211,0211,0336,0336,0336,0332,0332,0332,0332,0332,0332,0332,0332,0330,0332,0337,0337,0337,0333,0333,0333,0336,0333,0337,0332,0332,0336,0333,0337,01103,01117,01115,01115,01125,01116,01111,01124,01131,0331,0332,0332,0332,0332,0332,0332,0332,0332,0336,0331,0333,0337,01040,01122,01105,01123,01117,01125,01122,01103,01105,01123,",
  "x0": 300,
  "y0": 400,
  "unit": 45.45454545454545,
  "width": 600,
  "height": 700,
  "style": {
    "color0": "black",
    "fill0": "white",
    "line0": 2,
    "color1": "black",
    "fill1": "black",
    "line1": 5,
    "color2": "red",
    "fill2": "red",
    "line2": 1,
    "color3": "#FF7900",
    "fill3": "#FF7900",
    "line3": 1,
    "color4": "yellow",
    "fill4": "yellow",
    "line4": 1,
    "color5": "green",
    "fill5": "green",
    "line5": 1,
    "color6": "blue",
    "fill6": "blue",
    "line6": 1,
    "color7": "purple",
    "fill7": "purple",
    "line7": 1
  },
  "shapes": [
    "0220:0342,0336,0333,0342,0336,0332,0342,0333,0333,0342,0336,0333,0342,0332,0332,0342,0332,0332,0342,0332,0332,0342,0333,0333,0333,0333,0333,0333,0333,0337,0337,0337,",
    "0221:0316,0336,0313,0342,0336,0333,0342,0333,0342,0333,0342,0333,0342,0333,0337,0342,0336,0333,0342,0333,0342,0333,0342,0333,0342,0333,0342,0337,0316,0337,0313,",
    "0222:0362,0203,0335,0203,0203,0203,0203,0203,0203,0335,0203,0335,0203,0203,0203,0203,0203,0203,0354,0335,",
    "0223:0322,0221,0221,0221,0221,0221,0221,0334,0221,0334,0220,0220,0220,0220,0220,0220,0334,0220,0334,0320,",
    "0224:0222,0330,0222,0330,0222,0330,0222,0330,0222,0330,0222,0331,0331,0331,0331,0331,",
    "0225:0223,0330,0223,0330,0223,0330,0223,0330,0223,0330,0223,0331,0331,0331,0331,0331,",
    "0226:0220,0336,0331,0334,0336,0330,0337,0321,0336,0362,0203,0335,0203,0203,0203,0203,0203,0335,0203,0203,0203,0203,0335,0203,0203,0203,0203,0203,0335,0203,0364,0330,0334,0331,0337,0201,0335,0336,0350,0334,0331,0362,0203,0335,0335,0203,0364,0331,0335,0313,0304,0337,0330,0336,0330,0337,0337,0320,0331,0336,0331,0332,01015,0163,0141,0166,0145,0365,0330,0330,0330,0333,0337,",
    "0227:0304,0350,0335,0313,0304,0322,0336,0336,0336,0330,0332,0337,0337,0362,0203,0335,0336,0203,0335,0337,0203,0334,0203,0335,0336,0203,0335,0337,0203,0334,0203,0335,0336,0203,0335,0337,0203,0334,0203,0335,0336,0203,0335,0337,0203,0363,0320,0336,0334,0336,0333,0331,0337,0337,0337,0350,0334,0304,0220,0331,0336,0331,0332,0336,0332,0337,01015,0144,0145,0154,0145,0164,0145,0336,0333,0337,0330,0330,0330,0333,0337,",
    "0230:0313,0334,0336,0330,0335,0335,0305,0334,0337,0311,0337,0362,0203,0335,0335,0203,0335,0350,0335,0336,0203,0363,0313,0336,0331,0304,0335,0337,",
    "0231:0321,0342,0330,0320,0336,0230,0331,0331,0337,0350,0335,0304,",
    "0232:0231,0231,0231,0231,0231,0231,0231,0231,",
    "0233:0220,0336,0210,0232,",
    "0234:0220,0336,0335,0335,0331,0335,0331,0337,0321,0342,0332,0342,0336,0333,0337,0342,0330,0336,0336,0336,0330,0337,0366,0332,0332,0332,0367,0350,0335,0306,0350,0320,0335,0362,0203,0334,0334,0334,0334,0203,0334,0334,0334,0334,0203,0363,0335,0304,0350,0335,0304,0335,0335,0331,0331,0332,01015,0145,0154,0145,0155,0145,0156,0164,040,0144,0157,0167,0156,0365,0330,0330,0330,0330,0330,0333,0333,0333,0336,0332,0337,0333,0337,0337,",
    "0235:0220,0321,0336,0342,0335,0342,0335,0342,0335,0342,0335,0337,",
    "0236:0321,0220,0335,0336,0321,0342,0335,0335,0342,0335,0337,",
    "0237:0220,0336,0331,0332,0336,0321,0342,0335,0342,0335,0342,0335,0342,0335,0330,0330,0333,0333,0337,0337,",
    "01220:0333,0200,0336,0332,0330,0336,0332,0337,0220,0331,0336,0333,0337,0337,",
    "01221:0333,0200,0336,0330,0332,0336,0332,0337,0221,0336,0333,0337,0331,0337,",
    "01222:0333,0200,0336,0330,0332,0336,0332,0336,0332,0222,0332,0337,0337,0331,0337,0333,",
    "01223:0333,0200,0336,0332,0330,0336,0332,0336,0332,0223,0332,0337,0337,0331,0337,0333,0320,",
    "01224:0333,0200,0336,0332,0336,0330,0336,0332,0332,0331,0332,0224,",
    "01225:0333,0200,0336,0330,0332,0336,0331,0332,0336,0331,0332,0225,0331,0332,0320,0337,0337,0337,0333,",
    "01226:0333,0200,0336,0336,0330,0332,0337,0226,0336,0333,0331,0337,0337,",
    "01227:0333,0200,0336,0330,0332,0336,0332,0337,0227,0333,0336,0333,0337,0331,0337,",
    "01230:0333,0200,",
    "01231:0333,0200,",
    "01232:0333,0200,",
    "01233:0333,0200,",
    "01234:0333,0200,",
    "01235:0333,0200,",
    "01236:0333,0200,",
    "01237:0333,0200,",
    "0240:0220,0336,0331,0333,0336,0321,0335,0342,0335,0335,0342,0335,0330,0330,0332,0332,0337,0337,",
    "01240:0333,0200,0336,0330,0332,0210,0240,0211,0333,0331,0337,",
    "0241:0220,0336,0321,0343,0332,0350,0335,0336,0342,0334,0334,0342,0335,0304,0337,0333,0337,",
    "01241:0333,0200,0336,0332,0330,0210,0241,0211,0333,0331,0337,",
    "0242:0220,0321,0336,0343,0333,0336,0350,0335,0342,0334,0334,0342,0335,0337,0304,0332,0337,",
    "01242:0333,0200,0336,0330,0332,0210,0242,0211,0333,0331,0337,",
    "0243:0220,0336,0331,0332,0336,0321,0343,0332,0350,0334,0336,0342,0335,0335,0342,0337,0334,0334,0335,0304,0332,0330,0330,0337,0337,0333,",
    "01243:0333,0200,0336,0330,0332,0210,0243,0211,0333,0331,0337,",
    "0244:0220,0336,0331,0333,0336,0321,0343,0333,0350,0336,0335,0342,0334,0334,0342,0335,0337,0304,0333,0330,0330,0337,0337,0332,",
    "01244:0333,0200,0336,0330,0332,0210,0244,0211,0333,0331,0337,",
    "0245:0210,0332,0332,0362,0335,0203,0203,0203,0203,0334,0203,0363,0332,0332,0331,0211,",
    "01245:0333,0200,0336,0330,0332,0336,0245,0337,0333,0331,0337,",
    "0246:0210,0332,0332,0335,0306,0336,0330,0335,0335,0335,0321,0362,0203,0335,0335,0203,0364,0331,0350,0335,0337,0366,0333,0333,0333,0333,0334,0334,0334,0334,0367,0335,0336,0342,0334,0334,0342,0330,0330,0330,0330,0335,0335,0335,0304,0337,0211,",
    "01246:0333,0200,0336,0330,0332,0336,0246,",
    "0247:0330,0332,0336,0332,0336,0221,0333,0333,0333,0222,0333,0333,0333,0223,0333,0333,0333,0225,0333,0331,0331,0331,0332,0332,0332,0332,0332,0332,0332,0332,0332,0332,0332,0332,0333,0333,0226,0331,0331,0331,0333,0333,0333,0333,0333,0333,0333,0333,0333,0333,0333,0333,0333,0330,0333,0330,0330,0333,0330,0331,0332,0332,0332,0332,0332,0332,0332,0332,0332,0332,0332,0332,0227,0333,0333,0333,0230,0333,0331,0331,0331,0331,0332,0332,0332,0330,0332,0332,0332,0332,0332,0332,0333,0333,0231,0333,0333,0333,0232,0331,0333,0330,0333,0333,0233,0333,0333,0333,0234,0330,0330,0332,0330,0332,0332,0337,0337,",
    "01247:0333,0200,0336,0330,0332,0220,0336,0247,0337,0331,0333,0337,"
  ]
}</json>-->	<path d = "M102 71 L102 63 L94 63 L94 71 L102 71 Z" stroke = "#000000" stroke-width = "2" fill = "none" />	<path d = "M102 63 L102 56 L94 56 L94 63 L102 63 Z" stroke = "#000000" stroke-width = "2" fill = "none" />	<path d = "M102 56 L102 48 L94 48 L94 56 L102 56 Z" stroke = "#000000" stroke-width = "2" fill = "none" />	<path d = "M102 48 L102 41 L94 41 L94 48 L102 48 Z" stroke = "#000000" stroke-width = "2" fill = "none" />	<path d = "M102 41 L102 33 L94 33 L94 41 L102 41 Z" stroke = "#000000" stroke-width = "2" fill = "none" />	<path d = "M109 33 L109 26 L102 26 L102 33 L109 33 Z" stroke = "#000000" stroke-width = "2" fill = "none" />	<path d = "M117 33 L117 26 L109 26 L109 33 L117 33 Z" stroke = "#000000" stroke-width = "2" fill = "none" />	<path d = "M124 33 L124 26 L117 26 L117 33 L124 33 Z" stroke = "#000000" stroke-width = "2" fill = "none" />	<path d = "M132 41 L132 33 L124 33 L124 41 L132 41 Z" stroke = "#000000" stroke-width = "2" fill = "none" />	<path d = "M132 71 L132 63 L124 63 L124 71 L132 71 Z" stroke = "#000000" stroke-width = "2" fill = "none" />	<path d = "M124 78 L124 71 L117 71 L117 78 L124 78 Z" stroke = "#000000" stroke-width = "2" fill = "none" />	<path d = "M117 78 L117 71 L109 71 L109 78 L117 78 Z" stroke = "#000000" stroke-width = "2" fill = "none" />	<path d = "M109 78 L109 71 L102 71 L102 78 L109 78 Z" stroke = "#000000" stroke-width = "2" fill = "none" />	<path d = "M146 71 L146 63 L139 63 L139 71 L146 71 Z" stroke = "#000000" stroke-width = "2" fill = "none" />	<path d = "M146 63 L146 56 L139 56 L139 63 L146 63 Z" stroke = "#000000" stroke-width = "2" fill = "none" />	<path d = "M146 56 L146 48 L139 48 L139 56 L146 56 Z" stroke = "#000000" stroke-width = "2" fill = "none" />	<path d = "M146 48 L146 41 L139 41 L139 48 L146 48 Z" stroke = "#000000" stroke-width = "2" fill = "none" />	<path d = "M146 41 L146 33 L139 33 L139 41 L146 41 Z" stroke = "#000000" stroke-width = "2" fill = "none" />	<path d = "M154 33 L154 26 L146 26 L146 33 L154 33 Z" stroke = "#000000" stroke-width = "2" fill = "none" />	<path d = "M161 33 L161 26 L154 26 L154 33 L161 33 Z" stroke = "#000000" stroke-width = "2" fill = "none" />	<path d = "M169 33 L169 26 L161 26 L161 33 L169 33 Z" stroke = "#000000" stroke-width = "2" fill = "none" />	<path d = "M176 41 L176 33 L169 33 L169 41 L176 41 Z" stroke = "#000000" stroke-width = "2" fill = "none" />	<path d = "M176 48 L176 41 L169 41 L169 48 L176 48 Z" stroke = "#000000" stroke-width = "2" fill = "none" />	<path d = "M176 56 L176 48 L169 48 L169 56 L176 56 Z" stroke = "#000000" stroke-width = "2" fill = "none" />	<path d = "M176 63 L176 56 L169 56 L169 63 L176 63 Z" stroke = "#000000" stroke-width = "2" fill = "none" />	<path d = "M176 71 L176 63 L169 63 L169 71 L176 71 Z" stroke = "#000000" stroke-width = "2" fill = "none" />	<path d = "M169 78 L169 71 L161 71 L161 78 L169 78 Z" stroke = "#000000" stroke-width = "2" fill = "none" />	<path d = "M161 78 L161 71 L154 71 L154 78 L161 78 Z" stroke = "#000000" stroke-width = "2" fill = "none" />	<path d = "M154 78 L154 71 L146 71 L146 78 L154 78 Z" stroke = "#000000" stroke-width = "2" fill = "none" />	<path d = "M191 78 L191 71 L184 71 L184 78 L191 78 Z" stroke = "#000000" stroke-width = "2" fill = "none" />	<path d = "M191 71 L191 63 L184 63 L184 71 L191 71 Z" stroke = "#000000" stroke-width = "2" fill = "none" />	<path d = "M191 63 L191 56 L184 56 L184 63 L191 63 Z" stroke = "#000000" stroke-width = "2" fill = "none" />	<path d = "M191 56 L191 48 L184 48 L184 56 L191 56 Z" stroke = "#000000" stroke-width = "2" fill = "none" />	<path d = "M191 48 L191 41 L184 41 L184 48 L191 48 Z" stroke = "#000000" stroke-width = "2" fill = "none" />	<path d = "M191 41 L191 33 L184 33 L184 41 L191 41 Z" stroke = "#000000" stroke-width = "2" fill = "none" />	<path d = "M191 33 L191 26 L184 26 L184 33 L191 33 Z" stroke = "#000000" stroke-width = "2" fill = "none" />	<path d = "M199 41 L199 33 L191 33 L191 41 L199 41 Z" stroke = "#000000" stroke-width = "2" fill = "none" />	<path d = "M206 48 L206 41 L199 41 L199 48 L206 48 Z" stroke = "#000000" stroke-width = "2" fill = "none" />	<path d = "M206 56 L206 48 L199 48 L199 56 L206 56 Z" stroke = "#000000" stroke-width = "2" fill = "none" />	<path d = "M213 41 L213 33 L206 33 L206 41 L213 41 Z" stroke = "#000000" stroke-width = "2" fill = "none" />	<path d = "M221 33 L221 26 L213 26 L213 33 L221 33 Z" stroke = "#000000" stroke-width = "2" fill = "none" />	<path d = "M221 41 L221 33 L213 33 L213 41 L221 41 Z" stroke = "#000000" stroke-width = "2" fill = "none" />	<path d = "M221 48 L221 41 L213 41 L213 48 L221 48 Z" stroke = "#000000" stroke-width = "2" fill = "none" />	<path d = "M221 56 L221 48 L213 48 L213 56 L221 56 Z" stroke = "#000000" stroke-width = "2" fill = "none" />	<path d = "M221 63 L221 56 L213 56 L213 63 L221 63 Z" stroke = "#000000" stroke-width = "2" fill = "none" />	<path d = "M221 71 L221 63 L213 63 L213 71 L221 71 Z" stroke = "#000000" stroke-width = "2" fill = "none" />	<path d = "M221 78 L221 71 L213 71 L213 78 L221 78 Z" stroke = "#000000" stroke-width = "2" fill = "none" />	<path d = "M236 78 L236 71 L228 71 L228 78 L236 78 Z" stroke = "#000000" stroke-width = "2" fill = "none" />	<path d = "M236 71 L236 63 L228 63 L228 71 L236 71 Z" stroke = "#000000" stroke-width = "2" fill = "none" />	<path d = "M236 63 L236 56 L228 56 L228 63 L236 63 Z" stroke = "#000000" stroke-width = "2" fill = "none" />	<path d = "M236 56 L236 48 L228 48 L228 56 L236 56 Z" stroke = "#000000" stroke-width = "2" fill = "none" />	<path d = "M236 48 L236 41 L228 41 L228 48 L236 48 Z" stroke = "#000000" stroke-width = "2" fill = "none" />	<path d = "M236 41 L236 33 L228 33 L228 41 L236 41 Z" stroke = "#000000" stroke-width = "2" fill = "none" />	<path d = "M236 33 L236 26 L228 26 L228 33 L236 33 Z" stroke = "#000000" stroke-width = "2" fill = "none" />	<path d = "M243 41 L243 33 L236 33 L236 41 L243 41 Z" stroke = "#000000" stroke-width = "2" fill = "none" />	<path d = "M251 48 L251 41 L243 41 L243 48 L251 48 Z" stroke = "#000000" stroke-width = "2" fill = "none" />	<path d = "M251 56 L251 48 L243 48 L243 56 L251 56 Z" stroke = "#000000" stroke-width = "2" fill = "none" />	<path d = "M258 41 L258 33 L251 33 L251 41 L258 41 Z" stroke = "#000000" stroke-width = "2" fill = "none" />	<path d = "M265 33 L265 26 L258 26 L258 33 L265 33 Z" stroke = "#000000" stroke-width = "2" fill = "none" />	<path d = "M265 41 L265 33 L258 33 L258 41 L265 41 Z" stroke = "#000000" stroke-width = "2" fill = "none" />	<path d = "M265 48 L265 41 L258 41 L258 48 L265 48 Z" stroke = "#000000" stroke-width = "2" fill = "none" />	<path d = "M265 56 L265 48 L258 48 L258 56 L265 56 Z" stroke = "#000000" stroke-width = "2" fill = "none" />	<path d = "M265 63 L265 56 L258 56 L258 63 L265 63 Z" stroke = "#000000" stroke-width = "2" fill = "none" />	<path d = "M265 71 L265 63 L258 63 L258 71 L265 71 Z" stroke = "#000000" stroke-width = "2" fill = "none" />	<path d = "M265 78 L265 71 L258 71 L258 78 L265 78 Z" stroke = "#000000" stroke-width = "2" fill = "none" />	<path d = "M280 71 L280 63 L273 63 L273 71 L280 71 Z" stroke = "#000000" stroke-width = "2" fill = "none" />	<path d = "M280 63 L280 56 L273 56 L273 63 L280 63 Z" stroke = "#000000" stroke-width = "2" fill = "none" />	<path d = "M280 56 L280 48 L273 48 L273 56 L280 56 Z" stroke = "#000000" stroke-width = "2" fill = "none" />	<path d = "M280 48 L280 41 L273 41 L273 48 L280 48 Z" stroke = "#000000" stroke-width = "2" fill = "none" />	<path d = "M280 41 L280 33 L273 33 L273 41 L280 41 Z" stroke = "#000000" stroke-width = "2" fill = "none" />	<path d = "M280 33 L280 26 L273 26 L273 33 L280 33 Z" stroke = "#000000" stroke-width = "2" fill = "none" />	<path d = "M288 78 L288 71 L280 71 L280 78 L288 78 Z" stroke = "#000000" stroke-width = "2" fill = "none" />	<path d = "M295 78 L295 71 L288 71 L288 78 L295 78 Z" stroke = "#000000" stroke-width = "2" fill = "none" />	<path d = "M303 78 L303 71 L295 71 L295 78 L303 78 Z" stroke = "#000000" stroke-width = "2" fill = "none" />	<path d = "M310 71 L310 63 L303 63 L303 71 L310 71 Z" stroke = "#000000" stroke-width = "2" fill = "none" />	<path d = "M310 63 L310 56 L303 56 L303 63 L310 63 Z" stroke = "#000000" stroke-width = "2" fill = "none" />	<path d = "M310 56 L310 48 L303 48 L303 56 L310 56 Z" stroke = "#000000" stroke-width = "2" fill = "none" />	<path d = "M310 48 L310 41 L303 41 L303 48 L310 48 Z" stroke = "#000000" stroke-width = "2" fill = "none" />	<path d = "M310 41 L310 33 L303 33 L303 41 L310 41 Z" stroke = "#000000" stroke-width = "2" fill = "none" />	<path d = "M310 33 L310 26 L303 26 L303 33 L310 33 Z" stroke = "#000000" stroke-width = "2" fill = "none" />	<path d = "M325 78 L325 71 L318 71 L318 78 L325 78 Z" stroke = "#000000" stroke-width = "2" fill = "none" />	<path d = "M325 71 L325 63 L318 63 L318 71 L325 71 Z" stroke = "#000000" stroke-width = "2" fill = "none" />	<path d = "M325 63 L325 56 L318 56 L318 63 L325 63 Z" stroke = "#000000" stroke-width = "2" fill = "none" />	<path d = "M325 56 L325 48 L318 48 L318 56 L325 56 Z" stroke = "#000000" stroke-width = "2" fill = "none" />	<path d = "M325 48 L325 41 L318 41 L318 48 L325 48 Z" stroke = "#000000" stroke-width = "2" fill = "none" />	<path d = "M325 41 L325 33 L318 33 L318 41 L325 41 Z" stroke = "#000000" stroke-width = "2" fill = "none" />	<path d = "M325 33 L325 26 L318 26 L318 33 L325 33 Z" stroke = "#000000" stroke-width = "2" fill = "none" />	<path d = "M332 48 L332 41 L325 41 L325 48 L332 48 Z" stroke = "#000000" stroke-width = "2" fill = "none" />	<path d = "M340 56 L340 48 L332 48 L332 56 L340 56 Z" stroke = "#000000" stroke-width = "2" fill = "none" />	<path d = "M347 63 L347 56 L340 56 L340 63 L347 63 Z" stroke = "#000000" stroke-width = "2" fill = "none" />	<path d = "M355 71 L355 63 L347 63 L347 71 L355 71 Z" stroke = "#000000" stroke-width = "2" fill = "none" />	<path d = "M355 78 L355 71 L347 71 L347 78 L355 78 Z" stroke = "#000000" stroke-width = "2" fill = "none" />	<path d = "M355 63 L355 56 L347 56 L347 63 L355 63 Z" stroke = "#000000" stroke-width = "2" fill = "none" />	<path d = "M355 56 L355 48 L347 48 L347 56 L355 56 Z" stroke = "#000000" stroke-width = "2" fill = "none" />	<path d = "M355 48 L355 41 L347 41 L347 48 L355 48 Z" stroke = "#000000" stroke-width = "2" fill = "none" />	<path d = "M355 41 L355 33 L347 33 L347 41 L355 41 Z" stroke = "#000000" stroke-width = "2" fill = "none" />	<path d = "M355 33 L355 26 L347 26 L347 33 L355 33 Z" stroke = "#000000" stroke-width = "2" fill = "none" />	<path d = "M377 78 L377 71 L370 71 L370 78 L377 78 Z" stroke = "#000000" stroke-width = "2" fill = "none" />	<path d = "M384 78 L384 71 L377 71 L377 78 L384 78 Z" stroke = "#000000" stroke-width = "2" fill = "none" />	<path d = "M392 78 L392 71 L384 71 L384 78 L392 78 Z" stroke = "#000000" stroke-width = "2" fill = "none" />	<path d = "M384 71 L384 63 L377 63 L377 71 L384 71 Z" stroke = "#000000" stroke-width = "2" fill = "none" />	<path d = "M384 63 L384 56 L377 56 L377 63 L384 63 Z" stroke = "#000000" stroke-width = "2" fill = "none" />	<path d = "M384 56 L384 48 L377 48 L377 56 L384 56 Z" stroke = "#000000" stroke-width = "2" fill = "none" />	<path d = "M384 48 L384 41 L377 41 L377 48 L384 48 Z" stroke = "#000000" stroke-width = "2" fill = "none" />	<path d = "M384 41 L384 33 L377 33 L377 41 L384 41 Z" stroke = "#000000" stroke-width = "2" fill = "none" />	<path d = "M384 33 L384 26 L377 26 L377 33 L384 33 Z" stroke = "#000000" stroke-width = "2" fill = "none" />	<path d = "M377 33 L377 26 L370 26 L370 33 L377 33 Z" stroke = "#000000" stroke-width = "2" fill = "none" />	<path d = "M392 33 L392 26 L384 26 L384 33 L392 33 Z" stroke = "#000000" stroke-width = "2" fill = "none" />	<path d = "M414 33 L414 26 L407 26 L407 33 L414 33 Z" stroke = "#000000" stroke-width = "2" fill = "none" />	<path d = "M422 33 L422 26 L414 26 L414 33 L422 33 Z" stroke = "#000000" stroke-width = "2" fill = "none" />	<path d = "M429 33 L429 26 L422 26 L422 33 L429 33 Z" stroke = "#000000" stroke-width = "2" fill = "none" />	<path d = "M437 33 L437 26 L429 26 L429 33 L437 33 Z" stroke = "#000000" stroke-width = "2" fill = "none" />	<path d = "M444 33 L444 26 L437 26 L437 33 L444 33 Z" stroke = "#000000" stroke-width = "2" fill = "none" />	<path d = "M429 41 L429 33 L422 33 L422 41 L429 41 Z" stroke = "#000000" stroke-width = "2" fill = "none" />	<path d = "M429 48 L429 41 L422 41 L422 48 L429 48 Z" stroke = "#000000" stroke-width = "2" fill = "none" />	<path d = "M429 56 L429 48 L422 48 L422 56 L429 56 Z" stroke = "#000000" stroke-width = "2" fill = "none" />	<path d = "M429 63 L429 56 L422 56 L422 63 L429 63 Z" stroke = "#000000" stroke-width = "2" fill = "none" />	<path d = "M429 71 L429 63 L422 63 L422 71 L429 71 Z" stroke = "#000000" stroke-width = "2" fill = "none" />	<path d = "M429 78 L429 71 L422 71 L422 78 L429 78 Z" stroke = "#000000" stroke-width = "2" fill = "none" />	<path d = "M459 48 L459 41 L451 41 L451 48 L459 48 Z" stroke = "#000000" stroke-width = "2" fill = "none" />	<path d = "M459 41 L459 33 L451 33 L451 41 L459 41 Z" stroke = "#000000" stroke-width = "2" fill = "none" />	<path d = "M459 33 L459 26 L451 26 L451 33 L459 33 Z" stroke = "#000000" stroke-width = "2" fill = "none" />	<path d = "M466 56 L466 48 L459 48 L459 56 L466 56 Z" stroke = "#000000" stroke-width = "2" fill = "none" />	<path d = "M474 63 L474 56 L466 56 L466 63 L474 63 Z" stroke = "#000000" stroke-width = "2" fill = "none" />	<path d = "M474 71 L474 63 L466 63 L466 71 L474 71 Z" stroke = "#000000" stroke-width = "2" fill = "none" />	<path d = "M474 78 L474 71 L466 71 L466 78 L474 78 Z" stroke = "#000000" stroke-width = "2" fill = "none" />	<path d = "M481 56 L481 48 L474 48 L474 56 L481 56 Z" stroke = "#000000" stroke-width = "2" fill = "none" />	<path d = "M489 48 L489 41 L481 41 L481 48 L489 48 Z" stroke = "#000000" stroke-width = "2" fill = "none" />	<path d = "M489 41 L489 33 L481 33 L481 41 L489 41 Z" stroke = "#000000" stroke-width = "2" fill = "none" />	<path d = "M489 33 L489 26 L481 26 L481 33 L489 33 Z" stroke = "#000000" stroke-width = "2" fill = "none" />	<path d = "M102 167 L102 160 L94 160 L94 167 L102 167 Z" stroke = "#000000" stroke-width = "2" fill = "none" />	<path d = "M102 160 L102 152 L94 152 L94 160 L102 160 Z" stroke = "#000000" stroke-width = "2" fill = "none" />	<path d = "M102 152 L102 145 L94 145 L94 152 L102 152 Z" stroke = "#000000" stroke-width = "2" fill = "none" />	<path d = "M102 145 L102 138 L94 138 L94 145 L102 145 Z" stroke = "#000000" stroke-width = "2" fill = "none" />	<path d = "M102 138 L102 130 L94 130 L94 138 L102 138 Z" stroke = "#000000" stroke-width = "2" fill = "none" />	<path d = "M102 130 L102 123 L94 123 L94 130 L102 130 Z" stroke = "#000000" stroke-width = "2" fill = "none" />	<path d = "M102 123 L102 115 L94 115 L94 123 L102 123 Z" stroke = "#000000" stroke-width = "2" fill = "none" />	<path d = "M109 123 L109 115 L102 115 L102 123 L109 123 Z" stroke = "#000000" stroke-width = "2" fill = "none" />	<path d = "M117 123 L117 115 L109 115 L109 123 L117 123 Z" stroke = "#000000" stroke-width = "2" fill = "none" />	<path d = "M124 123 L124 115 L117 115 L117 123 L124 123 Z" stroke = "#000000" stroke-width = "2" fill = "none" />	<path d = "M132 130 L132 123 L124 123 L124 130 L132 130 Z" stroke = "#000000" stroke-width = "2" fill = "none" />	<path d = "M132 138 L132 130 L124 130 L124 138 L132 138 Z" stroke = "#000000" stroke-width = "2" fill = "none" />	<path d = "M124 145 L124 138 L117 138 L117 145 L124 145 Z" stroke = "#000000" stroke-width = "2" fill = "none" />	<path d = "M117 145 L117 138 L109 138 L109 145 L117 145 Z" stroke = "#000000" stroke-width = "2" fill = "none" />	<path d = "M109 145 L109 138 L102 138 L102 145 L109 145 Z" stroke = "#000000" stroke-width = "2" fill = "none" />	<path d = "M117 152 L117 145 L109 145 L109 152 L117 152 Z" stroke = "#000000" stroke-width = "2" fill = "none" />	<path d = "M124 160 L124 152 L117 152 L117 160 L124 160 Z" stroke = "#000000" stroke-width = "2" fill = "none" />	<path d = "M132 167 L132 160 L124 160 L124 167 L132 167 Z" stroke = "#000000" stroke-width = "2" fill = "none" />	<path d = "M146 167 L146 160 L139 160 L139 167 L146 167 Z" stroke = "#000000" stroke-width = "2" fill = "none" />	<path d = "M146 160 L146 152 L139 152 L139 160 L146 160 Z" stroke = "#000000" stroke-width = "2" fill = "none" />	<path d = "M146 152 L146 145 L139 145 L139 152 L146 152 Z" stroke = "#000000" stroke-width = "2" fill = "none" />	<path d = "M146 145 L146 138 L139 138 L139 145 L146 145 Z" stroke = "#000000" stroke-width = "2" fill = "none" />	<path d = "M146 138 L146 130 L139 130 L139 138 L146 138 Z" stroke = "#000000" stroke-width = "2" fill = "none" />	<path d = "M146 130 L146 123 L139 123 L139 130 L146 130 Z" stroke = "#000000" stroke-width = "2" fill = "none" />	<path d = "M146 123 L146 115 L139 115 L139 123 L146 123 Z" stroke = "#000000" stroke-width = "2" fill = "none" />	<path d = "M154 123 L154 115 L146 115 L146 123 L154 123 Z" stroke = "#000000" stroke-width = "2" fill = "none" />	<path d = "M161 123 L161 115 L154 115 L154 123 L161 123 Z" stroke = "#000000" stroke-width = "2" fill = "none" />	<path d = "M169 123 L169 115 L161 115 L161 123 L169 123 Z" stroke = "#000000" stroke-width = "2" fill = "none" />	<path d = "M176 123 L176 115 L169 115 L169 123 L176 123 Z" stroke = "#000000" stroke-width = "2" fill = "none" />	<path d = "M161 145 L161 138 L154 138 L154 145 L161 145 Z" stroke = "#000000" stroke-width = "2" fill = "none" />	<path d = "M154 145 L154 138 L146 138 L146 145 L154 145 Z" stroke = "#000000" stroke-width = "2" fill = "none" />	<path d = "M154 167 L154 160 L146 160 L146 167 L154 167 Z" stroke = "#000000" stroke-width = "2" fill = "none" />	<path d = "M161 167 L161 160 L154 160 L154 167 L161 167 Z" stroke = "#000000" stroke-width = "2" fill = "none" />	<path d = "M169 167 L169 160 L161 160 L161 167 L169 167 Z" stroke = "#000000" stroke-width = "2" fill = "none" />	<path d = "M176 167 L176 160 L169 160 L169 167 L176 167 Z" stroke = "#000000" stroke-width = "2" fill = "none" />	<path d = "M191 160 L191 152 L184 152 L184 160 L191 160 Z" stroke = "#000000" stroke-width = "2" fill = "none" />	<path d = "M199 167 L199 160 L191 160 L191 167 L199 167 Z" stroke = "#000000" stroke-width = "2" fill = "none" />	<path d = "M206 167 L206 160 L199 160 L199 167 L206 167 Z" stroke = "#000000" stroke-width = "2" fill = "none" />	<path d = "M213 167 L213 160 L206 160 L206 167 L213 167 Z" stroke = "#000000" stroke-width = "2" fill = "none" />	<path d = "M221 160 L221 152 L213 152 L213 160 L221 160 Z" stroke = "#000000" stroke-width = "2" fill = "none" />	<path d = "M221 152 L221 145 L213 145 L213 152 L221 152 Z" stroke = "#000000" stroke-width = "2" fill = "none" />	<path d = "M213 145 L213 138 L206 138 L206 145 L213 145 Z" stroke = "#000000" stroke-width = "2" fill = "none" />	<path d = "M206 145 L206 138 L199 138 L199 145 L206 145 Z" stroke = "#000000" stroke-width = "2" fill = "none" />	<path d = "M199 145 L199 138 L191 138 L191 145 L199 145 Z" stroke = "#000000" stroke-width = "2" fill = "none" />	<path d = "M191 138 L191 130 L184 130 L184 138 L191 138 Z" stroke = "#000000" stroke-width = "2" fill = "none" />	<path d = "M191 130 L191 123 L184 123 L184 130 L191 130 Z" stroke = "#000000" stroke-width = "2" fill = "none" />	<path d = "M199 123 L199 115 L191 115 L191 123 L199 123 Z" stroke = "#000000" stroke-width = "2" fill = "none" />	<path d = "M206 123 L206 115 L199 115 L199 123 L206 123 Z" stroke = "#000000" stroke-width = "2" fill = "none" />	<path d = "M213 123 L213 115 L206 115 L206 123 L213 123 Z" stroke = "#000000" stroke-width = "2" fill = "none" />	<path d = "M221 130 L221 123 L213 123 L213 130 L221 130 Z" stroke = "#000000" stroke-width = "2" fill = "none" />	<path d = "M236 160 L236 152 L228 152 L228 160 L236 160 Z" stroke = "#000000" stroke-width = "2" fill = "none" />	<path d = "M236 152 L236 145 L228 145 L228 152 L236 152 Z" stroke = "#000000" stroke-width = "2" fill = "none" />	<path d = "M236 145 L236 138 L228 138 L228 145 L236 145 Z" stroke = "#000000" stroke-width = "2" fill = "none" />	<path d = "M236 138 L236 130 L228 130 L228 138 L236 138 Z" stroke = "#000000" stroke-width = "2" fill = "none" />	<path d = "M236 130 L236 123 L228 123 L228 130 L236 130 Z" stroke = "#000000" stroke-width = "2" fill = "none" />	<path d = "M243 123 L243 115 L236 115 L236 123 L243 123 Z" stroke = "#000000" stroke-width = "2" fill = "none" />	<path d = "M251 123 L251 115 L243 115 L243 123 L251 123 Z" stroke = "#000000" stroke-width = "2" fill = "none" />	<path d = "M258 123 L258 115 L251 115 L251 123 L258 123 Z" stroke = "#000000" stroke-width = "2" fill = "none" />	<path d = "M265 130 L265 123 L258 123 L258 130 L265 130 Z" stroke = "#000000" stroke-width = "2" fill = "none" />	<path d = "M265 138 L265 130 L258 130 L258 138 L265 138 Z" stroke = "#000000" stroke-width = "2" fill = "none" />	<path d = "M265 145 L265 138 L258 138 L258 145 L265 145 Z" stroke = "#000000" stroke-width = "2" fill = "none" />	<path d = "M265 152 L265 145 L258 145 L258 152 L265 152 Z" stroke = "#000000" stroke-width = "2" fill = "none" />	<path d = "M265 160 L265 152 L258 152 L258 160 L265 160 Z" stroke = "#000000" stroke-width = "2" fill = "none" />	<path d = "M258 167 L258 160 L251 160 L251 167 L258 167 Z" stroke = "#000000" stroke-width = "2" fill = "none" />	<path d = "M251 167 L251 160 L243 160 L243 167 L251 167 Z" stroke = "#000000" stroke-width = "2" fill = "none" />	<path d = "M243 167 L243 160 L236 160 L236 167 L243 167 Z" stroke = "#000000" stroke-width = "2" fill = "none" />	<path d = "M280 160 L280 152 L273 152 L273 160 L280 160 Z" stroke = "#000000" stroke-width = "2" fill = "none" />	<path d = "M280 152 L280 145 L273 145 L273 152 L280 152 Z" stroke = "#000000" stroke-width = "2" fill = "none" />	<path d = "M280 145 L280 138 L273 138 L273 145 L280 145 Z" stroke = "#000000" stroke-width = "2" fill = "none" />	<path d = "M280 138 L280 130 L273 130 L273 138 L280 138 Z" stroke = "#000000" stroke-width = "2" fill = "none" />	<path d = "M280 130 L280 123 L273 123 L273 130 L280 130 Z" stroke = "#000000" stroke-width = "2" fill = "none" />	<path d = "M280 123 L280 115 L273 115 L273 123 L280 123 Z" stroke = "#000000" stroke-width = "2" fill = "none" />	<path d = "M288 167 L288 160 L280 160 L280 167 L288 167 Z" stroke = "#000000" stroke-width = "2" fill = "none" />	<path d = "M295 167 L295 160 L288 160 L288 167 L295 167 Z" stroke = "#000000" stroke-width = "2" fill = "none" />	<path d = "M303 167 L303 160 L295 160 L295 167 L303 167 Z" stroke = "#000000" stroke-width = "2" fill = "none" />	<path d = "M310 160 L310 152 L303 152 L303 160 L310 160 Z" stroke = "#000000" stroke-width = "2" fill = "none" />	<path d = "M310 152 L310 145 L303 145 L303 152 L310 152 Z" stroke = "#000000" stroke-width = "2" fill = "none" />	<path d = "M310 145 L310 138 L303 138 L303 145 L310 145 Z" stroke = "#000000" stroke-width = "2" fill = "none" />	<path d = "M310 138 L310 130 L303 130 L303 138 L310 138 Z" stroke = "#000000" stroke-width = "2" fill = "none" />	<path d = "M310 130 L310 123 L303 123 L303 130 L310 130 Z" stroke = "#000000" stroke-width = "2" fill = "none" />	<path d = "M310 123 L310 115 L303 115 L303 123 L310 123 Z" stroke = "#000000" stroke-width = "2" fill = "none" />	<path d = "M325 167 L325 160 L318 160 L318 167 L325 167 Z" stroke = "#000000" stroke-width = "2" fill = "none" />	<path d = "M325 160 L325 152 L318 152 L318 160 L325 160 Z" stroke = "#000000" stroke-width = "2" fill = "none" />	<path d = "M325 152 L325 145 L318 145 L318 152 L325 152 Z" stroke = "#000000" stroke-width = "2" fill = "none" />	<path d = "M325 145 L325 138 L318 138 L318 145 L325 145 Z" stroke = "#000000" stroke-width = "2" fill = "none" />	<path d = "M325 138 L325 130 L318 130 L318 138 L325 138 Z" stroke = "#000000" stroke-width = "2" fill = "none" />	<path d = "M325 130 L325 123 L318 123 L318 130 L325 130 Z" stroke = "#000000" stroke-width = "2" fill = "none" />	<path d = "M325 123 L325 115 L318 115 L318 123 L325 123 Z" stroke = "#000000" stroke-width = "2" fill = "none" />	<path d = "M332 123 L332 115 L325 115 L325 123 L332 123 Z" stroke = "#000000" stroke-width = "2" fill = "none" />	<path d = "M340 123 L340 115 L332 115 L332 123 L340 123 Z" stroke = "#000000" stroke-width = "2" fill = "none" />	<path d = "M347 123 L347 115 L340 115 L340 123 L347 123 Z" stroke = "#000000" stroke-width = "2" fill = "none" />	<path d = "M355 130 L355 123 L347 123 L347 130 L355 130 Z" stroke = "#000000" stroke-width = "2" fill = "none" />	<path d = "M355 138 L355 130 L347 130 L347 138 L355 138 Z" stroke = "#000000" stroke-width = "2" fill = "none" />	<path d = "M347 145 L347 138 L340 138 L340 145 L347 145 Z" stroke = "#000000" stroke-width = "2" fill = "none" />	<path d = "M340 145 L340 138 L332 138 L332 145 L340 145 Z" stroke = "#000000" stroke-width = "2" fill = "none" />	<path d = "M332 145 L332 138 L325 138 L325 145 L332 145 Z" stroke = "#000000" stroke-width = "2" fill = "none" />	<path d = "M340 152 L340 145 L332 145 L332 152 L340 152 Z" stroke = "#000000" stroke-width = "2" fill = "none" />	<path d = "M347 160 L347 152 L340 152 L340 160 L347 160 Z" stroke = "#000000" stroke-width = "2" fill = "none" />	<path d = "M355 167 L355 160 L347 160 L347 167 L355 167 Z" stroke = "#000000" stroke-width = "2" fill = "none" />	<path d = "M370 160 L370 152 L362 152 L362 160 L370 160 Z" stroke = "#000000" stroke-width = "2" fill = "none" />	<path d = "M370 152 L370 145 L362 145 L362 152 L370 152 Z" stroke = "#000000" stroke-width = "2" fill = "none" />	<path d = "M370 145 L370 138 L362 138 L362 145 L370 145 Z" stroke = "#000000" stroke-width = "2" fill = "none" />	<path d = "M370 138 L370 130 L362 130 L362 138 L370 138 Z" stroke = "#000000" stroke-width = "2" fill = "none" />	<path d = "M370 130 L370 123 L362 123 L362 130 L370 130 Z" stroke = "#000000" stroke-width = "2" fill = "none" />	<path d = "M377 123 L377 115 L370 115 L370 123 L377 123 Z" stroke = "#000000" stroke-width = "2" fill = "none" />	<path d = "M384 123 L384 115 L377 115 L377 123 L384 123 Z" stroke = "#000000" stroke-width = "2" fill = "none" />	<path d = "M392 123 L392 115 L384 115 L384 123 L392 123 Z" stroke = "#000000" stroke-width = "2" fill = "none" />	<path d = "M399 130 L399 123 L392 123 L392 130 L399 130 Z" stroke = "#000000" stroke-width = "2" fill = "none" />	<path d = "M399 160 L399 152 L392 152 L392 160 L399 160 Z" stroke = "#000000" stroke-width = "2" fill = "none" />	<path d = "M392 167 L392 160 L384 160 L384 167 L392 167 Z" stroke = "#000000" stroke-width = "2" fill = "none" />	<path d = "M384 167 L384 160 L377 160 L377 167 L384 167 Z" stroke = "#000000" stroke-width = "2" fill = "none" />	<path d = "M377 167 L377 160 L370 160 L370 167 L377 167 Z" stroke = "#000000" stroke-width = "2" fill = "none" />	<path d = "M414 167 L414 160 L407 160 L407 167 L414 167 Z" stroke = "#000000" stroke-width = "2" fill = "none" />	<path d = "M414 160 L414 152 L407 152 L407 160 L414 160 Z" stroke = "#000000" stroke-width = "2" fill = "none" />	<path d = "M414 152 L414 145 L407 145 L407 152 L414 152 Z" stroke = "#000000" stroke-width = "2" fill = "none" />	<path d = "M414 145 L414 138 L407 138 L407 145 L414 145 Z" stroke = "#000000" stroke-width = "2" fill = "none" />	<path d = "M414 138 L414 130 L407 130 L407 138 L414 138 Z" stroke = "#000000" stroke-width = "2" fill = "none" />	<path d = "M414 130 L414 123 L407 123 L407 130 L414 130 Z" stroke = "#000000" stroke-width = "2" fill = "none" />	<path d = "M414 123 L414 115 L407 115 L407 123 L414 123 Z" stroke = "#000000" stroke-width = "2" fill = "none" />	<path d = "M422 123 L422 115 L414 115 L414 123 L422 123 Z" stroke = "#000000" stroke-width = "2" fill = "none" />	<path d = "M429 123 L429 115 L422 115 L422 123 L429 123 Z" stroke = "#000000" stroke-width = "2" fill = "none" />	<path d = "M437 123 L437 115 L429 115 L429 123 L437 123 Z" stroke = "#000000" stroke-width = "2" fill = "none" />	<path d = "M444 123 L444 115 L437 115 L437 123 L444 123 Z" stroke = "#000000" stroke-width = "2" fill = "none" />	<path d = "M429 145 L429 138 L422 138 L422 145 L429 145 Z" stroke = "#000000" stroke-width = "2" fill = "none" />	<path d = "M422 145 L422 138 L414 138 L414 145 L422 145 Z" stroke = "#000000" stroke-width = "2" fill = "none" />	<path d = "M422 167 L422 160 L414 160 L414 167 L422 167 Z" stroke = "#000000" stroke-width = "2" fill = "none" />	<path d = "M429 167 L429 160 L422 160 L422 167 L429 167 Z" stroke = "#000000" stroke-width = "2" fill = "none" />	<path d = "M437 167 L437 160 L429 160 L429 167 L437 167 Z" stroke = "#000000" stroke-width = "2" fill = "none" />	<path d = "M444 167 L444 160 L437 160 L437 167 L444 167 Z" stroke = "#000000" stroke-width = "2" fill = "none" />	<path d = "M459 160 L459 152 L451 152 L451 160 L459 160 Z" stroke = "#000000" stroke-width = "2" fill = "none" />	<path d = "M466 167 L466 160 L459 160 L459 167 L466 167 Z" stroke = "#000000" stroke-width = "2" fill = "none" />	<path d = "M474 167 L474 160 L466 160 L466 167 L474 167 Z" stroke = "#000000" stroke-width = "2" fill = "none" />	<path d = "M481 167 L481 160 L474 160 L474 167 L481 167 Z" stroke = "#000000" stroke-width = "2" fill = "none" />	<path d = "M489 160 L489 152 L481 152 L481 160 L489 160 Z" stroke = "#000000" stroke-width = "2" fill = "none" />	<path d = "M489 152 L489 145 L481 145 L481 152 L489 152 Z" stroke = "#000000" stroke-width = "2" fill = "none" />	<path d = "M481 145 L481 138 L474 138 L474 145 L481 145 Z" stroke = "#000000" stroke-width = "2" fill = "none" />	<path d = "M474 145 L474 138 L466 138 L466 145 L474 145 Z" stroke = "#000000" stroke-width = "2" fill = "none" />	<path d = "M466 145 L466 138 L459 138 L459 145 L466 145 Z" stroke = "#000000" stroke-width = "2" fill = "none" />	<path d = "M459 138 L459 130 L451 130 L451 138 L459 138 Z" stroke = "#000000" stroke-width = "2" fill = "none" />	<path d = "M459 130 L459 123 L451 123 L451 130 L459 130 Z" stroke = "#000000" stroke-width = "2" fill = "none" />	<path d = "M466 123 L466 115 L459 115 L459 123 L466 123 Z" stroke = "#000000" stroke-width = "2" fill = "none" />	<path d = "M474 123 L474 115 L466 115 L466 123 L474 123 Z" stroke = "#000000" stroke-width = "2" fill = "none" />	<path d = "M481 123 L481 115 L474 115 L474 123 L481 123 Z" stroke = "#000000" stroke-width = "2" fill = "none" />	<path d = "M489 130 L489 123 L481 123 L481 130 L489 130 Z" stroke = "#000000" stroke-width = "2" fill = "none" /></svg>