<svg width="600" height="600" viewbox = "0 0 600 600"  xmlns="http://www.w3.org/2000/svg">
<!--<json>{
  "glyph": "0221,0336,0210,0221,0336,0210,0221,0336,0210,0221,",
  "x0": 300,
  "y0": 300,
  "unit": 146.41000000000008,
  "width": 600,
  "height": 600,
  "style": {
    "color0": "black",
    "fill0": "white",
    "line0": 3,
    "color1": "black",
    "fill1": "black",
    "line1": 5,
    "color2": "red",
    "fill2": "red",
    "line2": 3,
    "color3": "#FF7900",
    "fill3": "#FF7900",
    "line3": 1,
    "color4": "yellow",
    "fill4": "yellow",
    "line4": 1,
    "color5": "green",
    "fill5": "green",
    "line5": 1,
    "color6": "blue",
    "fill6": "blue",
    "line6": 1,
    "color7": "purple",
    "fill7": "purple",
    "line7": 1
  },
  "shapes": [
    "0220:0330,0336,0332,0336,0332,0362,0203,0335,0337,0203,0203,0203,0335,0336,0203,0335,0203,0203,0203,0203,0203,0203,0354,0335,0333,0333,0333,0330,0336,0332,0337,0362,0203,0335,0203,0335,0203,0354,0330,0336,0332,0337,0337,0337,0337,0201,0335,0335,0336,0336,0332,0337,0337,0342,0336,0336,0332,0335,0362,0203,0203,0203,0335,0336,0203,0335,0203,0203,0203,0203,0203,0203,0335,0203,0354,0335,0335,0330,0332,0332,0336,0332,0337,0362,0203,0334,0203,0334,0203,0354,0330,0336,0333,0337,0330,0330,0330,0330,0332,0337,0337,",
    "0221:0332,0336,0332,0337,0220,0333,0333,0333,0220,0336,0330,0332,0336,0333,0330,0334,0337,0337,0362,0203,0203,0336,0203,0364,0335,0335,0333,0333,0333,0362,0203,0203,0203,0203,0203,0364,0334,0330,0336,0330,0337,0332,0332,0336,0332,0337,0337,",
    "0222:0334,0336,0336,0362,0203,0335,0203,0203,0334,0203,0335,0350,0335,0310,0337,0203,0203,0335,0335,0203,0203,0335,0335,0335,0336,0203,0334,0334,0203,0203,0335,0335,0203,0354,0335,0335,0304,0313,0337,0337,",
    "0223:0336,0334,0336,0362,0203,0335,0203,0203,0203,0203,0203,0203,0334,0203,0335,0350,0310,0337,0335,0203,0203,0335,0335,0203,0203,0335,0335,0335,0336,0203,0313,0304,0334,0203,0203,0203,0203,0203,0203,0335,0203,0354,0335,0337,0337,",
    "0224:0334,0306,0362,0203,0335,0335,0203,0203,0335,0335,0203,0203,0335,0335,0203,0354,0335,0342,0335,0201,0334,0334,0201,0335,0331,0350,0335,0304,",
    "0225:0330,0334,0362,0203,0335,0336,0336,0203,0335,0337,0337,0203,0203,0335,0336,0336,0203,0335,0337,0337,0203,0354,0335,0336,0336,0330,0332,0362,0203,0335,0203,0203,0335,0203,0354,0335,0335,0331,0333,0333,0335,0335,0337,0337,0337,0362,0203,0335,0336,0203,0336,0203,0335,0337,0337,0203,0364,0336,0336,0331,0336,0330,0333,0335,0337,0335,0337,0362,0203,0336,0203,0335,0335,0364,0333,0362,0203,0203,0203,0354,0335,0335,0332,0362,0203,0203,0203,0354,0335,0335,0330,0332,0336,0330,0337,0337,",
    "0226:0341,0311,0336,0341,0337,0330,0335,0335,0336,0336,0313,0335,0335,0336,0331,0337,0306,0362,0203,0335,0335,0203,0203,0335,0335,0203,0203,0335,0335,0203,0363,0313,0336,0331,0337,0330,0335,0335,0335,0311,0337,0337,0330,0330,0335,0335,0335,0336,0336,0313,0336,0330,0337,0362,0203,0334,0334,0203,0203,0334,0334,0203,0203,0334,0334,0203,0363,0336,0331,0337,0311,0337,0337,0330,0304,",
    "0227:0304,0350,0335,0304,0330,0336,0336,0330,0337,0337,0222,0331,0336,0336,0331,0337,0337,",
    "0230:0341,0227,0227,0227,0227,0227,0227,0227,0227,",
    "0231:0304,0350,0335,0304,0330,0330,0330,0336,0330,0337,0341,0336,0331,0337,0331,0331,0331,",
    "0232:0230,0231,0231,0231,0231,0231,0231,0231,0231,",
    "01220:0333,0200,0336,0330,0332,0336,0220,0333,0333,0331,0331,0337,0337,",
    "01221:0333,0200,0336,0330,0332,0336,0336,0221,0337,0337,0331,0333,0337,",
    "01222:0333,0200,0336,0330,0332,0336,0222,0333,0333,0331,0331,0337,0337,",
    "01223:0333,0200,0336,0330,0332,0336,0331,0336,0337,0223,0331,0333,0333,0337,0337,",
    "01224:0333,0200,0336,0330,0332,0336,0331,0337,0210,0210,0224,0211,0211,0333,0336,0331,0337,0337,",
    "01225:0333,0200,0336,0330,0332,0210,0210,0210,0210,0225,0211,0211,0211,0211,0333,0331,0337,",
    "01226:0333,0200,0336,0330,0332,0210,0226,0211,0333,0331,0337,",
    "01227:0333,0200,0336,0330,0332,0336,0227,0227,0227,0227,0227,0227,0227,0227,0331,0331,0333,0333,0337,0337,",
    "01230:0333,0200,0336,0330,0332,0336,0230,0331,0331,0333,0333,0337,0337,",
    "01231:0333,0200,0336,0330,0332,0336,0336,0231,0231,0231,0231,0231,0231,0231,0231,0331,0331,0331,0331,0333,0333,0333,0333,0337,0337,0337,",
    "01232:0333,0200,0336,0330,0332,0336,0336,0336,0232,0337,0337,0337,0331,0333,0337,",
    "01233:0333,0200,0336,0330,0332,0210,0233,0211,0333,0331,0337,",
    "01234:0333,0200,0336,0330,0332,0210,0234,0211,0333,0331,0337,",
    "01235:0333,0200,0336,0330,0332,0210,0235,0211,0333,0331,0337,",
    "01236:0333,0200,0336,0330,0332,0210,0236,0211,0333,0331,0337,",
    "01237:0333,0200,0336,0330,0332,0210,0237,0211,0333,0331,0337,",
    "0240:0220,0336,0331,0333,0336,0321,0335,0342,0335,0335,0342,0335,0330,0330,0332,0332,0337,0337,",
    "01240:0333,0200,0336,0330,0332,0210,0240,0211,0333,0331,0337,",
    "0241:0220,0336,0321,0343,0332,0350,0335,0336,0342,0334,0334,0342,0335,0304,0337,0333,0337,",
    "01241:0333,0200,0336,0332,0330,0210,0241,0211,0333,0331,0337,",
    "0242:0220,0321,0336,0343,0333,0336,0350,0335,0342,0334,0334,0342,0335,0337,0304,0332,0337,",
    "01242:0333,0200,0336,0330,0332,0210,0242,0211,0333,0331,0337,",
    "0243:0220,0336,0331,0332,0336,0321,0343,0332,0350,0334,0336,0342,0335,0335,0342,0337,0334,0334,0335,0304,0332,0330,0330,0337,0337,0333,",
    "01243:0333,0200,0336,0330,0332,0210,0243,0211,0333,0331,0337,",
    "0244:0220,0336,0331,0333,0336,0321,0343,0333,0350,0336,0335,0342,0334,0334,0342,0335,0337,0304,0333,0330,0330,0337,0337,0332,",
    "01244:0333,0200,0336,0330,0332,0210,0244,0211,0333,0331,0337,",
    "0245:0210,0332,0332,0362,0335,0203,0203,0203,0203,0334,0203,0363,0332,0332,0331,0211,",
    "01245:0333,0200,0336,0330,0332,0336,0245,0337,0333,0331,0337,",
    "0246:0210,0332,0332,0335,0306,0336,0330,0335,0335,0335,0321,0362,0203,0335,0335,0203,0364,0331,0350,0335,0337,0366,0333,0333,0333,0333,0334,0334,0334,0334,0367,0335,0336,0342,0334,0334,0342,0330,0330,0330,0330,0335,0335,0335,0304,0337,0211,",
    "01246:0333,0200,0336,0330,0332,0336,0246,",
    "0247:0330,0332,0336,0332,0336,0221,0333,0333,0333,0222,0333,0333,0333,0223,0333,0333,0333,0225,0333,0331,0331,0331,0332,0332,0332,0332,0332,0332,0332,0332,0332,0332,0332,0332,0333,0333,0226,0331,0331,0331,0333,0333,0333,0333,0333,0333,0333,0333,0333,0333,0333,0333,0333,0330,0333,0330,0330,0333,0330,0331,0332,0332,0332,0332,0332,0332,0332,0332,0332,0332,0332,0332,0227,0333,0333,0333,0230,0333,0331,0331,0331,0331,0332,0332,0332,0330,0332,0332,0332,0332,0332,0332,0333,0333,0231,0333,0333,0333,0232,0331,0333,0330,0333,0333,0233,0333,0333,0333,0234,0330,0330,0332,0330,0332,0332,0337,0337,",
    "01247:0333,0200,0336,0330,0332,0220,0336,0247,0337,0331,0333,0337,"
  ]
}</json>-->	<path d = "M-29 154 L-29 117 L44 117 L117 117 L190 117 L190 154 L154 154 L117 154 L80 154 L44 154 L7 154 L-29 154 Z" stroke = "#000000" stroke-width = "3" fill = "none" />	<path d = "M62 117 L62 80 L99 80 L99 117 Z" stroke = "#000000" stroke-width = "3" fill = "none" />    <line x1="117" y1="154" x2="117" y2="446" style="stroke:#000000;stroke-width:3" />
    <line x1="44" y1="446" x2="44" y2="154" style="stroke:#000000;stroke-width:3" />
	<path d = "M-29 446 L44 446 L117 446 L190 446 L190 483 L154 483 L117 483 L80 483 L44 483 L7 483 L-29 483 L-29 446 Z" stroke = "#000000" stroke-width = "3" fill = "none" />	<path d = "M62 483 L62 520 L99 520 L99 483 Z" stroke = "#000000" stroke-width = "3" fill = "none" />	<path d = "M410 154 L410 117 L483 117 L556 117 L629 117 L629 154 L593 154 L556 154 L520 154 L483 154 L446 154 L410 154 Z" stroke = "#000000" stroke-width = "3" fill = "none" />	<path d = "M501 117 L501 80 L538 80 L538 117 Z" stroke = "#000000" stroke-width = "3" fill = "none" />    <line x1="556" y1="154" x2="556" y2="446" style="stroke:#000000;stroke-width:3" />
    <line x1="483" y1="446" x2="483" y2="154" style="stroke:#000000;stroke-width:3" />
	<path d = "M410 446 L483 446 L556 446 L629 446 L629 483 L593 483 L556 483 L520 483 L483 483 L446 483 L410 483 L410 446 Z" stroke = "#000000" stroke-width = "3" fill = "none" />	<path d = "M501 483 L501 520 L538 520 L538 483 Z" stroke = "#000000" stroke-width = "3" fill = "none" />	<path d = "M483 190 L337 190 L190 190 L117 190 " stroke = "#000000" stroke-width = "3" fill = "none" />	<path d = "M117 410 L190 410 L263 410 L337 410 L410 410 L483 410 " stroke = "#000000" stroke-width = "3" fill = "none" />	<path d = "M156 236 L156 220 L188 220 L220 220 L252 220 L252 236 L236 236 L220 236 L204 236 L188 236 L172 236 L156 236 Z" stroke = "#000000" stroke-width = "3" fill = "none" />	<path d = "M196 220 L196 204 L212 204 L212 220 Z" stroke = "#000000" stroke-width = "3" fill = "none" />    <line x1="220" y1="236" x2="220" y2="364" style="stroke:#000000;stroke-width:3" />
    <line x1="188" y1="364" x2="188" y2="236" style="stroke:#000000;stroke-width:3" />
	<path d = "M156 364 L188 364 L220 364 L252 364 L252 380 L236 380 L220 380 L204 380 L188 380 L172 380 L156 380 L156 364 Z" stroke = "#000000" stroke-width = "3" fill = "none" />	<path d = "M196 380 L196 396 L212 396 L212 380 Z" stroke = "#000000" stroke-width = "3" fill = "none" />	<path d = "M348 236 L348 220 L380 220 L412 220 L444 220 L444 236 L428 236 L412 236 L396 236 L380 236 L364 236 L348 236 Z" stroke = "#000000" stroke-width = "3" fill = "none" />	<path d = "M388 220 L388 204 L404 204 L404 220 Z" stroke = "#000000" stroke-width = "3" fill = "none" />    <line x1="412" y1="236" x2="412" y2="364" style="stroke:#000000;stroke-width:3" />
    <line x1="380" y1="364" x2="380" y2="236" style="stroke:#000000;stroke-width:3" />
	<path d = "M348 364 L380 364 L412 364 L444 364 L444 380 L428 380 L412 380 L396 380 L380 380 L364 380 L348 380 L348 364 Z" stroke = "#000000" stroke-width = "3" fill = "none" />	<path d = "M388 380 L388 396 L404 396 L404 380 Z" stroke = "#000000" stroke-width = "3" fill = "none" />	<path d = "M380 252 L316 252 L252 252 L220 252 " stroke = "#000000" stroke-width = "3" fill = "none" />	<path d = "M220 348 L252 348 L284 348 L316 348 L348 348 L380 348 " stroke = "#000000" stroke-width = "3" fill = "none" />	<path d = "M237 272 L237 265 L251 265 L265 265 L279 265 L279 272 L272 272 L265 272 L258 272 L251 272 L244 272 L237 272 Z" stroke = "#000000" stroke-width = "3" fill = "none" />	<path d = "M255 265 L255 258 L262 258 L262 265 Z" stroke = "#000000" stroke-width = "3" fill = "none" />    <line x1="265" y1="272" x2="265" y2="328" style="stroke:#000000;stroke-width:3" />
    <line x1="251" y1="328" x2="251" y2="272" style="stroke:#000000;stroke-width:3" />
	<path d = "M237 328 L251 328 L265 328 L279 328 L279 335 L272 335 L265 335 L258 335 L251 335 L244 335 L237 335 L237 328 Z" stroke = "#000000" stroke-width = "3" fill = "none" />	<path d = "M255 335 L255 342 L262 342 L262 335 Z" stroke = "#000000" stroke-width = "3" fill = "none" />	<path d = "M321 272 L321 265 L335 265 L349 265 L363 265 L363 272 L356 272 L349 272 L342 272 L335 272 L328 272 L321 272 Z" stroke = "#000000" stroke-width = "3" fill = "none" />	<path d = "M338 265 L338 258 L345 258 L345 265 Z" stroke = "#000000" stroke-width = "3" fill = "none" />    <line x1="349" y1="272" x2="349" y2="328" style="stroke:#000000;stroke-width:3" />
    <line x1="335" y1="328" x2="335" y2="272" style="stroke:#000000;stroke-width:3" />
	<path d = "M321 328 L335 328 L349 328 L363 328 L363 335 L356 335 L349 335 L342 335 L335 335 L328 335 L321 335 L321 328 Z" stroke = "#000000" stroke-width = "3" fill = "none" />	<path d = "M338 335 L338 342 L345 342 L345 335 Z" stroke = "#000000" stroke-width = "3" fill = "none" />	<path d = "M335 279 L307 279 L279 279 L265 279 " stroke = "#000000" stroke-width = "3" fill = "none" />	<path d = "M265 321 L279 321 L293 321 L307 321 L321 321 L335 321 " stroke = "#000000" stroke-width = "3" fill = "none" />	<path d = "M273 288 L273 285 L279 285 L285 285 L291 285 L291 288 L288 288 L285 288 L282 288 L279 288 L276 288 L273 288 Z" stroke = "#000000" stroke-width = "3" fill = "none" />	<path d = "M280 285 L280 282 L283 282 L283 285 Z" stroke = "#000000" stroke-width = "3" fill = "none" />    <line x1="285" y1="288" x2="285" y2="312" style="stroke:#000000;stroke-width:3" />
    <line x1="279" y1="312" x2="279" y2="288" style="stroke:#000000;stroke-width:3" />
	<path d = "M273 312 L279 312 L285 312 L291 312 L291 315 L288 315 L285 315 L282 315 L279 315 L276 315 L273 315 L273 312 Z" stroke = "#000000" stroke-width = "3" fill = "none" />	<path d = "M280 315 L280 318 L283 318 L283 315 Z" stroke = "#000000" stroke-width = "3" fill = "none" />	<path d = "M309 288 L309 285 L315 285 L321 285 L327 285 L327 288 L324 288 L321 288 L318 288 L315 288 L312 288 L309 288 Z" stroke = "#000000" stroke-width = "3" fill = "none" />	<path d = "M317 285 L317 282 L320 282 L320 285 Z" stroke = "#000000" stroke-width = "3" fill = "none" />    <line x1="321" y1="288" x2="321" y2="312" style="stroke:#000000;stroke-width:3" />
    <line x1="315" y1="312" x2="315" y2="288" style="stroke:#000000;stroke-width:3" />
	<path d = "M309 312 L315 312 L321 312 L327 312 L327 315 L324 315 L321 315 L318 315 L315 315 L312 315 L309 315 L309 312 Z" stroke = "#000000" stroke-width = "3" fill = "none" />	<path d = "M317 315 L317 318 L320 318 L320 315 Z" stroke = "#000000" stroke-width = "3" fill = "none" />	<path d = "M315 291 L303 291 L291 291 L285 291 " stroke = "#000000" stroke-width = "3" fill = "none" />	<path d = "M285 309 L291 309 L297 309 L303 309 L309 309 L315 309 " stroke = "#000000" stroke-width = "3" fill = "none" /></svg>