<svg width="600" height="700" viewbox = "0 0 600 700"  xmlns="http://www.w3.org/2000/svg">
<!--<json>{
  "glyph": "0336,0333,0333,0337,0330,0330,0330,0330,0332,0336,0336,0332,0337,0337,0330,0330,0330,0332,0332,0332,0332,0332,0211,0211,0336,0336,0336,0332,0332,0332,0332,0332,0332,0332,0332,0330,0332,0337,0337,0337,0333,0333,0333,0336,0333,0337,0332,0332,0336,0333,0337,01102,01125,01114,01114,01105,01124,01111,01116,0331,0332,0332,0332,0332,0332,0332,0332,0332,0336,0331,0333,0333,0333,0333,0333,0333,0336,0333,0337,0337,01102,01117,01101,01122,01104,01040,",
  "x0": 300,
  "y0": 400,
  "unit": 45.45454545454545,
  "width": 600,
  "height": 700,
  "style": {
    "color0": "black",
    "fill0": "white",
    "line0": 2,
    "color1": "black",
    "fill1": "black",
    "line1": 5,
    "color2": "red",
    "fill2": "red",
    "line2": 1,
    "color3": "#FF7900",
    "fill3": "#FF7900",
    "line3": 1,
    "color4": "yellow",
    "fill4": "yellow",
    "line4": 1,
    "color5": "green",
    "fill5": "green",
    "line5": 1,
    "color6": "blue",
    "fill6": "blue",
    "line6": 1,
    "color7": "purple",
    "fill7": "purple",
    "line7": 1
  },
  "shapes": [
    "0220:0342,0336,0333,0342,0336,0332,0342,0333,0333,0342,0336,0333,0342,0332,0332,0342,0332,0332,0342,0332,0332,0342,0333,0333,0333,0333,0333,0333,0333,0337,0337,0337,",
    "0221:0316,0336,0313,0342,0336,0333,0342,0333,0342,0333,0342,0333,0342,0333,0337,0342,0336,0333,0342,0333,0342,0333,0342,0333,0342,0333,0342,0337,0316,0337,0313,",
    "0222:0362,0203,0335,0203,0203,0203,0203,0203,0203,0335,0203,0335,0203,0203,0203,0203,0203,0203,0354,0335,",
    "0223:0322,0221,0221,0221,0221,0221,0221,0334,0221,0334,0220,0220,0220,0220,0220,0220,0334,0220,0334,0320,",
    "0224:0222,0330,0222,0330,0222,0330,0222,0330,0222,0330,0222,0331,0331,0331,0331,0331,",
    "0225:0223,0330,0223,0330,0223,0330,0223,0330,0223,0330,0223,0331,0331,0331,0331,0331,",
    "0226:0220,0336,0331,0334,0336,0330,0337,0321,0336,0362,0203,0335,0203,0203,0203,0203,0203,0335,0203,0203,0203,0203,0335,0203,0203,0203,0203,0203,0335,0203,0364,0330,0334,0331,0337,0201,0335,0336,0350,0334,0331,0362,0203,0335,0335,0203,0364,0331,0335,0313,0304,0337,0330,0336,0330,0337,0337,0320,0331,0336,0331,0332,01015,0163,0141,0166,0145,0365,0330,0330,0330,0333,0337,",
    "0227:0304,0350,0335,0313,0304,0322,0336,0336,0336,0330,0332,0337,0337,0362,0203,0335,0336,0203,0335,0337,0203,0334,0203,0335,0336,0203,0335,0337,0203,0334,0203,0335,0336,0203,0335,0337,0203,0334,0203,0335,0336,0203,0335,0337,0203,0363,0320,0336,0334,0336,0333,0331,0337,0337,0337,0350,0334,0304,0220,0331,0336,0331,0332,0336,0332,0337,01015,0144,0145,0154,0145,0164,0145,0336,0333,0337,0330,0330,0330,0333,0337,",
    "0230:0313,0334,0336,0330,0335,0335,0305,0334,0337,0311,0337,0362,0203,0335,0335,0203,0335,0350,0335,0336,0203,0363,0313,0336,0331,0304,0335,0337,",
    "0231:0321,0342,0330,0320,0336,0230,0331,0331,0337,0350,0335,0304,",
    "0232:0231,0231,0231,0231,0231,0231,0231,0231,",
    "0233:0220,0336,0210,0232,",
    "0234:0220,0336,0335,0335,0331,0335,0331,0337,0321,0342,0332,0342,0336,0333,0337,0342,0330,0336,0336,0336,0330,0337,0366,0332,0332,0332,0367,0350,0335,0306,0350,0320,0335,0362,0203,0334,0334,0334,0334,0203,0334,0334,0334,0334,0203,0363,0335,0304,0350,0335,0304,0335,0335,0331,0331,0332,01015,0145,0154,0145,0155,0145,0156,0164,040,0144,0157,0167,0156,0365,0330,0330,0330,0330,0330,0333,0333,0333,0336,0332,0337,0333,0337,0337,",
    "0235:0220,0321,0336,0342,0335,0342,0335,0342,0335,0342,0335,0337,",
    "0236:0321,0220,0335,0336,0321,0342,0335,0335,0342,0335,0337,",
    "0237:0220,0336,0331,0332,0336,0321,0342,0335,0342,0335,0342,0335,0342,0335,0330,0330,0333,0333,0337,0337,",
    "01220:0333,0200,0336,0332,0330,0336,0332,0337,0220,0331,0336,0333,0337,0337,",
    "01221:0333,0200,0336,0330,0332,0336,0332,0337,0221,0336,0333,0337,0331,0337,",
    "01222:0333,0200,0336,0330,0332,0336,0332,0336,0332,0222,0332,0337,0337,0331,0337,0333,",
    "01223:0333,0200,0336,0332,0330,0336,0332,0336,0332,0223,0332,0337,0337,0331,0337,0333,0320,",
    "01224:0333,0200,0336,0332,0336,0330,0336,0332,0332,0331,0332,0224,",
    "01225:0333,0200,0336,0330,0332,0336,0331,0332,0336,0331,0332,0225,0331,0332,0320,0337,0337,0337,0333,",
    "01226:0333,0200,0336,0336,0330,0332,0337,0226,0336,0333,0331,0337,0337,",
    "01227:0333,0200,0336,0330,0332,0336,0332,0337,0227,0333,0336,0333,0337,0331,0337,",
    "01230:0333,0200,",
    "01231:0333,0200,",
    "01232:0333,0200,",
    "01233:0333,0200,",
    "01234:0333,0200,",
    "01235:0333,0200,",
    "01236:0333,0200,",
    "01237:0333,0200,",
    "0240:0220,0336,0331,0333,0336,0321,0335,0342,0335,0335,0342,0335,0330,0330,0332,0332,0337,0337,",
    "01240:0333,0200,0336,0330,0332,0210,0240,0211,0333,0331,0337,",
    "0241:0220,0336,0321,0343,0332,0350,0335,0336,0342,0334,0334,0342,0335,0304,0337,0333,0337,",
    "01241:0333,0200,0336,0332,0330,0210,0241,0211,0333,0331,0337,",
    "0242:0220,0321,0336,0343,0333,0336,0350,0335,0342,0334,0334,0342,0335,0337,0304,0332,0337,",
    "01242:0333,0200,0336,0330,0332,0210,0242,0211,0333,0331,0337,",
    "0243:0220,0336,0331,0332,0336,0321,0343,0332,0350,0334,0336,0342,0335,0335,0342,0337,0334,0334,0335,0304,0332,0330,0330,0337,0337,0333,",
    "01243:0333,0200,0336,0330,0332,0210,0243,0211,0333,0331,0337,",
    "0244:0220,0336,0331,0333,0336,0321,0343,0333,0350,0336,0335,0342,0334,0334,0342,0335,0337,0304,0333,0330,0330,0337,0337,0332,",
    "01244:0333,0200,0336,0330,0332,0210,0244,0211,0333,0331,0337,",
    "0245:0210,0332,0332,0362,0335,0203,0203,0203,0203,0334,0203,0363,0332,0332,0331,0211,",
    "01245:0333,0200,0336,0330,0332,0336,0245,0337,0333,0331,0337,",
    "0246:0210,0332,0332,0335,0306,0336,0330,0335,0335,0335,0321,0362,0203,0335,0335,0203,0364,0331,0350,0335,0337,0366,0333,0333,0333,0333,0334,0334,0334,0334,0367,0335,0336,0342,0334,0334,0342,0330,0330,0330,0330,0335,0335,0335,0304,0337,0211,",
    "01246:0333,0200,0336,0330,0332,0336,0246,",
    "0247:0330,0332,0336,0332,0336,0221,0333,0333,0333,0222,0333,0333,0333,0223,0333,0333,0333,0225,0333,0331,0331,0331,0332,0332,0332,0332,0332,0332,0332,0332,0332,0332,0332,0332,0333,0333,0226,0331,0331,0331,0333,0333,0333,0333,0333,0333,0333,0333,0333,0333,0333,0333,0333,0330,0333,0330,0330,0333,0330,0331,0332,0332,0332,0332,0332,0332,0332,0332,0332,0332,0332,0332,0227,0333,0333,0333,0230,0333,0331,0331,0331,0331,0332,0332,0332,0330,0332,0332,0332,0332,0332,0332,0333,0333,0231,0333,0333,0333,0232,0331,0333,0330,0333,0333,0233,0333,0333,0333,0234,0330,0330,0332,0330,0332,0332,0337,0337,",
    "01247:0333,0200,0336,0330,0332,0220,0336,0247,0337,0331,0333,0337,"
  ]
}</json>-->	<path d = "M125 78 L125 71 L117 71 L117 78 L125 78 Z" stroke = "#000000" stroke-width = "2" fill = "none" />	<path d = "M125 71 L125 63 L117 63 L117 71 L125 71 Z" stroke = "#000000" stroke-width = "2" fill = "none" />	<path d = "M125 63 L125 56 L117 56 L117 63 L125 63 Z" stroke = "#000000" stroke-width = "2" fill = "none" />	<path d = "M125 56 L125 48 L117 48 L117 56 L125 56 Z" stroke = "#000000" stroke-width = "2" fill = "none" />	<path d = "M125 48 L125 41 L117 41 L117 48 L125 48 Z" stroke = "#000000" stroke-width = "2" fill = "none" />	<path d = "M125 41 L125 33 L117 33 L117 41 L125 41 Z" stroke = "#000000" stroke-width = "2" fill = "none" />	<path d = "M125 33 L125 26 L117 26 L117 33 L125 33 Z" stroke = "#000000" stroke-width = "2" fill = "none" />	<path d = "M132 33 L132 26 L125 26 L125 33 L132 33 Z" stroke = "#000000" stroke-width = "2" fill = "none" />	<path d = "M139 33 L139 26 L132 26 L132 33 L139 33 Z" stroke = "#000000" stroke-width = "2" fill = "none" />	<path d = "M147 33 L147 26 L139 26 L139 33 L147 33 Z" stroke = "#000000" stroke-width = "2" fill = "none" />	<path d = "M154 41 L154 33 L147 33 L147 41 L154 41 Z" stroke = "#000000" stroke-width = "2" fill = "none" />	<path d = "M154 48 L154 41 L147 41 L147 48 L154 48 Z" stroke = "#000000" stroke-width = "2" fill = "none" />	<path d = "M147 56 L147 48 L139 48 L139 56 L147 56 Z" stroke = "#000000" stroke-width = "2" fill = "none" />	<path d = "M139 56 L139 48 L132 48 L132 56 L139 56 Z" stroke = "#000000" stroke-width = "2" fill = "none" />	<path d = "M132 56 L132 48 L125 48 L125 56 L132 56 Z" stroke = "#000000" stroke-width = "2" fill = "none" />	<path d = "M154 63 L154 56 L147 56 L147 63 L154 63 Z" stroke = "#000000" stroke-width = "2" fill = "none" />	<path d = "M154 71 L154 63 L147 63 L147 71 L154 71 Z" stroke = "#000000" stroke-width = "2" fill = "none" />	<path d = "M147 78 L147 71 L139 71 L139 78 L147 78 Z" stroke = "#000000" stroke-width = "2" fill = "none" />	<path d = "M139 78 L139 71 L132 71 L132 78 L139 78 Z" stroke = "#000000" stroke-width = "2" fill = "none" />	<path d = "M132 78 L132 71 L125 71 L125 78 L132 78 Z" stroke = "#000000" stroke-width = "2" fill = "none" />	<path d = "M169 71 L169 63 L162 63 L162 71 L169 71 Z" stroke = "#000000" stroke-width = "2" fill = "none" />	<path d = "M169 63 L169 56 L162 56 L162 63 L169 63 Z" stroke = "#000000" stroke-width = "2" fill = "none" />	<path d = "M169 56 L169 48 L162 48 L162 56 L169 56 Z" stroke = "#000000" stroke-width = "2" fill = "none" />	<path d = "M169 48 L169 41 L162 41 L162 48 L169 48 Z" stroke = "#000000" stroke-width = "2" fill = "none" />	<path d = "M169 41 L169 33 L162 33 L162 41 L169 41 Z" stroke = "#000000" stroke-width = "2" fill = "none" />	<path d = "M169 33 L169 26 L162 26 L162 33 L169 33 Z" stroke = "#000000" stroke-width = "2" fill = "none" />	<path d = "M177 78 L177 71 L169 71 L169 78 L177 78 Z" stroke = "#000000" stroke-width = "2" fill = "none" />	<path d = "M184 78 L184 71 L177 71 L177 78 L184 78 Z" stroke = "#000000" stroke-width = "2" fill = "none" />	<path d = "M192 78 L192 71 L184 71 L184 78 L192 78 Z" stroke = "#000000" stroke-width = "2" fill = "none" />	<path d = "M199 71 L199 63 L192 63 L192 71 L199 71 Z" stroke = "#000000" stroke-width = "2" fill = "none" />	<path d = "M199 63 L199 56 L192 56 L192 63 L199 63 Z" stroke = "#000000" stroke-width = "2" fill = "none" />	<path d = "M199 56 L199 48 L192 48 L192 56 L199 56 Z" stroke = "#000000" stroke-width = "2" fill = "none" />	<path d = "M199 48 L199 41 L192 41 L192 48 L199 48 Z" stroke = "#000000" stroke-width = "2" fill = "none" />	<path d = "M199 41 L199 33 L192 33 L192 41 L199 41 Z" stroke = "#000000" stroke-width = "2" fill = "none" />	<path d = "M199 33 L199 26 L192 26 L192 33 L199 33 Z" stroke = "#000000" stroke-width = "2" fill = "none" />	<path d = "M214 78 L214 71 L206 71 L206 78 L214 78 Z" stroke = "#000000" stroke-width = "2" fill = "none" />	<path d = "M214 71 L214 63 L206 63 L206 71 L214 71 Z" stroke = "#000000" stroke-width = "2" fill = "none" />	<path d = "M214 63 L214 56 L206 56 L206 63 L214 63 Z" stroke = "#000000" stroke-width = "2" fill = "none" />	<path d = "M214 56 L214 48 L206 48 L206 56 L214 56 Z" stroke = "#000000" stroke-width = "2" fill = "none" />	<path d = "M214 48 L214 41 L206 41 L206 48 L214 48 Z" stroke = "#000000" stroke-width = "2" fill = "none" />	<path d = "M214 41 L214 33 L206 33 L206 41 L214 41 Z" stroke = "#000000" stroke-width = "2" fill = "none" />	<path d = "M214 33 L214 26 L206 26 L206 33 L214 33 Z" stroke = "#000000" stroke-width = "2" fill = "none" />	<path d = "M221 78 L221 71 L214 71 L214 78 L221 78 Z" stroke = "#000000" stroke-width = "2" fill = "none" />	<path d = "M229 78 L229 71 L221 71 L221 78 L229 78 Z" stroke = "#000000" stroke-width = "2" fill = "none" />	<path d = "M236 78 L236 71 L229 71 L229 78 L236 78 Z" stroke = "#000000" stroke-width = "2" fill = "none" />	<path d = "M244 78 L244 71 L236 71 L236 78 L244 78 Z" stroke = "#000000" stroke-width = "2" fill = "none" />	<path d = "M258 78 L258 71 L251 71 L251 78 L258 78 Z" stroke = "#000000" stroke-width = "2" fill = "none" />	<path d = "M258 71 L258 63 L251 63 L251 71 L258 71 Z" stroke = "#000000" stroke-width = "2" fill = "none" />	<path d = "M258 63 L258 56 L251 56 L251 63 L258 63 Z" stroke = "#000000" stroke-width = "2" fill = "none" />	<path d = "M258 56 L258 48 L251 48 L251 56 L258 56 Z" stroke = "#000000" stroke-width = "2" fill = "none" />	<path d = "M258 48 L258 41 L251 41 L251 48 L258 48 Z" stroke = "#000000" stroke-width = "2" fill = "none" />	<path d = "M258 41 L258 33 L251 33 L251 41 L258 41 Z" stroke = "#000000" stroke-width = "2" fill = "none" />	<path d = "M258 33 L258 26 L251 26 L251 33 L258 33 Z" stroke = "#000000" stroke-width = "2" fill = "none" />	<path d = "M266 78 L266 71 L258 71 L258 78 L266 78 Z" stroke = "#000000" stroke-width = "2" fill = "none" />	<path d = "M273 78 L273 71 L266 71 L266 78 L273 78 Z" stroke = "#000000" stroke-width = "2" fill = "none" />	<path d = "M281 78 L281 71 L273 71 L273 78 L281 78 Z" stroke = "#000000" stroke-width = "2" fill = "none" />	<path d = "M288 78 L288 71 L281 71 L281 78 L288 78 Z" stroke = "#000000" stroke-width = "2" fill = "none" />	<path d = "M303 78 L303 71 L296 71 L296 78 L303 78 Z" stroke = "#000000" stroke-width = "2" fill = "none" />	<path d = "M303 71 L303 63 L296 63 L296 71 L303 71 Z" stroke = "#000000" stroke-width = "2" fill = "none" />	<path d = "M303 63 L303 56 L296 56 L296 63 L303 63 Z" stroke = "#000000" stroke-width = "2" fill = "none" />	<path d = "M303 56 L303 48 L296 48 L296 56 L303 56 Z" stroke = "#000000" stroke-width = "2" fill = "none" />	<path d = "M303 48 L303 41 L296 41 L296 48 L303 48 Z" stroke = "#000000" stroke-width = "2" fill = "none" />	<path d = "M303 41 L303 33 L296 33 L296 41 L303 41 Z" stroke = "#000000" stroke-width = "2" fill = "none" />	<path d = "M303 33 L303 26 L296 26 L296 33 L303 33 Z" stroke = "#000000" stroke-width = "2" fill = "none" />	<path d = "M311 33 L311 26 L303 26 L303 33 L311 33 Z" stroke = "#000000" stroke-width = "2" fill = "none" />	<path d = "M318 33 L318 26 L311 26 L311 33 L318 33 Z" stroke = "#000000" stroke-width = "2" fill = "none" />	<path d = "M325 33 L325 26 L318 26 L318 33 L325 33 Z" stroke = "#000000" stroke-width = "2" fill = "none" />	<path d = "M333 33 L333 26 L325 26 L325 33 L333 33 Z" stroke = "#000000" stroke-width = "2" fill = "none" />	<path d = "M318 56 L318 48 L311 48 L311 56 L318 56 Z" stroke = "#000000" stroke-width = "2" fill = "none" />	<path d = "M311 56 L311 48 L303 48 L303 56 L311 56 Z" stroke = "#000000" stroke-width = "2" fill = "none" />	<path d = "M311 78 L311 71 L303 71 L303 78 L311 78 Z" stroke = "#000000" stroke-width = "2" fill = "none" />	<path d = "M318 78 L318 71 L311 71 L311 78 L318 78 Z" stroke = "#000000" stroke-width = "2" fill = "none" />	<path d = "M325 78 L325 71 L318 71 L318 78 L325 78 Z" stroke = "#000000" stroke-width = "2" fill = "none" />	<path d = "M333 78 L333 71 L325 71 L325 78 L333 78 Z" stroke = "#000000" stroke-width = "2" fill = "none" />	<path d = "M348 33 L348 26 L340 26 L340 33 L348 33 Z" stroke = "#000000" stroke-width = "2" fill = "none" />	<path d = "M355 33 L355 26 L348 26 L348 33 L355 33 Z" stroke = "#000000" stroke-width = "2" fill = "none" />	<path d = "M363 33 L363 26 L355 26 L355 33 L363 33 Z" stroke = "#000000" stroke-width = "2" fill = "none" />	<path d = "M370 33 L370 26 L363 26 L363 33 L370 33 Z" stroke = "#000000" stroke-width = "2" fill = "none" />	<path d = "M377 33 L377 26 L370 26 L370 33 L377 33 Z" stroke = "#000000" stroke-width = "2" fill = "none" />	<path d = "M363 41 L363 33 L355 33 L355 41 L363 41 Z" stroke = "#000000" stroke-width = "2" fill = "none" />	<path d = "M363 48 L363 41 L355 41 L355 48 L363 48 Z" stroke = "#000000" stroke-width = "2" fill = "none" />	<path d = "M363 56 L363 48 L355 48 L355 56 L363 56 Z" stroke = "#000000" stroke-width = "2" fill = "none" />	<path d = "M363 63 L363 56 L355 56 L355 63 L363 63 Z" stroke = "#000000" stroke-width = "2" fill = "none" />	<path d = "M363 71 L363 63 L355 63 L355 71 L363 71 Z" stroke = "#000000" stroke-width = "2" fill = "none" />	<path d = "M363 78 L363 71 L355 71 L355 78 L363 78 Z" stroke = "#000000" stroke-width = "2" fill = "none" />	<path d = "M400 78 L400 71 L392 71 L392 78 L400 78 Z" stroke = "#000000" stroke-width = "2" fill = "none" />	<path d = "M407 78 L407 71 L400 71 L400 78 L407 78 Z" stroke = "#000000" stroke-width = "2" fill = "none" />	<path d = "M415 78 L415 71 L407 71 L407 78 L415 78 Z" stroke = "#000000" stroke-width = "2" fill = "none" />	<path d = "M407 71 L407 63 L400 63 L400 71 L407 71 Z" stroke = "#000000" stroke-width = "2" fill = "none" />	<path d = "M407 63 L407 56 L400 56 L400 63 L407 63 Z" stroke = "#000000" stroke-width = "2" fill = "none" />	<path d = "M407 56 L407 48 L400 48 L400 56 L407 56 Z" stroke = "#000000" stroke-width = "2" fill = "none" />	<path d = "M407 48 L407 41 L400 41 L400 48 L407 48 Z" stroke = "#000000" stroke-width = "2" fill = "none" />	<path d = "M407 41 L407 33 L400 33 L400 41 L407 41 Z" stroke = "#000000" stroke-width = "2" fill = "none" />	<path d = "M407 33 L407 26 L400 26 L400 33 L407 33 Z" stroke = "#000000" stroke-width = "2" fill = "none" />	<path d = "M400 33 L400 26 L392 26 L392 33 L400 33 Z" stroke = "#000000" stroke-width = "2" fill = "none" />	<path d = "M415 33 L415 26 L407 26 L407 33 L415 33 Z" stroke = "#000000" stroke-width = "2" fill = "none" />	<path d = "M437 78 L437 71 L430 71 L430 78 L437 78 Z" stroke = "#000000" stroke-width = "2" fill = "none" />	<path d = "M437 71 L437 63 L430 63 L430 71 L437 71 Z" stroke = "#000000" stroke-width = "2" fill = "none" />	<path d = "M437 63 L437 56 L430 56 L430 63 L437 63 Z" stroke = "#000000" stroke-width = "2" fill = "none" />	<path d = "M437 56 L437 48 L430 48 L430 56 L437 56 Z" stroke = "#000000" stroke-width = "2" fill = "none" />	<path d = "M437 48 L437 41 L430 41 L430 48 L437 48 Z" stroke = "#000000" stroke-width = "2" fill = "none" />	<path d = "M437 41 L437 33 L430 33 L430 41 L437 41 Z" stroke = "#000000" stroke-width = "2" fill = "none" />	<path d = "M437 33 L437 26 L430 26 L430 33 L437 33 Z" stroke = "#000000" stroke-width = "2" fill = "none" />	<path d = "M444 48 L444 41 L437 41 L437 48 L444 48 Z" stroke = "#000000" stroke-width = "2" fill = "none" />	<path d = "M452 56 L452 48 L444 48 L444 56 L452 56 Z" stroke = "#000000" stroke-width = "2" fill = "none" />	<path d = "M459 63 L459 56 L452 56 L452 63 L459 63 Z" stroke = "#000000" stroke-width = "2" fill = "none" />	<path d = "M467 71 L467 63 L459 63 L459 71 L467 71 Z" stroke = "#000000" stroke-width = "2" fill = "none" />	<path d = "M467 78 L467 71 L459 71 L459 78 L467 78 Z" stroke = "#000000" stroke-width = "2" fill = "none" />	<path d = "M467 63 L467 56 L459 56 L459 63 L467 63 Z" stroke = "#000000" stroke-width = "2" fill = "none" />	<path d = "M467 56 L467 48 L459 48 L459 56 L467 56 Z" stroke = "#000000" stroke-width = "2" fill = "none" />	<path d = "M467 48 L467 41 L459 41 L459 48 L467 48 Z" stroke = "#000000" stroke-width = "2" fill = "none" />	<path d = "M467 41 L467 33 L459 33 L459 41 L467 41 Z" stroke = "#000000" stroke-width = "2" fill = "none" />	<path d = "M467 33 L467 26 L459 26 L459 33 L467 33 Z" stroke = "#000000" stroke-width = "2" fill = "none" />	<path d = "M199 167 L199 160 L192 160 L192 167 L199 167 Z" stroke = "#000000" stroke-width = "2" fill = "none" />	<path d = "M199 160 L199 152 L192 152 L192 160 L199 160 Z" stroke = "#000000" stroke-width = "2" fill = "none" />	<path d = "M199 152 L199 145 L192 145 L192 152 L199 152 Z" stroke = "#000000" stroke-width = "2" fill = "none" />	<path d = "M199 145 L199 138 L192 138 L192 145 L199 145 Z" stroke = "#000000" stroke-width = "2" fill = "none" />	<path d = "M199 138 L199 130 L192 130 L192 138 L199 138 Z" stroke = "#000000" stroke-width = "2" fill = "none" />	<path d = "M199 130 L199 123 L192 123 L192 130 L199 130 Z" stroke = "#000000" stroke-width = "2" fill = "none" />	<path d = "M199 123 L199 115 L192 115 L192 123 L199 123 Z" stroke = "#000000" stroke-width = "2" fill = "none" />	<path d = "M206 123 L206 115 L199 115 L199 123 L206 123 Z" stroke = "#000000" stroke-width = "2" fill = "none" />	<path d = "M214 123 L214 115 L206 115 L206 123 L214 123 Z" stroke = "#000000" stroke-width = "2" fill = "none" />	<path d = "M221 123 L221 115 L214 115 L214 123 L221 123 Z" stroke = "#000000" stroke-width = "2" fill = "none" />	<path d = "M229 130 L229 123 L221 123 L221 130 L229 130 Z" stroke = "#000000" stroke-width = "2" fill = "none" />	<path d = "M229 138 L229 130 L221 130 L221 138 L229 138 Z" stroke = "#000000" stroke-width = "2" fill = "none" />	<path d = "M221 145 L221 138 L214 138 L214 145 L221 145 Z" stroke = "#000000" stroke-width = "2" fill = "none" />	<path d = "M214 145 L214 138 L206 138 L206 145 L214 145 Z" stroke = "#000000" stroke-width = "2" fill = "none" />	<path d = "M206 145 L206 138 L199 138 L199 145 L206 145 Z" stroke = "#000000" stroke-width = "2" fill = "none" />	<path d = "M229 152 L229 145 L221 145 L221 152 L229 152 Z" stroke = "#000000" stroke-width = "2" fill = "none" />	<path d = "M229 160 L229 152 L221 152 L221 160 L229 160 Z" stroke = "#000000" stroke-width = "2" fill = "none" />	<path d = "M221 167 L221 160 L214 160 L214 167 L221 167 Z" stroke = "#000000" stroke-width = "2" fill = "none" />	<path d = "M214 167 L214 160 L206 160 L206 167 L214 167 Z" stroke = "#000000" stroke-width = "2" fill = "none" />	<path d = "M206 167 L206 160 L199 160 L199 167 L206 167 Z" stroke = "#000000" stroke-width = "2" fill = "none" />	<path d = "M244 160 L244 152 L236 152 L236 160 L244 160 Z" stroke = "#000000" stroke-width = "2" fill = "none" />	<path d = "M244 152 L244 145 L236 145 L236 152 L244 152 Z" stroke = "#000000" stroke-width = "2" fill = "none" />	<path d = "M244 145 L244 138 L236 138 L236 145 L244 145 Z" stroke = "#000000" stroke-width = "2" fill = "none" />	<path d = "M244 138 L244 130 L236 130 L236 138 L244 138 Z" stroke = "#000000" stroke-width = "2" fill = "none" />	<path d = "M244 130 L244 123 L236 123 L236 130 L244 130 Z" stroke = "#000000" stroke-width = "2" fill = "none" />	<path d = "M251 123 L251 115 L244 115 L244 123 L251 123 Z" stroke = "#000000" stroke-width = "2" fill = "none" />	<path d = "M258 123 L258 115 L251 115 L251 123 L258 123 Z" stroke = "#000000" stroke-width = "2" fill = "none" />	<path d = "M266 123 L266 115 L258 115 L258 123 L266 123 Z" stroke = "#000000" stroke-width = "2" fill = "none" />	<path d = "M273 130 L273 123 L266 123 L266 130 L273 130 Z" stroke = "#000000" stroke-width = "2" fill = "none" />	<path d = "M273 138 L273 130 L266 130 L266 138 L273 138 Z" stroke = "#000000" stroke-width = "2" fill = "none" />	<path d = "M273 145 L273 138 L266 138 L266 145 L273 145 Z" stroke = "#000000" stroke-width = "2" fill = "none" />	<path d = "M273 152 L273 145 L266 145 L266 152 L273 152 Z" stroke = "#000000" stroke-width = "2" fill = "none" />	<path d = "M273 160 L273 152 L266 152 L266 160 L273 160 Z" stroke = "#000000" stroke-width = "2" fill = "none" />	<path d = "M266 167 L266 160 L258 160 L258 167 L266 167 Z" stroke = "#000000" stroke-width = "2" fill = "none" />	<path d = "M258 167 L258 160 L251 160 L251 167 L258 167 Z" stroke = "#000000" stroke-width = "2" fill = "none" />	<path d = "M251 167 L251 160 L244 160 L244 167 L251 167 Z" stroke = "#000000" stroke-width = "2" fill = "none" />	<path d = "M288 167 L288 160 L281 160 L281 167 L288 167 Z" stroke = "#000000" stroke-width = "2" fill = "none" />	<path d = "M288 160 L288 152 L281 152 L281 160 L288 160 Z" stroke = "#000000" stroke-width = "2" fill = "none" />	<path d = "M288 152 L288 145 L281 145 L281 152 L288 152 Z" stroke = "#000000" stroke-width = "2" fill = "none" />	<path d = "M288 145 L288 138 L281 138 L281 145 L288 145 Z" stroke = "#000000" stroke-width = "2" fill = "none" />	<path d = "M288 138 L288 130 L281 130 L281 138 L288 138 Z" stroke = "#000000" stroke-width = "2" fill = "none" />	<path d = "M288 130 L288 123 L281 123 L281 130 L288 130 Z" stroke = "#000000" stroke-width = "2" fill = "none" />	<path d = "M296 123 L296 115 L288 115 L288 123 L296 123 Z" stroke = "#000000" stroke-width = "2" fill = "none" />	<path d = "M303 123 L303 115 L296 115 L296 123 L303 123 Z" stroke = "#000000" stroke-width = "2" fill = "none" />	<path d = "M311 123 L311 115 L303 115 L303 123 L311 123 Z" stroke = "#000000" stroke-width = "2" fill = "none" />	<path d = "M318 130 L318 123 L311 123 L311 130 L318 130 Z" stroke = "#000000" stroke-width = "2" fill = "none" />	<path d = "M318 138 L318 130 L311 130 L311 138 L318 138 Z" stroke = "#000000" stroke-width = "2" fill = "none" />	<path d = "M318 145 L318 138 L311 138 L311 145 L318 145 Z" stroke = "#000000" stroke-width = "2" fill = "none" />	<path d = "M318 152 L318 145 L311 145 L311 152 L318 152 Z" stroke = "#000000" stroke-width = "2" fill = "none" />	<path d = "M318 160 L318 152 L311 152 L311 160 L318 160 Z" stroke = "#000000" stroke-width = "2" fill = "none" />	<path d = "M318 167 L318 160 L311 160 L311 167 L318 167 Z" stroke = "#000000" stroke-width = "2" fill = "none" />	<path d = "M311 145 L311 138 L303 138 L303 145 L311 145 Z" stroke = "#000000" stroke-width = "2" fill = "none" />	<path d = "M303 145 L303 138 L296 138 L296 145 L303 145 Z" stroke = "#000000" stroke-width = "2" fill = "none" />	<path d = "M296 145 L296 138 L288 138 L288 145 L296 145 Z" stroke = "#000000" stroke-width = "2" fill = "none" />	<path d = "M333 167 L333 160 L325 160 L325 167 L333 167 Z" stroke = "#000000" stroke-width = "2" fill = "none" />	<path d = "M333 160 L333 152 L325 152 L325 160 L333 160 Z" stroke = "#000000" stroke-width = "2" fill = "none" />	<path d = "M333 152 L333 145 L325 145 L325 152 L333 152 Z" stroke = "#000000" stroke-width = "2" fill = "none" />	<path d = "M333 145 L333 138 L325 138 L325 145 L333 145 Z" stroke = "#000000" stroke-width = "2" fill = "none" />	<path d = "M333 138 L333 130 L325 130 L325 138 L333 138 Z" stroke = "#000000" stroke-width = "2" fill = "none" />	<path d = "M333 130 L333 123 L325 123 L325 130 L333 130 Z" stroke = "#000000" stroke-width = "2" fill = "none" />	<path d = "M333 123 L333 115 L325 115 L325 123 L333 123 Z" stroke = "#000000" stroke-width = "2" fill = "none" />	<path d = "M340 123 L340 115 L333 115 L333 123 L340 123 Z" stroke = "#000000" stroke-width = "2" fill = "none" />	<path d = "M348 123 L348 115 L340 115 L340 123 L348 123 Z" stroke = "#000000" stroke-width = "2" fill = "none" />	<path d = "M355 123 L355 115 L348 115 L348 123 L355 123 Z" stroke = "#000000" stroke-width = "2" fill = "none" />	<path d = "M363 130 L363 123 L355 123 L355 130 L363 130 Z" stroke = "#000000" stroke-width = "2" fill = "none" />	<path d = "M363 138 L363 130 L355 130 L355 138 L363 138 Z" stroke = "#000000" stroke-width = "2" fill = "none" />	<path d = "M355 145 L355 138 L348 138 L348 145 L355 145 Z" stroke = "#000000" stroke-width = "2" fill = "none" />	<path d = "M348 145 L348 138 L340 138 L340 145 L348 145 Z" stroke = "#000000" stroke-width = "2" fill = "none" />	<path d = "M340 145 L340 138 L333 138 L333 145 L340 145 Z" stroke = "#000000" stroke-width = "2" fill = "none" />	<path d = "M348 152 L348 145 L340 145 L340 152 L348 152 Z" stroke = "#000000" stroke-width = "2" fill = "none" />	<path d = "M355 160 L355 152 L348 152 L348 160 L355 160 Z" stroke = "#000000" stroke-width = "2" fill = "none" />	<path d = "M363 167 L363 160 L355 160 L355 167 L363 167 Z" stroke = "#000000" stroke-width = "2" fill = "none" />	<path d = "M377 167 L377 160 L370 160 L370 167 L377 167 Z" stroke = "#000000" stroke-width = "2" fill = "none" />	<path d = "M377 160 L377 152 L370 152 L370 160 L377 160 Z" stroke = "#000000" stroke-width = "2" fill = "none" />	<path d = "M377 152 L377 145 L370 145 L370 152 L377 152 Z" stroke = "#000000" stroke-width = "2" fill = "none" />	<path d = "M377 145 L377 138 L370 138 L370 145 L377 145 Z" stroke = "#000000" stroke-width = "2" fill = "none" />	<path d = "M377 138 L377 130 L370 130 L370 138 L377 138 Z" stroke = "#000000" stroke-width = "2" fill = "none" />	<path d = "M377 130 L377 123 L370 123 L370 130 L377 130 Z" stroke = "#000000" stroke-width = "2" fill = "none" />	<path d = "M377 123 L377 115 L370 115 L370 123 L377 123 Z" stroke = "#000000" stroke-width = "2" fill = "none" />	<path d = "M385 123 L385 115 L377 115 L377 123 L385 123 Z" stroke = "#000000" stroke-width = "2" fill = "none" />	<path d = "M392 123 L392 115 L385 115 L385 123 L392 123 Z" stroke = "#000000" stroke-width = "2" fill = "none" />	<path d = "M400 130 L400 123 L392 123 L392 130 L400 130 Z" stroke = "#000000" stroke-width = "2" fill = "none" />	<path d = "M407 138 L407 130 L400 130 L400 138 L407 138 Z" stroke = "#000000" stroke-width = "2" fill = "none" />	<path d = "M407 145 L407 138 L400 138 L400 145 L407 145 Z" stroke = "#000000" stroke-width = "2" fill = "none" />	<path d = "M407 152 L407 145 L400 145 L400 152 L407 152 Z" stroke = "#000000" stroke-width = "2" fill = "none" />	<path d = "M400 160 L400 152 L392 152 L392 160 L400 160 Z" stroke = "#000000" stroke-width = "2" fill = "none" />	<path d = "M392 167 L392 160 L385 160 L385 167 L392 167 Z" stroke = "#000000" stroke-width = "2" fill = "none" />	<path d = "M385 167 L385 160 L377 160 L377 167 L385 167 Z" stroke = "#000000" stroke-width = "2" fill = "none" /></svg>