<svg width="600" height="600" viewbox = "0 0 600 600"  xmlns="http://www.w3.org/2000/svg">
<!--<json>{
  "glyph": "0232,",
  "x0": 300,
  "y0": 300,
  "unit": 62.09213230591551,
  "width": 600,
  "height": 600,
  "style": {
    "color0": "black",
    "fill0": "white",
    "line0": 5,
    "color1": "black",
    "fill1": "black",
    "line1": 5,
    "color2": "red",
    "fill2": "red",
    "line2": 3,
    "color3": "#FF7900",
    "fill3": "#FF7900",
    "line3": 1,
    "color4": "yellow",
    "fill4": "yellow",
    "line4": 1,
    "color5": "green",
    "fill5": "green",
    "line5": 1,
    "color6": "blue",
    "fill6": "blue",
    "line6": 1,
    "color7": "purple",
    "fill7": "purple",
    "line7": 1
  },
  "shapes": [
    "0220:0330,0336,0332,0336,0332,0362,0203,0335,0337,0203,0203,0203,0335,0336,0203,0335,0203,0203,0203,0203,0203,0203,0354,0335,0333,0333,0333,0330,0336,0332,0337,0362,0203,0335,0203,0335,0203,0354,0330,0336,0332,0337,0337,0337,0337,0201,0335,0335,0336,0336,0332,0337,0337,0342,0336,0336,0332,0335,0362,0203,0203,0203,0335,0336,0203,0335,0203,0203,0203,0203,0203,0203,0335,0203,0354,0335,0335,0330,0332,0332,0336,0332,0337,0362,0203,0334,0203,0334,0203,0354,0330,0336,0333,0337,0330,0330,0330,0330,0332,0337,0337,",
    "0221:0332,0336,0332,0337,0220,0333,0333,0333,0220,0336,0330,0332,0336,0333,0330,0334,0337,0337,0362,0203,0203,0336,0203,0364,0335,0335,0333,0333,0333,0362,0203,0203,0203,0203,0203,0364,0334,0330,0336,0330,0337,0332,0332,0336,0332,0337,0337,",
    "0222:0334,0336,0336,0362,0203,0335,0203,0203,0334,0203,0335,0350,0335,0310,0337,0203,0203,0335,0335,0203,0203,0335,0335,0335,0336,0203,0334,0334,0203,0203,0335,0335,0203,0354,0335,0335,0304,0313,0337,0337,",
    "0223:0336,0334,0336,0362,0203,0335,0203,0203,0203,0203,0203,0203,0334,0203,0335,0350,0310,0337,0335,0203,0203,0335,0335,0203,0203,0335,0335,0335,0336,0203,0313,0304,0334,0203,0203,0203,0203,0203,0203,0335,0203,0354,0335,0337,0337,",
    "0224:0334,0306,0362,0203,0335,0335,0203,0203,0335,0335,0203,0203,0335,0335,0203,0354,0335,0342,0335,0201,0334,0334,0201,0335,0331,0350,0335,0304,",
    "0225:0330,0334,0362,0203,0335,0336,0336,0203,0335,0337,0337,0203,0203,0335,0336,0336,0203,0335,0337,0337,0203,0354,0335,0336,0336,0330,0332,0362,0203,0335,0203,0203,0335,0203,0354,0335,0335,0331,0333,0333,0335,0335,0337,0337,0337,0362,0203,0335,0336,0203,0336,0203,0335,0337,0337,0203,0364,0336,0336,0331,0336,0330,0333,0335,0337,0335,0337,0362,0203,0336,0203,0335,0335,0364,0333,0362,0203,0203,0203,0354,0335,0335,0332,0362,0203,0203,0203,0354,0335,0335,0330,0332,0336,0330,0337,0337,",
    "0226:0341,0311,0336,0341,0337,0330,0335,0335,0336,0336,0313,0335,0335,0336,0331,0337,0306,0362,0203,0335,0335,0203,0203,0335,0335,0203,0203,0335,0335,0203,0363,0313,0336,0331,0337,0330,0335,0335,0335,0311,0337,0337,0330,0330,0335,0335,0335,0336,0336,0313,0336,0330,0337,0362,0203,0334,0334,0203,0203,0334,0334,0203,0203,0334,0334,0203,0363,0336,0331,0337,0311,0337,0337,0330,0304,",
    "0227:0304,0350,0335,0304,0330,0336,0336,0330,0337,0337,0222,0331,0336,0336,0331,0337,0337,",
    "0230:0341,0227,0227,0227,0227,0227,0227,0227,0227,",
    "0231:0304,0350,0335,0304,0330,0330,0330,0336,0330,0337,0341,0336,0331,0337,0331,0331,0331,",
    "0232:0230,0231,0231,0231,0231,0231,0231,0231,0231,",
    "01220:0333,0200,0336,0330,0332,0336,0220,0333,0333,0331,0331,0337,0337,",
    "01221:0333,0200,0336,0330,0332,0336,0336,0221,0337,0337,0331,0333,0337,",
    "01222:0333,0200,0336,0330,0332,0336,0222,0333,0333,0331,0331,0337,0337,",
    "01223:0333,0200,0336,0330,0332,0336,0331,0336,0337,0223,0331,0333,0333,0337,0337,",
    "01224:0333,0200,0336,0330,0332,0336,0331,0337,0210,0210,0224,0211,0211,0333,0336,0331,0337,0337,",
    "01225:0333,0200,0336,0330,0332,0210,0210,0210,0210,0225,0211,0211,0211,0211,0333,0331,0337,",
    "01226:0333,0200,0336,0330,0332,0210,0226,0211,0333,0331,0337,",
    "01227:0333,0200,0336,0330,0332,0336,0227,0227,0227,0227,0227,0227,0227,0227,0331,0331,0333,0333,0337,0337,",
    "01230:0333,0200,0336,0330,0332,0336,0230,0331,0331,0333,0333,0337,0337,",
    "01231:0333,0200,0336,0330,0332,0336,0336,0231,0231,0231,0231,0231,0231,0231,0231,0331,0331,0331,0331,0333,0333,0333,0333,0337,0337,0337,",
    "01232:0333,0200,0336,0330,0332,0336,0336,0336,0232,0337,0337,0337,0331,0333,0337,",
    "01233:0333,0200,0336,0330,0332,0210,0233,0211,0333,0331,0337,",
    "01234:0333,0200,0336,0330,0332,0210,0234,0211,0333,0331,0337,",
    "01235:0333,0200,0336,0330,0332,0210,0235,0211,0333,0331,0337,",
    "01236:0333,0200,0336,0330,0332,0210,0236,0211,0333,0331,0337,",
    "01237:0333,0200,0336,0330,0332,0210,0237,0211,0333,0331,0337,",
    "0240:0220,0336,0331,0333,0336,0321,0335,0342,0335,0335,0342,0335,0330,0330,0332,0332,0337,0337,",
    "01240:0333,0200,0336,0330,0332,0210,0240,0211,0333,0331,0337,",
    "0241:0220,0336,0321,0343,0332,0350,0335,0336,0342,0334,0334,0342,0335,0304,0337,0333,0337,",
    "01241:0333,0200,0336,0332,0330,0210,0241,0211,0333,0331,0337,",
    "0242:0220,0321,0336,0343,0333,0336,0350,0335,0342,0334,0334,0342,0335,0337,0304,0332,0337,",
    "01242:0333,0200,0336,0330,0332,0210,0242,0211,0333,0331,0337,",
    "0243:0220,0336,0331,0332,0336,0321,0343,0332,0350,0334,0336,0342,0335,0335,0342,0337,0334,0334,0335,0304,0332,0330,0330,0337,0337,0333,",
    "01243:0333,0200,0336,0330,0332,0210,0243,0211,0333,0331,0337,",
    "0244:0220,0336,0331,0333,0336,0321,0343,0333,0350,0336,0335,0342,0334,0334,0342,0335,0337,0304,0333,0330,0330,0337,0337,0332,",
    "01244:0333,0200,0336,0330,0332,0210,0244,0211,0333,0331,0337,",
    "0245:0210,0332,0332,0362,0335,0203,0203,0203,0203,0334,0203,0363,0332,0332,0331,0211,",
    "01245:0333,0200,0336,0330,0332,0336,0245,0337,0333,0331,0337,",
    "0246:0210,0332,0332,0335,0306,0336,0330,0335,0335,0335,0321,0362,0203,0335,0335,0203,0364,0331,0350,0335,0337,0366,0333,0333,0333,0333,0334,0334,0334,0334,0367,0335,0336,0342,0334,0334,0342,0330,0330,0330,0330,0335,0335,0335,0304,0337,0211,",
    "01246:0333,0200,0336,0330,0332,0336,0246,",
    "0247:0330,0332,0336,0332,0336,0221,0333,0333,0333,0222,0333,0333,0333,0223,0333,0333,0333,0225,0333,0331,0331,0331,0332,0332,0332,0332,0332,0332,0332,0332,0332,0332,0332,0332,0333,0333,0226,0331,0331,0331,0333,0333,0333,0333,0333,0333,0333,0333,0333,0333,0333,0333,0333,0330,0333,0330,0330,0333,0330,0331,0332,0332,0332,0332,0332,0332,0332,0332,0332,0332,0332,0332,0227,0333,0333,0333,0230,0333,0331,0331,0331,0331,0332,0332,0332,0330,0332,0332,0332,0332,0332,0332,0333,0333,0231,0333,0333,0333,0232,0331,0333,0330,0333,0333,0233,0333,0333,0333,0234,0330,0330,0332,0330,0332,0332,0337,0337,",
    "01247:0333,0200,0336,0330,0332,0220,0336,0247,0337,0331,0333,0337,"
  ]
}</json>--><circle cx="300" cy = "300" r = "62.09213230591551" stroke = "#000000" stroke-width = "5" fill = "none" />
	<path d = "M355 245 L344 234 L355 223 L366 212 L355 201 L377 201 L399 201 L399 223 L399 245 L388 234 L377 245 L366 256 L355 245 Z" stroke = "#000000" stroke-width = "5" fill = "none" />	<path d = "M378 300 L378 284 L393 284 L409 284 L409 269 L424 284 L440 300 L424 316 L409 331 L409 316 L393 316 L378 316 L378 300 Z" stroke = "#000000" stroke-width = "5" fill = "none" />	<path d = "M355 355 L366 344 L377 355 L388 366 L399 355 L399 377 L399 399 L377 399 L355 399 L366 388 L355 377 L344 366 L355 355 Z" stroke = "#000000" stroke-width = "5" fill = "none" />	<path d = "M300 378 L316 378 L316 393 L316 409 L331 409 L316 424 L300 440 L284 424 L269 409 L284 409 L284 393 L284 378 L300 378 Z" stroke = "#000000" stroke-width = "5" fill = "none" />	<path d = "M245 355 L256 366 L245 377 L234 388 L245 399 L223 399 L201 399 L201 377 L201 355 L212 366 L223 355 L234 344 L245 355 Z" stroke = "#000000" stroke-width = "5" fill = "none" />	<path d = "M222 300 L222 316 L207 316 L191 316 L191 331 L176 316 L160 300 L176 284 L191 269 L191 284 L207 284 L222 284 L222 300 Z" stroke = "#000000" stroke-width = "5" fill = "none" />	<path d = "M245 245 L234 256 L223 245 L212 234 L201 245 L201 223 L201 201 L223 201 L245 201 L234 212 L245 223 L256 234 L245 245 Z" stroke = "#000000" stroke-width = "5" fill = "none" />	<path d = "M300 222 L284 222 L284 207 L284 191 L269 191 L284 176 L300 160 L316 176 L331 191 L316 191 L316 207 L316 222 L300 222 Z" stroke = "#000000" stroke-width = "5" fill = "none" /><circle cx="454" cy = "146" r = "62.092132305915506" stroke = "#000000" stroke-width = "5" fill = "none" />
<circle cx="517" cy = "300" r = "62.092132305915506" stroke = "#000000" stroke-width = "5" fill = "none" />
<circle cx="454" cy = "454" r = "62.092132305915506" stroke = "#000000" stroke-width = "5" fill = "none" />
<circle cx="300" cy = "517" r = "62.092132305915506" stroke = "#000000" stroke-width = "5" fill = "none" />
<circle cx="146" cy = "454" r = "62.092132305915506" stroke = "#000000" stroke-width = "5" fill = "none" />
<circle cx="83" cy = "300" r = "62.092132305915506" stroke = "#000000" stroke-width = "5" fill = "none" />
<circle cx="146" cy = "146" r = "62.092132305915506" stroke = "#000000" stroke-width = "5" fill = "none" />
<circle cx="300" cy = "83" r = "62.092132305915506" stroke = "#000000" stroke-width = "5" fill = "none" />
</svg>