<svg width="600" height="450" viewbox = "0 0 600 450"  xmlns="http://www.w3.org/2000/svg">
<!--<json>{
  "glyph": "0231,0335,0337,0342,0335,0342,0335,0342,0335,0342,0300,0235,0235,0235,0235,",
  "x0": 300,
  "y0": 225,
  "unit": 156.92141883605018,
  "width": 600,
  "height": 450,
  "style": {
    "color0": "black",
    "fill0": "black",
    "line0": 1,
    "color1": "black",
    "fill1": "black",
    "line1": 5,
    "color2": "red",
    "fill2": "red",
    "line2": 2,
    "color3": "#FF7900",
    "fill3": "#FF7900",
    "line3": 2,
    "color4": "yellow",
    "fill4": "yellow",
    "line4": 2,
    "color5": "green",
    "fill5": "green",
    "line5": 2,
    "color6": "blue",
    "fill6": "blue",
    "line6": 2,
    "color7": "purple",
    "fill7": "purple",
    "line7": 2
  },
  "shapes": [
    "0220:0304,0313,0320,0200,0322,0336,0332,0337,0342,0336,0330,0333,0334,0337,0342,0336,0335,0331,0336,0332,0337,0342,0336,0333,0330,0334,0337,0342,0335,0336,0331,0336,0332,0337,0342,0336,0333,0330,0334,0337,0342,0335,0336,0331,0336,0332,0337,0342,0336,0333,0330,0334,0337,0342,0335,0336,0331,0337,0337,0337,0337,",
    "0221:0304,0320,0362,0203,0334,0350,0334,0310,0337,0203,0334,0334,0334,0336,0203,0354,0334,0334,0334,0336,0322,0201,0335,0335,0335,0336,0201,0334,0334,0334,0336,0201,0335,0335,0335,0336,0201,0334,0334,0334,0336,0201,0335,0335,0335,0336,0201,0334,0334,0334,0336,0201,0335,0335,0335,0336,0201,0334,0334,0330,0337,0337,0337,0337,0337,0337,0337,0337,0331,0313,0304,0320,",
    "0222:0306,0320,0362,0203,0334,0334,0203,0334,0334,0203,0354,0334,0334,0313,0336,0322,0330,0334,0201,0334,0334,0201,0334,0334,0201,0334,0331,0337,0320,",
    "0223:0304,0335,0335,0331,0306,0350,0362,0203,0335,0335,0335,0335,0335,0312,0336,0203,0335,0335,0203,0354,0335,0335,0335,0335,0335,0337,0322,0335,0336,0330,0334,0334,0334,0334,0313,0336,0342,0337,0312,0335,0336,0342,0334,0334,0342,0330,0335,0335,0335,0335,0335,0336,0201,0334,0334,0342,0335,0335,0334,0334,0334,0336,0342,0334,0334,0342,0335,0335,0335,0335,0335,0337,0331,0335,0337,0330,0334,0337,0331,0334,0337,0320,0330,0304,0335,0335,0306,0350,",
    "0224:0305,0311,0362,0203,0334,0334,0203,0334,0350,0334,0336,0203,0354,0334,0334,0334,0337,0322,0336,0334,0201,0335,0335,0335,0335,0336,0201,0334,0334,0334,0334,0201,0335,0335,0335,0336,0335,0201,0334,0334,0334,0334,0201,0335,0335,0335,0335,0336,0201,0334,0334,0334,0334,0201,0335,0335,0335,0335,0336,0201,0334,0334,0334,0334,0201,0335,0335,0335,0335,0336,0201,0334,0334,0334,0337,0330,0337,0337,0337,0337,0337,0331,0320,",
    "0225:0304,0330,0335,0335,0305,0350,0311,0362,0203,0335,0335,0335,0335,0336,0203,0335,0335,0203,0354,0335,0335,0335,0322,0335,0335,0330,0334,0334,0334,0336,0334,0342,0335,0342,0330,0335,0335,0335,0336,0335,0201,0334,0334,0334,0334,0201,0335,0335,0335,0335,0336,0201,0334,0334,0334,0334,0201,0335,0335,0335,0336,0335,0201,0334,0334,0334,0334,0342,0335,0331,0337,0331,0337,0331,0335,0335,0337,0335,0331,0335,0336,0201,0335,0335,0335,0335,0201,0334,0334,0334,0334,0336,0201,0335,0335,0335,0335,0201,0334,0334,0334,0334,0336,0201,0335,0335,0335,0335,0201,0335,0335,0335,0331,0337,0337,0337,0337,0337,0320,0304,0335,0335,0331,0305,0350,",
    "0226:0313,0333,0342,0336,0332,0342,0336,0333,0342,0332,0332,0342,0336,0332,0342,0333,0333,0342,0333,0333,0342,0333,0333,0342,0333,0337,0337,0337,",
    "0227:0313,0336,0333,0337,0316,0336,0342,0313,0336,0332,0342,0332,0342,0332,0342,0332,0342,0333,0333,0333,0333,0333,0342,0333,0342,0333,0342,0333,0342,0333,0337,0316,0337,0313,",
    "0230:0322,0226,0226,0226,0226,0226,0226,0334,0226,0334,0227,0227,0227,0227,0227,0227,0334,0227,0334,0320,0362,0203,0335,0203,0203,0203,0203,0203,0203,0335,0203,0335,0203,0203,0203,0203,0203,0203,0335,0354,0313,",
    "0231:0330,0337,0335,0311,0337,0313,0336,0331,0337,0362,0203,0335,0311,0336,0203,0335,0337,0203,0335,0336,0203,0335,0337,0313,0336,0330,0337,0311,0336,0334,0313,0336,0331,0332,0342,0335,0335,0332,0332,0342,0335,0335,0332,",
    "0232:0210,0231,",
    "0233:0313,0304,0336,0332,0336,0336,0330,0334,0362,0203,0334,0203,0335,0203,0203,0203,0335,0203,0203,0203,0335,0203,0334,0203,0203,0334,0203,0335,0203,0203,0203,0335,0203,0203,0203,0335,0203,0334,0203,0203,0334,0203,0335,0203,0203,0203,0335,0203,0203,0203,0335,0203,0334,0203,0203,0334,0203,0335,0203,0203,0203,0335,0203,0203,0203,0335,0203,0334,0203,0354,0335,0331,0333,0333,0333,0333,0337,0337,0337,",
    "0234:0336,0336,0336,0330,0362,0203,0203,0334,0203,0335,0203,0203,0335,0203,0334,0203,0203,0203,0334,0203,0203,0203,0203,0203,0203,0203,0334,0203,0203,0203,0335,0203,0334,0203,0203,0334,0203,0335,0203,0203,0334,0203,0203,0335,0203,0334,0203,0203,0334,0203,0335,0203,0203,0203,0354,0334,0331,0337,0337,0337,",
    "0235:0322,0232,0323,0232,0324,0232,0325,0232,0326,0232,0327,0232,",
    "0236:0313,0336,0316,0336,0332,0336,0347,0337,0333,0333,0336,0347,0337,0332,0337,0313,0337,",
    "0237:0200,0336,0330,0332,0336,0330,0325,0235,0331,0331,0335,0335,0235,0331,0322,0335,0330,0235,0331,0335,0335,0330,0235,0334,0326,0330,0235,0331,0331,0335,0335,0235,0333,0333,0325,0336,0341,0335,0335,0330,0330,0330,0330,0322,0341,0320,0337,0350,0335,0304,0236,0350,0335,0304,0330,0236,0330,0350,0335,0304,0236,0350,0335,0304,0330,0236,0330,0350,0335,0304,0236,0350,0335,0304,0330,0236,0330,0350,0335,0304,0236,0350,0335,0330,0304,0236,0333,0331,0333,0336,0331,0333,0337,0314,0337,0200,0336,0313,0336,0331,0333,0337,0337,0337,0336,0336,0330,0332,0327,0336,0330,0332,0336,0336,0332,0332,0332,0332,0331,0331,0331,0332,0332,0332,0333,0333,070,040,0147,0162,0145,0145,0156,0365,0332,0332,0332,0332,0332,0332,0332,0332,061,061,040,0147,0162,0145,0171,0365,061,060,040,0160,0165,0162,0160,0154,0145,0330,0330,0330,0330,0330,0330,0332,0332,0365,061,062,040,0167,0150,0151,0164,0145,0330,0330,0330,0330,0330,0330,0330,0365,071,040,0142,0154,0165,0145,0333,0333,0333,0333,0333,0333,0333,0333,0333,0365,065,040,0162,0145,0144,0333,0333,0333,0333,0333,0333,0333,0333,0333,0365,067,040,0171,0145,0154,0154,0157,0167,0331,0331,0331,0331,0331,0332,0365,066,040,0157,0162,0141,0156,0147,0145,0331,0331,0331,0331,0331,0331,0331,0331,0365,0331,0331,0331,0331,0331,0331,0333,0333,0333,0333,0333,0331,0331,0333,0333,0331,0333,0333,0333,0337,0337,0337,0337,0337,0320,0336,0332,0336,0336,0336,0332,0201,0201,0201,0335,0201,0201,0335,0201,0201,0201,0335,0335,0333,0333,0333,0333,0333,0333,0333,0337,0337,0337,0337,",
    "01220:0333,0220,",
    "01221:0333,0221,",
    "01222:0333,0222,0304,",
    "01223:0333,0223,0314,0304,0313,",
    "01224:0333,0224,0313,0304,",
    "01225:0333,0225,0313,0304,",
    "01226:0226,0200,",
    "01227:0227,0200,",
    "01230:0230,0333,0333,0333,0333,0333,0333,",
    "01231:0333,0200,0336,0330,0332,0336,0231,0313,0337,0331,0333,0337,",
    "01232:0333,0232,",
    "01233:0333,0233,",
    "01234:0333,0234,",
    "01235:0333,0200,0336,0330,0332,0235,0331,0333,0337,",
    "01236:0333,0200,0336,0330,0332,0236,0331,0333,0337,",
    "01237:0333,0237,",
    "0240:0220,0336,0331,0333,0336,0321,0335,0342,0335,0335,0342,0335,0330,0330,0332,0332,0337,0337,",
    "01240:0333,0200,0336,0330,0332,0210,0240,0211,0333,0331,0337,",
    "0241:0220,0336,0321,0343,0332,0350,0335,0336,0342,0334,0334,0342,0335,0304,0337,0333,0337,",
    "01241:0333,0200,0336,0332,0330,0210,0241,0211,0333,0331,0337,",
    "0242:0220,0321,0336,0343,0333,0336,0350,0335,0342,0334,0334,0342,0335,0337,0304,0332,0337,",
    "01242:0333,0200,0336,0330,0332,0210,0242,0211,0333,0331,0337,",
    "0243:0220,0336,0331,0332,0336,0321,0343,0332,0350,0334,0336,0342,0335,0335,0342,0337,0334,0334,0335,0304,0332,0330,0330,0337,0337,0333,",
    "01243:0333,0200,0336,0330,0332,0210,0243,0211,0333,0331,0337,",
    "0244:0220,0336,0331,0333,0336,0321,0343,0333,0350,0336,0335,0342,0334,0334,0342,0335,0337,0304,0333,0330,0330,0337,0337,0332,",
    "01244:0333,0200,0336,0330,0332,0210,0244,0211,0333,0331,0337,",
    "0245:0210,0332,0332,0362,0335,0203,0203,0203,0203,0334,0203,0363,0332,0332,0331,0211,",
    "01245:0333,0200,0336,0330,0332,0336,0245,0337,0333,0331,0337,",
    "0246:0210,0332,0332,0335,0306,0336,0330,0335,0335,0335,0321,0362,0203,0335,0335,0203,0364,0331,0350,0335,0337,0366,0333,0333,0333,0333,0334,0334,0334,0334,0367,0335,0336,0342,0334,0334,0342,0330,0330,0330,0330,0335,0335,0335,0304,0337,0211,",
    "01246:0333,0200,0336,0330,0332,0336,0246,",
    "0247:0330,0332,0336,0332,0336,0221,0333,0333,0333,0222,0333,0333,0333,0223,0333,0333,0333,0225,0333,0331,0331,0331,0332,0332,0332,0332,0332,0332,0332,0332,0332,0332,0332,0332,0333,0333,0226,0331,0331,0331,0333,0333,0333,0333,0333,0333,0333,0333,0333,0333,0333,0333,0333,0330,0333,0330,0330,0333,0330,0331,0332,0332,0332,0332,0332,0332,0332,0332,0332,0332,0332,0332,0227,0333,0333,0333,0230,0333,0331,0331,0331,0331,0332,0332,0332,0330,0332,0332,0332,0332,0332,0332,0333,0333,0231,0333,0333,0333,0232,0331,0333,0330,0333,0333,0233,0333,0333,0333,0234,0330,0330,0332,0330,0332,0332,0337,0337,",
    "01247:0333,0200,0336,0330,0332,0220,0336,0247,0337,0331,0333,0337,"
  ]
}</json>-->	<path d = "M46 68 L554 68 L554 382 L46 382 L46 68     <line x1="143" y1="225" x2="143" y2="68" style="stroke:#000000;stroke-width:1" />
    <line x1="457" y1="225" x2="457" y2="382" style="stroke:#000000;stroke-width:1" />
    <line x1="300" y1="225" x2="614" y2="225" style="stroke:#000000;stroke-width:1" />
    <line x1="300" y1="225" x2="300" y2="539" style="stroke:#000000;stroke-width:1" />
    <line x1="300" y1="225" x2="-14" y2="225" style="stroke:#000000;stroke-width:1" />
    <line x1="300" y1="225" x2="300" y2="-89" style="stroke:#000000;stroke-width:1" />
	<path d = "M78 88 L522 88 L522 362 L78 362 L78 88     <line x1="163" y1="225" x2="163" y2="88" style="stroke:#ff0000;stroke-width:2" />
    <line x1="437" y1="225" x2="437" y2="362" style="stroke:#ff0000;stroke-width:2" />
	<path d = "M106 105 L494 105 L494 345 L106 345 L106 105     <line x1="180" y1="225" x2="180" y2="105" style="stroke:#ff7900;stroke-width:2" />
    <line x1="420" y1="225" x2="420" y2="345" style="stroke:#ff7900;stroke-width:2" />
	<path d = "M130 120 L470 120 L470 330 L130 330 L130 120     <line x1="195" y1="225" x2="195" y2="120" style="stroke:#ffff00;stroke-width:2" />
    <line x1="405" y1="225" x2="405" y2="330" style="stroke:#ffff00;stroke-width:2" />
	<path d = "M152 133 L448 133 L448 317 L152 317 L152 133     <line x1="208" y1="225" x2="208" y2="133" style="stroke:#008000;stroke-width:2" />
    <line x1="392" y1="225" x2="392" y2="317" style="stroke:#008000;stroke-width:2" />
	<path d = "M170 145 L430 145 L430 305 L170 305 L170 145     <line x1="220" y1="225" x2="220" y2="145" style="stroke:#0000ff;stroke-width:2" />
    <line x1="380" y1="225" x2="380" y2="305" style="stroke:#0000ff;stroke-width:2" />
	<path d = "M187 155 L413 155 L413 295 L187 295 L187 155     <line x1="230" y1="225" x2="230" y2="155" style="stroke:#800080;stroke-width:2" />
    <line x1="370" y1="225" x2="370" y2="295" style="stroke:#800080;stroke-width:2" />
	<path d = "M201 164 L399 164 L399 286 L201 286 L201 164     <line x1="239" y1="225" x2="239" y2="164" style="stroke:#ff0000;stroke-width:2" />
    <line x1="361" y1="225" x2="361" y2="286" style="stroke:#ff0000;stroke-width:2" />
	<path d = "M214 172 L386 172 L386 278 L214 278 L214 172     <line x1="247" y1="225" x2="247" y2="172" style="stroke:#ff7900;stroke-width:2" />
    <line x1="353" y1="225" x2="353" y2="278" style="stroke:#ff7900;stroke-width:2" />
	<path d = "M224 178 L376 178 L376 272 L224 272 L224 178     <line x1="253" y1="225" x2="253" y2="178" style="stroke:#ffff00;stroke-width:2" />
    <line x1="347" y1="225" x2="347" y2="272" style="stroke:#ffff00;stroke-width:2" />
	<path d = "M234 184 L366 184 L366 266 L234 266 L234 184     <line x1="259" y1="225" x2="259" y2="184" style="stroke:#008000;stroke-width:2" />
    <line x1="341" y1="225" x2="341" y2="266" style="stroke:#008000;stroke-width:2" />
	<path d = "M242 189 L358 189 L358 261 L242 261 L242 189     <line x1="264" y1="225" x2="264" y2="189" style="stroke:#0000ff;stroke-width:2" />
    <line x1="336" y1="225" x2="336" y2="261" style="stroke:#0000ff;stroke-width:2" />
	<path d = "M250 194 L350 194 L350 256 L250 256 L250 194     <line x1="269" y1="225" x2="269" y2="194" style="stroke:#800080;stroke-width:2" />
    <line x1="331" y1="225" x2="331" y2="256" style="stroke:#800080;stroke-width:2" />
	<path d = "M256 198 L344 198 L344 252 L256 252 L256 198     <line x1="273" y1="225" x2="273" y2="198" style="stroke:#ff0000;stroke-width:2" />
    <line x1="327" y1="225" x2="327" y2="252" style="stroke:#ff0000;stroke-width:2" />
	<path d = "M261 201 L339 201 L339 249 L261 249 L261 201     <line x1="276" y1="225" x2="276" y2="201" style="stroke:#ff7900;stroke-width:2" />
    <line x1="324" y1="225" x2="324" y2="249" style="stroke:#ff7900;stroke-width:2" />
	<path d = "M266 204 L334 204 L334 246 L266 246 L266 204     <line x1="279" y1="225" x2="279" y2="204" style="stroke:#ffff00;stroke-width:2" />
    <line x1="321" y1="225" x2="321" y2="246" style="stroke:#ffff00;stroke-width:2" />
	<path d = "M271 207 L329 207 L329 243 L271 243 L271 207     <line x1="282" y1="225" x2="282" y2="207" style="stroke:#008000;stroke-width:2" />
    <line x1="318" y1="225" x2="318" y2="243" style="stroke:#008000;stroke-width:2" />
	<path d = "M274 209 L326 209 L326 241 L274 241 L274 209     <line x1="284" y1="225" x2="284" y2="209" style="stroke:#0000ff;stroke-width:2" />
    <line x1="316" y1="225" x2="316" y2="241" style="stroke:#0000ff;stroke-width:2" />
	<path d = "M278 211 L322 211 L322 239 L278 239 L278 211     <line x1="286" y1="225" x2="286" y2="211" style="stroke:#800080;stroke-width:2" />
    <line x1="314" y1="225" x2="314" y2="239" style="stroke:#800080;stroke-width:2" />
	<path d = "M280 213 L320 213 L320 237 L280 237 L280 213     <line x1="288" y1="225" x2="288" y2="213" style="stroke:#ff0000;stroke-width:2" />
    <line x1="312" y1="225" x2="312" y2="237" style="stroke:#ff0000;stroke-width:2" />
	<path d = "M283 214 L317 214 L317 236 L283 236 L283 214     <line x1="289" y1="225" x2="289" y2="214" style="stroke:#ff7900;stroke-width:2" />
    <line x1="311" y1="225" x2="311" y2="236" style="stroke:#ff7900;stroke-width:2" />
	<path d = "M285 216 L315 216 L315 234 L285 234 L285 216     <line x1="291" y1="225" x2="291" y2="216" style="stroke:#ffff00;stroke-width:2" />
    <line x1="309" y1="225" x2="309" y2="234" style="stroke:#ffff00;stroke-width:2" />
	<path d = "M287 217 L313 217 L313 233 L287 233 L287 217     <line x1="292" y1="225" x2="292" y2="217" style="stroke:#008000;stroke-width:2" />
    <line x1="308" y1="225" x2="308" y2="233" style="stroke:#008000;stroke-width:2" />
	<path d = "M289 218 L311 218 L311 232 L289 232 L289 218     <line x1="293" y1="225" x2="293" y2="218" style="stroke:#0000ff;stroke-width:2" />
    <line x1="307" y1="225" x2="307" y2="232" style="stroke:#0000ff;stroke-width:2" />
	<path d = "M290 219 L310 219 L310 231 L290 231 L290 219     <line x1="294" y1="225" x2="294" y2="219" style="stroke:#800080;stroke-width:2" />
    <line x1="306" y1="225" x2="306" y2="231" style="stroke:#800080;stroke-width:2" />
</svg>