<svg width="600" height="600" viewbox = "0 0 600 600"  xmlns="http://www.w3.org/2000/svg">
<!--<json>{
  "glyph": "0336,0336,0226,0320,",
  "x0": 300,
  "y0": 300,
  "unit": 129.68712300500013,
  "width": 600,
  "height": 600,
  "style": {
    "color0": "black",
    "fill0": "black",
    "line0": 1,
    "color1": "black",
    "fill1": "black",
    "line1": 12,
    "color2": "red",
    "fill2": "red",
    "line2": 1,
    "color3": "#FF7900",
    "fill3": "#FF7900",
    "line3": 1,
    "color4": "yellow",
    "fill4": "yellow",
    "line4": 1,
    "color5": "green",
    "fill5": "green",
    "line5": 1,
    "color6": "blue",
    "fill6": "blue",
    "line6": 1,
    "color7": "purple",
    "fill7": "purple",
    "line7": 1
  },
  "shapes": [
    "0220:0306,0201,0334,0201,0335,0201,0334,0201,0334,0201,0201,0201,0201,0334,0201,0335,0201,0334,0201,0335,0201,0334,0334,0201,0201,0334,0201,0201,0201,0201,0201,0201,0331,0334,0334,0201,0335,0201,0335,0342,0334,0334,0201,0335,0201,0331,0334,0334,0201,0335,0342,0334,0334,0201,0335,0201,0335,0342,0334,0334,0342,0330,0335,0201,0335,0342,0334,0334,0342,0334,0334,0330,0335,0201,0331,0330,0334,0330,0334,0201,0334,0342,0335,0335,0342,0334,0331,0335,0331,0331,0331,0335,0331,0331,0334,",
    "0221:0220,0220,0220,0220,0220,0220,",
    "0222:0306,0331,0333,0331,0333,0331,0333,0331,0333,0331,0333,0331,0331,0333,0331,0221,0330,0332,0330,0332,0330,0332,0332,0330,0331,0332,0331,0332,",
    "0223:0222,0330,0335,0335,0201,0335,0201,0335,0201,0335,0201,0335,0201,0335,0201,0334,0201,0335,0335,0337,0201,0335,0201,0335,0201,0335,0201,0335,0201,0335,0201,0331,0335,0336,0342,0330,0335,0330,0335,0342,0334,0334,0330,0335,0342,0334,0334,0330,0335,0342,0334,0334,0330,0335,0342,0331,0334,",
    "0224:0306,0330,0335,0335,0362,0203,0335,0203,0335,0203,0335,0203,0335,0203,0335,0203,0354,0334,0331,",
    "0225:0306,0350,0350,0350,0335,0306,0337,0314,0337,0335,0350,0343,0350,0335,0335,0350,0335,0343,0334,0334,0334,0334,0334,0334,0334,0334,0334,0334,0343,0335,0335,0335,0335,0335,0351,0351,0351,0334,0336,0313,0336,0350,0350,0350,0334,0306,",
    "0226:0223,0321,0306,0225,0335,0335,0225,0335,0335,0225,0335,0335,0330,0330,0330,0330,0330,0330,0224,0331,0331,0331,0331,0331,0331,0331,0331,0331,0331,0331,0331,0332,0332,0332,0332,0332,0332,0224,0333,0333,0333,0333,0333,0333,0333,0333,0333,0333,0333,0333,0331,0331,0331,0331,0331,0331,0224,0332,0332,0332,0332,0332,0332,",
    "0227:0313,0336,0333,0337,0316,0336,0342,0313,0336,0332,0342,0332,0342,0332,0342,0332,0342,0333,0333,0333,0333,0333,0342,0333,0342,0333,0342,0333,0342,0333,0337,0316,0337,0313,",
    "0230:0322,0226,0226,0226,0226,0226,0226,0334,0226,0334,0227,0227,0227,0227,0227,0227,0334,0227,0334,0320,0362,0203,0335,0203,0203,0203,0203,0203,0203,0335,0203,0335,0203,0203,0203,0203,0203,0203,0335,0354,0313,",
    "0231:0330,0337,0335,0311,0337,0313,0336,0331,0337,0362,0203,0335,0311,0336,0203,0335,0337,0203,0335,0336,0203,0354,0335,0337,0313,0336,0330,0337,0311,0336,0334,0313,0336,0331,0332,0342,0335,0335,0332,0332,0342,0335,0335,0332,",
    "0232:0210,0231,",
    "0233:0313,0304,0336,0332,0336,0336,0330,0334,0362,0203,0334,0203,0335,0203,0203,0203,0335,0203,0203,0203,0335,0203,0334,0203,0203,0334,0203,0335,0203,0203,0203,0335,0203,0203,0203,0335,0203,0334,0203,0203,0334,0203,0335,0203,0203,0203,0335,0203,0203,0203,0335,0203,0334,0203,0203,0334,0203,0335,0203,0203,0203,0335,0203,0203,0203,0335,0203,0334,0203,0354,0335,0331,0333,0333,0333,0333,0337,0337,0337,",
    "0234:0336,0336,0336,0330,0362,0203,0203,0334,0203,0335,0203,0203,0335,0203,0334,0203,0203,0203,0334,0203,0203,0203,0203,0203,0203,0203,0334,0203,0203,0203,0335,0203,0334,0203,0203,0334,0203,0335,0203,0203,0334,0203,0203,0335,0203,0334,0203,0203,0334,0203,0335,0203,0203,0203,0354,0334,0331,0337,0337,0337,",
    "0235:0322,0232,0323,0232,0324,0232,0325,0232,0326,0232,0327,0232,",
    "0236:0313,0336,0316,0336,0332,0336,0347,0337,0333,0333,0336,0347,0337,0332,0337,0313,0337,",
    "0237:0200,0336,0330,0332,0336,0330,0325,0235,0331,0331,0335,0335,0235,0331,0322,0335,0330,0235,0331,0335,0335,0330,0235,0334,0326,0330,0235,0331,0331,0335,0335,0235,0333,0333,0325,0336,0341,0335,0335,0330,0330,0330,0330,0322,0341,0320,0337,0350,0335,0304,0236,0350,0335,0304,0330,0236,0330,0350,0335,0304,0236,0350,0335,0304,0330,0236,0330,0350,0335,0304,0236,0350,0335,0304,0330,0236,0330,0350,0335,0304,0236,0350,0335,0330,0304,0236,0333,0331,0333,0336,0331,0333,0337,0314,0337,0200,0336,0313,0336,0331,0333,0337,0337,0337,0336,0336,0330,0332,0327,0336,0330,0332,0336,0336,0332,0332,0332,0332,0331,0331,0331,0332,0332,0332,0333,0333,070,040,0147,0162,0145,0145,0156,0365,0332,0332,0332,0332,0332,0332,0332,0332,061,061,040,0147,0162,0145,0171,0365,061,060,040,0160,0165,0162,0160,0154,0145,0330,0330,0330,0330,0330,0330,0332,0332,0365,061,062,040,0167,0150,0151,0164,0145,0330,0330,0330,0330,0330,0330,0330,0365,071,040,0142,0154,0165,0145,0333,0333,0333,0333,0333,0333,0333,0333,0333,0365,065,040,0162,0145,0144,0333,0333,0333,0333,0333,0333,0333,0333,0333,0365,067,040,0171,0145,0154,0154,0157,0167,0331,0331,0331,0331,0331,0332,0365,066,040,0157,0162,0141,0156,0147,0145,0331,0331,0331,0331,0331,0331,0331,0331,0365,0331,0331,0331,0331,0331,0331,0333,0333,0333,0333,0333,0331,0331,0333,0333,0331,0333,0333,0333,0337,0337,0337,0337,0337,0320,0336,0332,0336,0336,0336,0332,0201,0201,0201,0335,0201,0201,0335,0201,0201,0201,0335,0335,0333,0333,0333,0333,0333,0333,0333,0337,0337,0337,0337,",
    "01220:0333,0200,0336,0336,0330,0332,0336,0330,0333,0220,0330,0330,0330,0330,0330,0330,0330,0330,0334,0331,0331,0313,0304,0331,0331,0331,0333,0337,0337,0337,",
    "01221:0333,0200,0336,0330,0332,0336,0336,0336,0331,0333,0331,0333,0331,0333,0331,0333,0331,0331,0333,0221,0304,0313,0331,0333,0331,0333,0333,0337,0337,0337,0337,",
    "01222:0333,0200,0336,0330,0332,0336,0336,0336,0222,0347,0337,0337,0337,0304,0331,0333,0337,",
    "01223:0333,0200,0336,0330,0332,0336,0336,0336,0223,0337,0337,0337,0304,0331,0333,0337,",
    "01224:0333,0200,0336,0330,0332,0224,0313,0304,0331,0333,0337,",
    "01225:0333,0200,0336,0330,0332,0336,0336,0336,0225,0337,0337,0337,0304,0331,0333,0337,",
    "01226:0333,0200,0336,0330,0332,0336,0336,0336,0226,0337,0337,0337,0304,0320,0331,0333,0337,",
    "01227:0227,0200,",
    "01230:0230,0333,0333,0333,0333,0333,0333,",
    "01231:0333,0200,0336,0330,0332,0336,0231,0313,0337,0331,0333,0337,",
    "01232:0333,0232,",
    "01233:0333,0233,",
    "01234:0333,0234,",
    "01235:0333,0200,0336,0330,0332,0235,0331,0333,0337,",
    "01236:0333,0200,0336,0330,0332,0236,0331,0333,0337,",
    "01237:0333,0237,",
    "0240:0220,0336,0331,0333,0336,0321,0335,0342,0335,0335,0342,0335,0330,0330,0332,0332,0337,0337,",
    "01240:0333,0200,0336,0330,0332,0210,0240,0211,0333,0331,0337,",
    "0241:0220,0336,0321,0343,0332,0350,0335,0336,0342,0334,0334,0342,0335,0304,0337,0333,0337,",
    "01241:0333,0200,0336,0332,0330,0210,0241,0211,0333,0331,0337,",
    "0242:0220,0321,0336,0343,0333,0336,0350,0335,0342,0334,0334,0342,0335,0337,0304,0332,0337,",
    "01242:0333,0200,0336,0330,0332,0210,0242,0211,0333,0331,0337,",
    "0243:0220,0336,0331,0332,0336,0321,0343,0332,0350,0334,0336,0342,0335,0335,0342,0337,0334,0334,0335,0304,0332,0330,0330,0337,0337,0333,",
    "01243:0333,0200,0336,0330,0332,0210,0243,0211,0333,0331,0337,",
    "0244:0220,0336,0331,0333,0336,0321,0343,0333,0350,0336,0335,0342,0334,0334,0342,0335,0337,0304,0333,0330,0330,0337,0337,0332,",
    "01244:0333,0200,0336,0330,0332,0210,0244,0211,0333,0331,0337,",
    "0245:0210,0332,0332,0362,0335,0203,0203,0203,0203,0334,0203,0363,0332,0332,0331,0211,",
    "01245:0333,0200,0336,0330,0332,0336,0245,0337,0333,0331,0337,",
    "0246:0210,0332,0332,0335,0306,0336,0330,0335,0335,0335,0321,0362,0203,0335,0335,0203,0364,0331,0350,0335,0337,0366,0333,0333,0333,0333,0334,0334,0334,0334,0367,0335,0336,0342,0334,0334,0342,0330,0330,0330,0330,0335,0335,0335,0304,0337,0211,",
    "01246:0333,0200,0336,0330,0332,0336,0246,",
    "0247:0330,0332,0336,0332,0336,0221,0333,0333,0333,0222,0333,0333,0333,0223,0333,0333,0333,0225,0333,0331,0331,0331,0332,0332,0332,0332,0332,0332,0332,0332,0332,0332,0332,0332,0333,0333,0226,0331,0331,0331,0333,0333,0333,0333,0333,0333,0333,0333,0333,0333,0333,0333,0333,0330,0333,0330,0330,0333,0330,0331,0332,0332,0332,0332,0332,0332,0332,0332,0332,0332,0332,0332,0227,0333,0333,0333,0230,0333,0331,0331,0331,0331,0332,0332,0332,0330,0332,0332,0332,0332,0332,0332,0333,0333,0231,0333,0333,0333,0232,0331,0333,0330,0333,0333,0233,0333,0333,0333,0234,0330,0330,0332,0330,0332,0332,0337,0337,",
    "01247:0333,0200,0336,0330,0332,0220,0336,0247,0337,0331,0333,0337,"
  ]
}</json>-->    <line x1="468" y1="462" x2="468" y2="430" style="stroke:#000000;stroke-width:1" />
    <line x1="468" y1="430" x2="440" y2="413" style="stroke:#000000;stroke-width:1" />
    <line x1="440" y1="413" x2="440" y2="381" style="stroke:#000000;stroke-width:1" />
    <line x1="440" y1="381" x2="412" y2="365" style="stroke:#000000;stroke-width:1" />
    <line x1="412" y1="365" x2="384" y2="381" style="stroke:#000000;stroke-width:1" />
    <line x1="384" y1="381" x2="356" y2="397" style="stroke:#000000;stroke-width:1" />
    <line x1="356" y1="397" x2="328" y2="413" style="stroke:#000000;stroke-width:1" />
    <line x1="328" y1="413" x2="300" y2="430" style="stroke:#000000;stroke-width:1" />
    <line x1="300" y1="430" x2="300" y2="462" style="stroke:#000000;stroke-width:1" />
    <line x1="300" y1="462" x2="272" y2="478" style="stroke:#000000;stroke-width:1" />
    <line x1="272" y1="478" x2="272" y2="511" style="stroke:#000000;stroke-width:1" />
    <line x1="272" y1="511" x2="244" y2="527" style="stroke:#000000;stroke-width:1" />
    <line x1="244" y1="527" x2="272" y2="543" style="stroke:#000000;stroke-width:1" />
    <line x1="272" y1="543" x2="300" y2="559" style="stroke:#000000;stroke-width:1" />
    <line x1="300" y1="559" x2="328" y2="543" style="stroke:#000000;stroke-width:1" />
    <line x1="328" y1="543" x2="356" y2="527" style="stroke:#000000;stroke-width:1" />
    <line x1="356" y1="527" x2="384" y2="511" style="stroke:#000000;stroke-width:1" />
    <line x1="384" y1="511" x2="412" y2="495" style="stroke:#000000;stroke-width:1" />
    <line x1="412" y1="495" x2="440" y2="478" style="stroke:#000000;stroke-width:1" />
    <line x1="440" y1="478" x2="468" y2="462" style="stroke:#000000;stroke-width:1" />
    <line x1="440" y1="478" x2="412" y2="462" style="stroke:#000000;stroke-width:1" />
    <line x1="412" y1="462" x2="412" y2="430" style="stroke:#000000;stroke-width:1" />
    <line x1="412" y1="430" x2="440" y2="413" style="stroke:#000000;stroke-width:1" />
    <line x1="412" y1="430" x2="384" y2="413" style="stroke:#000000;stroke-width:1" />
    <line x1="384" y1="413" x2="384" y2="381" style="stroke:#000000;stroke-width:1" />
    <line x1="384" y1="413" x2="356" y2="430" style="stroke:#000000;stroke-width:1" />
    <line x1="356" y1="430" x2="328" y2="413" style="stroke:#000000;stroke-width:1" />
    <line x1="356" y1="430" x2="356" y2="462" style="stroke:#000000;stroke-width:1" />
    <line x1="356" y1="462" x2="328" y2="478" style="stroke:#000000;stroke-width:1" />
    <line x1="328" y1="478" x2="300" y2="462" style="stroke:#000000;stroke-width:1" />
    <line x1="328" y1="478" x2="328" y2="511" style="stroke:#000000;stroke-width:1" />
    <line x1="328" y1="511" x2="300" y2="527" style="stroke:#000000;stroke-width:1" />
    <line x1="300" y1="527" x2="272" y2="511" style="stroke:#000000;stroke-width:1" />
    <line x1="300" y1="527" x2="300" y2="559" style="stroke:#000000;stroke-width:1" />
    <line x1="328" y1="511" x2="356" y2="527" style="stroke:#000000;stroke-width:1" />
    <line x1="384" y1="511" x2="384" y2="478" style="stroke:#000000;stroke-width:1" />
    <line x1="384" y1="478" x2="356" y2="462" style="stroke:#000000;stroke-width:1" />
    <line x1="384" y1="478" x2="412" y2="462" style="stroke:#000000;stroke-width:1" />
    <line x1="244" y1="527" x2="272" y2="511" style="stroke:#000000;stroke-width:1" />
    <line x1="272" y1="511" x2="272" y2="478" style="stroke:#000000;stroke-width:1" />
    <line x1="272" y1="478" x2="300" y2="462" style="stroke:#000000;stroke-width:1" />
    <line x1="300" y1="462" x2="300" y2="430" style="stroke:#000000;stroke-width:1" />
    <line x1="300" y1="430" x2="272" y2="413" style="stroke:#000000;stroke-width:1" />
    <line x1="272" y1="413" x2="244" y2="397" style="stroke:#000000;stroke-width:1" />
    <line x1="244" y1="397" x2="216" y2="381" style="stroke:#000000;stroke-width:1" />
    <line x1="216" y1="381" x2="188" y2="365" style="stroke:#000000;stroke-width:1" />
    <line x1="188" y1="365" x2="160" y2="381" style="stroke:#000000;stroke-width:1" />
    <line x1="160" y1="381" x2="132" y2="365" style="stroke:#000000;stroke-width:1" />
    <line x1="132" y1="365" x2="103" y2="381" style="stroke:#000000;stroke-width:1" />
    <line x1="103" y1="381" x2="75" y2="365" style="stroke:#000000;stroke-width:1" />
    <line x1="75" y1="365" x2="75" y2="397" style="stroke:#000000;stroke-width:1" />
    <line x1="75" y1="397" x2="75" y2="430" style="stroke:#000000;stroke-width:1" />
    <line x1="75" y1="430" x2="103" y2="446" style="stroke:#000000;stroke-width:1" />
    <line x1="103" y1="446" x2="132" y2="462" style="stroke:#000000;stroke-width:1" />
    <line x1="132" y1="462" x2="160" y2="478" style="stroke:#000000;stroke-width:1" />
    <line x1="160" y1="478" x2="188" y2="495" style="stroke:#000000;stroke-width:1" />
    <line x1="188" y1="495" x2="216" y2="511" style="stroke:#000000;stroke-width:1" />
    <line x1="216" y1="511" x2="244" y2="527" style="stroke:#000000;stroke-width:1" />
    <line x1="216" y1="511" x2="216" y2="478" style="stroke:#000000;stroke-width:1" />
    <line x1="216" y1="478" x2="244" y2="462" style="stroke:#000000;stroke-width:1" />
    <line x1="244" y1="462" x2="272" y2="478" style="stroke:#000000;stroke-width:1" />
    <line x1="244" y1="462" x2="244" y2="430" style="stroke:#000000;stroke-width:1" />
    <line x1="244" y1="430" x2="272" y2="413" style="stroke:#000000;stroke-width:1" />
    <line x1="244" y1="430" x2="216" y2="413" style="stroke:#000000;stroke-width:1" />
    <line x1="216" y1="413" x2="216" y2="381" style="stroke:#000000;stroke-width:1" />
    <line x1="216" y1="413" x2="188" y2="430" style="stroke:#000000;stroke-width:1" />
    <line x1="188" y1="430" x2="160" y2="413" style="stroke:#000000;stroke-width:1" />
    <line x1="160" y1="413" x2="160" y2="381" style="stroke:#000000;stroke-width:1" />
    <line x1="160" y1="413" x2="132" y2="430" style="stroke:#000000;stroke-width:1" />
    <line x1="132" y1="430" x2="103" y2="413" style="stroke:#000000;stroke-width:1" />
    <line x1="103" y1="413" x2="103" y2="381" style="stroke:#000000;stroke-width:1" />
    <line x1="103" y1="413" x2="75" y2="430" style="stroke:#000000;stroke-width:1" />
    <line x1="132" y1="430" x2="132" y2="462" style="stroke:#000000;stroke-width:1" />
    <line x1="160" y1="478" x2="188" y2="462" style="stroke:#000000;stroke-width:1" />
    <line x1="188" y1="462" x2="188" y2="430" style="stroke:#000000;stroke-width:1" />
    <line x1="188" y1="462" x2="216" y2="478" style="stroke:#000000;stroke-width:1" />
    <line x1="75" y1="365" x2="103" y2="381" style="stroke:#000000;stroke-width:1" />
    <line x1="103" y1="381" x2="132" y2="365" style="stroke:#000000;stroke-width:1" />
    <line x1="132" y1="365" x2="160" y2="381" style="stroke:#000000;stroke-width:1" />
    <line x1="160" y1="381" x2="188" y2="365" style="stroke:#000000;stroke-width:1" />
    <line x1="188" y1="365" x2="188" y2="332" style="stroke:#000000;stroke-width:1" />
    <line x1="188" y1="332" x2="188" y2="300" style="stroke:#000000;stroke-width:1" />
    <line x1="188" y1="300" x2="188" y2="268" style="stroke:#000000;stroke-width:1" />
    <line x1="188" y1="268" x2="188" y2="235" style="stroke:#000000;stroke-width:1" />
    <line x1="188" y1="235" x2="160" y2="219" style="stroke:#000000;stroke-width:1" />
    <line x1="160" y1="219" x2="160" y2="187" style="stroke:#000000;stroke-width:1" />
    <line x1="160" y1="187" x2="132" y2="170" style="stroke:#000000;stroke-width:1" />
    <line x1="132" y1="170" x2="132" y2="138" style="stroke:#000000;stroke-width:1" />
    <line x1="132" y1="138" x2="103" y2="154" style="stroke:#000000;stroke-width:1" />
    <line x1="103" y1="154" x2="75" y2="170" style="stroke:#000000;stroke-width:1" />
    <line x1="75" y1="170" x2="75" y2="203" style="stroke:#000000;stroke-width:1" />
    <line x1="75" y1="203" x2="75" y2="235" style="stroke:#000000;stroke-width:1" />
    <line x1="75" y1="235" x2="75" y2="268" style="stroke:#000000;stroke-width:1" />
    <line x1="75" y1="268" x2="75" y2="300" style="stroke:#000000;stroke-width:1" />
    <line x1="75" y1="300" x2="75" y2="332" style="stroke:#000000;stroke-width:1" />
    <line x1="75" y1="332" x2="75" y2="365" style="stroke:#000000;stroke-width:1" />
    <line x1="75" y1="332" x2="103" y2="316" style="stroke:#000000;stroke-width:1" />
    <line x1="103" y1="316" x2="132" y2="332" style="stroke:#000000;stroke-width:1" />
    <line x1="132" y1="332" x2="132" y2="365" style="stroke:#000000;stroke-width:1" />
    <line x1="132" y1="332" x2="160" y2="316" style="stroke:#000000;stroke-width:1" />
    <line x1="160" y1="316" x2="188" y2="332" style="stroke:#000000;stroke-width:1" />
    <line x1="160" y1="316" x2="160" y2="284" style="stroke:#000000;stroke-width:1" />
    <line x1="160" y1="284" x2="188" y2="268" style="stroke:#000000;stroke-width:1" />
    <line x1="160" y1="284" x2="132" y2="268" style="stroke:#000000;stroke-width:1" />
    <line x1="132" y1="268" x2="132" y2="235" style="stroke:#000000;stroke-width:1" />
    <line x1="132" y1="235" x2="160" y2="219" style="stroke:#000000;stroke-width:1" />
    <line x1="132" y1="235" x2="103" y2="219" style="stroke:#000000;stroke-width:1" />
    <line x1="103" y1="219" x2="103" y2="187" style="stroke:#000000;stroke-width:1" />
    <line x1="103" y1="187" x2="132" y2="170" style="stroke:#000000;stroke-width:1" />
    <line x1="103" y1="187" x2="75" y2="170" style="stroke:#000000;stroke-width:1" />
    <line x1="103" y1="219" x2="75" y2="235" style="stroke:#000000;stroke-width:1" />
    <line x1="75" y1="268" x2="103" y2="284" style="stroke:#000000;stroke-width:1" />
    <line x1="103" y1="284" x2="132" y2="268" style="stroke:#000000;stroke-width:1" />
    <line x1="103" y1="284" x2="103" y2="316" style="stroke:#000000;stroke-width:1" />
    <line x1="132" y1="138" x2="132" y2="170" style="stroke:#000000;stroke-width:1" />
    <line x1="132" y1="170" x2="160" y2="187" style="stroke:#000000;stroke-width:1" />
    <line x1="160" y1="187" x2="160" y2="219" style="stroke:#000000;stroke-width:1" />
    <line x1="160" y1="219" x2="188" y2="235" style="stroke:#000000;stroke-width:1" />
    <line x1="188" y1="235" x2="216" y2="219" style="stroke:#000000;stroke-width:1" />
    <line x1="216" y1="219" x2="244" y2="203" style="stroke:#000000;stroke-width:1" />
    <line x1="244" y1="203" x2="272" y2="187" style="stroke:#000000;stroke-width:1" />
    <line x1="272" y1="187" x2="300" y2="170" style="stroke:#000000;stroke-width:1" />
    <line x1="300" y1="170" x2="300" y2="138" style="stroke:#000000;stroke-width:1" />
    <line x1="300" y1="138" x2="328" y2="122" style="stroke:#000000;stroke-width:1" />
    <line x1="328" y1="122" x2="328" y2="89" style="stroke:#000000;stroke-width:1" />
    <line x1="328" y1="89" x2="356" y2="73" style="stroke:#000000;stroke-width:1" />
    <line x1="356" y1="73" x2="328" y2="57" style="stroke:#000000;stroke-width:1" />
    <line x1="328" y1="57" x2="300" y2="41" style="stroke:#000000;stroke-width:1" />
    <line x1="300" y1="41" x2="272" y2="57" style="stroke:#000000;stroke-width:1" />
    <line x1="272" y1="57" x2="244" y2="73" style="stroke:#000000;stroke-width:1" />
    <line x1="244" y1="73" x2="216" y2="89" style="stroke:#000000;stroke-width:1" />
    <line x1="216" y1="89" x2="188" y2="105" style="stroke:#000000;stroke-width:1" />
    <line x1="188" y1="105" x2="160" y2="122" style="stroke:#000000;stroke-width:1" />
    <line x1="160" y1="122" x2="132" y2="138" style="stroke:#000000;stroke-width:1" />
    <line x1="160" y1="122" x2="188" y2="138" style="stroke:#000000;stroke-width:1" />
    <line x1="188" y1="138" x2="188" y2="170" style="stroke:#000000;stroke-width:1" />
    <line x1="188" y1="170" x2="160" y2="187" style="stroke:#000000;stroke-width:1" />
    <line x1="188" y1="170" x2="216" y2="187" style="stroke:#000000;stroke-width:1" />
    <line x1="216" y1="187" x2="216" y2="219" style="stroke:#000000;stroke-width:1" />
    <line x1="216" y1="187" x2="244" y2="170" style="stroke:#000000;stroke-width:1" />
    <line x1="244" y1="170" x2="272" y2="187" style="stroke:#000000;stroke-width:1" />
    <line x1="244" y1="170" x2="244" y2="138" style="stroke:#000000;stroke-width:1" />
    <line x1="244" y1="138" x2="272" y2="122" style="stroke:#000000;stroke-width:1" />
    <line x1="272" y1="122" x2="300" y2="138" style="stroke:#000000;stroke-width:1" />
    <line x1="272" y1="122" x2="272" y2="89" style="stroke:#000000;stroke-width:1" />
    <line x1="272" y1="89" x2="300" y2="73" style="stroke:#000000;stroke-width:1" />
    <line x1="300" y1="73" x2="328" y2="89" style="stroke:#000000;stroke-width:1" />
    <line x1="300" y1="73" x2="300" y2="41" style="stroke:#000000;stroke-width:1" />
    <line x1="272" y1="89" x2="244" y2="73" style="stroke:#000000;stroke-width:1" />
    <line x1="216" y1="89" x2="216" y2="122" style="stroke:#000000;stroke-width:1" />
    <line x1="216" y1="122" x2="244" y2="138" style="stroke:#000000;stroke-width:1" />
    <line x1="216" y1="122" x2="188" y2="138" style="stroke:#000000;stroke-width:1" />
    <line x1="356" y1="73" x2="328" y2="89" style="stroke:#000000;stroke-width:1" />
    <line x1="328" y1="89" x2="328" y2="122" style="stroke:#000000;stroke-width:1" />
    <line x1="328" y1="122" x2="300" y2="138" style="stroke:#000000;stroke-width:1" />
    <line x1="300" y1="138" x2="300" y2="170" style="stroke:#000000;stroke-width:1" />
    <line x1="300" y1="170" x2="328" y2="187" style="stroke:#000000;stroke-width:1" />
    <line x1="328" y1="187" x2="356" y2="203" style="stroke:#000000;stroke-width:1" />
    <line x1="356" y1="203" x2="384" y2="219" style="stroke:#000000;stroke-width:1" />
    <line x1="384" y1="219" x2="412" y2="235" style="stroke:#000000;stroke-width:1" />
    <line x1="412" y1="235" x2="440" y2="219" style="stroke:#000000;stroke-width:1" />
    <line x1="440" y1="219" x2="468" y2="235" style="stroke:#000000;stroke-width:1" />
    <line x1="468" y1="235" x2="497" y2="219" style="stroke:#000000;stroke-width:1" />
    <line x1="497" y1="219" x2="525" y2="235" style="stroke:#000000;stroke-width:1" />
    <line x1="525" y1="235" x2="525" y2="203" style="stroke:#000000;stroke-width:1" />
    <line x1="525" y1="203" x2="525" y2="170" style="stroke:#000000;stroke-width:1" />
    <line x1="525" y1="170" x2="497" y2="154" style="stroke:#000000;stroke-width:1" />
    <line x1="497" y1="154" x2="468" y2="138" style="stroke:#000000;stroke-width:1" />
    <line x1="468" y1="138" x2="440" y2="122" style="stroke:#000000;stroke-width:1" />
    <line x1="440" y1="122" x2="412" y2="105" style="stroke:#000000;stroke-width:1" />
    <line x1="412" y1="105" x2="384" y2="89" style="stroke:#000000;stroke-width:1" />
    <line x1="384" y1="89" x2="356" y2="73" style="stroke:#000000;stroke-width:1" />
    <line x1="384" y1="89" x2="384" y2="122" style="stroke:#000000;stroke-width:1" />
    <line x1="384" y1="122" x2="356" y2="138" style="stroke:#000000;stroke-width:1" />
    <line x1="356" y1="138" x2="328" y2="122" style="stroke:#000000;stroke-width:1" />
    <line x1="356" y1="138" x2="356" y2="170" style="stroke:#000000;stroke-width:1" />
    <line x1="356" y1="170" x2="328" y2="187" style="stroke:#000000;stroke-width:1" />
    <line x1="356" y1="170" x2="384" y2="187" style="stroke:#000000;stroke-width:1" />
    <line x1="384" y1="187" x2="384" y2="219" style="stroke:#000000;stroke-width:1" />
    <line x1="384" y1="187" x2="412" y2="170" style="stroke:#000000;stroke-width:1" />
    <line x1="412" y1="170" x2="440" y2="187" style="stroke:#000000;stroke-width:1" />
    <line x1="440" y1="187" x2="440" y2="219" style="stroke:#000000;stroke-width:1" />
    <line x1="440" y1="187" x2="468" y2="170" style="stroke:#000000;stroke-width:1" />
    <line x1="468" y1="170" x2="497" y2="187" style="stroke:#000000;stroke-width:1" />
    <line x1="497" y1="187" x2="497" y2="219" style="stroke:#000000;stroke-width:1" />
    <line x1="497" y1="187" x2="525" y2="170" style="stroke:#000000;stroke-width:1" />
    <line x1="468" y1="170" x2="468" y2="138" style="stroke:#000000;stroke-width:1" />
    <line x1="440" y1="122" x2="412" y2="138" style="stroke:#000000;stroke-width:1" />
    <line x1="412" y1="138" x2="412" y2="170" style="stroke:#000000;stroke-width:1" />
    <line x1="412" y1="138" x2="384" y2="122" style="stroke:#000000;stroke-width:1" />
    <line x1="525" y1="235" x2="497" y2="219" style="stroke:#000000;stroke-width:1" />
    <line x1="497" y1="219" x2="468" y2="235" style="stroke:#000000;stroke-width:1" />
    <line x1="468" y1="235" x2="440" y2="219" style="stroke:#000000;stroke-width:1" />
    <line x1="440" y1="219" x2="412" y2="235" style="stroke:#000000;stroke-width:1" />
    <line x1="412" y1="235" x2="412" y2="268" style="stroke:#000000;stroke-width:1" />
    <line x1="412" y1="268" x2="412" y2="300" style="stroke:#000000;stroke-width:1" />
    <line x1="412" y1="300" x2="412" y2="332" style="stroke:#000000;stroke-width:1" />
    <line x1="412" y1="332" x2="412" y2="365" style="stroke:#000000;stroke-width:1" />
    <line x1="412" y1="365" x2="440" y2="381" style="stroke:#000000;stroke-width:1" />
    <line x1="440" y1="381" x2="440" y2="413" style="stroke:#000000;stroke-width:1" />
    <line x1="440" y1="413" x2="468" y2="430" style="stroke:#000000;stroke-width:1" />
    <line x1="468" y1="430" x2="468" y2="462" style="stroke:#000000;stroke-width:1" />
    <line x1="468" y1="462" x2="497" y2="446" style="stroke:#000000;stroke-width:1" />
    <line x1="497" y1="446" x2="525" y2="430" style="stroke:#000000;stroke-width:1" />
    <line x1="525" y1="430" x2="525" y2="397" style="stroke:#000000;stroke-width:1" />
    <line x1="525" y1="397" x2="525" y2="365" style="stroke:#000000;stroke-width:1" />
    <line x1="525" y1="365" x2="525" y2="332" style="stroke:#000000;stroke-width:1" />
    <line x1="525" y1="332" x2="525" y2="300" style="stroke:#000000;stroke-width:1" />
    <line x1="525" y1="300" x2="525" y2="268" style="stroke:#000000;stroke-width:1" />
    <line x1="525" y1="268" x2="525" y2="235" style="stroke:#000000;stroke-width:1" />
    <line x1="525" y1="268" x2="497" y2="284" style="stroke:#000000;stroke-width:1" />
    <line x1="497" y1="284" x2="468" y2="268" style="stroke:#000000;stroke-width:1" />
    <line x1="468" y1="268" x2="468" y2="235" style="stroke:#000000;stroke-width:1" />
    <line x1="468" y1="268" x2="440" y2="284" style="stroke:#000000;stroke-width:1" />
    <line x1="440" y1="284" x2="412" y2="268" style="stroke:#000000;stroke-width:1" />
    <line x1="440" y1="284" x2="440" y2="316" style="stroke:#000000;stroke-width:1" />
    <line x1="440" y1="316" x2="412" y2="332" style="stroke:#000000;stroke-width:1" />
    <line x1="440" y1="316" x2="468" y2="332" style="stroke:#000000;stroke-width:1" />
    <line x1="468" y1="332" x2="468" y2="365" style="stroke:#000000;stroke-width:1" />
    <line x1="468" y1="365" x2="440" y2="381" style="stroke:#000000;stroke-width:1" />
    <line x1="468" y1="365" x2="497" y2="381" style="stroke:#000000;stroke-width:1" />
    <line x1="497" y1="381" x2="497" y2="413" style="stroke:#000000;stroke-width:1" />
    <line x1="497" y1="413" x2="468" y2="430" style="stroke:#000000;stroke-width:1" />
    <line x1="497" y1="413" x2="525" y2="430" style="stroke:#000000;stroke-width:1" />
    <line x1="497" y1="381" x2="525" y2="365" style="stroke:#000000;stroke-width:1" />
    <line x1="525" y1="332" x2="497" y2="316" style="stroke:#000000;stroke-width:1" />
    <line x1="497" y1="316" x2="468" y2="332" style="stroke:#000000;stroke-width:1" />
    <line x1="497" y1="316" x2="497" y2="284" style="stroke:#000000;stroke-width:1" />
    <line x1="300" y1="268" x2="328" y2="284" style="stroke:#000000;stroke-width:1" />
    <line x1="328" y1="284" x2="328" y2="316" style="stroke:#000000;stroke-width:1" />
    <line x1="328" y1="316" x2="300" y2="332" style="stroke:#000000;stroke-width:1" />
    <line x1="300" y1="332" x2="272" y2="316" style="stroke:#000000;stroke-width:1" />
    <line x1="272" y1="316" x2="272" y2="284" style="stroke:#000000;stroke-width:1" />
    <line x1="272" y1="284" x2="300" y2="268" style="stroke:#000000;stroke-width:1" />
    <line x1="300" y1="268" x2="300" y2="235" style="stroke:#000000;stroke-width:1" />
    <line x1="300" y1="235" x2="356" y2="268" style="stroke:#000000;stroke-width:1" />
    <line x1="356" y1="268" x2="356" y2="332" style="stroke:#000000;stroke-width:1" />
    <line x1="356" y1="332" x2="300" y2="365" style="stroke:#000000;stroke-width:1" />
    <line x1="300" y1="365" x2="244" y2="332" style="stroke:#000000;stroke-width:1" />
    <line x1="244" y1="332" x2="244" y2="268" style="stroke:#000000;stroke-width:1" />
    <line x1="244" y1="268" x2="300" y2="235" style="stroke:#000000;stroke-width:1" />
    <line x1="244" y1="268" x2="272" y2="284" style="stroke:#000000;stroke-width:1" />
    <line x1="272" y1="316" x2="244" y2="332" style="stroke:#000000;stroke-width:1" />
    <line x1="300" y1="332" x2="300" y2="365" style="stroke:#000000;stroke-width:1" />
    <line x1="328" y1="316" x2="356" y2="332" style="stroke:#000000;stroke-width:1" />
    <line x1="328" y1="284" x2="356" y2="268" style="stroke:#000000;stroke-width:1" />
  <path d="M418.42277748683034 145.66843165684662           A194.5306845075002 194.5306845075002 0 0 1 492.86644753448434 325.39134951874036" fill = "none" stroke = "#000000" stroke-width = "12" />
  <path d="M492.86644753448434 325.39134951874036           A194.5306845075002 194.5306845075002 0 0 1 479.72291786188157 374.4436700476752" fill = "none" stroke = "#000000" stroke-width = "12" />
  <path d="M374.4436700476676 120.2770821381234           A194.5306845075002 194.5306845075002 0 0 1 418.4227774868348 145.66843165685" fill = "none" stroke = "#000000" stroke-width = "12" />
  <path d="M374.4436700476463 479.7229178619016           A194.5306845075002 194.5306845075002 0 0 1 181.57722251315568 454.3315683431674" fill = "none" stroke = "#000000" stroke-width = "12" />
  <path d="M181.57722251315568 454.3315683431674           A194.5306845075002 194.5306845075002 0 0 1 145.66843165682295 418.4227774868311" fill = "none" stroke = "#000000" stroke-width = "12" />
  <path d="M418.42277748681215 454.3315683431835           A194.5306845075002 194.5306845075002 0 0 1 374.44367004764126 479.7229178619036" fill = "none" stroke = "#000000" stroke-width = "12" />
  <path d="M107.13355246550489 274.6086504812724           A194.5306845075002 194.5306845075002 0 0 1 225.55632995234558 120.27708213811329" fill = "none" stroke = "#000000" stroke-width = "12" />
  <path d="M225.55632995234558 120.27708213811329           A194.5306845075002 194.5306845075002 0 0 1 274.60865048128176 107.13355246551555" fill = "none" stroke = "#000000" stroke-width = "12" />
  <path d="M107.133552465501 325.3913495187142           A194.5306845075002 194.5306845075002 0 0 1 107.1335524655056 274.6086504812669" fill = "none" stroke = "#000000" stroke-width = "12" />
	<path d = "M300 73 L328 89 L328 122 L300 138 L272 122 L272 89 L300 73 Z" stroke = "#000000" stroke-width = "12" fill = "none" />	<path d = "M132 365 L160 381 L160 413 L132 430 L103 413 L103 381 L132 365 Z" stroke = "#000000" stroke-width = "12" fill = "none" />	<path d = "M468 365 L497 381 L497 413 L468 430 L440 413 L440 381 L468 365 Z" stroke = "#000000" stroke-width = "12" fill = "none" /></svg>